<?xml version="1.0" encoding="utf-8"?>
<!-- Generator: Adobe Illustrator 23.1.1, SVG Export Plug-In . SVG Version: 6.00 Build 0)  -->
<svg version="1.1" id="Calque_1" xmlns="http://www.w3.org/2000/svg" xmlns:xlink="http://www.w3.org/1999/xlink" x="0px" y="0px"
	 viewBox="0 0 171.17 74.18" style="enable-background:new 0 0 171.17 74.18;" xml:space="preserve">
<style type="text/css">
	.st0{fill:#FFFFFF;}
	.st1{fill:#5AA86F;}
	.st2{fill:#485175;}
	.st3{fill:#F7E8D3;}
	.st4{fill:#F1573F;}
	.st5{fill:#2D302F;}
	.st6{fill:#FFFFFF;stroke:#000000;stroke-miterlimit:10;}
	.st7{fill:#E7F4EC;}
	.st8{fill:#547146;}
	.st9{fill:#BCCBBC;}
	.st10{fill:#EAE9DC;}
	.st11{fill:#275E39;}
	.st12{fill:#050008;}
	.st13{clip-path:url(#SVGID_2_);}
	.st14{stroke:#000000;stroke-width:1.7036;stroke-miterlimit:10;}
	.st15{fill:#F9F8F4;}
	.st16{fill:#148B20;stroke:#1C881F;stroke-miterlimit:10;}
	.st17{fill:#148B20;stroke:#148B20;stroke-miterlimit:10;}
	.st18{stroke:#000000;stroke-miterlimit:10;}
	.st19{fill:#148B20;}
	.st20{enable-background:new    ;}
	.st21{fill:#F8F7F3;}
	.st22{fill:#1C8B20;stroke:#1C8B20;}
</style>
<g>
	<path id="Tracé_125" class="st19" d="M0,0l2.49,74.18h168.68V52.17h-20.82l2.33-22.46h-34.02l3.61-26.2L0,0z"/>
	<g class="st20">
		<path class="st21" d="M16.14,8.81h-6.8v3.28h6.41v1.94H9.34v3.29h6.98v1.98H6.84V6.83h9.31V8.81z"/>
		<path class="st21" d="M20.34,10.47v0.86c0.34-0.37,0.76-0.64,1.27-0.8c0.51-0.16,1-0.24,1.49-0.24c1.37,0,2.45,0.26,3.26,0.77
			c0.8,0.52,1.21,1.34,1.21,2.48v5.76h-2.38v-5.65c0-0.26-0.06-0.5-0.19-0.71c-0.13-0.21-0.3-0.39-0.51-0.53
			c-0.22-0.14-0.47-0.25-0.76-0.33s-0.59-0.12-0.92-0.12c-0.7,0-1.27,0.17-1.71,0.5c-0.44,0.34-0.67,0.8-0.67,1.4v5.44h-2.38v-8.84
			H20.34z"/>
		<path class="st21" d="M44.94,8.8h-6.46v3.37h6.17v1.93h-6.17v5.22h-2.56V6.83h9.02V8.8z"/>
		<path class="st21" d="M48.94,6.83v12.47h-2.38V6.83H48.94z"/>
		<path class="st21" d="M51.24,13.01c0.04-0.37,0.16-0.72,0.36-1.05s0.49-0.62,0.85-0.86s0.81-0.44,1.32-0.58
			c0.52-0.14,1.1-0.22,1.76-0.22c0.8,0,1.48,0.09,2.02,0.26s0.97,0.42,1.3,0.75s0.56,0.71,0.7,1.17s0.21,0.96,0.21,1.51v4.01
			c0,0.28,0.01,0.5,0.02,0.68s0.03,0.31,0.05,0.4c0.02,0.12,0.05,0.2,0.07,0.23h-2.12c-0.02-0.05-0.05-0.13-0.07-0.23
			c-0.02-0.1-0.04-0.22-0.05-0.38c-0.01-0.16-0.02-0.37-0.02-0.65c-0.12,0.22-0.29,0.41-0.5,0.58s-0.44,0.32-0.69,0.45
			s-0.52,0.22-0.81,0.3c-0.29,0.07-0.58,0.11-0.86,0.11c-0.5,0-1-0.05-1.48-0.15c-0.49-0.1-0.92-0.26-1.31-0.48s-0.71-0.5-0.95-0.85
			c-0.24-0.35-0.36-0.78-0.36-1.29c0-0.47,0.12-0.87,0.37-1.21c0.25-0.34,0.56-0.63,0.94-0.86c0.38-0.23,0.82-0.4,1.31-0.51
			c0.49-0.11,0.96-0.18,1.43-0.19l2.7-0.09v-0.4c0-0.5-0.17-0.88-0.5-1.12s-0.79-0.37-1.4-0.37c-0.52,0-0.95,0.1-1.3,0.29
			c-0.35,0.19-0.55,0.45-0.58,0.77L51.24,13.01z M57.45,15.47l-2.59,0.09c-0.6,0.02-1.05,0.14-1.34,0.35
			c-0.29,0.21-0.44,0.49-0.44,0.84c0,0.28,0.17,0.51,0.5,0.69c0.34,0.19,0.77,0.28,1.3,0.28c0.37,0,0.72-0.05,1.04-0.16
			c0.32-0.11,0.59-0.26,0.82-0.45c0.23-0.19,0.41-0.41,0.53-0.65s0.19-0.5,0.19-0.77V15.47z"/>
		<path class="st21" d="M64.07,10.47v0.86c0.34-0.37,0.76-0.64,1.27-0.8c0.51-0.16,1-0.24,1.48-0.24c1.37,0,2.45,0.26,3.26,0.77
			c0.8,0.52,1.21,1.34,1.21,2.48v5.76h-2.38v-5.65c0-0.26-0.06-0.5-0.19-0.71s-0.3-0.39-0.51-0.53c-0.22-0.14-0.47-0.25-0.76-0.33
			c-0.29-0.08-0.59-0.12-0.92-0.12c-0.7,0-1.27,0.17-1.71,0.5c-0.44,0.34-0.67,0.8-0.67,1.4v5.44h-2.38v-8.84H64.07z"/>
		<path class="st21" d="M80.53,18.3c-0.18,0.23-0.41,0.43-0.68,0.59c-0.24,0.16-0.54,0.29-0.9,0.41c-0.36,0.12-0.79,0.18-1.3,0.18
			c-1.49,0-2.65-0.4-3.49-1.2s-1.26-1.94-1.26-3.41c0-0.68,0.1-1.31,0.3-1.86s0.5-1.04,0.92-1.45c0.41-0.41,0.94-0.72,1.57-0.94
			c0.63-0.22,1.38-0.33,2.26-0.33c0.19,0,0.4,0.02,0.63,0.07c0.23,0.05,0.46,0.11,0.68,0.2c0.23,0.08,0.44,0.19,0.65,0.32
			s0.38,0.27,0.52,0.42V6.83h2.34v12.47h-2.23V18.3z M77.93,11.96c-0.47,0-0.87,0.08-1.2,0.24c-0.33,0.16-0.6,0.38-0.82,0.66
			c-0.22,0.28-0.37,0.59-0.47,0.95c-0.1,0.35-0.14,0.72-0.14,1.09s0.05,0.73,0.14,1.08c0.1,0.35,0.25,0.65,0.47,0.92
			c0.22,0.26,0.49,0.48,0.82,0.64c0.33,0.16,0.73,0.24,1.2,0.24c0.43,0,0.81-0.08,1.12-0.24c0.32-0.16,0.58-0.37,0.78-0.62
			c0.2-0.25,0.36-0.53,0.46-0.85c0.1-0.31,0.15-0.62,0.15-0.94v-0.38c-0.01-0.36-0.07-0.71-0.18-1.04
			c-0.11-0.34-0.26-0.63-0.47-0.89c-0.2-0.26-0.46-0.46-0.77-0.62C78.72,12.04,78.35,11.96,77.93,11.96z"/>
		<path class="st21" d="M89.6,12.02c-0.8,0-1.41,0.2-1.83,0.6c-0.41,0.4-0.62,1.04-0.62,1.92v4.77h-2.38v-8.84h2.3v0.68
			c0.3-0.31,0.67-0.53,1.12-0.67c0.44-0.13,0.91-0.2,1.4-0.2c0.17,0,0.39,0,0.67,0.01c0.28,0.01,0.53,0.03,0.77,0.08v1.8
			c-0.12-0.02-0.25-0.05-0.39-0.07c-0.14-0.02-0.27-0.04-0.41-0.05s-0.25-0.02-0.37-0.03C89.76,12.02,89.67,12.02,89.6,12.02z"/>
		<path class="st21" d="M101.78,16.37c-0.14,0.58-0.36,1.06-0.65,1.46c-0.29,0.4-0.64,0.72-1.05,0.96s-0.88,0.42-1.4,0.53
			c-0.52,0.11-1.08,0.16-1.67,0.16c-0.89,0-1.65-0.12-2.29-0.35c-0.64-0.23-1.17-0.55-1.58-0.96s-0.72-0.89-0.92-1.45
			c-0.2-0.56-0.3-1.17-0.3-1.83c0-0.78,0.12-1.46,0.37-2.03c0.25-0.58,0.59-1.05,1.03-1.43c0.44-0.38,0.97-0.66,1.59-0.85
			c0.62-0.19,1.31-0.28,2.07-0.28c0.72,0,1.38,0.1,1.97,0.29s1.1,0.48,1.52,0.85c0.42,0.38,0.74,0.85,0.97,1.42
			c0.23,0.57,0.34,1.23,0.34,1.99v0.63h-7.42c0.04,0.31,0.11,0.61,0.22,0.88c0.11,0.28,0.27,0.52,0.48,0.73
			c0.21,0.21,0.47,0.38,0.79,0.5c0.32,0.12,0.7,0.18,1.16,0.18c1.24,0,2-0.47,2.29-1.4H101.78z M99.28,13.85
			c-0.02-0.25-0.1-0.49-0.22-0.72c-0.12-0.23-0.28-0.43-0.48-0.6c-0.2-0.17-0.43-0.31-0.7-0.41c-0.27-0.1-0.57-0.15-0.91-0.15
			c-0.4,0-0.75,0.05-1.05,0.16c-0.31,0.11-0.57,0.25-0.78,0.42c-0.22,0.17-0.38,0.38-0.5,0.6c-0.12,0.23-0.2,0.46-0.23,0.7H99.28z"
			/>
		<path class="st21" d="M106.3,21.22h-1.85l0.45-1.91h-0.67v-2.38h2.86v2.09L106.3,21.22z"/>
	</g>
	<g class="st20">
		<path class="st21" d="M17.27,41.26h-1.89v2.05h-2.52v-2.05H6.22v-1.51l6.64-8.69h2.52v8.19h1.89V41.26z M12.87,39.24v-4.63
			l-3.49,4.63H12.87z"/>
		<path class="st21" d="M21.81,45.22h-1.85l0.45-1.91h-0.67v-2.38h2.86v2.09L21.81,45.22z"/>
		<path class="st21" d="M25.48,34.29c0-1.14,0.4-2,1.2-2.59c0.8-0.59,1.94-0.88,3.43-0.88c1.45,0,2.56,0.31,3.32,0.93
			c0.76,0.62,1.14,1.49,1.14,2.62c0,0.73-0.17,1.35-0.5,1.85s-0.74,0.93-1.23,1.3c-0.49,0.37-1.03,0.69-1.61,0.97
			s-1.12,0.56-1.61,0.83c-0.49,0.27-0.9,0.57-1.23,0.89s-0.5,0.71-0.5,1.15h6.79v1.96h-9.52v-1.62c0-0.72,0.18-1.34,0.53-1.85
			c0.35-0.52,0.8-0.97,1.34-1.37c0.54-0.4,1.12-0.75,1.74-1.05c0.62-0.31,1.2-0.61,1.74-0.91s0.99-0.62,1.34-0.95
			c0.35-0.34,0.53-0.73,0.53-1.19c0-0.52-0.19-0.93-0.56-1.23c-0.37-0.31-0.93-0.46-1.67-0.46c-0.29,0-0.57,0.04-0.84,0.11
			c-0.27,0.07-0.51,0.18-0.72,0.32c-0.21,0.14-0.38,0.32-0.5,0.51c-0.12,0.2-0.18,0.42-0.18,0.68H25.48z"/>
		<path class="st21" d="M36.77,33.93c0-0.38,0.04-0.77,0.13-1.15c0.09-0.38,0.25-0.73,0.48-1.04c0.23-0.31,0.53-0.55,0.92-0.74
			c0.38-0.19,0.86-0.28,1.44-0.28s1.05,0.1,1.43,0.29c0.38,0.19,0.68,0.44,0.9,0.76c0.22,0.31,0.38,0.66,0.46,1.04
			c0.08,0.38,0.13,0.77,0.13,1.17c0,2.36-0.97,3.55-2.92,3.55c-0.97,0-1.71-0.29-2.21-0.87C37.02,36.07,36.77,35.17,36.77,33.93z
			 M38.66,34c0,0.18,0.01,0.38,0.04,0.6c0.02,0.22,0.08,0.43,0.15,0.62c0.08,0.19,0.19,0.35,0.32,0.48
			c0.14,0.13,0.33,0.19,0.57,0.19c0.23,0,0.41-0.06,0.54-0.19c0.13-0.13,0.23-0.28,0.31-0.48c0.07-0.19,0.12-0.4,0.14-0.62
			c0.02-0.22,0.03-0.42,0.03-0.6c0-0.17-0.01-0.35-0.04-0.55c-0.02-0.2-0.07-0.38-0.14-0.54c-0.07-0.16-0.17-0.3-0.31-0.41
			c-0.13-0.11-0.31-0.16-0.52-0.16c-0.24,0-0.43,0.05-0.57,0.16c-0.14,0.11-0.25,0.24-0.32,0.41c-0.08,0.16-0.13,0.34-0.15,0.54
			C38.67,33.65,38.66,33.83,38.66,34z M50.05,30.74l-9.04,13.48l-1.87-0.85l9.04-13.43L50.05,30.74z M46.69,39.83
			c0-0.38,0.04-0.77,0.13-1.15s0.25-0.73,0.48-1.04c0.23-0.31,0.53-0.55,0.92-0.74c0.38-0.19,0.86-0.28,1.44-0.28
			s1.05,0.1,1.43,0.29c0.38,0.19,0.68,0.44,0.9,0.76c0.22,0.31,0.38,0.66,0.46,1.04s0.13,0.77,0.13,1.17c0,1.2-0.25,2.09-0.74,2.67
			s-1.22,0.87-2.18,0.87c-0.97,0-1.71-0.29-2.21-0.87S46.69,41.07,46.69,39.83z M48.58,39.9c0,0.18,0.01,0.38,0.04,0.6
			c0.02,0.22,0.08,0.43,0.15,0.62c0.08,0.19,0.19,0.35,0.32,0.48c0.14,0.13,0.33,0.19,0.57,0.19c0.23,0,0.41-0.06,0.54-0.19
			s0.23-0.29,0.31-0.48c0.07-0.19,0.12-0.4,0.14-0.62c0.02-0.22,0.03-0.42,0.03-0.6c0-0.17-0.01-0.35-0.04-0.55
			s-0.08-0.38-0.15-0.54c-0.07-0.16-0.17-0.3-0.31-0.41c-0.13-0.11-0.3-0.16-0.5-0.16c-0.24,0-0.43,0.05-0.57,0.16
			c-0.14,0.11-0.25,0.24-0.32,0.41c-0.08,0.16-0.13,0.34-0.15,0.54C48.59,39.55,48.58,39.74,48.58,39.9z"/>
		<path class="st21" d="M67.15,42.3c-0.18,0.23-0.41,0.43-0.68,0.59c-0.24,0.16-0.54,0.29-0.9,0.41c-0.36,0.12-0.79,0.18-1.3,0.18
			c-1.49,0-2.65-0.4-3.49-1.2c-0.84-0.8-1.26-1.94-1.26-3.41c0-0.68,0.1-1.31,0.3-1.86c0.2-0.56,0.5-1.04,0.92-1.45
			c0.41-0.41,0.94-0.72,1.57-0.94c0.63-0.22,1.38-0.33,2.26-0.33c0.19,0,0.4,0.02,0.63,0.07c0.23,0.05,0.46,0.11,0.68,0.2
			c0.23,0.08,0.44,0.19,0.65,0.32c0.2,0.13,0.38,0.27,0.52,0.42v-4.46h2.34v12.47h-2.23V42.3z M64.56,35.96
			c-0.47,0-0.87,0.08-1.2,0.24c-0.33,0.16-0.6,0.38-0.82,0.66c-0.22,0.28-0.37,0.59-0.47,0.95c-0.1,0.35-0.14,0.72-0.14,1.09
			s0.05,0.73,0.14,1.08c0.1,0.35,0.25,0.65,0.47,0.92c0.22,0.26,0.49,0.48,0.82,0.64c0.33,0.16,0.73,0.24,1.2,0.24
			c0.43,0,0.81-0.08,1.12-0.24c0.32-0.16,0.58-0.37,0.78-0.62c0.2-0.25,0.36-0.53,0.46-0.85c0.1-0.31,0.15-0.62,0.15-0.94v-0.38
			c-0.01-0.36-0.07-0.71-0.18-1.04c-0.11-0.34-0.26-0.63-0.47-0.89c-0.2-0.26-0.46-0.46-0.77-0.62
			C65.35,36.04,64.98,35.96,64.56,35.96z"/>
		<path class="st21" d="M80.94,40.37c-0.14,0.58-0.36,1.06-0.65,1.46c-0.29,0.4-0.64,0.72-1.05,0.96s-0.88,0.42-1.4,0.53
			c-0.52,0.11-1.08,0.16-1.67,0.16c-0.89,0-1.65-0.12-2.29-0.35c-0.64-0.23-1.17-0.55-1.58-0.96s-0.72-0.89-0.92-1.45
			s-0.3-1.17-0.3-1.83c0-0.78,0.12-1.46,0.37-2.03c0.25-0.58,0.59-1.05,1.03-1.43s0.97-0.66,1.59-0.85
			c0.62-0.19,1.31-0.28,2.07-0.28c0.72,0,1.38,0.1,1.97,0.29c0.59,0.19,1.1,0.48,1.52,0.85c0.42,0.38,0.74,0.85,0.97,1.42
			c0.23,0.57,0.34,1.23,0.34,1.99v0.63h-7.42c0.04,0.31,0.11,0.61,0.22,0.88c0.11,0.28,0.27,0.52,0.48,0.73s0.47,0.38,0.79,0.5
			c0.32,0.12,0.71,0.18,1.16,0.18c1.24,0,2-0.47,2.29-1.4H80.94z M78.44,37.85c-0.02-0.25-0.1-0.49-0.22-0.72s-0.28-0.43-0.48-0.6
			c-0.2-0.17-0.43-0.31-0.7-0.41c-0.27-0.1-0.57-0.15-0.91-0.15c-0.4,0-0.75,0.05-1.05,0.16c-0.31,0.11-0.57,0.25-0.78,0.42
			s-0.38,0.38-0.5,0.6c-0.12,0.23-0.2,0.46-0.23,0.7H78.44z"/>
		<path class="st21" d="M84.63,40.82c0.05,0.31,0.25,0.55,0.62,0.71c0.37,0.16,0.79,0.24,1.27,0.24c0.2,0,0.41-0.01,0.61-0.04
			c0.2-0.03,0.39-0.09,0.56-0.17c0.17-0.08,0.31-0.19,0.41-0.33c0.11-0.14,0.16-0.31,0.16-0.51c0-0.17-0.05-0.31-0.16-0.42
			c-0.11-0.11-0.26-0.21-0.45-0.28c-0.19-0.07-0.41-0.13-0.66-0.18s-0.51-0.09-0.8-0.13c-0.46-0.07-0.91-0.15-1.36-0.23
			s-0.86-0.22-1.22-0.4c-0.37-0.18-0.66-0.43-0.89-0.76c-0.23-0.32-0.34-0.76-0.34-1.3c0-0.48,0.11-0.89,0.32-1.23
			c0.22-0.34,0.5-0.62,0.86-0.85c0.36-0.22,0.78-0.38,1.26-0.49c0.48-0.1,0.99-0.15,1.53-0.15c0.55,0,1.06,0.06,1.53,0.17
			c0.47,0.11,0.87,0.28,1.22,0.5c0.34,0.22,0.61,0.48,0.81,0.8c0.2,0.32,0.3,0.69,0.3,1.11h-2.23c-0.02-0.13-0.09-0.25-0.19-0.37
			s-0.23-0.21-0.38-0.29s-0.32-0.14-0.5-0.19c-0.19-0.05-0.38-0.07-0.57-0.07c-0.42,0-0.79,0.08-1.12,0.23
			c-0.33,0.16-0.5,0.37-0.5,0.65c0,0.19,0.06,0.35,0.18,0.48c0.12,0.13,0.28,0.23,0.5,0.32c0.21,0.08,0.45,0.15,0.72,0.2
			c0.27,0.05,0.55,0.09,0.84,0.13c0.44,0.06,0.88,0.13,1.32,0.22c0.44,0.09,0.83,0.23,1.18,0.42c0.35,0.19,0.63,0.46,0.85,0.79
			c0.22,0.34,0.32,0.78,0.32,1.33c0,0.52-0.12,0.95-0.37,1.31c-0.25,0.35-0.57,0.64-0.96,0.85c-0.4,0.22-0.84,0.37-1.32,0.46
			c-0.49,0.09-0.97,0.13-1.45,0.13c-0.59,0-1.14-0.05-1.67-0.15c-0.52-0.1-0.98-0.26-1.38-0.48c-0.4-0.22-0.71-0.49-0.95-0.83
			s-0.36-0.74-0.37-1.21H84.63z"/>
		<path class="st21" d="M107.69,40.09c-0.17,1.09-0.66,1.93-1.48,2.52c-0.82,0.59-1.92,0.88-3.29,0.88c-1.67,0-2.92-0.4-3.77-1.2
			c-0.85-0.8-1.27-1.94-1.27-3.41c0-0.68,0.1-1.31,0.3-1.86s0.5-1.04,0.92-1.44c0.41-0.4,0.94-0.71,1.57-0.94
			c0.63-0.22,1.38-0.33,2.26-0.33c0.58,0,1.13,0.07,1.66,0.2c0.53,0.13,1,0.33,1.41,0.58c0.41,0.26,0.76,0.58,1.04,0.95
			c0.28,0.38,0.48,0.81,0.58,1.3h-2.52c-0.17-0.42-0.45-0.76-0.84-1.01s-0.84-0.38-1.34-0.38c-0.47,0-0.87,0.08-1.2,0.24
			c-0.33,0.16-0.6,0.38-0.82,0.66c-0.22,0.28-0.37,0.59-0.47,0.95c-0.1,0.35-0.14,0.72-0.14,1.09s0.05,0.73,0.14,1.08
			c0.1,0.35,0.25,0.65,0.47,0.92c0.22,0.26,0.49,0.48,0.82,0.64c0.33,0.16,0.73,0.24,1.2,0.24c0.66,0,1.18-0.15,1.56-0.46
			c0.38-0.31,0.63-0.72,0.75-1.23H107.69z"/>
		<path class="st21" d="M114.26,34.31c0.86,0,1.61,0.11,2.25,0.33c0.64,0.22,1.16,0.53,1.57,0.94c0.41,0.4,0.71,0.88,0.91,1.44
			s0.3,1.18,0.3,1.86c0,1.48-0.42,2.61-1.25,3.41s-2.09,1.2-3.77,1.2c-1.67,0-2.93-0.4-3.77-1.2s-1.27-1.94-1.27-3.41
			c0-0.68,0.1-1.31,0.3-1.86s0.5-1.04,0.92-1.44c0.41-0.4,0.94-0.71,1.58-0.94C112.64,34.42,113.39,34.31,114.26,34.31z
			 M114.26,35.96c-0.47,0-0.87,0.08-1.2,0.24c-0.33,0.16-0.6,0.38-0.81,0.66c-0.21,0.28-0.36,0.59-0.46,0.95
			c-0.1,0.35-0.14,0.72-0.14,1.09s0.05,0.73,0.14,1.08c0.1,0.35,0.25,0.65,0.46,0.92c0.21,0.26,0.48,0.48,0.81,0.64
			c0.33,0.16,0.73,0.24,1.2,0.24c0.47,0,0.87-0.08,1.2-0.24c0.33-0.16,0.6-0.37,0.81-0.64c0.21-0.26,0.36-0.57,0.46-0.92
			c0.1-0.35,0.14-0.71,0.14-1.08s-0.05-0.73-0.14-1.09c-0.1-0.35-0.25-0.67-0.46-0.95c-0.21-0.28-0.48-0.5-0.81-0.66
			C115.12,36.04,114.73,35.96,114.26,35.96z"/>
		<path class="st21" d="M128.23,43.31l-0.04-0.86c-0.34,0.37-0.76,0.64-1.29,0.8c-0.52,0.16-1.02,0.24-1.5,0.24
			c-1.37,0-2.45-0.26-3.24-0.77s-1.19-1.34-1.19-2.48v-5.76h2.38v5.62c0,0.26,0.06,0.5,0.19,0.71c0.13,0.21,0.3,0.39,0.51,0.53
			c0.22,0.14,0.47,0.26,0.76,0.33c0.29,0.08,0.59,0.12,0.92,0.12c0.7,0,1.27-0.17,1.71-0.5c0.44-0.34,0.67-0.8,0.67-1.4v-5.4h2.38
			v8.84H128.23z"/>
		<path class="st21" d="M137.32,36.02c-0.8,0-1.41,0.2-1.83,0.6c-0.41,0.4-0.62,1.04-0.62,1.92v4.77h-2.38v-8.84h2.3v0.68
			c0.3-0.31,0.67-0.53,1.12-0.67c0.44-0.13,0.91-0.2,1.4-0.2c0.17,0,0.39,0,0.67,0.01s0.53,0.03,0.77,0.08v1.8
			c-0.12-0.02-0.25-0.05-0.39-0.07c-0.14-0.02-0.27-0.04-0.4-0.05c-0.13-0.01-0.25-0.02-0.37-0.03
			C137.48,36.02,137.39,36.02,137.32,36.02z"/>
		<path class="st21" d="M142.07,40.82c0.05,0.31,0.25,0.55,0.62,0.71c0.37,0.16,0.79,0.24,1.27,0.24c0.2,0,0.41-0.01,0.61-0.04
			c0.2-0.03,0.39-0.09,0.56-0.17s0.31-0.19,0.41-0.33c0.11-0.14,0.16-0.31,0.16-0.51c0-0.17-0.05-0.31-0.16-0.42
			c-0.11-0.11-0.26-0.21-0.45-0.28c-0.19-0.07-0.41-0.13-0.66-0.18c-0.25-0.05-0.51-0.09-0.8-0.13c-0.46-0.07-0.91-0.15-1.36-0.23
			s-0.86-0.22-1.22-0.4c-0.37-0.18-0.66-0.43-0.89-0.76c-0.23-0.32-0.34-0.76-0.34-1.3c0-0.48,0.11-0.89,0.32-1.23
			c0.22-0.34,0.5-0.62,0.86-0.85c0.36-0.22,0.78-0.38,1.26-0.49c0.48-0.1,0.99-0.15,1.53-0.15c0.55,0,1.06,0.06,1.53,0.17
			s0.87,0.28,1.21,0.5s0.61,0.48,0.81,0.8c0.2,0.32,0.3,0.69,0.3,1.11h-2.23c-0.02-0.13-0.09-0.25-0.19-0.37
			c-0.1-0.11-0.23-0.21-0.38-0.29c-0.15-0.08-0.32-0.14-0.5-0.19c-0.19-0.05-0.38-0.07-0.57-0.07c-0.42,0-0.79,0.08-1.12,0.23
			c-0.33,0.16-0.5,0.37-0.5,0.65c0,0.19,0.06,0.35,0.18,0.48s0.29,0.23,0.5,0.32s0.45,0.15,0.72,0.2c0.27,0.05,0.55,0.09,0.84,0.13
			c0.44,0.06,0.89,0.13,1.32,0.22c0.44,0.09,0.83,0.23,1.18,0.42c0.35,0.19,0.63,0.46,0.85,0.79s0.32,0.78,0.32,1.33
			c0,0.52-0.12,0.95-0.37,1.31c-0.25,0.35-0.57,0.64-0.96,0.85c-0.4,0.22-0.84,0.37-1.32,0.46s-0.97,0.13-1.45,0.13
			c-0.59,0-1.14-0.05-1.67-0.15c-0.52-0.1-0.98-0.26-1.38-0.48c-0.4-0.22-0.71-0.49-0.95-0.83c-0.23-0.34-0.36-0.74-0.37-1.21
			H142.07z"/>
	</g>
	<g class="st20">
		<path class="st21" d="M11.88,67.31c-0.36,0.06-0.71,0.1-1.05,0.11c-0.34,0.01-0.59,0.02-0.75,0.02c-0.95,0-1.66-0.23-2.13-0.68
			c-0.47-0.46-0.71-1.06-0.71-1.82v-4.72H5.7v-1.75h1.53v-2.59h2.38v2.59h2.41v1.75H9.61v4.59c0,0.29,0.07,0.5,0.21,0.64
			c0.14,0.14,0.37,0.21,0.69,0.21c0.1,0,0.21-0.01,0.34-0.02s0.26-0.02,0.4-0.04c0.13-0.01,0.25-0.02,0.37-0.04
			c0.11-0.01,0.2-0.02,0.26-0.04V67.31z"/>
		<path class="st21" d="M18.23,60.02c-0.8,0-1.41,0.2-1.83,0.6c-0.41,0.4-0.62,1.04-0.62,1.92v4.77H13.4v-8.84h2.3v0.68
			c0.3-0.31,0.67-0.53,1.12-0.67c0.44-0.13,0.91-0.2,1.4-0.2c0.17,0,0.39,0,0.67,0.01s0.53,0.03,0.77,0.08v1.8
			c-0.12-0.02-0.25-0.05-0.39-0.07c-0.14-0.02-0.27-0.04-0.4-0.05c-0.13-0.01-0.25-0.02-0.37-0.03
			C18.39,60.02,18.3,60.02,18.23,60.02z"/>
		<path class="st21" d="M20.84,61.01c0.04-0.37,0.16-0.72,0.36-1.05s0.49-0.62,0.86-0.86c0.37-0.25,0.81-0.44,1.32-0.58
			c0.52-0.14,1.1-0.22,1.76-0.22c0.8,0,1.48,0.09,2.02,0.26s0.97,0.42,1.31,0.75c0.33,0.32,0.56,0.71,0.7,1.17
			c0.14,0.46,0.21,0.96,0.21,1.51v4.01c0,0.28,0.01,0.5,0.02,0.68c0.01,0.17,0.03,0.31,0.05,0.4c0.02,0.12,0.05,0.2,0.07,0.23h-2.12
			c-0.02-0.05-0.05-0.13-0.07-0.23c-0.02-0.1-0.04-0.22-0.05-0.38c-0.01-0.16-0.02-0.37-0.02-0.65c-0.12,0.22-0.29,0.41-0.49,0.58
			c-0.21,0.17-0.44,0.32-0.69,0.45s-0.52,0.22-0.81,0.3c-0.29,0.07-0.58,0.11-0.86,0.11c-0.5,0-1-0.05-1.49-0.15
			c-0.49-0.1-0.92-0.26-1.31-0.48c-0.39-0.22-0.71-0.5-0.95-0.85c-0.24-0.35-0.36-0.78-0.36-1.29c0-0.47,0.12-0.87,0.37-1.21
			c0.25-0.34,0.56-0.63,0.95-0.86c0.38-0.23,0.82-0.4,1.3-0.51s0.96-0.18,1.43-0.19l2.7-0.09v-0.4c0-0.5-0.17-0.88-0.5-1.12
			s-0.79-0.37-1.39-0.37c-0.52,0-0.95,0.1-1.3,0.29c-0.35,0.19-0.55,0.45-0.58,0.77L20.84,61.01z M27.05,63.47l-2.59,0.09
			c-0.6,0.02-1.05,0.14-1.34,0.35s-0.44,0.49-0.44,0.84c0,0.28,0.17,0.51,0.5,0.69c0.34,0.19,0.77,0.28,1.3,0.28
			c0.37,0,0.72-0.05,1.04-0.16c0.32-0.11,0.59-0.26,0.82-0.45c0.23-0.19,0.41-0.41,0.53-0.65s0.19-0.5,0.19-0.77V63.47z"/>
		<path class="st21" d="M31.46,56.78v-2.14h2.5v2.14H31.46z M31.51,67.31v-8.84h2.38v8.84H31.51z"/>
		<path class="st21" d="M41.39,67.31c-0.36,0.06-0.71,0.1-1.05,0.11c-0.34,0.01-0.59,0.02-0.75,0.02c-0.95,0-1.66-0.23-2.13-0.68
			c-0.47-0.46-0.71-1.06-0.71-1.82v-4.72h-1.53v-1.75h1.53v-2.59h2.38v2.59h2.41v1.75h-2.41v4.59c0,0.29,0.07,0.5,0.21,0.64
			c0.14,0.14,0.37,0.21,0.69,0.21c0.1,0,0.21-0.01,0.34-0.02s0.26-0.02,0.4-0.04c0.13-0.01,0.25-0.02,0.37-0.04
			c0.11-0.01,0.2-0.02,0.26-0.04V67.31z"/>
		<path class="st21" d="M52.46,64.37c-0.14,0.58-0.36,1.06-0.65,1.46c-0.29,0.4-0.64,0.72-1.05,0.96s-0.88,0.42-1.4,0.53
			c-0.52,0.11-1.08,0.16-1.67,0.16c-0.89,0-1.65-0.12-2.29-0.35c-0.64-0.23-1.17-0.55-1.58-0.96s-0.72-0.89-0.92-1.45
			c-0.2-0.56-0.3-1.17-0.3-1.83c0-0.78,0.12-1.46,0.37-2.03c0.25-0.58,0.59-1.05,1.03-1.43c0.44-0.38,0.97-0.66,1.59-0.85
			c0.62-0.19,1.31-0.28,2.07-0.28c0.72,0,1.38,0.1,1.97,0.29s1.1,0.48,1.52,0.85c0.42,0.38,0.74,0.85,0.97,1.42
			c0.23,0.57,0.34,1.23,0.34,1.99v0.63h-7.42c0.04,0.31,0.11,0.61,0.22,0.88c0.11,0.28,0.27,0.52,0.48,0.73
			c0.21,0.21,0.47,0.38,0.79,0.5c0.32,0.12,0.7,0.18,1.16,0.18c1.24,0,2-0.47,2.29-1.4H52.46z M49.96,61.85
			c-0.02-0.25-0.1-0.49-0.22-0.72c-0.12-0.23-0.28-0.43-0.48-0.6c-0.2-0.17-0.43-0.31-0.7-0.41c-0.27-0.1-0.57-0.15-0.91-0.15
			c-0.4,0-0.75,0.05-1.05,0.16c-0.31,0.11-0.57,0.25-0.78,0.42c-0.22,0.17-0.38,0.38-0.5,0.6c-0.12,0.23-0.2,0.46-0.23,0.7H49.96z"
			/>
		<path class="st21" d="M56.62,58.47v0.86c0.34-0.37,0.76-0.64,1.27-0.8c0.51-0.16,1-0.24,1.49-0.24c1.37,0,2.45,0.26,3.26,0.77
			c0.8,0.52,1.21,1.34,1.21,2.48v5.76h-2.38v-5.65c0-0.26-0.06-0.5-0.19-0.71c-0.13-0.21-0.3-0.39-0.51-0.53
			c-0.22-0.14-0.47-0.25-0.76-0.33s-0.59-0.12-0.92-0.12c-0.7,0-1.27,0.17-1.71,0.5c-0.44,0.34-0.67,0.8-0.67,1.4v5.44h-2.38v-8.84
			H56.62z"/>
		<path class="st21" d="M71.2,67.31c-0.36,0.06-0.71,0.1-1.05,0.11c-0.34,0.01-0.59,0.02-0.75,0.02c-0.95,0-1.66-0.23-2.13-0.68
			c-0.47-0.46-0.71-1.06-0.71-1.82v-4.72h-1.53v-1.75h1.53v-2.59h2.38v2.59h2.41v1.75h-2.41v4.59c0,0.29,0.07,0.5,0.21,0.64
			c0.14,0.14,0.37,0.21,0.69,0.21c0.1,0,0.21-0.01,0.34-0.02s0.26-0.02,0.4-0.04c0.13-0.01,0.25-0.02,0.37-0.04
			c0.11-0.01,0.2-0.02,0.26-0.04V67.31z"/>
		<path class="st21" d="M86,66.3c-0.18,0.23-0.41,0.43-0.68,0.59c-0.24,0.16-0.54,0.29-0.9,0.41c-0.36,0.12-0.79,0.18-1.3,0.18
			c-1.49,0-2.65-0.4-3.49-1.2c-0.84-0.8-1.26-1.94-1.26-3.41c0-0.68,0.1-1.31,0.3-1.86c0.2-0.56,0.5-1.04,0.92-1.45
			c0.41-0.41,0.94-0.72,1.57-0.94c0.63-0.22,1.38-0.33,2.26-0.33c0.19,0,0.4,0.02,0.63,0.07c0.23,0.05,0.46,0.11,0.68,0.2
			c0.23,0.08,0.44,0.19,0.65,0.32c0.2,0.13,0.38,0.27,0.52,0.42v-4.46h2.34v12.47H86V66.3z M83.41,59.96c-0.47,0-0.87,0.08-1.2,0.24
			c-0.33,0.16-0.6,0.38-0.82,0.66c-0.22,0.28-0.37,0.59-0.47,0.95c-0.1,0.35-0.14,0.72-0.14,1.09s0.05,0.73,0.14,1.08
			c0.1,0.35,0.25,0.65,0.47,0.92c0.22,0.26,0.49,0.48,0.82,0.64c0.33,0.16,0.73,0.24,1.2,0.24c0.43,0,0.81-0.08,1.12-0.24
			c0.32-0.16,0.58-0.37,0.78-0.62c0.2-0.25,0.36-0.53,0.46-0.85c0.1-0.31,0.15-0.62,0.15-0.94v-0.38c-0.01-0.36-0.07-0.71-0.18-1.04
			c-0.11-0.34-0.26-0.63-0.47-0.89c-0.2-0.26-0.46-0.46-0.77-0.62C84.19,60.04,83.83,59.96,83.41,59.96z"/>
		<path class="st21" d="M97.5,67.31l-0.04-0.86c-0.34,0.37-0.77,0.64-1.29,0.8c-0.52,0.16-1.02,0.24-1.5,0.24
			c-1.37,0-2.45-0.26-3.24-0.77s-1.19-1.34-1.19-2.48v-5.76h2.38v5.62c0,0.26,0.06,0.5,0.19,0.71s0.3,0.39,0.51,0.53
			c0.22,0.14,0.47,0.26,0.76,0.33c0.29,0.08,0.59,0.12,0.92,0.12c0.7,0,1.27-0.17,1.71-0.5c0.44-0.34,0.67-0.8,0.67-1.4v-5.4h2.38
			v8.84H97.5z"/>
		<path class="st21" d="M117.25,64.09c-0.17,1.09-0.66,1.93-1.48,2.52c-0.82,0.59-1.92,0.88-3.29,0.88c-1.67,0-2.92-0.4-3.77-1.2
			c-0.85-0.8-1.27-1.94-1.27-3.41c0-0.68,0.1-1.31,0.3-1.86s0.5-1.04,0.92-1.44c0.41-0.4,0.94-0.71,1.57-0.94
			c0.63-0.22,1.38-0.33,2.26-0.33c0.58,0,1.13,0.07,1.66,0.2c0.53,0.13,1,0.33,1.41,0.58c0.41,0.26,0.76,0.58,1.04,0.95
			c0.28,0.38,0.48,0.81,0.58,1.3h-2.52c-0.17-0.42-0.45-0.76-0.84-1.01s-0.84-0.38-1.34-0.38c-0.47,0-0.87,0.08-1.2,0.24
			c-0.33,0.16-0.6,0.38-0.82,0.66c-0.22,0.28-0.37,0.59-0.47,0.95c-0.1,0.35-0.14,0.72-0.14,1.09s0.05,0.73,0.14,1.08
			c0.1,0.35,0.25,0.65,0.47,0.92c0.22,0.26,0.49,0.48,0.82,0.64c0.33,0.16,0.73,0.24,1.2,0.24c0.66,0,1.18-0.15,1.56-0.46
			c0.38-0.31,0.63-0.72,0.75-1.23H117.25z"/>
		<path class="st21" d="M121.33,54.83v12.47h-2.38V54.83H121.33z"/>
		<path class="st21" d="M123.49,56.78v-2.14h2.5v2.14H123.49z M123.55,67.31v-8.84h2.38v8.84H123.55z"/>
		<path class="st21" d="M132.87,58.29c0.44,0,0.83,0.02,1.15,0.07c0.32,0.05,0.61,0.11,0.85,0.2c0.24,0.08,0.45,0.19,0.62,0.32
			c0.17,0.13,0.33,0.27,0.48,0.42c0.37-0.32,0.81-0.57,1.31-0.75s1.09-0.26,1.75-0.26c1.43,0,2.46,0.26,3.09,0.77
			c0.63,0.52,0.94,1.34,0.94,2.48v5.76h-2.38v-5.65c0-0.59-0.16-1.02-0.48-1.29c-0.32-0.27-0.8-0.4-1.45-0.4
			c-0.65,0-1.14,0.16-1.49,0.48c-0.34,0.32-0.51,0.79-0.51,1.43v5.44h-2.38v-5.65c0-0.59-0.16-1.02-0.49-1.29
			c-0.32-0.27-0.81-0.4-1.46-0.4c-1.32,0-1.98,0.64-1.98,1.91v5.44h-2.38v-8.84h2.3v0.83c0.13-0.14,0.29-0.28,0.48-0.41
			c0.19-0.13,0.39-0.23,0.61-0.32c0.22-0.09,0.45-0.16,0.69-0.21C132.41,58.31,132.64,58.29,132.87,58.29z"/>
		<path class="st21" d="M145.29,61.01c0.04-0.37,0.16-0.72,0.36-1.05s0.49-0.62,0.86-0.86c0.37-0.25,0.81-0.44,1.32-0.58
			c0.52-0.14,1.1-0.22,1.76-0.22c0.8,0,1.48,0.09,2.02,0.26s0.97,0.42,1.31,0.75c0.33,0.32,0.56,0.71,0.7,1.17
			c0.14,0.46,0.21,0.96,0.21,1.51v4.01c0,0.28,0.01,0.5,0.02,0.68c0.01,0.17,0.03,0.31,0.05,0.4c0.02,0.12,0.05,0.2,0.07,0.23h-2.12
			c-0.02-0.05-0.05-0.13-0.07-0.23c-0.02-0.1-0.04-0.22-0.05-0.38c-0.01-0.16-0.02-0.37-0.02-0.65c-0.12,0.22-0.29,0.41-0.49,0.58
			c-0.21,0.17-0.44,0.32-0.69,0.45s-0.52,0.22-0.81,0.3c-0.29,0.07-0.58,0.11-0.86,0.11c-0.5,0-1-0.05-1.49-0.15
			c-0.49-0.1-0.92-0.26-1.31-0.48c-0.39-0.22-0.71-0.5-0.95-0.85c-0.24-0.35-0.36-0.78-0.36-1.29c0-0.47,0.12-0.87,0.37-1.21
			c0.25-0.34,0.56-0.63,0.95-0.86c0.38-0.23,0.82-0.4,1.3-0.51s0.96-0.18,1.43-0.19l2.7-0.09v-0.4c0-0.5-0.17-0.88-0.5-1.12
			s-0.79-0.37-1.39-0.37c-0.52,0-0.95,0.1-1.3,0.29c-0.35,0.19-0.55,0.45-0.58,0.77L145.29,61.01z M151.5,63.47l-2.59,0.09
			c-0.6,0.02-1.05,0.14-1.34,0.35s-0.44,0.49-0.44,0.84c0,0.28,0.17,0.51,0.5,0.69c0.34,0.19,0.77,0.28,1.3,0.28
			c0.37,0,0.72-0.05,1.04-0.16c0.32-0.11,0.59-0.26,0.82-0.45c0.23-0.19,0.41-0.41,0.53-0.65s0.19-0.5,0.19-0.77V63.47z"/>
		<path class="st21" d="M161.18,67.31c-0.36,0.06-0.71,0.1-1.05,0.11c-0.34,0.01-0.59,0.02-0.75,0.02c-0.95,0-1.66-0.23-2.13-0.68
			c-0.47-0.46-0.71-1.06-0.71-1.82v-4.72h-1.53v-1.75h1.53v-2.59h2.38v2.59h2.41v1.75h-2.41v4.59c0,0.29,0.07,0.5,0.21,0.64
			c0.14,0.14,0.37,0.21,0.69,0.21c0.1,0,0.21-0.01,0.34-0.02s0.26-0.02,0.4-0.04c0.13-0.01,0.25-0.02,0.37-0.04
			c0.11-0.01,0.2-0.02,0.26-0.04V67.31z"/>
		<path class="st21" d="M166.31,67.31h-2.84v-2.38h2.84V67.31z"/>
	</g>
</g>
</svg>
