<?xml version="1.0" encoding="utf-8"?>
<!-- Generator: Adobe Illustrator 23.1.1, SVG Export Plug-In . SVG Version: 6.00 Build 0)  -->
<svg version="1.1" id="Calque_1" xmlns="http://www.w3.org/2000/svg" xmlns:xlink="http://www.w3.org/1999/xlink" x="0px" y="0px"
	 viewBox="0 0 347.9 107.7" style="enable-background:new 0 0 347.9 107.7;" xml:space="preserve">
<style type="text/css">
	.st0{fill:#FFFFFF;}
	.st1{fill:#5AA86F;}
	.st2{fill:#485175;}
	.st3{fill:#F7E8D3;}
	.st4{fill:#F1573F;}
	.st5{fill:#2D302F;}
	.st6{fill:#FFFFFF;stroke:#000000;stroke-miterlimit:10;}
	.st7{fill:#E7F4EC;}
	.st8{fill:#547146;}
	.st9{fill:#BCCBBC;}
	.st10{fill:#EAE9DC;}
	.st11{fill:#275E39;}
	.st12{fill:#050008;}
	.st13{clip-path:url(#SVGID_2_);}
	.st14{stroke:#000000;stroke-width:1.7036;stroke-miterlimit:10;}
	.st15{fill:#F9F8F4;}
	.st16{fill:#148B20;stroke:#1C881F;stroke-miterlimit:10;}
	.st17{fill:#148B20;stroke:#148B20;stroke-miterlimit:10;}
	.st18{stroke:#000000;stroke-miterlimit:10;}
	.st19{fill:#148B20;}
	.st20{enable-background:new    ;}
	.st21{fill:#F8F7F3;}
	.st22{fill:#1C8B20;stroke:#1C8B20;}
	.st23{fill:#048D14;}
	.st24{fill:none;stroke:#000000;stroke-width:5;stroke-linecap:round;stroke-linejoin:round;}
	.st25{stroke:#000000;stroke-width:4.669952e-03;stroke-miterlimit:10;}
	.st26{stroke:#000000;stroke-width:0.096;stroke-miterlimit:10;}
	.st27{stroke:#000000;stroke-width:0.0566;stroke-miterlimit:10;}
	.st28{stroke:#000000;stroke-width:0.0902;stroke-miterlimit:10;}
	.st29{stroke:#000000;stroke-width:0.0884;stroke-miterlimit:10;}
	.st30{stroke:#000000;stroke-width:0.167;stroke-miterlimit:10;}
	.st31{stroke:#000000;stroke-width:0.0762;stroke-miterlimit:10;}
	.st32{stroke:#000000;stroke-width:0.0219;stroke-miterlimit:10;}
	.st33{stroke:#000000;stroke-width:0.0543;stroke-miterlimit:10;}
	.st34{stroke:#000000;stroke-width:0.0601;stroke-miterlimit:10;}
	.st35{stroke:#000000;stroke-width:0.0782;stroke-miterlimit:10;}
	.st36{stroke:#000000;stroke-width:0.3088;stroke-miterlimit:10;}
	.st37{stroke:#000000;stroke-width:0.1976;stroke-miterlimit:10;}
	.st38{stroke:#000000;stroke-width:0.2875;stroke-miterlimit:10;}
	.st39{stroke:#000000;stroke-width:0.059;stroke-miterlimit:10;}
	.st40{stroke:#000000;stroke-width:0.2493;stroke-miterlimit:10;}
	.st41{stroke:#000000;stroke-width:0.5508;stroke-miterlimit:10;}
	.st42{stroke:#000000;stroke-width:0.676;stroke-miterlimit:10;}
	.st43{stroke:#000000;stroke-width:0.4515;stroke-miterlimit:10;}
	.st44{stroke:#000000;stroke-width:1.704;stroke-miterlimit:10;}
	.st45{stroke:#000000;stroke-width:0.7242;stroke-miterlimit:10;}
	.st46{stroke:#000000;stroke-width:0.5092;stroke-miterlimit:10;}
	.st47{stroke:#000000;stroke-width:0.2393;stroke-miterlimit:10;}
	.st48{stroke:#000000;stroke-width:0.2452;stroke-miterlimit:10;}
	.st49{stroke:#000000;stroke-width:0.203;stroke-miterlimit:10;}
	.st50{stroke:#000000;stroke-width:0.432;stroke-miterlimit:10;}
	.st51{stroke:#000000;stroke-width:0.4818;stroke-miterlimit:10;}
	.st52{stroke:#000000;stroke-width:0.3236;stroke-miterlimit:10;}
	.st53{stroke:#000000;stroke-width:0.1401;stroke-miterlimit:10;}
	.st54{stroke:#000000;stroke-width:0.106;stroke-miterlimit:10;}
	.st55{fill:#148B20;stroke:#148B20;stroke-width:2;}
</style>
<g id="Groupe_147" transform="translate(-7.324 -6204.056)">
	<path id="Tracé_141" class="st55" d="M8.48,6205.07l15.33,105.69h330.42V6209.7L8.48,6205.07z"/>
	<g class="st20">
		<path class="st0" d="M32.45,6261.36c0-0.4,0.05-0.79,0.14-1.19c0.09-0.39,0.26-0.74,0.49-1.05c0.23-0.31,0.54-0.56,0.92-0.75
			s0.88-0.29,1.47-0.29c0.59,0,1.08,0.1,1.47,0.3s0.7,0.46,0.92,0.78s0.38,0.68,0.48,1.08c0.09,0.4,0.13,0.81,0.13,1.21
			c0,1.23-0.25,2.14-0.76,2.75c-0.51,0.6-1.26,0.91-2.25,0.91c-0.99,0-1.75-0.31-2.26-0.92
			C32.7,6263.58,32.45,6262.63,32.45,6261.36z M33.52,6261.46c0.01,0.27,0.03,0.57,0.06,0.9c0.04,0.33,0.12,0.63,0.25,0.92
			c0.13,0.29,0.32,0.53,0.58,0.72s0.61,0.29,1.06,0.29c0.44,0,0.79-0.1,1.04-0.29c0.26-0.2,0.45-0.44,0.58-0.73
			c0.13-0.29,0.22-0.59,0.25-0.92c0.04-0.33,0.05-0.62,0.05-0.89c0-0.27-0.03-0.56-0.08-0.87c-0.05-0.3-0.14-0.58-0.29-0.83
			c-0.14-0.25-0.34-0.46-0.59-0.62c-0.25-0.16-0.58-0.24-0.99-0.24c-0.43,0-0.77,0.08-1.03,0.25c-0.26,0.17-0.45,0.38-0.59,0.63
			c-0.14,0.25-0.23,0.53-0.27,0.83C33.54,6260.91,33.52,6261.19,33.52,6261.46z"/>
		<path class="st0" d="M39.4,6263.03c0-0.18,0.03-0.36,0.09-0.53c0.06-0.17,0.14-0.33,0.25-0.49c0.11-0.15,0.24-0.28,0.4-0.4
			c0.16-0.12,0.33-0.21,0.53-0.28c-0.34-0.17-0.59-0.38-0.76-0.63c-0.17-0.26-0.25-0.54-0.25-0.84c0-0.31,0.07-0.58,0.22-0.81
			c0.15-0.24,0.34-0.43,0.59-0.59c0.25-0.16,0.53-0.28,0.84-0.36s0.64-0.12,0.97-0.12c0.35,0,0.69,0.04,1,0.13s0.59,0.22,0.82,0.38
			s0.42,0.36,0.55,0.6s0.21,0.5,0.21,0.78c0,0.33-0.09,0.61-0.26,0.86c-0.18,0.25-0.42,0.45-0.75,0.61c0.41,0.15,0.72,0.39,0.94,0.7
			c0.22,0.31,0.32,0.64,0.32,0.99c0,0.35-0.07,0.66-0.22,0.92c-0.15,0.26-0.36,0.48-0.62,0.65c-0.26,0.17-0.56,0.3-0.91,0.38
			c-0.34,0.08-0.7,0.12-1.08,0.12c-0.41,0-0.79-0.04-1.14-0.13s-0.65-0.22-0.91-0.39c-0.26-0.17-0.46-0.39-0.6-0.65
			C39.47,6263.68,39.4,6263.38,39.4,6263.03z M40.44,6263.01c0,0.24,0.05,0.44,0.15,0.61s0.23,0.3,0.39,0.4
			c0.16,0.1,0.36,0.18,0.58,0.23s0.46,0.07,0.71,0.07c0.27,0,0.51-0.02,0.73-0.07c0.22-0.05,0.41-0.13,0.56-0.24
			c0.16-0.11,0.28-0.24,0.37-0.41c0.09-0.16,0.13-0.36,0.13-0.58c0-0.4-0.16-0.71-0.48-0.94c-0.32-0.23-0.76-0.35-1.31-0.35
			c-0.57,0-1.01,0.12-1.34,0.35C40.6,6262.3,40.44,6262.61,40.44,6263.01z M43.84,6259.86c0-0.36-0.14-0.64-0.43-0.83
			c-0.29-0.2-0.67-0.29-1.14-0.29c-0.48,0-0.87,0.1-1.16,0.29c-0.29,0.2-0.44,0.47-0.44,0.83c0,0.4,0.14,0.68,0.42,0.86
			c0.28,0.18,0.67,0.26,1.17,0.26c0.49,0,0.87-0.09,1.15-0.26C43.7,6260.54,43.84,6260.25,43.84,6259.86z"/>
		<path class="st0" d="M48.37,6258.17v6.83h-1.04v-5.01h-1.86v-0.56c0.25,0,0.49-0.03,0.72-0.08c0.23-0.05,0.43-0.13,0.6-0.23
			c0.17-0.1,0.31-0.22,0.42-0.37s0.16-0.31,0.16-0.49v-0.09H48.37z"/>
		<path class="st0" d="M54.61,6257.41l-3.99,9.35h-0.86l4-9.35H54.61z"/>
		<path class="st0" d="M54.94,6264.25c0-0.41,0.11-0.77,0.32-1.07c0.21-0.3,0.47-0.56,0.79-0.78c0.32-0.23,0.66-0.43,1.03-0.61
			c0.37-0.18,0.71-0.35,1.03-0.54c0.32-0.18,0.58-0.37,0.79-0.58c0.21-0.21,0.32-0.45,0.32-0.74c0-0.37-0.14-0.64-0.41-0.82
			c-0.27-0.18-0.66-0.27-1.17-0.27c-0.53,0-0.91,0.1-1.15,0.3c-0.24,0.2-0.36,0.48-0.38,0.84h-1c0.01-0.61,0.23-1.08,0.67-1.42
			s1.06-0.51,1.87-0.51c0.8,0,1.42,0.16,1.87,0.49c0.44,0.33,0.67,0.79,0.67,1.39c0,0.41-0.1,0.75-0.31,1.02
			c-0.2,0.27-0.46,0.51-0.76,0.71s-0.64,0.38-1,0.54c-0.36,0.16-0.69,0.33-1,0.52c-0.31,0.18-0.56,0.39-0.76,0.62
			c-0.2,0.23-0.31,0.52-0.31,0.86h4.2v0.79h-5.29V6264.25z"/>
		<path class="st0" d="M63.84,6261.86v-0.74h0.24c0.31,0,0.58-0.02,0.79-0.06s0.39-0.1,0.52-0.19s0.22-0.21,0.28-0.35
			c0.06-0.14,0.08-0.32,0.08-0.52c0-0.35-0.12-0.62-0.37-0.81s-0.62-0.29-1.14-0.29c-0.51,0-0.91,0.1-1.19,0.29
			c-0.28,0.19-0.42,0.47-0.43,0.83h-1.01c0.02-0.62,0.25-1.09,0.69-1.42s1.07-0.5,1.88-0.5c0.83,0,1.47,0.17,1.92,0.5
			c0.45,0.33,0.68,0.8,0.68,1.41c0,0.36-0.09,0.67-0.28,0.92c-0.19,0.25-0.43,0.44-0.72,0.56c0.37,0.13,0.67,0.33,0.9,0.61
			s0.34,0.62,0.34,1.02c0,0.3-0.07,0.57-0.2,0.82c-0.13,0.25-0.32,0.46-0.57,0.63c-0.24,0.18-0.54,0.31-0.89,0.41
			c-0.35,0.09-0.74,0.14-1.18,0.14c-0.43,0-0.82-0.04-1.17-0.13c-0.34-0.09-0.64-0.22-0.88-0.38s-0.43-0.37-0.56-0.61
			c-0.13-0.24-0.2-0.51-0.21-0.81h1.01c0.01,0.2,0.06,0.37,0.16,0.51s0.22,0.26,0.38,0.36c0.16,0.09,0.35,0.16,0.56,0.21
			c0.22,0.04,0.45,0.06,0.71,0.06c0.58,0,1.03-0.1,1.35-0.3c0.32-0.2,0.47-0.5,0.47-0.9c0-0.83-0.64-1.24-1.93-1.24H63.84z"/>
		<path class="st0" d="M72.95,6263.33c0.01,0.13,0.05,0.25,0.11,0.38s0.15,0.24,0.26,0.34c0.11,0.1,0.26,0.19,0.45,0.25
			c0.18,0.06,0.41,0.1,0.67,0.1c0.61,0,1.08-0.22,1.42-0.66c0.34-0.44,0.51-1.12,0.51-2.04c-0.06,0.11-0.15,0.22-0.27,0.33
			c-0.12,0.11-0.28,0.21-0.46,0.3s-0.38,0.16-0.62,0.22c-0.23,0.06-0.48,0.08-0.75,0.08c-0.45,0-0.83-0.06-1.15-0.19
			c-0.32-0.13-0.58-0.3-0.79-0.51c-0.21-0.21-0.36-0.46-0.46-0.75c-0.1-0.29-0.15-0.59-0.15-0.9c0-0.33,0.07-0.63,0.2-0.92
			s0.31-0.53,0.54-0.74s0.51-0.38,0.83-0.5s0.68-0.18,1.08-0.18c0.54,0,0.99,0.08,1.35,0.25s0.66,0.39,0.88,0.67
			c0.22,0.28,0.38,0.62,0.47,1.01c0.09,0.39,0.14,0.82,0.14,1.28c0,0.59-0.04,1.12-0.13,1.61s-0.23,0.9-0.44,1.24
			c-0.21,0.34-0.48,0.61-0.83,0.8c-0.35,0.19-0.78,0.28-1.31,0.28c-0.51,0-0.93-0.06-1.25-0.17s-0.57-0.26-0.76-0.43
			s-0.32-0.37-0.4-0.58c-0.08-0.21-0.12-0.4-0.14-0.59H72.95z M76.2,6260.22c0-0.21-0.04-0.41-0.13-0.59s-0.21-0.34-0.38-0.47
			c-0.16-0.13-0.35-0.23-0.57-0.31c-0.22-0.07-0.46-0.11-0.71-0.11c-0.26,0-0.49,0.04-0.7,0.12c-0.21,0.08-0.39,0.19-0.54,0.33
			c-0.15,0.14-0.27,0.29-0.34,0.47c-0.08,0.18-0.12,0.36-0.12,0.55c0,0.19,0.03,0.39,0.08,0.59s0.15,0.38,0.29,0.54
			c0.13,0.16,0.31,0.3,0.52,0.4c0.22,0.1,0.49,0.16,0.8,0.16c0.56,0,1-0.15,1.32-0.44C76.04,6261.17,76.2,6260.75,76.2,6260.22z"/>
		<path class="st0" d="M80.53,6261.86v-0.74h0.24c0.31,0,0.58-0.02,0.79-0.06s0.39-0.1,0.52-0.19s0.22-0.21,0.28-0.35
			c0.06-0.14,0.08-0.32,0.08-0.52c0-0.35-0.12-0.62-0.37-0.81s-0.62-0.29-1.14-0.29c-0.51,0-0.91,0.1-1.19,0.29
			c-0.28,0.19-0.42,0.47-0.43,0.83h-1.01c0.02-0.62,0.25-1.09,0.69-1.42s1.07-0.5,1.88-0.5c0.83,0,1.47,0.17,1.92,0.5
			c0.45,0.33,0.68,0.8,0.68,1.41c0,0.36-0.09,0.67-0.28,0.92c-0.19,0.25-0.43,0.44-0.72,0.56c0.37,0.13,0.67,0.33,0.9,0.61
			s0.34,0.62,0.34,1.02c0,0.3-0.07,0.57-0.2,0.82c-0.13,0.25-0.32,0.46-0.57,0.63c-0.24,0.18-0.54,0.31-0.89,0.41
			c-0.35,0.09-0.74,0.14-1.18,0.14c-0.43,0-0.82-0.04-1.17-0.13c-0.34-0.09-0.64-0.22-0.88-0.38s-0.43-0.37-0.56-0.61
			c-0.13-0.24-0.2-0.51-0.21-0.81h1.01c0.01,0.2,0.06,0.37,0.16,0.51s0.22,0.26,0.38,0.36c0.16,0.09,0.35,0.16,0.56,0.21
			c0.22,0.04,0.45,0.06,0.71,0.06c0.58,0,1.03-0.1,1.35-0.3c0.32-0.2,0.47-0.5,0.47-0.9c0-0.83-0.64-1.24-1.93-1.24H80.53z"/>
		<path class="st0" d="M88.48,6261.36c0-0.4,0.05-0.79,0.14-1.19c0.09-0.39,0.25-0.74,0.49-1.05c0.23-0.31,0.54-0.56,0.92-0.75
			s0.88-0.29,1.47-0.29s1.08,0.1,1.47,0.3c0.39,0.2,0.7,0.46,0.93,0.78c0.23,0.32,0.38,0.68,0.47,1.08s0.13,0.81,0.13,1.21
			c0,1.23-0.25,2.14-0.76,2.75s-1.26,0.91-2.25,0.91s-1.75-0.31-2.25-0.92S88.48,6262.63,88.48,6261.36z M89.55,6261.46
			c0.01,0.27,0.03,0.57,0.07,0.9c0.04,0.33,0.12,0.63,0.25,0.92c0.13,0.29,0.32,0.53,0.58,0.72c0.25,0.19,0.61,0.29,1.06,0.29
			c0.44,0,0.79-0.1,1.04-0.29s0.45-0.44,0.58-0.73c0.13-0.29,0.22-0.59,0.25-0.92c0.04-0.33,0.06-0.62,0.06-0.89
			c0-0.27-0.03-0.56-0.08-0.87c-0.05-0.3-0.15-0.58-0.29-0.83s-0.34-0.46-0.59-0.62c-0.25-0.16-0.58-0.24-0.99-0.24
			c-0.43,0-0.77,0.08-1.03,0.25c-0.26,0.17-0.45,0.38-0.59,0.63c-0.14,0.25-0.23,0.53-0.27,0.83
			C89.57,6260.91,89.55,6261.19,89.55,6261.46z"/>
		<path class="st0" d="M95.29,6264.25c0-0.41,0.1-0.77,0.31-1.07c0.21-0.3,0.47-0.56,0.79-0.78s0.66-0.43,1.03-0.61
			s0.71-0.35,1.03-0.54c0.32-0.18,0.58-0.37,0.79-0.58c0.21-0.21,0.31-0.45,0.31-0.74c0-0.37-0.13-0.64-0.41-0.82
			c-0.27-0.18-0.66-0.27-1.17-0.27c-0.53,0-0.91,0.1-1.14,0.3c-0.24,0.2-0.37,0.48-0.38,0.84h-1c0.01-0.61,0.23-1.08,0.67-1.42
			s1.06-0.51,1.86-0.51c0.8,0,1.42,0.16,1.87,0.49c0.44,0.33,0.67,0.79,0.67,1.39c0,0.41-0.1,0.75-0.3,1.02s-0.46,0.51-0.76,0.71
			c-0.31,0.2-0.64,0.38-1,0.54c-0.36,0.16-0.69,0.33-1,0.52c-0.31,0.18-0.56,0.39-0.77,0.62c-0.2,0.23-0.3,0.52-0.3,0.86h4.2v0.79
			h-5.29V6264.25z"/>
	</g>
	<g id="Groupe_134" transform="translate(89 6596.807)">
		<g id="Groupe_130_1_" transform="translate(-57 -376.899)">
			<path id="Tracé_151_1_" class="st0" d="M59.3,0H0.18L0,25.09l60.97-1.85L59.3,0z M14.2,19.88h-3.68v-6.69
				c0-0.6,0-2.57-1.97-2.57c-2.06,0-2.06,1.84-2.06,2.44v6.83H2.81V3.48h3.68v5.23h0.04C7.22,7.65,8.44,7.06,9.7,7.16
				c1.26-0.04,2.47,0.45,3.35,1.35c1.04,1.22,1.15,2.31,1.15,4.5L14.2,19.88z M29.74,19.88h-3.68v-1.33h-0.04
				c-0.79,1.19-2.17,1.86-3.59,1.75c-3.9,0-6.18-3.06-6.18-6.58c-0.19-3.42,2.43-6.36,5.85-6.55c0.11-0.01,0.22-0.01,0.33-0.01
				c1.42-0.1,2.79,0.55,3.59,1.73h0.04V7.58h3.68V19.88z M38.41,20.28c-3.6,0.04-6.54-2.84-6.58-6.44c0-0.05,0-0.09,0-0.14
				c-0.05-3.56,2.8-6.49,6.37-6.54c0.04,0,0.08,0,0.12,0c3.13-0.07,5.87,2.1,6.52,5.16h-3.73c-0.43-1.08-1.5-1.77-2.66-1.73
				c-1.59-0.04-2.9,1.22-2.94,2.81c0,0.11,0,0.21,0.01,0.32c-0.12,1.6,1.08,3,2.68,3.12c0.08,0.01,0.16,0.01,0.24,0.01
				c1.14,0.04,2.18-0.61,2.66-1.64h3.75C44.17,18.2,41.49,20.31,38.41,20.28L38.41,20.28z M58.05,19.88h-4.17l-3.48-5.92h-0.04v5.92
				h-3.68V3.48h3.68v8.55h0.04l3.41-4.45h4.37l-4.63,5.41L58.05,19.88z"/>
			<path id="Tracé_152_1_" class="st0" d="M22.96,10.6c-1.68,0-3.04,1.36-3.04,3.04c0,0.04,0,0.09,0,0.13
				c-0.02,1.69,1.34,3.08,3.03,3.1c0.01,0,0.02,0,0.02,0c1.68,0.03,3.06-1.31,3.08-2.99c0-0.05,0-0.1,0-0.16
				c0.06-1.67-1.25-3.07-2.92-3.12C23.08,10.6,23.02,10.6,22.96,10.6z"/>
		</g>
		<path id="Tracé_153_1_" class="st0" d="M8.11-375.91c0,2.2-1.48,2.68-2.26,2.68h-1.6v-1.97h0.8c0.46,0.06,0.89-0.27,0.95-0.73
			C6-375.96,6-376,6-376.04v-0.75H4.25v-3.77h3.86L8.11-375.91z"/>
		<path id="Tracé_154_1_" class="st0" d="M14.25-369.32h1.77v2.79h-1.77v9.51h-3.68v-9.5H8.75v-2.8h1.82v-4.1h3.68L14.25-369.32z"
			/>
		<path id="Tracé_155_1_" class="st0" d="M29.01-357.02h-3.48v-1.31h-0.04c-0.61,1.17-1.88,1.85-3.19,1.7
			c-1.37,0.04-2.7-0.53-3.61-1.55c-0.87-1.06-1.26-2.43-1.11-3.79v-7.36h3.68v6.8c0,0.84,0,2.46,1.97,2.46
			c1.06,0,2.11-0.55,2.11-2.5v-6.76h3.68V-357.02z"/>
		<g id="Groupe_131_1_" transform="translate(31.1 -375.909)">
			<path id="Tracé_156_1_" class="st0" d="M13.49,18.79H9.82v-1.33H9.77c-0.79,1.19-2.17,1.86-3.59,1.75
				c-3.9,0-6.18-3.06-6.18-6.58c-0.19-3.42,2.43-6.36,5.85-6.55c0.11-0.01,0.22-0.01,0.33-0.01C7.6,5.97,8.97,6.63,9.77,7.8h0.04
				V6.49h3.68V18.79z M6.74,15.78c1.68,0.02,3.06-1.32,3.08-2.99c0-0.05,0-0.1,0-0.15c0.06-1.67-1.25-3.07-2.92-3.12
				c-0.06,0-0.12,0-0.18,0c-1.68,0-3.04,1.36-3.04,3.04c0,0.04,0,0.09,0,0.13c-0.02,1.69,1.34,3.08,3.04,3.1
				C6.72,15.78,6.73,15.78,6.74,15.78L6.74,15.78z"/>
			<path id="Tracé_157_1_" class="st0" d="M16.18,2.39h3.68v16.4h-3.68V2.39z"/>
			<path id="Tracé_158_1_" class="st0" d="M26.2,5.19h-3.68V2.39h3.68V5.19z M26.2,18.79h-3.68V6.49h3.68V18.79z"/>
			<path id="Tracé_159_1_" class="st0" d="M33.27,6.49h1.77v2.79h-1.77v9.51H29.6V9.29h-1.82V6.49h1.82v-4.1h3.68V6.49z"/>
			<path id="Tracé_160_1_" class="st0" d="M48.5,14.93c-0.52,1.26-1.39,2.36-2.5,3.15c-1.02,0.73-2.25,1.12-3.5,1.11
				c-3.6-0.01-6.51-2.92-6.51-6.52c-0.03-3.6,2.85-6.55,6.45-6.6c3.58,0,6.49,2.9,6.49,6.48c0,0.08,0,0.16,0,0.23
				c0,0.33-0.03,0.65-0.09,0.97h-9.22c0.22,1.4,1.47,2.41,2.88,2.33c0.89,0.02,1.74-0.41,2.24-1.15L48.5,14.93z M45.25,11.28
				c-0.3-1.29-1.47-2.17-2.79-2.1c-1.32-0.07-2.5,0.81-2.79,2.1H45.25z M46.18,2.62l-5.45,2.41l-1.04-2.17L45,0L46.18,2.62z"/>
		</g>
	</g>
	<g class="st20">
		<path class="st0" d="M33.56,6270.07v2.66c0.19-0.22,0.45-0.4,0.77-0.54c0.32-0.14,0.67-0.21,1.04-0.21c0.37,0,0.71,0.03,1.01,0.1
			c0.3,0.07,0.56,0.17,0.77,0.31c0.21,0.14,0.37,0.33,0.48,0.55c0.11,0.22,0.17,0.49,0.17,0.8v3.25h-0.95v-3.13
			c0-0.19-0.04-0.37-0.12-0.51c-0.08-0.15-0.2-0.28-0.35-0.39c-0.15-0.11-0.33-0.19-0.53-0.24c-0.2-0.05-0.41-0.08-0.64-0.08
			c-0.49,0-0.88,0.12-1.18,0.36c-0.3,0.24-0.46,0.57-0.46,0.99v3h-0.95v-6.93H33.56z"/>
		<path class="st0" d="M43.02,6277c-0.01-0.04-0.02-0.09-0.03-0.16c-0.02-0.11-0.03-0.29-0.03-0.54c-0.16,0.22-0.4,0.41-0.73,0.57
			c-0.33,0.16-0.71,0.23-1.16,0.23c-0.27,0-0.54-0.03-0.8-0.08c-0.26-0.05-0.5-0.14-0.71-0.25c-0.21-0.12-0.38-0.27-0.51-0.45
			c-0.13-0.18-0.19-0.41-0.19-0.68c0-0.25,0.07-0.46,0.2-0.64c0.13-0.18,0.31-0.33,0.52-0.46s0.45-0.21,0.71-0.28
			c0.26-0.06,0.52-0.1,0.77-0.1l1.85-0.05v-0.42c0-0.38-0.12-0.65-0.36-0.81c-0.24-0.16-0.58-0.23-1.01-0.23
			c-0.45,0-0.78,0.07-0.99,0.21s-0.36,0.36-0.44,0.64h-0.98c0.01-0.19,0.06-0.37,0.17-0.55s0.25-0.35,0.46-0.5s0.45-0.26,0.75-0.35
			c0.3-0.09,0.64-0.13,1.04-0.13c0.44,0,0.81,0.05,1.1,0.14c0.29,0.1,0.53,0.23,0.71,0.41s0.3,0.39,0.38,0.64
			c0.08,0.25,0.12,0.53,0.12,0.83v2.31c0,0.25,0.01,0.42,0.03,0.53c0.01,0.07,0.02,0.12,0.03,0.16H43.02z M42.91,6275.04v-0.29
			l-1.8,0.05c-0.43,0.01-0.75,0.09-0.97,0.22c-0.22,0.13-0.33,0.34-0.33,0.62c0,0.23,0.12,0.42,0.37,0.57
			c0.25,0.15,0.56,0.22,0.94,0.22c0.27,0,0.51-0.04,0.73-0.11c0.22-0.07,0.41-0.17,0.56-0.3c0.16-0.13,0.28-0.27,0.37-0.44
			S42.91,6275.23,42.91,6275.04z"/>
		<path class="st0" d="M49.16,6273.69c-0.11-0.35-0.3-0.61-0.58-0.79c-0.28-0.18-0.61-0.27-1.01-0.27c-0.32,0-0.59,0.05-0.83,0.16
			c-0.23,0.1-0.42,0.24-0.56,0.42c-0.15,0.18-0.25,0.38-0.33,0.61c-0.07,0.23-0.11,0.47-0.11,0.72c0,0.25,0.04,0.49,0.11,0.72
			c0.07,0.23,0.18,0.43,0.33,0.6c0.15,0.17,0.33,0.31,0.56,0.41c0.23,0.1,0.5,0.15,0.83,0.15c0.51,0,0.9-0.11,1.15-0.33
			c0.25-0.22,0.42-0.52,0.49-0.89h1.02c-0.1,0.63-0.38,1.1-0.85,1.42c-0.47,0.32-1.07,0.48-1.81,0.48c-0.93,0-1.62-0.22-2.09-0.67
			c-0.47-0.45-0.7-1.08-0.7-1.9c0-0.38,0.05-0.72,0.17-1.04c0.11-0.31,0.28-0.58,0.51-0.8c0.23-0.23,0.52-0.4,0.87-0.53
			c0.35-0.12,0.77-0.18,1.25-0.18c0.34,0,0.66,0.04,0.95,0.12c0.29,0.08,0.55,0.19,0.79,0.34c0.23,0.15,0.42,0.33,0.58,0.54
			c0.15,0.21,0.26,0.44,0.31,0.71H49.16z"/>
		<path class="st0" d="M53.17,6274.83l-1,0.84v1.33h-0.95v-6.93h0.95v4.55l2.91-2.53h1.24l-2.49,2.12l2.55,2.79h-1.17L53.17,6274.83
			z"/>
		<path class="st0" d="M57.82,6272.74H56.9v-0.65h0.92v-1.44h0.95v1.44h1.45v0.65h-1.45v2.96c0,0.24,0.06,0.42,0.18,0.53
			c0.12,0.11,0.32,0.17,0.61,0.17c0.06,0,0.13,0,0.21-0.01c0.08,0,0.15-0.01,0.21-0.01c0.07-0.01,0.15-0.02,0.23-0.03v0.65
			c-0.07,0.01-0.14,0.02-0.23,0.03c-0.09,0.01-0.17,0.01-0.26,0.02s-0.17,0.01-0.24,0.01c-0.07,0-0.13,0-0.18,0
			c-0.5,0-0.87-0.12-1.12-0.35c-0.24-0.23-0.36-0.55-0.36-0.94V6272.74z"/>
		<path class="st0" d="M65.35,6277v-0.67c-0.19,0.22-0.46,0.41-0.79,0.55c-0.34,0.15-0.69,0.23-1.05,0.23
			c-0.37,0-0.71-0.03-1.01-0.1s-0.56-0.17-0.77-0.31s-0.37-0.33-0.48-0.55c-0.11-0.22-0.17-0.49-0.17-0.8v-3.25h0.95v3.13
			c0,0.19,0.04,0.37,0.12,0.52c0.08,0.15,0.2,0.28,0.35,0.38s0.32,0.19,0.52,0.24c0.2,0.05,0.41,0.08,0.64,0.08
			c0.49,0,0.88-0.12,1.18-0.36c0.3-0.24,0.46-0.57,0.46-0.99v-3h0.95v4.91H65.35z"/>
		<path class="st0" d="M71.49,6277c-0.01-0.04-0.02-0.09-0.03-0.16c-0.02-0.11-0.03-0.29-0.03-0.54c-0.16,0.22-0.4,0.41-0.73,0.57
			c-0.33,0.16-0.71,0.23-1.16,0.23c-0.27,0-0.54-0.03-0.8-0.08c-0.26-0.05-0.5-0.14-0.71-0.25c-0.21-0.12-0.38-0.27-0.51-0.45
			c-0.13-0.18-0.19-0.41-0.19-0.68c0-0.25,0.07-0.46,0.2-0.64c0.13-0.18,0.31-0.33,0.52-0.46s0.45-0.21,0.71-0.28
			c0.26-0.06,0.52-0.1,0.77-0.1l1.85-0.05v-0.42c0-0.38-0.12-0.65-0.36-0.81c-0.24-0.16-0.58-0.23-1.01-0.23
			c-0.45,0-0.78,0.07-0.99,0.21s-0.36,0.36-0.44,0.64h-0.98c0.01-0.19,0.06-0.37,0.17-0.55s0.25-0.35,0.46-0.5s0.45-0.26,0.75-0.35
			c0.3-0.09,0.64-0.13,1.04-0.13c0.44,0,0.81,0.05,1.1,0.14c0.29,0.1,0.53,0.23,0.71,0.41s0.3,0.39,0.38,0.64
			c0.08,0.25,0.12,0.53,0.12,0.83v2.31c0,0.25,0.01,0.42,0.03,0.53c0.01,0.07,0.02,0.12,0.03,0.16H71.49z M71.38,6275.04v-0.29
			l-1.8,0.05c-0.43,0.01-0.75,0.09-0.97,0.22c-0.22,0.13-0.33,0.34-0.33,0.62c0,0.23,0.12,0.42,0.37,0.57
			c0.25,0.15,0.56,0.22,0.94,0.22c0.27,0,0.51-0.04,0.73-0.11c0.22-0.07,0.41-0.17,0.56-0.3c0.16-0.13,0.28-0.27,0.37-0.44
			S71.38,6275.23,71.38,6275.04z"/>
		<path class="st0" d="M74.42,6270.07v6.93h-0.95v-6.93H74.42z"/>
		<path class="st0" d="M75.64,6270.85v-0.89h1.02v0.89H75.64z M75.67,6277v-4.91h0.95v4.91H75.67z"/>
		<path class="st0" d="M78.39,6272.74h-0.92v-0.65h0.92v-1.44h0.95v1.44h1.45v0.65h-1.45v2.96c0,0.24,0.06,0.42,0.17,0.53
			s0.32,0.17,0.62,0.17c0.06,0,0.13,0,0.21-0.01c0.08,0,0.15-0.01,0.21-0.01c0.07-0.01,0.15-0.02,0.23-0.03v0.65
			c-0.07,0.01-0.14,0.02-0.23,0.03c-0.09,0.01-0.17,0.01-0.26,0.02c-0.09,0.01-0.17,0.01-0.24,0.01s-0.13,0-0.18,0
			c-0.5,0-0.87-0.12-1.12-0.35s-0.37-0.55-0.37-0.94V6272.74z"/>
		<path class="st0" d="M86.9,6275.37c-0.16,0.63-0.47,1.08-0.92,1.34c-0.46,0.26-1.03,0.4-1.72,0.4c-0.49,0-0.92-0.07-1.27-0.2
			s-0.64-0.31-0.88-0.54c-0.23-0.23-0.4-0.5-0.51-0.81s-0.17-0.65-0.17-1.02c0-0.43,0.07-0.81,0.2-1.13
			c0.13-0.32,0.32-0.59,0.57-0.8c0.25-0.21,0.54-0.37,0.88-0.47c0.34-0.1,0.72-0.15,1.14-0.15c0.4,0,0.76,0.05,1.08,0.16
			c0.32,0.11,0.6,0.26,0.83,0.47s0.41,0.47,0.54,0.79c0.13,0.32,0.19,0.69,0.19,1.12v0.18H82.4c0.01,0.23,0.06,0.46,0.14,0.67
			c0.08,0.21,0.19,0.39,0.34,0.55c0.15,0.16,0.34,0.29,0.56,0.38c0.23,0.09,0.5,0.14,0.81,0.14c0.43,0,0.78-0.08,1.05-0.25
			s0.48-0.44,0.62-0.83H86.9z M82.4,6274.09h3.48c-0.01-0.19-0.06-0.38-0.15-0.55c-0.08-0.18-0.19-0.33-0.33-0.46
			c-0.14-0.13-0.31-0.23-0.5-0.31c-0.2-0.08-0.42-0.11-0.67-0.11c-0.25,0-0.49,0.04-0.7,0.11c-0.21,0.08-0.4,0.18-0.57,0.31
			s-0.29,0.28-0.4,0.46C82.47,6273.7,82.41,6273.89,82.4,6274.09z"/>
		<path class="st0" d="M93.91,6274.66c0,0.09,0.02,0.17,0.06,0.25s0.09,0.16,0.16,0.22s0.14,0.12,0.22,0.16
			c0.08,0.04,0.17,0.06,0.27,0.06c0.38,0,0.67-0.12,0.86-0.38s0.29-0.65,0.29-1.21c0-0.45-0.09-0.87-0.26-1.25
			c-0.18-0.38-0.42-0.71-0.74-0.98s-0.7-0.49-1.13-0.65c-0.44-0.16-0.92-0.23-1.45-0.23c-0.55,0-1.06,0.09-1.53,0.26
			s-0.87,0.42-1.21,0.71c-0.34,0.3-0.6,0.65-0.78,1.04c-0.19,0.4-0.28,0.82-0.28,1.27c0,0.51,0.1,0.97,0.3,1.36s0.48,0.72,0.83,0.99
			s0.75,0.47,1.21,0.61c0.46,0.14,0.95,0.21,1.46,0.21c0.64,0,1.24-0.14,1.8-0.42l0.35,0.52c-0.71,0.33-1.44,0.49-2.17,0.49
			c-0.67,0-1.29-0.09-1.84-0.28c-0.55-0.19-1.03-0.45-1.42-0.78c-0.4-0.33-0.71-0.72-0.92-1.18s-0.33-0.97-0.33-1.52
			c0-0.55,0.12-1.07,0.36-1.54c0.24-0.47,0.57-0.88,0.98-1.23c0.41-0.34,0.9-0.61,1.45-0.81c0.55-0.2,1.13-0.29,1.75-0.29
			c0.72,0,1.35,0.1,1.88,0.3c0.54,0.2,0.98,0.47,1.34,0.82c0.36,0.34,0.62,0.73,0.8,1.18s0.27,0.91,0.27,1.4
			c0,0.67-0.16,1.19-0.48,1.58c-0.32,0.38-0.8,0.58-1.43,0.6c-0.21,0-0.42-0.05-0.65-0.15s-0.4-0.26-0.52-0.49
			c-0.05,0.09-0.14,0.18-0.25,0.27c-0.11,0.08-0.25,0.16-0.4,0.23s-0.32,0.12-0.49,0.17c-0.17,0.04-0.34,0.06-0.5,0.06
			c-0.22,0-0.44-0.02-0.66-0.06s-0.41-0.11-0.58-0.2c-0.17-0.09-0.31-0.21-0.42-0.37c-0.11-0.15-0.16-0.33-0.16-0.55
			c0-0.2,0.05-0.38,0.17-0.53c0.11-0.15,0.25-0.28,0.42-0.38s0.36-0.18,0.57-0.24c0.21-0.06,0.42-0.09,0.63-0.09l1.47-0.04v-0.3
			c0-0.13-0.03-0.24-0.08-0.34c-0.06-0.1-0.13-0.19-0.24-0.25c-0.1-0.07-0.21-0.12-0.34-0.16c-0.13-0.04-0.27-0.05-0.42-0.05
			c-0.31,0-0.56,0.05-0.74,0.15c-0.18,0.1-0.3,0.27-0.37,0.5h-0.86c0.04-0.25,0.12-0.45,0.23-0.61c0.12-0.16,0.26-0.29,0.44-0.38
			c0.17-0.09,0.37-0.16,0.59-0.2c0.22-0.04,0.46-0.05,0.71-0.05c0.33,0,0.61,0.04,0.84,0.11c0.24,0.08,0.43,0.19,0.58,0.33
			c0.15,0.14,0.26,0.31,0.33,0.5c0.07,0.19,0.11,0.4,0.11,0.62c0,0.02,0,0.04-0.01,0.07c0,0.03-0.01,0.08-0.01,0.16
			c0,0.08-0.01,0.2-0.02,0.35C93.94,6274.16,93.93,6274.38,93.91,6274.66z M93.21,6274.37v-0.24l-1.43,0.07
			c-0.35,0.01-0.6,0.06-0.75,0.16c-0.15,0.09-0.23,0.25-0.23,0.48c0,0.19,0.08,0.34,0.25,0.46s0.41,0.17,0.75,0.17
			c0.43,0,0.78-0.1,1.03-0.3C93.08,6274.96,93.21,6274.7,93.21,6274.37z"/>
		<path class="st0" d="M101.76,6277.09v-0.66c-0.15,0.15-0.3,0.27-0.46,0.36s-0.32,0.16-0.48,0.21c-0.16,0.05-0.3,0.08-0.44,0.09
			c-0.14,0.01-0.26,0.02-0.35,0.02c-0.47,0-0.88-0.06-1.23-0.19c-0.35-0.13-0.63-0.3-0.86-0.53s-0.4-0.5-0.51-0.81
			c-0.11-0.32-0.17-0.66-0.17-1.04c0-0.81,0.24-1.43,0.72-1.88c0.48-0.44,1.16-0.67,2.05-0.67c0.39,0,0.73,0.05,1.03,0.17
			c0.3,0.11,0.54,0.28,0.74,0.5v-0.57h0.93v5.03c0,0.31-0.06,0.59-0.19,0.83c-0.13,0.24-0.3,0.45-0.54,0.62
			c-0.23,0.17-0.5,0.3-0.81,0.39s-0.66,0.13-1.03,0.13c-0.83,0-1.46-0.12-1.88-0.35s-0.69-0.64-0.79-1.21h0.99
			c0.07,0.28,0.23,0.5,0.47,0.66c0.24,0.16,0.6,0.23,1.08,0.23c0.24,0,0.47-0.03,0.68-0.08c0.21-0.06,0.4-0.14,0.56-0.25
			s0.29-0.25,0.38-0.42S101.76,6277.31,101.76,6277.09z M100.05,6272.64c-0.3,0-0.56,0.05-0.79,0.14c-0.23,0.09-0.42,0.22-0.56,0.39
			c-0.15,0.17-0.26,0.37-0.34,0.6c-0.08,0.23-0.11,0.48-0.11,0.76s0.04,0.54,0.11,0.76c0.08,0.23,0.19,0.43,0.34,0.6
			c0.15,0.17,0.34,0.3,0.57,0.39c0.23,0.09,0.5,0.14,0.79,0.14c0.31,0,0.58-0.05,0.8-0.17c0.22-0.11,0.4-0.25,0.54-0.43
			c0.14-0.18,0.24-0.38,0.31-0.6s0.09-0.46,0.09-0.69s-0.03-0.46-0.09-0.69c-0.06-0.23-0.17-0.43-0.31-0.61
			c-0.14-0.18-0.32-0.33-0.54-0.44C100.63,6272.7,100.36,6272.64,100.05,6272.64z"/>
		<path class="st0" d="M108.23,6272.74c0.37-0.51,0.99-0.76,1.84-0.76c0.78,0,1.34,0.14,1.68,0.43c0.34,0.29,0.51,0.73,0.51,1.34
			v3.25h-0.95v-3.13c0-0.42-0.12-0.73-0.35-0.92c-0.24-0.2-0.58-0.29-1.05-0.29c-0.47,0-0.82,0.11-1.06,0.34s-0.37,0.56-0.37,1.01v3
			h-0.95v-3.13c0-0.42-0.12-0.73-0.35-0.92c-0.24-0.2-0.58-0.29-1.04-0.29c-0.96,0-1.44,0.45-1.44,1.35v3h-0.95v-4.91h0.91v0.56
			c0.19-0.21,0.43-0.38,0.7-0.5c0.27-0.12,0.59-0.17,0.94-0.17c0.56,0,0.99,0.07,1.28,0.2
			C107.86,6272.31,108.08,6272.5,108.23,6272.74z"/>
		<path class="st0" d="M117.49,6277c-0.01-0.04-0.02-0.09-0.03-0.16c-0.02-0.11-0.03-0.29-0.03-0.54c-0.16,0.22-0.4,0.41-0.73,0.57
			c-0.33,0.16-0.71,0.23-1.16,0.23c-0.27,0-0.54-0.03-0.8-0.08c-0.26-0.05-0.5-0.14-0.71-0.25c-0.21-0.12-0.38-0.27-0.51-0.45
			c-0.13-0.18-0.19-0.41-0.19-0.68c0-0.25,0.07-0.46,0.2-0.64c0.13-0.18,0.31-0.33,0.52-0.46s0.45-0.21,0.71-0.28
			c0.26-0.06,0.52-0.1,0.77-0.1l1.85-0.05v-0.42c0-0.38-0.12-0.65-0.36-0.81c-0.24-0.16-0.58-0.23-1.01-0.23
			c-0.45,0-0.78,0.07-0.99,0.21s-0.36,0.36-0.44,0.64h-0.98c0.01-0.19,0.06-0.37,0.17-0.55s0.25-0.35,0.46-0.5s0.45-0.26,0.75-0.35
			c0.3-0.09,0.64-0.13,1.04-0.13c0.44,0,0.81,0.05,1.1,0.14c0.29,0.1,0.53,0.23,0.71,0.41s0.3,0.39,0.38,0.64
			c0.08,0.25,0.12,0.53,0.12,0.83v2.31c0,0.25,0.01,0.42,0.03,0.53c0.01,0.07,0.02,0.12,0.03,0.16H117.49z M117.38,6275.04v-0.29
			l-1.8,0.05c-0.43,0.01-0.75,0.09-0.97,0.22c-0.22,0.13-0.33,0.34-0.33,0.62c0,0.23,0.12,0.42,0.37,0.57
			c0.25,0.15,0.56,0.22,0.94,0.22c0.27,0,0.51-0.04,0.73-0.11c0.22-0.07,0.41-0.17,0.56-0.3c0.16-0.13,0.28-0.27,0.37-0.44
			S117.38,6275.23,117.38,6275.04z"/>
		<path class="st0" d="M119.47,6270.85v-0.89h1.02v0.89H119.47z M119.5,6277v-4.91h0.95v4.91H119.5z"/>
		<path class="st0" d="M122.66,6270.07v6.93h-0.95v-6.93H122.66z"/>
		<path class="st0" d="M125.55,6277h-1.23v-1.03h1.23V6277z"/>
		<path class="st0" d="M127.92,6277h-0.9v-7.04h0.94v2.74c0.18-0.21,0.42-0.38,0.71-0.52c0.29-0.13,0.63-0.19,1.03-0.19
			c0.48,0,0.89,0.06,1.25,0.18c0.35,0.12,0.64,0.3,0.87,0.53c0.23,0.23,0.39,0.5,0.5,0.8c0.11,0.31,0.17,0.66,0.17,1.04
			c0,0.82-0.24,1.45-0.71,1.89c-0.47,0.44-1.15,0.67-2.04,0.67c-0.19,0-0.38-0.02-0.56-0.06c-0.18-0.04-0.35-0.1-0.5-0.18
			c-0.16-0.08-0.3-0.16-0.42-0.26c-0.13-0.1-0.23-0.2-0.31-0.3V6277z M129.69,6272.64c-0.29,0-0.55,0.05-0.76,0.15
			c-0.22,0.1-0.4,0.23-0.54,0.39c-0.14,0.17-0.25,0.36-0.33,0.58c-0.07,0.22-0.11,0.45-0.12,0.7v0.23c0,0.21,0.04,0.42,0.1,0.63
			c0.07,0.21,0.18,0.39,0.32,0.56c0.14,0.17,0.33,0.3,0.54,0.4c0.22,0.1,0.48,0.15,0.78,0.15c0.32,0,0.59-0.05,0.83-0.15
			c0.23-0.1,0.42-0.24,0.56-0.41c0.14-0.17,0.25-0.37,0.32-0.6c0.07-0.23,0.1-0.47,0.1-0.72c0-0.25-0.03-0.5-0.1-0.72
			c-0.07-0.23-0.18-0.43-0.32-0.61s-0.33-0.32-0.56-0.42C130.28,6272.69,130.01,6272.64,129.69,6272.64z"/>
		<path class="st0" d="M138.71,6275.37c-0.16,0.63-0.47,1.08-0.92,1.34c-0.46,0.26-1.03,0.4-1.72,0.4c-0.49,0-0.92-0.07-1.27-0.2
			s-0.64-0.31-0.88-0.54c-0.23-0.23-0.4-0.5-0.51-0.81s-0.17-0.65-0.17-1.02c0-0.43,0.07-0.81,0.2-1.13
			c0.13-0.32,0.32-0.59,0.57-0.8c0.25-0.21,0.54-0.37,0.88-0.47c0.34-0.1,0.72-0.15,1.14-0.15c0.4,0,0.76,0.05,1.08,0.16
			c0.32,0.11,0.6,0.26,0.83,0.47s0.41,0.47,0.54,0.79c0.13,0.32,0.19,0.69,0.19,1.12v0.18h-4.48c0.01,0.23,0.06,0.46,0.14,0.67
			c0.08,0.21,0.19,0.39,0.34,0.55c0.15,0.16,0.34,0.29,0.56,0.38c0.23,0.09,0.5,0.14,0.81,0.14c0.43,0,0.78-0.08,1.05-0.25
			s0.48-0.44,0.62-0.83H138.71z M134.21,6274.09h3.48c-0.01-0.19-0.06-0.38-0.15-0.55c-0.08-0.18-0.19-0.33-0.33-0.46
			c-0.14-0.13-0.31-0.23-0.5-0.31c-0.2-0.08-0.42-0.11-0.67-0.11c-0.25,0-0.49,0.04-0.7,0.11c-0.21,0.08-0.4,0.18-0.57,0.31
			s-0.29,0.28-0.4,0.46C134.28,6273.7,134.22,6273.89,134.21,6274.09z"/>
	</g>
	<g class="st20">
		<path class="st0" d="M37.79,6289l-2.24-2.92H33.8v2.92h-0.99v-6.93h2.76c0.42,0,0.81,0.04,1.17,0.12c0.36,0.08,0.68,0.2,0.95,0.37
			c0.27,0.17,0.47,0.38,0.62,0.62c0.15,0.25,0.22,0.55,0.22,0.9c0,0.54-0.16,0.97-0.47,1.29s-0.79,0.51-1.44,0.58l2.31,3.05H37.79z
			 M33.8,6282.81v2.53h2.04c0.57,0,0.99-0.1,1.27-0.3c0.28-0.2,0.42-0.52,0.42-0.97c0-0.21-0.04-0.39-0.13-0.55
			c-0.09-0.16-0.21-0.29-0.36-0.4c-0.15-0.1-0.33-0.18-0.53-0.24c-0.2-0.05-0.42-0.08-0.67-0.08H33.8z"/>
		<path class="st0" d="M43.99,6289v-0.67c-0.19,0.22-0.46,0.41-0.79,0.55c-0.34,0.15-0.69,0.23-1.06,0.23
			c-0.37,0-0.71-0.03-1.01-0.1s-0.55-0.17-0.76-0.31s-0.37-0.33-0.48-0.55c-0.11-0.22-0.17-0.49-0.17-0.8v-3.25h0.95v3.13
			c0,0.19,0.04,0.37,0.12,0.52c0.08,0.15,0.2,0.28,0.35,0.38c0.15,0.11,0.32,0.19,0.52,0.24c0.2,0.05,0.41,0.08,0.65,0.08
			c0.49,0,0.88-0.12,1.18-0.36s0.46-0.57,0.46-0.99v-3h0.95v4.91H43.99z"/>
		<path class="st0" d="M51.37,6287.37c-0.16,0.63-0.47,1.08-0.92,1.34c-0.46,0.26-1.03,0.4-1.73,0.4c-0.49,0-0.92-0.07-1.27-0.2
			s-0.65-0.31-0.88-0.54c-0.23-0.23-0.4-0.5-0.51-0.81c-0.11-0.31-0.17-0.65-0.17-1.02c0-0.43,0.07-0.81,0.2-1.13
			c0.13-0.32,0.32-0.59,0.57-0.8s0.54-0.37,0.88-0.47c0.34-0.1,0.73-0.15,1.15-0.15c0.4,0,0.76,0.05,1.08,0.16
			c0.32,0.11,0.6,0.26,0.83,0.47s0.41,0.47,0.54,0.79c0.13,0.32,0.19,0.69,0.19,1.12v0.18h-4.48c0.01,0.23,0.06,0.46,0.13,0.67
			c0.08,0.21,0.19,0.39,0.34,0.55c0.15,0.16,0.34,0.29,0.57,0.38c0.23,0.09,0.5,0.14,0.81,0.14c0.43,0,0.78-0.08,1.06-0.25
			c0.28-0.17,0.48-0.44,0.61-0.83H51.37z M46.87,6286.09h3.48c-0.01-0.19-0.06-0.38-0.14-0.55c-0.08-0.18-0.2-0.33-0.33-0.46
			s-0.31-0.23-0.5-0.31c-0.2-0.08-0.42-0.11-0.67-0.11c-0.25,0-0.49,0.04-0.7,0.11c-0.21,0.08-0.4,0.18-0.57,0.31
			c-0.16,0.13-0.29,0.28-0.39,0.46C46.94,6285.7,46.88,6285.89,46.87,6286.09z"/>
		<path class="st0" d="M62.16,6287.07c0,0.67-0.24,1.16-0.71,1.47c-0.47,0.31-1.19,0.46-2.14,0.46h-3.18v-6.93h2.8
			c0.99,0,1.73,0.15,2.23,0.45c0.5,0.3,0.75,0.79,0.75,1.47c0,0.36-0.09,0.67-0.27,0.93c-0.18,0.26-0.41,0.45-0.68,0.58
			c0.34,0.14,0.62,0.33,0.85,0.58C62.03,6286.33,62.15,6286.66,62.16,6287.07z M59.22,6282.83h-2.1v2.32h2.1
			c0.57,0,0.99-0.09,1.26-0.26c0.27-0.17,0.41-0.47,0.41-0.89c0-0.39-0.15-0.68-0.44-0.87
			C60.16,6282.93,59.75,6282.83,59.22,6282.83z M59.46,6285.89h-2.34v2.37h2.34c0.55,0,0.96-0.09,1.25-0.27
			c0.29-0.18,0.43-0.49,0.43-0.91c0-0.38-0.15-0.67-0.46-0.88S59.97,6285.89,59.46,6285.89z"/>
		<path class="st0" d="M68.55,6287.37c-0.16,0.63-0.47,1.08-0.92,1.34c-0.46,0.26-1.03,0.4-1.73,0.4c-0.49,0-0.92-0.07-1.27-0.2
			s-0.65-0.31-0.88-0.54c-0.23-0.23-0.4-0.5-0.51-0.81c-0.11-0.31-0.17-0.65-0.17-1.02c0-0.43,0.07-0.81,0.2-1.13
			c0.13-0.32,0.32-0.59,0.57-0.8s0.54-0.37,0.88-0.47c0.34-0.1,0.73-0.15,1.15-0.15c0.4,0,0.76,0.05,1.08,0.16
			c0.32,0.11,0.6,0.26,0.83,0.47s0.41,0.47,0.54,0.79c0.13,0.32,0.19,0.69,0.19,1.12v0.18h-4.48c0.01,0.23,0.06,0.46,0.13,0.67
			c0.08,0.21,0.19,0.39,0.34,0.55c0.15,0.16,0.34,0.29,0.57,0.38c0.23,0.09,0.5,0.14,0.81,0.14c0.43,0,0.78-0.08,1.06-0.25
			c0.28-0.17,0.48-0.44,0.61-0.83H68.55z M64.05,6286.09h3.48c-0.01-0.19-0.06-0.38-0.14-0.55c-0.08-0.18-0.2-0.33-0.33-0.46
			s-0.31-0.23-0.5-0.31c-0.2-0.08-0.42-0.11-0.67-0.11c-0.25,0-0.49,0.04-0.7,0.11c-0.21,0.08-0.4,0.18-0.57,0.31
			c-0.16,0.13-0.29,0.28-0.39,0.46C64.12,6285.7,64.06,6285.89,64.05,6286.09z"/>
		<path class="st0" d="M72.2,6284.68c-0.56,0-0.98,0.13-1.27,0.38c-0.29,0.25-0.43,0.68-0.43,1.27v2.67h-0.95v-4.91h0.91v0.69
			c0.15-0.21,0.38-0.4,0.68-0.56c0.31-0.16,0.66-0.24,1.05-0.24c0.11,0,0.23,0.01,0.35,0.02c0.12,0.01,0.21,0.03,0.29,0.04v0.71
			c-0.09-0.03-0.2-0.04-0.32-0.05C72.41,6284.69,72.3,6284.68,72.2,6284.68z"/>
		<path class="st0" d="M78.09,6284.74c0.37-0.51,0.99-0.76,1.84-0.76c0.78,0,1.34,0.14,1.68,0.43c0.34,0.29,0.51,0.73,0.51,1.34
			v3.25h-0.95v-3.13c0-0.42-0.12-0.73-0.35-0.92c-0.24-0.2-0.58-0.29-1.05-0.29c-0.47,0-0.82,0.11-1.06,0.34s-0.37,0.56-0.37,1.01v3
			h-0.95v-3.13c0-0.42-0.12-0.73-0.35-0.92c-0.24-0.2-0.58-0.29-1.04-0.29c-0.96,0-1.44,0.45-1.44,1.35v3H73.6v-4.91h0.91v0.56
			c0.19-0.21,0.43-0.38,0.7-0.5c0.27-0.12,0.59-0.17,0.94-0.17c0.56,0,0.99,0.07,1.28,0.2C77.72,6284.31,77.94,6284.5,78.09,6284.74
			z"/>
		<path class="st0" d="M87.35,6289c-0.01-0.04-0.02-0.09-0.03-0.16c-0.02-0.11-0.03-0.29-0.03-0.54c-0.16,0.22-0.4,0.41-0.73,0.57
			c-0.33,0.16-0.71,0.23-1.16,0.23c-0.27,0-0.54-0.03-0.8-0.08c-0.26-0.05-0.5-0.14-0.71-0.25c-0.21-0.12-0.38-0.27-0.51-0.45
			c-0.13-0.18-0.2-0.41-0.2-0.68c0-0.25,0.07-0.46,0.2-0.64c0.13-0.18,0.3-0.33,0.51-0.46s0.45-0.21,0.71-0.28
			c0.26-0.06,0.52-0.1,0.78-0.1l1.85-0.05v-0.42c0-0.38-0.12-0.65-0.36-0.81c-0.24-0.16-0.58-0.23-1.01-0.23
			c-0.45,0-0.77,0.07-0.98,0.21s-0.36,0.36-0.45,0.64h-0.98c0.01-0.19,0.06-0.37,0.16-0.55c0.1-0.18,0.26-0.35,0.46-0.5
			c0.2-0.15,0.45-0.26,0.75-0.35c0.3-0.09,0.65-0.13,1.04-0.13c0.44,0,0.81,0.05,1.1,0.14c0.29,0.1,0.53,0.23,0.71,0.41
			c0.18,0.18,0.3,0.39,0.38,0.64c0.08,0.25,0.12,0.53,0.12,0.83v2.31c0,0.25,0.01,0.42,0.03,0.53c0.01,0.07,0.02,0.12,0.03,0.16
			H87.35z M87.24,6287.04v-0.29l-1.8,0.05c-0.43,0.01-0.75,0.09-0.97,0.22c-0.22,0.13-0.33,0.34-0.33,0.62
			c0,0.23,0.12,0.42,0.37,0.57c0.25,0.15,0.56,0.22,0.94,0.22c0.27,0,0.51-0.04,0.73-0.11s0.41-0.17,0.57-0.3
			c0.16-0.13,0.28-0.27,0.36-0.44C87.2,6287.41,87.24,6287.23,87.24,6287.04z"/>
		<path class="st0" d="M89.84,6284.74h-0.92v-0.65h0.92v-1.44h0.95v1.44h1.45v0.65h-1.45v2.96c0,0.24,0.06,0.42,0.17,0.53
			s0.32,0.17,0.62,0.17c0.06,0,0.13,0,0.21-0.01c0.08,0,0.15-0.01,0.21-0.01c0.07-0.01,0.15-0.02,0.23-0.03v0.65
			c-0.07,0.01-0.14,0.02-0.23,0.03c-0.09,0.01-0.17,0.01-0.26,0.02c-0.09,0.01-0.17,0.01-0.24,0.01s-0.13,0-0.18,0
			c-0.5,0-0.87-0.12-1.12-0.35s-0.37-0.55-0.37-0.94V6284.74z"/>
		<path class="st0" d="M95.7,6283.99c0.48,0,0.89,0.06,1.25,0.18c0.35,0.12,0.64,0.3,0.86,0.53s0.4,0.5,0.51,0.8
			c0.11,0.31,0.17,0.66,0.17,1.04c0,0.82-0.23,1.45-0.7,1.9c-0.47,0.45-1.16,0.67-2.08,0.67c-0.93,0-1.62-0.22-2.09-0.67
			c-0.47-0.45-0.7-1.08-0.7-1.9c0-0.38,0.05-0.72,0.17-1.04c0.11-0.31,0.28-0.58,0.51-0.8c0.23-0.23,0.52-0.4,0.87-0.53
			C94.8,6284.05,95.22,6283.99,95.7,6283.99z M95.7,6284.64c-0.32,0-0.59,0.05-0.83,0.16s-0.42,0.24-0.57,0.42
			c-0.15,0.18-0.25,0.38-0.32,0.61c-0.07,0.23-0.11,0.47-0.11,0.72c0,0.25,0.04,0.49,0.11,0.72c0.07,0.23,0.18,0.43,0.32,0.6
			c0.15,0.17,0.33,0.31,0.57,0.41c0.23,0.1,0.5,0.15,0.83,0.15c0.32,0,0.59-0.05,0.83-0.15c0.23-0.1,0.42-0.24,0.56-0.41
			c0.14-0.17,0.25-0.37,0.32-0.6c0.07-0.23,0.1-0.47,0.1-0.72c0-0.25-0.04-0.5-0.1-0.72c-0.07-0.23-0.18-0.43-0.32-0.61
			s-0.33-0.32-0.56-0.42C96.29,6284.69,96.02,6284.64,95.7,6284.64z"/>
		<path class="st0" d="M108.88,6287.79h-1.12v1.21h-0.99v-1.21h-3.91v-0.63l3.8-4.96h1.1v4.81h1.12V6287.79z M106.77,6287.01v-3.64
			l-2.73,3.64H106.77z"/>
		<path class="st0" d="M111.23,6290.06h-0.73l0.25-1.06h-0.37v-1.03h1.23v1.03L111.23,6290.06z"/>
		<path class="st0" d="M119.06,6282.17v6.83h-1.04v-5.01h-1.86v-0.56c0.25,0,0.49-0.03,0.72-0.08c0.23-0.05,0.43-0.13,0.6-0.23
			c0.17-0.1,0.31-0.22,0.42-0.37s0.16-0.31,0.16-0.49v-0.09H119.06z"/>
		<path class="st0" d="M120.9,6285.36c0-0.4,0.05-0.79,0.14-1.19c0.09-0.39,0.26-0.74,0.49-1.05c0.23-0.31,0.54-0.56,0.92-0.75
			s0.88-0.29,1.47-0.29c0.59,0,1.08,0.1,1.47,0.3s0.7,0.46,0.92,0.78s0.38,0.68,0.48,1.08c0.09,0.4,0.13,0.81,0.13,1.21
			c0,1.23-0.25,2.14-0.76,2.75c-0.51,0.6-1.26,0.91-2.25,0.91c-0.99,0-1.75-0.31-2.26-0.92
			C121.15,6287.58,120.9,6286.63,120.9,6285.36z M121.97,6285.46c0.01,0.27,0.03,0.57,0.06,0.9c0.04,0.33,0.12,0.63,0.25,0.92
			c0.13,0.29,0.32,0.53,0.58,0.72s0.61,0.29,1.06,0.29c0.44,0,0.79-0.1,1.04-0.29c0.26-0.2,0.45-0.44,0.58-0.73
			c0.13-0.29,0.22-0.59,0.25-0.92c0.04-0.33,0.05-0.62,0.05-0.89c0-0.27-0.03-0.56-0.08-0.87c-0.05-0.3-0.14-0.58-0.29-0.83
			c-0.14-0.25-0.34-0.46-0.59-0.62c-0.25-0.16-0.58-0.24-0.99-0.24c-0.43,0-0.77,0.08-1.03,0.25c-0.26,0.17-0.45,0.38-0.59,0.63
			c-0.14,0.25-0.23,0.53-0.27,0.83C121.99,6284.91,121.97,6285.19,121.97,6285.46z"/>
		<path class="st0" d="M133.03,6282.2v0.8c-0.27,0.24-0.54,0.49-0.79,0.76c-0.21,0.23-0.44,0.49-0.67,0.78
			c-0.23,0.29-0.42,0.58-0.57,0.88c-0.24,0.49-0.43,0.96-0.56,1.38c-0.14,0.43-0.24,0.81-0.32,1.14c-0.08,0.38-0.14,0.73-0.17,1.06
			h-1.1c0.02-0.31,0.07-0.64,0.14-1.01c0.07-0.32,0.17-0.69,0.31-1.12c0.14-0.42,0.34-0.88,0.59-1.38c0.21-0.41,0.44-0.78,0.68-1.08
			s0.47-0.57,0.67-0.79c0.24-0.25,0.48-0.46,0.71-0.63h-4.42v-0.8H133.03z"/>
		<path class="st0" d="M133.85,6285.36c0-0.4,0.05-0.79,0.14-1.19c0.09-0.39,0.25-0.74,0.49-1.05c0.23-0.31,0.54-0.56,0.92-0.75
			s0.88-0.29,1.47-0.29s1.08,0.1,1.47,0.3c0.39,0.2,0.7,0.46,0.93,0.78c0.23,0.32,0.38,0.68,0.47,1.08s0.13,0.81,0.13,1.21
			c0,1.23-0.25,2.14-0.76,2.75s-1.26,0.91-2.25,0.91s-1.75-0.31-2.25-0.92S133.85,6286.63,133.85,6285.36z M134.92,6285.46
			c0.01,0.27,0.03,0.57,0.07,0.9c0.04,0.33,0.12,0.63,0.25,0.92c0.13,0.29,0.32,0.53,0.58,0.72c0.25,0.19,0.61,0.29,1.06,0.29
			c0.44,0,0.79-0.1,1.04-0.29s0.45-0.44,0.58-0.73c0.13-0.29,0.22-0.59,0.25-0.92c0.04-0.33,0.06-0.62,0.06-0.89
			c0-0.27-0.03-0.56-0.08-0.87c-0.05-0.3-0.15-0.58-0.29-0.83s-0.34-0.46-0.59-0.62c-0.25-0.16-0.58-0.24-0.99-0.24
			c-0.43,0-0.77,0.08-1.03,0.25c-0.26,0.17-0.45,0.38-0.59,0.63c-0.14,0.25-0.23,0.53-0.27,0.83
			C134.94,6284.91,134.92,6285.19,134.92,6285.46z"/>
		<path class="st0" d="M150.73,6287.07c0,0.67-0.24,1.16-0.71,1.47c-0.47,0.31-1.19,0.46-2.14,0.46h-3.18v-6.93h2.8
			c0.99,0,1.73,0.15,2.22,0.45c0.5,0.3,0.75,0.79,0.75,1.47c0,0.36-0.09,0.67-0.27,0.93c-0.18,0.26-0.41,0.45-0.68,0.58
			c0.34,0.14,0.62,0.33,0.85,0.58C150.6,6286.33,150.72,6286.66,150.73,6287.07z M147.79,6282.83h-2.1v2.32h2.1
			c0.57,0,0.99-0.09,1.26-0.26s0.41-0.47,0.41-0.89c0-0.39-0.15-0.68-0.44-0.87C148.73,6282.93,148.31,6282.83,147.79,6282.83z
			 M148.03,6285.89h-2.34v2.37h2.34c0.55,0,0.96-0.09,1.25-0.27c0.29-0.18,0.43-0.49,0.43-0.91c0-0.38-0.15-0.67-0.46-0.88
			S148.53,6285.89,148.03,6285.89z"/>
		<path class="st0" d="M154.52,6284.68c-0.56,0-0.98,0.13-1.27,0.38c-0.29,0.25-0.43,0.68-0.43,1.27v2.67h-0.95v-4.91h0.91v0.69
			c0.15-0.21,0.38-0.4,0.68-0.56c0.31-0.16,0.66-0.24,1.05-0.24c0.11,0,0.23,0.01,0.35,0.02c0.12,0.01,0.21,0.03,0.29,0.04v0.71
			c-0.09-0.03-0.2-0.04-0.32-0.05C154.73,6284.69,154.62,6284.68,154.52,6284.68z"/>
		<path class="st0" d="M160.19,6289v-0.67c-0.19,0.22-0.46,0.41-0.79,0.55c-0.34,0.15-0.69,0.23-1.05,0.23
			c-0.37,0-0.71-0.03-1.01-0.1s-0.56-0.17-0.77-0.31s-0.37-0.33-0.48-0.55c-0.11-0.22-0.17-0.49-0.17-0.8v-3.25h0.95v3.13
			c0,0.19,0.04,0.37,0.12,0.52c0.08,0.15,0.2,0.28,0.35,0.38s0.32,0.19,0.52,0.24c0.2,0.05,0.41,0.08,0.64,0.08
			c0.49,0,0.88-0.12,1.18-0.36c0.3-0.24,0.46-0.57,0.46-0.99v-3h0.95v4.91H160.19z"/>
		<path class="st0" d="M166.22,6289l-1.66-1.88l-1.62,1.88h-1.19l2.28-2.55l-2.15-2.36h1.19l1.54,1.73l1.47-1.73h1.19l-2.15,2.36
			l2.27,2.55H166.22z"/>
		<path class="st0" d="M173.29,6287.37c-0.16,0.63-0.47,1.08-0.92,1.34c-0.46,0.26-1.03,0.4-1.73,0.4c-0.49,0-0.92-0.07-1.27-0.2
			s-0.65-0.31-0.88-0.54c-0.23-0.23-0.4-0.5-0.51-0.81c-0.11-0.31-0.17-0.65-0.17-1.02c0-0.43,0.07-0.81,0.2-1.13
			c0.13-0.32,0.32-0.59,0.57-0.8s0.54-0.37,0.88-0.47c0.34-0.1,0.73-0.15,1.15-0.15c0.4,0,0.76,0.05,1.08,0.16
			c0.32,0.11,0.6,0.26,0.83,0.47s0.41,0.47,0.54,0.79c0.13,0.32,0.19,0.69,0.19,1.12v0.18h-4.48c0.01,0.23,0.06,0.46,0.13,0.67
			c0.08,0.21,0.19,0.39,0.34,0.55c0.15,0.16,0.34,0.29,0.57,0.38c0.23,0.09,0.5,0.14,0.81,0.14c0.43,0,0.78-0.08,1.06-0.25
			c0.28-0.17,0.48-0.44,0.61-0.83H173.29z M168.79,6286.09h3.48c-0.01-0.19-0.06-0.38-0.14-0.55c-0.08-0.18-0.2-0.33-0.33-0.46
			s-0.31-0.23-0.5-0.31c-0.2-0.08-0.42-0.11-0.67-0.11c-0.25,0-0.49,0.04-0.7,0.11c-0.21,0.08-0.4,0.18-0.57,0.31
			c-0.16,0.13-0.29,0.28-0.39,0.46C168.86,6285.7,168.8,6285.89,168.79,6286.09z"/>
		<path class="st0" d="M175.24,6282.07v6.93h-0.95v-6.93H175.24z"/>
		<path class="st0" d="M177.41,6282.07v6.93h-0.95v-6.93H177.41z"/>
		<path class="st0" d="M183.88,6287.37c-0.16,0.63-0.47,1.08-0.92,1.34c-0.46,0.26-1.03,0.4-1.73,0.4c-0.49,0-0.92-0.07-1.27-0.2
			s-0.65-0.31-0.88-0.54c-0.23-0.23-0.4-0.5-0.51-0.81c-0.11-0.31-0.17-0.65-0.17-1.02c0-0.43,0.07-0.81,0.2-1.13
			c0.13-0.32,0.32-0.59,0.57-0.8s0.54-0.37,0.88-0.47c0.34-0.1,0.73-0.15,1.15-0.15c0.4,0,0.76,0.05,1.08,0.16
			c0.32,0.11,0.6,0.26,0.83,0.47s0.41,0.47,0.54,0.79c0.13,0.32,0.19,0.69,0.19,1.12v0.18h-4.48c0.01,0.23,0.06,0.46,0.13,0.67
			c0.08,0.21,0.19,0.39,0.34,0.55c0.15,0.16,0.34,0.29,0.57,0.38c0.23,0.09,0.5,0.14,0.81,0.14c0.43,0,0.78-0.08,1.06-0.25
			c0.28-0.17,0.48-0.44,0.61-0.83H183.88z M179.38,6286.09h3.48c-0.01-0.19-0.06-0.38-0.14-0.55c-0.08-0.18-0.2-0.33-0.33-0.46
			s-0.31-0.23-0.5-0.31c-0.2-0.08-0.42-0.11-0.67-0.11c-0.25,0-0.49,0.04-0.7,0.11c-0.21,0.08-0.4,0.18-0.57,0.31
			c-0.16,0.13-0.29,0.28-0.39,0.46C179.45,6285.7,179.39,6285.89,179.38,6286.09z"/>
		<path class="st0" d="M188.17,6285.43c-0.03-0.27-0.16-0.46-0.39-0.59s-0.54-0.2-0.91-0.2c-0.15,0-0.3,0.01-0.45,0.04
			c-0.15,0.03-0.28,0.07-0.39,0.12s-0.2,0.13-0.27,0.21c-0.07,0.09-0.1,0.19-0.1,0.31c0,0.23,0.09,0.41,0.26,0.51
			c0.18,0.11,0.4,0.19,0.67,0.25c0.27,0.05,0.56,0.1,0.87,0.13c0.31,0.04,0.6,0.1,0.87,0.2c0.27,0.09,0.49,0.23,0.67,0.42
			s0.26,0.46,0.26,0.81c0,0.27-0.07,0.5-0.21,0.69c-0.14,0.19-0.32,0.34-0.54,0.45s-0.47,0.2-0.74,0.25
			c-0.27,0.05-0.53,0.08-0.79,0.08c-0.35,0-0.67-0.03-0.96-0.1c-0.29-0.07-0.54-0.16-0.75-0.29c-0.21-0.13-0.37-0.28-0.49-0.47
			c-0.12-0.19-0.17-0.4-0.17-0.63h0.96c0.09,0.56,0.56,0.84,1.42,0.84c0.15,0,0.3-0.01,0.46-0.04s0.31-0.06,0.44-0.12
			c0.13-0.06,0.24-0.14,0.33-0.25c0.08-0.11,0.12-0.24,0.12-0.41c0-0.17-0.05-0.3-0.16-0.39s-0.24-0.17-0.41-0.22
			s-0.36-0.1-0.58-0.13c-0.21-0.03-0.43-0.06-0.66-0.09s-0.45-0.08-0.66-0.13c-0.21-0.05-0.41-0.13-0.58-0.23
			c-0.17-0.1-0.31-0.23-0.41-0.39s-0.16-0.37-0.16-0.62c0-0.25,0.06-0.47,0.17-0.65c0.12-0.18,0.27-0.33,0.47-0.45
			c0.2-0.12,0.42-0.2,0.68-0.26s0.53-0.08,0.82-0.08c0.33,0,0.62,0.03,0.89,0.1s0.5,0.16,0.69,0.29s0.34,0.27,0.45,0.45
			c0.11,0.18,0.16,0.38,0.16,0.6H188.17z"/>
	</g>
	<g class="st20">
		<path class="st0" d="M223.32,6241.03h-0.9v-6.94h0.93v0.61c0.18-0.21,0.42-0.38,0.71-0.52c0.29-0.13,0.63-0.19,1.03-0.19
			c0.48,0,0.89,0.06,1.24,0.18c0.35,0.12,0.64,0.3,0.87,0.53s0.4,0.5,0.51,0.8c0.11,0.31,0.16,0.66,0.16,1.04
			c0,0.82-0.24,1.45-0.71,1.89c-0.48,0.44-1.15,0.67-2.04,0.67c-0.19,0-0.38-0.02-0.56-0.06s-0.35-0.09-0.5-0.17
			s-0.3-0.15-0.43-0.25c-0.13-0.1-0.23-0.2-0.31-0.3V6241.03z M225.08,6234.64c-0.29,0-0.55,0.05-0.77,0.15s-0.4,0.23-0.54,0.39
			c-0.14,0.17-0.25,0.36-0.33,0.58c-0.07,0.22-0.11,0.45-0.12,0.7v0.23c0,0.21,0.04,0.42,0.1,0.63c0.07,0.21,0.18,0.39,0.32,0.56
			c0.14,0.17,0.33,0.3,0.54,0.4c0.22,0.1,0.48,0.15,0.78,0.15c0.32,0,0.59-0.05,0.82-0.15c0.23-0.1,0.42-0.24,0.57-0.41
			c0.15-0.17,0.25-0.37,0.32-0.6c0.07-0.23,0.1-0.47,0.1-0.72c0-0.25-0.03-0.5-0.1-0.72c-0.07-0.23-0.17-0.43-0.32-0.61
			c-0.15-0.18-0.33-0.32-0.57-0.42S225.4,6234.64,225.08,6234.64z"/>
		<path class="st0" d="M232.87,6239c-0.01-0.04-0.02-0.09-0.03-0.16c-0.02-0.11-0.03-0.29-0.03-0.54c-0.16,0.22-0.4,0.41-0.73,0.57
			c-0.33,0.16-0.71,0.23-1.16,0.23c-0.27,0-0.54-0.03-0.8-0.08c-0.26-0.05-0.5-0.14-0.71-0.25c-0.21-0.12-0.38-0.27-0.51-0.45
			c-0.13-0.18-0.2-0.41-0.2-0.68c0-0.25,0.07-0.46,0.2-0.64s0.31-0.33,0.51-0.46c0.21-0.12,0.45-0.21,0.71-0.28
			c0.26-0.06,0.52-0.1,0.77-0.1l1.85-0.05v-0.42c0-0.38-0.12-0.65-0.36-0.81c-0.24-0.16-0.58-0.23-1.01-0.23
			c-0.45,0-0.77,0.07-0.98,0.21s-0.36,0.36-0.45,0.64h-0.98c0.01-0.19,0.06-0.37,0.17-0.55s0.25-0.35,0.46-0.5
			c0.2-0.15,0.45-0.26,0.74-0.35c0.3-0.09,0.65-0.13,1.04-0.13c0.44,0,0.81,0.05,1.1,0.14s0.53,0.23,0.71,0.41s0.3,0.39,0.38,0.64
			s0.12,0.53,0.12,0.83v2.31c0,0.25,0.01,0.42,0.03,0.53c0.01,0.07,0.02,0.12,0.03,0.16H232.87z M232.76,6237.04v-0.29l-1.8,0.05
			c-0.43,0.01-0.75,0.09-0.97,0.22c-0.22,0.13-0.33,0.34-0.33,0.62c0,0.23,0.12,0.42,0.37,0.57s0.56,0.22,0.94,0.22
			c0.27,0,0.51-0.04,0.73-0.11c0.22-0.07,0.41-0.17,0.57-0.3c0.16-0.13,0.28-0.27,0.36-0.44
			C232.72,6237.41,232.76,6237.23,232.76,6237.04z"/>
		<path class="st0" d="M237.5,6234.68c-0.56,0-0.98,0.13-1.27,0.38c-0.29,0.25-0.43,0.68-0.43,1.27v2.67h-0.95v-4.91h0.91v0.69
			c0.15-0.21,0.38-0.4,0.69-0.56c0.31-0.16,0.66-0.24,1.05-0.24c0.11,0,0.23,0.01,0.34,0.02s0.21,0.03,0.29,0.04v0.71
			c-0.09-0.03-0.2-0.04-0.32-0.05C237.71,6234.69,237.6,6234.68,237.5,6234.68z"/>
		<path class="st0" d="M239.89,6234.74h-0.92v-0.65h0.92v-1.44h0.95v1.44h1.45v0.65h-1.45v2.96c0,0.24,0.06,0.42,0.17,0.53
			s0.32,0.17,0.61,0.17c0.06,0,0.13,0,0.21-0.01c0.08,0,0.15-0.01,0.21-0.01c0.07-0.01,0.15-0.02,0.23-0.03v0.65
			c-0.07,0.01-0.14,0.02-0.23,0.03c-0.09,0.01-0.17,0.01-0.26,0.02c-0.09,0.01-0.17,0.01-0.24,0.01c-0.07,0-0.13,0-0.18,0
			c-0.5,0-0.87-0.12-1.12-0.35c-0.24-0.23-0.36-0.55-0.36-0.94V6234.74z"/>
		<path class="st0" d="M247.36,6239c-0.01-0.04-0.02-0.09-0.03-0.16c-0.02-0.11-0.03-0.29-0.03-0.54c-0.16,0.22-0.4,0.41-0.73,0.57
			c-0.33,0.16-0.71,0.23-1.16,0.23c-0.27,0-0.54-0.03-0.8-0.08c-0.26-0.05-0.5-0.14-0.71-0.25c-0.21-0.12-0.38-0.27-0.51-0.45
			c-0.13-0.18-0.2-0.41-0.2-0.68c0-0.25,0.07-0.46,0.2-0.64c0.13-0.18,0.31-0.33,0.52-0.46s0.45-0.21,0.71-0.28
			c0.26-0.06,0.52-0.1,0.77-0.1l1.85-0.05v-0.42c0-0.38-0.12-0.65-0.36-0.81c-0.24-0.16-0.58-0.23-1.01-0.23
			c-0.45,0-0.78,0.07-0.98,0.21c-0.21,0.14-0.36,0.36-0.45,0.64h-0.98c0.01-0.19,0.06-0.37,0.17-0.55c0.1-0.18,0.25-0.35,0.46-0.5
			s0.45-0.26,0.75-0.35c0.3-0.09,0.64-0.13,1.04-0.13c0.44,0,0.81,0.05,1.1,0.14c0.29,0.1,0.53,0.23,0.71,0.41
			c0.18,0.18,0.3,0.39,0.38,0.64c0.08,0.25,0.12,0.53,0.12,0.83v2.31c0,0.25,0.01,0.42,0.03,0.53c0.01,0.07,0.02,0.12,0.03,0.16
			H247.36z M247.25,6237.04v-0.29l-1.8,0.05c-0.43,0.01-0.75,0.09-0.97,0.22c-0.22,0.13-0.33,0.34-0.33,0.62
			c0,0.23,0.12,0.42,0.37,0.57c0.25,0.15,0.56,0.22,0.94,0.22c0.27,0,0.51-0.04,0.73-0.11c0.22-0.07,0.41-0.17,0.56-0.3
			c0.16-0.13,0.28-0.27,0.37-0.44C247.21,6237.41,247.25,6237.23,247.25,6237.04z"/>
		<path class="st0" d="M253.66,6239.09v-0.66c-0.15,0.15-0.3,0.27-0.47,0.36c-0.16,0.09-0.32,0.16-0.48,0.21
			c-0.16,0.05-0.3,0.08-0.44,0.09c-0.14,0.01-0.26,0.02-0.35,0.02c-0.47,0-0.88-0.06-1.23-0.19c-0.35-0.13-0.63-0.3-0.86-0.53
			c-0.23-0.23-0.4-0.5-0.51-0.81c-0.11-0.32-0.17-0.66-0.17-1.04c0-0.81,0.24-1.43,0.72-1.88s1.16-0.67,2.05-0.67
			c0.39,0,0.73,0.05,1.02,0.17c0.3,0.11,0.54,0.28,0.74,0.5v-0.57h0.93v5.03c0,0.31-0.06,0.59-0.19,0.83s-0.31,0.45-0.54,0.62
			s-0.5,0.3-0.82,0.39c-0.31,0.09-0.66,0.13-1.03,0.13c-0.83,0-1.46-0.12-1.88-0.35s-0.69-0.64-0.79-1.21h0.99
			c0.07,0.28,0.23,0.5,0.47,0.66c0.24,0.16,0.6,0.23,1.08,0.23c0.24,0,0.47-0.03,0.68-0.08s0.4-0.14,0.56-0.25s0.29-0.25,0.38-0.42
			S253.66,6239.31,253.66,6239.09z M251.95,6234.64c-0.3,0-0.56,0.05-0.79,0.14c-0.23,0.09-0.42,0.22-0.57,0.39s-0.26,0.37-0.34,0.6
			c-0.08,0.23-0.12,0.48-0.12,0.76s0.04,0.54,0.12,0.76c0.08,0.23,0.19,0.43,0.34,0.6c0.15,0.17,0.34,0.3,0.57,0.39
			s0.5,0.14,0.79,0.14c0.31,0,0.58-0.05,0.8-0.17c0.22-0.11,0.4-0.25,0.54-0.43c0.14-0.18,0.24-0.38,0.3-0.6
			c0.06-0.23,0.1-0.46,0.1-0.69s-0.03-0.46-0.1-0.69c-0.06-0.23-0.16-0.43-0.3-0.61c-0.14-0.18-0.32-0.33-0.54-0.44
			C252.53,6234.7,252.26,6234.64,251.95,6234.64z"/>
		<path class="st0" d="M260.89,6237.37c-0.16,0.63-0.47,1.08-0.92,1.34c-0.46,0.26-1.03,0.4-1.73,0.4c-0.49,0-0.92-0.07-1.27-0.2
			s-0.64-0.31-0.88-0.54c-0.23-0.23-0.4-0.5-0.51-0.81c-0.11-0.31-0.16-0.65-0.16-1.02c0-0.43,0.07-0.81,0.2-1.13
			s0.32-0.59,0.57-0.8c0.25-0.21,0.54-0.37,0.88-0.47c0.34-0.1,0.72-0.15,1.14-0.15c0.4,0,0.76,0.05,1.09,0.16
			c0.32,0.11,0.6,0.26,0.83,0.47c0.23,0.21,0.41,0.47,0.54,0.79c0.13,0.32,0.19,0.69,0.19,1.12v0.18h-4.48
			c0.01,0.23,0.06,0.46,0.14,0.67s0.19,0.39,0.34,0.55s0.34,0.29,0.57,0.38c0.23,0.09,0.5,0.14,0.81,0.14
			c0.43,0,0.78-0.08,1.06-0.25c0.28-0.17,0.48-0.44,0.61-0.83H260.89z M256.39,6236.09h3.48c-0.01-0.19-0.06-0.38-0.14-0.55
			c-0.08-0.18-0.2-0.33-0.34-0.46c-0.14-0.13-0.31-0.23-0.5-0.31c-0.2-0.08-0.42-0.11-0.67-0.11c-0.25,0-0.49,0.04-0.7,0.11
			c-0.21,0.08-0.4,0.18-0.57,0.31s-0.29,0.28-0.4,0.46C256.46,6235.7,256.4,6235.89,256.39,6236.09z"/>
		<path class="st0" d="M264.54,6234.68c-0.56,0-0.98,0.13-1.27,0.38c-0.29,0.25-0.43,0.68-0.43,1.27v2.67h-0.95v-4.91h0.91v0.69
			c0.15-0.21,0.38-0.4,0.69-0.56s0.66-0.24,1.05-0.24c0.11,0,0.23,0.01,0.35,0.02c0.12,0.01,0.21,0.03,0.29,0.04v0.71
			c-0.09-0.03-0.2-0.04-0.32-0.05C264.75,6234.69,264.64,6234.68,264.54,6234.68z"/>
	</g>
	<g id="Groupe_135" transform="translate(73 -174.499)">
		<path id="Tracé_142" class="st0" d="M156.55,6465.06c-0.38,0.01-0.76-0.02-1.13-0.09c-0.88-0.24-1.81-0.11-2.59,0.36
			c-0.78,0.39-1.19,0.14-1.16-0.73c0.02-0.78-0.28-1.53-0.83-2.08c-2.65-3.01-2.37-7.6,0.64-10.25c0.88-0.77,1.93-1.33,3.07-1.61
			c3.95-1.2,8.12,1.02,9.33,4.97c0.24,0.79,0.35,1.61,0.32,2.43C164.02,6462.1,160.6,6465.23,156.55,6465.06z M157.96,6460.23
			c0.37-0.2,0.7-0.45,0.99-0.75c0.72-1.05,1.39-2.14,2.05-3.23c0.1-0.16,0.05-0.41,0.06-0.62c-0.21,0-0.42,0.04-0.62,0.11
			c-0.67,0.46-1.27,1.01-1.96,1.44c-0.31,0.15-0.66,0.15-0.98,0.01c-0.55-0.3-1.02-0.76-1.55-1.11c-0.44-0.38-1.11-0.33-1.49,0.12
			c-0.04,0.05-0.08,0.1-0.11,0.16c-0.74,1.1-1.44,2.24-2.14,3.38c-0.08,0.13-0.01,0.36-0.01,0.55c0.18-0.02,0.4,0.02,0.54-0.07
			c0.48-0.32,0.93-0.69,1.39-1.04c1.13-0.87,1.13-0.86,2.27-0.02C156.88,6459.51,157.39,6459.84,157.96,6460.23z"/>
		<path id="Tracé_143" class="st0" d="M206.87,6427.1l-0.6,0.92h0.79l0.23,0.15c-1.58,0.71-1.2,2.15-1.51,3.33
			c-1,4.12-5.15,6.65-9.27,5.65c-0.41-0.1-0.81-0.23-1.2-0.4c-0.28-0.11-0.55-0.27-0.8-0.4l3.36-1.03l-2.49-1.93l0.93-0.42
			c-0.97-0.47-1.6-1.43-1.64-2.5l0.86,0.09c-0.9-0.94-1.1-2.34-0.52-3.5c1.39,1.62,3.36,2.62,5.49,2.79
			c0.04-0.35,0.07-0.66,0.11-0.96c0.15-1.45,1.44-2.5,2.89-2.34c0.25,0.03,0.49,0.09,0.72,0.18c0.88,0.4,1.64,0.8,2.58,0.1
			L206.87,6427.1z"/>
		<path id="Tracé_144" class="st0" d="M247.16,6452.89c1.34,0,2.67-0.01,4.01,0c1.66,0.02,2.34,0.68,2.35,2.32
			c0.02,1.92,0.01,3.83-0.01,5.75c0.11,1-0.61,1.9-1.61,2.01c-0.07,0.01-0.15,0.01-0.22,0.01c-2.99,0.06-5.98,0.06-8.97-0.01
			c-0.98,0-1.78-0.79-1.79-1.77c0-0.07,0-0.13,0.01-0.2c-0.02-2-0.02-4.01,0-6.01c-0.12-1.03,0.62-1.96,1.65-2.08
			c0.13-0.02,0.26-0.02,0.39,0C244.37,6452.86,245.76,6452.89,247.16,6452.89L247.16,6452.89z M252.26,6456.7
			c-0.37,0.22-0.62,0.35-0.85,0.5c-1.02,0.67-2.03,1.35-3.04,2.03c-0.67,0.51-1.6,0.51-2.28,0.01c-0.6-0.4-1.21-0.8-1.81-1.2
			l-2.07-1.37c0,1.6-0.01,2.99,0.01,4.37c0.01,0.51,0.33,0.69,0.81,0.69c2.82-0.01,5.63-0.01,8.45,0c0.5,0,0.78-0.24,0.78-0.72
			C252.26,6459.61,252.25,6458.23,252.26,6456.7L252.26,6456.7z M247.24,6454.19c-1.39,0-2.78-0.02-4.17,0.02
			c-0.28,0.01-0.55,0.29-0.83,0.45c0.15,0.25,0.24,0.58,0.45,0.73c1.28,0.9,2.61,1.73,3.89,2.63c0.39,0.32,0.96,0.31,1.33-0.04
			c1.24-0.86,2.51-1.67,3.75-2.53c0.22-0.22,0.41-0.48,0.55-0.76c-0.32-0.17-0.64-0.46-0.97-0.48
			C249.91,6454.16,248.57,6454.19,247.24,6454.19L247.24,6454.19z"/>
		<path id="Tracé_145" class="st0" d="M238.48,6439.51c0.12-0.47,0.18-0.79,0.28-1.08c0.54-1.51,0.57-3.15,0.08-4.67
			c-1.09-3.95,1.22-8.04,5.17-9.13c0.84-0.23,1.72-0.32,2.6-0.24c2.91,0.18,5.43,2.09,6.37,4.85c1.47,3.85-0.47,8.16-4.31,9.62
			c-1.64,0.62-3.44,0.65-5.1,0.08c-0.83-0.32-1.74-0.35-2.58-0.09C240.22,6439.08,239.43,6439.26,238.48,6439.51z M240.28,6437.5
			l0.24,0.12c0.41-0.13,0.82-0.23,1.25-0.28c0.52-0.06,1.06-0.01,1.56,0.16c3.1,1.47,6.81,0.16,8.28-2.94
			c1.04-2.19,0.71-4.78-0.83-6.64c-1.88-2.26-5.08-2.88-7.67-1.49c-2.62,1.35-3.88,4.38-3,7.19
			C240.54,6434.92,241.1,6436.12,240.28,6437.5L240.28,6437.5z"/>
		<path id="Tracé_146" class="st0" d="M156.68,6429.55H159c0.05,0.15,0.09,0.21,0.08,0.26c-0.1,0.69,0.01,1.58-0.38,2
			c-0.36,0.38-1.27,0.26-2.02,0.37v6.19h-2.58v-6.32c-0.58,0-1.06-0.02-1.54,0.01c-0.5,0.03-0.67-0.19-0.65-0.67
			c0.03-0.58,0.01-1.15,0.01-1.87c0.53,0,0.98-0.02,1.43,0.01c0.52,0.03,0.75-0.15,0.71-0.69c-0.03-0.43-0.02-0.87,0.01-1.31
			c-0.04-1.73,1.33-3.17,3.06-3.21c0.1,0,0.21,0,0.31,0.01h0.26c1.49,0.02,1.89,0.55,1.48,2.03c-0.09,0.19-0.27,0.32-0.47,0.37
			c-0.29,0.04-0.58,0.05-0.87,0.02c-0.57-0.08-1.09,0.31-1.17,0.88c-0.01,0.1-0.01,0.21,0,0.31
			C156.68,6428.42,156.68,6428.91,156.68,6429.55z"/>
		<path id="Tracé_147" class="st0" d="M202.86,6456.56c0.87-1.06,2.33-1.4,3.58-0.85c1.21,0.46,1.99,1.66,1.91,2.96
			c0.06,1.57,0.02,3.14,0.05,4.71c0.01,0.51-0.22,0.65-0.68,0.65c-2.62-0.05-2.06,0.35-2.12-1.99c-0.02-0.9,0.02-1.8-0.02-2.7
			c-0.04-1.09-0.55-1.65-1.41-1.63s-1.44,0.67-1.45,1.73c-0.01,1.48,0,2.96,0,4.51h-2.72v-8.23h2.62L202.86,6456.56z"/>
		<path id="Tracé_148" class="st0" d="M198.34,6463.97h-2.67v-8.24h2.67V6463.97z"/>
		<path id="Tracé_149" class="st0" d="M197.05,6451.64c0.8-0.04,1.48,0.57,1.53,1.37c0.04,0.8-0.57,1.48-1.37,1.53
			c-0.07,0-0.15,0-0.22,0c-0.8,0.05-1.49-0.56-1.54-1.36c-0.05-0.8,0.56-1.49,1.36-1.54
			C196.88,6451.63,196.96,6451.64,197.05,6451.64z"/>
		<path id="Tracé_150" class="st0" d="M247.52,6435.48c-0.69-0.24-1.36-0.52-2.01-0.85c-1.26-0.74-2.28-1.83-2.95-3.12
			c-0.53-0.84-0.47-1.92,0.15-2.69c0.24-0.4,0.76-0.54,1.16-0.3c0.2,0.12,0.34,0.31,0.4,0.54c0.28,0.67,0.8,1.33,0.06,2.06
			c-0.1,0.1-0.04,0.53,0.09,0.68c0.45,0.53,0.94,1.02,1.46,1.46c0.58,0.47,1.19,0.71,1.74-0.15c0.1-0.16,0.7-0.17,0.96-0.04
			c0.5,0.26,1.37,0.24,1.16,1.21C249.59,6434.98,248.84,6435.49,247.52,6435.48z"/>
	</g>
</g>
</svg>
