<?xml version="1.0" encoding="utf-8"?>
<!-- Generator: Adobe Illustrator 23.1.1, SVG Export Plug-In . SVG Version: 6.00 Build 0)  -->
<svg version="1.1" id="Calque_1" xmlns="http://www.w3.org/2000/svg" xmlns:xlink="http://www.w3.org/1999/xlink" x="0px" y="0px"
	 viewBox="0 0 328.18 106.09" style="enable-background:new 0 0 328.18 106.09;" xml:space="preserve">
<style type="text/css">
	.st0{fill:#FFFFFF;}
	.st1{fill:#5AA86F;}
	.st2{fill:#485175;}
	.st3{fill:#F7E8D3;}
	.st4{fill:#F1573F;}
	.st5{fill:#2D302F;}
	.st6{fill:#FFFFFF;stroke:#000000;stroke-miterlimit:10;}
	.st7{fill:#E7F4EC;}
	.st8{fill:#547146;}
	.st9{fill:#BCCBBC;}
	.st10{fill:#EAE9DC;}
	.st11{fill:#275E39;}
	.st12{fill:#050008;}
	.st13{clip-path:url(#SVGID_2_);}
	.st14{stroke:#000000;stroke-width:1.7036;stroke-miterlimit:10;}
	.st15{fill:#F9F8F4;}
	.st16{fill:#148B20;stroke:#1C881F;stroke-miterlimit:10;}
	.st17{fill:#148B20;stroke:#148B20;stroke-miterlimit:10;}
	.st18{stroke:#000000;stroke-miterlimit:10;}
	.st19{fill:#148B20;}
	.st20{enable-background:new    ;}
	.st21{fill:#F8F7F3;}
	.st22{fill:#1C8B20;stroke:#1C8B20;}
	.st23{fill:#048D14;}
	.st24{fill:none;stroke:#000000;stroke-width:5;stroke-linecap:round;stroke-linejoin:round;}
	.st25{stroke:#000000;stroke-width:4.669952e-03;stroke-miterlimit:10;}
	.st26{stroke:#000000;stroke-width:0.096;stroke-miterlimit:10;}
	.st27{stroke:#000000;stroke-width:0.0566;stroke-miterlimit:10;}
	.st28{stroke:#000000;stroke-width:0.0902;stroke-miterlimit:10;}
	.st29{stroke:#000000;stroke-width:0.0884;stroke-miterlimit:10;}
	.st30{stroke:#000000;stroke-width:0.167;stroke-miterlimit:10;}
	.st31{stroke:#000000;stroke-width:0.0762;stroke-miterlimit:10;}
	.st32{stroke:#000000;stroke-width:0.0219;stroke-miterlimit:10;}
	.st33{stroke:#000000;stroke-width:0.0543;stroke-miterlimit:10;}
	.st34{stroke:#000000;stroke-width:0.0601;stroke-miterlimit:10;}
	.st35{stroke:#000000;stroke-width:0.0782;stroke-miterlimit:10;}
	.st36{stroke:#000000;stroke-width:0.3088;stroke-miterlimit:10;}
	.st37{stroke:#000000;stroke-width:0.1976;stroke-miterlimit:10;}
	.st38{stroke:#000000;stroke-width:0.2875;stroke-miterlimit:10;}
	.st39{stroke:#000000;stroke-width:0.059;stroke-miterlimit:10;}
	.st40{stroke:#000000;stroke-width:0.2493;stroke-miterlimit:10;}
	.st41{stroke:#000000;stroke-width:0.5508;stroke-miterlimit:10;}
	.st42{stroke:#000000;stroke-width:0.676;stroke-miterlimit:10;}
	.st43{stroke:#000000;stroke-width:0.4515;stroke-miterlimit:10;}
	.st44{stroke:#000000;stroke-width:1.704;stroke-miterlimit:10;}
</style>
<g id="Groupe_148" transform="translate(-532 -720)">
	<path id="Tracé_180" class="st19" d="M532,727.17l6.95,69.28l159.84-7.17l104.24-4.78l-4.63-31.05h-83.4L708.06,720L532,727.17z"
		/>
	<g class="st20">
		<path class="st21" d="M552.42,738.99l-4.49-5.26l-2.16,0.07l-1.04,1.11l0.07,2.16l8.84,6.2l1.25,5.36l-2.02,4.38l-3.2,1.18
			l-2.16,0.07l-4.35-0.94l-2.12,1.15l-1.36-8.6l1.08-0.04l4.53,6.34l4.32-0.14l1.04-1.12l-0.07-2.16l-9.96-7.24l-1.18-3.2l0.94-4.35
			l3.17-2.26l6.51,0.87l2.12-1.15l1.32,7.52L552.42,738.99z"/>
		<path class="st21" d="M565.86,753.68l-4.39-2.02l-3.34-3.13l-1.25-5.36l0.91-5.43l3.13-3.34l4.25-2.3l5.4-0.17l4.39,2.02
			l3.34,3.13l1.25,5.36l-0.91,5.43l-3.13,3.34l-4.25,2.3L565.86,753.68z M569.03,751.42l2.12-1.15l2.05-3.31l-0.28-8.63l-2.26-3.17
			l-2.19-1.01l-1.08,0.04l-2.12,1.15l-2.05,3.31l0.28,8.63l2.26,3.17l2.19,1.01L569.03,751.42z"/>
		<path class="st21" d="M601.38,749.29l-2.09,2.23l-3.2,1.18l-4.32,0.14l-4.35-0.94l-2.23-2.09l-1.18-3.2l-0.42-12.95l-2.23-2.09
			l9.71-0.31l-2.09,2.23l0.38,11.87l1.18,3.2l1.11,1.04l2.19,1.01l2.16-0.07l2.12-1.15l1.01-2.19l-0.45-14.03l-2.23-2.09l7.55-0.24
			l-2.09,2.23l0.42,12.95L601.38,749.29z"/>
		<path class="st21" d="M624.21,736.68l-2.26-3.17l-4.35-0.94l0.56,17.27l2.23,2.09l-9.71,0.31l2.09-2.23l-0.56-17.27l-4.28,1.22
			l-2.05,3.31l-1.08,0.04l0.84-7.59l4.35,0.94l9.71-0.31l4.28-1.22l1.32,7.52L624.21,736.68z"/>
		<path class="st21" d="M644.16,752.24l-2.19-1.01l-15.11,0.49l2.09-2.23l-0.56-17.27l-2.23-2.09l11.87-0.38l4.28-1.22l1.32,7.52
			l-1.08,0.03l-3.38-4.21l-4.32,0.14l-1.04,1.11l0.17,5.4l1.11,1.04l3.24-0.1l3.13-3.34l0.28,8.63l-3.34-3.13l-3.24,0.1l-1.04,1.11
			l0.17,5.4l1.11,1.04l5.4-0.17l3.06-5.5l1.08-0.04L644.16,752.24z"/>
		<path class="st21" d="M661.39,750.61l-10.23-15.88l1.53,13.99l2.23,2.09l-7.55,0.24l2.09-2.23l-0.56-17.27l-2.23-2.09l7.55-0.24
			l10.23,15.88l-1.53-13.99l-2.23-2.09l7.55-0.24l-2.09,2.23l0.62,19.42L661.39,750.61z"/>
		<path class="st21" d="M680.82,749.98l-9.71,0.31l2.09-2.23l-0.56-17.27l-2.23-2.09l9.71-0.31l-2.09,2.23l0.56,17.27L680.82,749.98
			z"/>
		<path class="st21" d="M695.24,727.91l3.27,0.97l3.38,4.21l-1.99,5.46l-4.28,1.22l0.03,1.08l3.27,0.97l4.56,7.41l-1.04,1.12
			l-5.47-1.99l-3.45-6.37l-1.11-1.04l-2.19-1.01l0.24,7.55l2.23,2.09l-9.71,0.31l2.09-2.23l-0.56-17.27l-2.23-2.09L695.24,727.91z
			 M696.53,734.35l-1.18-3.2l-2.19-1.01l-2.16,0.07l-1.04,1.11l0.24,7.55l3.24-0.1l2.12-1.15L696.53,734.35z"/>
	</g>
	<g class="st20">
		<path class="st21" d="M540.99,786.5l2.09-2.23L542.52,767l-2.23-2.09l9.71-0.31l-2.09,2.23l0.52,16.19l1.11,1.04l4.32-0.14
			l3.06-5.5l1.08-0.04l-0.8,8.67l-2.19-1.01L540.99,786.5z"/>
		<path class="st21" d="M558.26,785.94l2.09-2.23l7-17.51l-0.04-1.08l4.25-2.3l8.21,20.26l2.23,2.09l-9.71,0.31l2.09-2.23l-1.18-3.2
			l-8.63,0.28l-0.97,3.27l2.23,2.09L558.26,785.94z M568.53,769.41l-2.96,8.74l6.47-0.21l-3.55-9.61L568.53,769.41z"/>
		<path class="st21" d="M594.89,782.6l-0.56-17.27l-2.23-2.09l11.87-0.38l4.28-1.22l1.32,7.52l-1.08,0.03l-3.38-4.21l-4.32,0.14
			l-1.04,1.11l0.17,5.4l1.11,1.04l3.24-0.1l3.13-3.34l0.28,8.63l-3.34-3.13l-3.24,0.1l-1.04,1.11l0.21,6.48l2.23,2.09l-9.71,0.31
			L594.89,782.6z"/>
		<path class="st21" d="M619.78,783.96l-4.39-2.02l-3.34-3.13l-1.25-5.36l0.91-5.43l3.13-3.34l4.25-2.3l5.4-0.17l4.39,2.02
			l3.34,3.13l1.25,5.36l-0.91,5.43l-3.13,3.34l-4.25,2.3L619.78,783.96z M622.95,781.7l2.12-1.15l2.05-3.31l-0.28-8.63l-2.26-3.17
			l-2.19-1.01l-1.08,0.04l-2.12,1.15l-2.05,3.31l0.28,8.63l2.26,3.17l2.19,1.01L622.95,781.7z"/>
		<path class="st21" d="M648.23,761.44l3.27,0.97l3.38,4.21l-1.98,5.46l-4.28,1.22l0.04,1.08l3.27,0.98l4.56,7.41l-1.04,1.12
			l-5.46-1.99l-3.45-6.37l-1.11-1.04l-2.19-1.01l0.24,7.55l2.23,2.09l-9.71,0.31l2.09-2.23l-0.56-17.27l-2.23-2.09L648.23,761.44z
			 M649.52,767.88l-1.18-3.2l-2.19-1.01l-2.16,0.07l-1.04,1.11l0.24,7.55l3.24-0.1l2.12-1.15L649.52,767.88z"/>
		<path class="st21" d="M671.6,782.29l-3.2,1.18l-7.07-18.14l1.57,15.07l2.23,2.09l-7.55,0.24l2.09-2.23l-0.56-17.27l-2.23-2.09
			l8.63-0.28l5.88,14.93l0.04,1.08l4.88-16.36l7.55-0.24l-2.09,2.23l0.56,17.27l2.23,2.09l-9.71,0.31l2.09-2.23l-0.45-14.03
			L671.6,782.29z"/>
		<path class="st21" d="M684.55,781.88l2.09-2.23l7-17.51l-0.04-1.08l4.25-2.3l8.21,20.26l2.23,2.09l-9.71,0.31l2.09-2.23l-1.18-3.2
			l-8.63,0.28l-0.97,3.27l2.23,2.09L684.55,781.88z M694.82,765.34l-2.96,8.74l6.47-0.21l-3.55-9.61L694.82,765.34z"/>
		<path class="st21" d="M725.08,765.45l-2.26-3.17l-4.35-0.94l0.56,17.27l2.23,2.09l-9.71,0.31l2.09-2.23l-0.56-17.27l-4.28,1.22
			l-2.05,3.31l-1.08,0.03l0.84-7.59l4.35,0.94l9.71-0.31l4.28-1.22l1.32,7.52L725.08,765.45z"/>
		<path class="st21" d="M737.44,780.17l-9.71,0.31l2.09-2.23l-0.56-17.27l-2.23-2.09l9.71-0.31l-2.09,2.23l0.56,17.27L737.44,780.17
			z"/>
		<path class="st21" d="M748.24,779.83l-4.39-2.02l-3.34-3.13l-1.25-5.36l0.91-5.43l3.13-3.34l4.25-2.3l5.4-0.17l4.38,2.02
			l3.34,3.13l1.25,5.36l-0.91,5.43l-3.13,3.34l-4.25,2.3L748.24,779.83z M751.41,777.57l2.12-1.15l2.05-3.31l-0.28-8.63l-2.26-3.17
			l-2.19-1.01l-1.08,0.04l-2.12,1.15l-2.05,3.31l0.28,8.63l2.26,3.17l2.19,1.01L751.41,777.57z"/>
		<path class="st21" d="M778.46,778.85l-10.23-15.87l1.53,14l2.23,2.09l-7.55,0.24l2.09-2.23l-0.56-17.27l-2.23-2.09l7.55-0.24
			l10.23,15.87l-1.53-13.99l-2.23-2.09l7.55-0.24l-2.09,2.23l0.62,19.42L778.46,778.85z"/>
	</g>
	<g class="st20">
		<path class="st19" d="M577.76,803.42l5.4,1.08l4.32,4.32l1.08,5.4l-1.08,5.4l-4.32,4.32l-4.32,1.08h-12.96l2.16-2.16v-17.28
			l-2.16-2.16H577.76z M581,807.74l-1.08-1.08l-2.16-1.08h-3.24l-1.08,1.08v15.12l1.08,1.08h3.24l2.16-1.08l1.08-1.08l1.08-2.16
			v-8.64L581,807.74z"/>
		<path class="st19" d="M608,826.09l-2.16-1.08h-15.12l2.16-2.16v-17.28l-2.16-2.16h11.88l4.32-1.08l1.08,7.56h-1.08l-3.24-4.32
			h-4.32l-1.08,1.08v5.4l1.08,1.08h3.24l3.24-3.24v8.64l-3.24-3.24h-3.24l-1.08,1.08v5.4l1.08,1.08h5.4l3.24-5.4h1.08L608,826.09z"
			/>
		<path class="st19" d="M624.2,809.9l-4.32-5.4h-2.16l-1.08,1.08v2.16l8.64,6.48l1.08,5.4l-2.16,4.32l-3.24,1.08h-2.16l-4.32-1.08
			l-2.16,1.08l-1.08-8.64h1.08l4.32,6.48h4.32l1.08-1.08v-2.16l-9.72-7.56l-1.08-3.24l1.08-4.32l3.24-2.16l6.48,1.08l2.16-1.08
			l1.08,7.56H624.2z"/>
		<path class="st19" d="M645.8,822.86l2.16,2.16h-9.72l2.16-2.16v-17.28l-2.16-2.16h12.96l3.24,1.08l3.24,4.32l-2.16,5.4l-5.4,2.16
			l-4.32-1.08V822.86z M645.8,806.66v7.56h3.24l2.16-1.08l1.08-3.24l-1.08-3.24l-2.16-1.08h-2.16L645.8,806.66z"/>
		<path class="st19" d="M671.72,803.42l3.24,1.08l3.24,4.32l-2.16,5.4l-4.32,1.08v1.08l3.24,1.08l4.32,7.56l-1.08,1.08l-5.4-2.16
			l-3.24-6.48l-1.08-1.08l-2.16-1.08v7.56l2.16,2.16h-9.72l2.16-2.16v-17.28l-2.16-2.16H671.72z M672.8,809.9l-1.08-3.24l-2.16-1.08
			h-2.16l-1.08,1.08v7.56h3.24l2.16-1.08L672.8,809.9z"/>
		<path class="st19" d="M689,825.01l-4.32-2.16l-3.24-3.24l-1.08-5.4l1.08-5.4l3.24-3.24l4.32-2.16h5.4l4.32,2.16l3.24,3.24
			l1.08,5.4l-1.08,5.4l-3.24,3.24l-4.32,2.16H689z M692.24,822.86l2.16-1.08l2.16-3.24v-8.64l-2.16-3.24l-2.16-1.08h-1.08
			l-2.16,1.08l-2.16,3.24v8.64l2.16,3.24l2.16,1.08H692.24z"/>
		<path class="st19" d="M707.37,822.86v-17.28l-2.16-2.16h11.88l4.32-1.08l1.08,7.56h-1.08l-3.24-4.32h-4.32l-1.08,1.08v5.4
			l1.08,1.08h3.24l3.24-3.24v8.64l-3.24-3.24h-3.24l-1.08,1.08v6.48l2.16,2.16h-9.72L707.37,822.86z"/>
		<path class="st19" d="M740.84,826.09l-2.16-1.08h-15.12l2.16-2.16v-17.28l-2.16-2.16h11.88l4.32-1.08l1.08,7.56h-1.08l-3.24-4.32
			h-4.32l-1.08,1.08v5.4l1.08,1.08h3.24l3.24-3.24v8.64l-3.24-3.24h-3.24l-1.08,1.08v5.4l1.08,1.08h5.4l3.24-5.4h1.08L740.84,826.09
			z"/>
		<path class="st19" d="M757.04,809.9l-4.32-5.4h-2.16l-1.08,1.08v2.16l8.64,6.48l1.08,5.4l-2.16,4.32l-3.24,1.08h-2.16l-4.32-1.08
			l-2.16,1.08l-1.08-8.64h1.08l4.32,6.48h4.32l1.08-1.08v-2.16l-9.72-7.56l-1.08-3.24l1.08-4.32l3.24-2.16l6.48,1.08l2.16-1.08
			l1.08,7.56H757.04z"/>
		<path class="st19" d="M774.32,809.9l-4.32-5.4h-2.16l-1.08,1.08v2.16l8.64,6.48l1.08,5.4l-2.16,4.32l-3.24,1.08h-2.16l-4.32-1.08
			l-2.16,1.08l-1.08-8.64h1.08l4.32,6.48h4.32l1.08-1.08v-2.16l-9.72-7.56l-1.08-3.24l1.08-4.32l3.24-2.16l6.48,1.08l2.16-1.08
			l1.08,7.56H774.32z"/>
		<path class="st19" d="M795.92,826.09l-2.16-1.08h-15.12l2.16-2.16v-17.28l-2.16-2.16h11.88l4.32-1.08l1.08,7.56h-1.08l-3.24-4.32
			h-4.32l-1.08,1.08v5.4l1.08,1.08h3.24l3.24-3.24v8.64l-3.24-3.24h-3.24l-1.08,1.08v5.4l1.08,1.08h5.4l3.24-5.4H797L795.92,826.09z
			"/>
		<path class="st19" d="M818.6,821.78l-2.16,2.16l-3.24,1.08h-4.32l-4.32-1.08l-2.16-2.16l-1.08-3.24v-12.96l-2.16-2.16h9.72
			l-2.16,2.16v11.88l1.08,3.24l1.08,1.08l2.16,1.08h2.16l2.16-1.08l1.08-2.16v-14.04l-2.16-2.16h7.56l-2.16,2.16v12.96L818.6,821.78
			z"/>
		<path class="st19" d="M836.42,803.42l3.24,1.08l3.24,4.32l-2.16,5.4l-4.32,1.08v1.08l3.24,1.08l4.32,7.56l-1.08,1.08l-5.4-2.16
			l-3.24-6.48l-1.08-1.08l-2.16-1.08v7.56l2.16,2.16h-9.72l2.16-2.16v-17.28l-2.16-2.16H836.42z M837.5,809.9l-1.08-3.24l-2.16-1.08
			h-2.16l-1.08,1.08v7.56h3.24l2.16-1.08L837.5,809.9z"/>
		<path class="st19" d="M858.02,809.9l-4.32-5.4h-2.16l-1.08,1.08v2.16l8.64,6.48l1.08,5.4l-2.16,4.32l-3.24,1.08h-2.16l-4.32-1.08
			l-2.16,1.08l-1.08-8.64h1.08l4.32,6.48h4.32l1.08-1.08v-2.16l-9.72-7.56l-1.08-3.24l1.08-4.32l3.24-2.16l6.48,1.08l2.16-1.08
			l1.08,7.56H858.02z"/>
	</g>
</g>
</svg>
