<?xml version="1.0" encoding="utf-8"?>
<!-- Generator: Adobe Illustrator 23.1.1, SVG Export Plug-In . SVG Version: 6.00 Build 0)  -->
<svg version="1.1" id="Calque_1" xmlns="http://www.w3.org/2000/svg" xmlns:xlink="http://www.w3.org/1999/xlink" x="0px" y="0px"
	 viewBox="0 0 343.74 145.71" style="enable-background:new 0 0 343.74 145.71;" xml:space="preserve">
<style type="text/css">
	.st0{fill:#F5FAFA;}
	.st1{fill:#EFEEE4;}
	.st2{fill:#EBF7EF;}
	.st3{fill:#048D14;}
	.st4{fill:#5AA86F;}
	.st5{fill:#485175;}
	.st6{fill:#F7E8D3;}
	.st7{fill:#E7F4EC;}
	.st8{fill:#547146;}
	.st9{fill:#BCCBBC;}
	.st10{fill:#EAE9DC;}
	.st11{fill:#275E39;}
	.st12{fill:#050008;}
	.st13{fill:#2F5418;}
	.st14{fill:#F9F8F4;}
	.st15{fill:#148B20;}
	.st16{enable-background:new    ;}
</style>
<g>
	<g>
		<polygon class="st15" points="84.28,17.77 84.33,19.13 80.63,30.14 88.78,29.86 		"/>
		<polygon class="st15" points="80.37,61.56 77.61,60.3 76.25,60.35 73.58,61.8 71,65.97 71.39,76.84 74.25,80.82 77.01,82.08 
			78.37,82.03 81.04,80.58 83.61,76.41 83.23,65.54 		"/>
		<polygon class="st15" points="178.19,58.13 175.43,56.87 172.71,56.97 171.4,58.37 171.73,67.88 175.81,67.74 178.48,66.28 
			179.69,62.16 		"/>
		<polygon class="st15" points="129.38,62.57 125.68,73.57 133.83,73.29 129.33,61.21 		"/>
		<path class="st15" d="M323.86,40.56L316.5,0L75.45,3.99L0,11.09l9.53,81.3l216.51-5.36l-5.21-42.86L323.86,40.56z M278.33,4.18
			l5.48,1.17l12.23-0.43l5.39-1.55l1.69,9.46l-1.36,0.05l-2.86-3.98l-5.48-1.17l0.76,21.73l2.81,2.62l-12.23,0.43l2.62-2.81
			l-0.76-21.73l-5.39,1.55l-2.57,4.17l-1.36,0.05L278.33,4.18z M257.99,6.25l12.94,19.95l-1.98-17.61l-2.81-2.62l9.51-0.33
			l-2.62,2.81l0.86,24.45l-6.79,0.24l-12.94-19.95l1.98,17.61l2.81,2.62l-9.51,0.33l2.62-2.81L251.3,9.2l-2.81-2.62L257.99,6.25z
			 M237.61,6.96L243,5.41l1.69,9.46l-1.36,0.05l-4.27-5.29l-5.43,0.19l-1.31,1.41l0.24,6.79l1.41,1.31l4.08-0.14l3.93-4.22
			l0.38,10.87l-4.22-3.93l-4.08,0.14l-1.31,1.41l0.24,6.79l1.41,1.31l6.79-0.24l3.84-6.94l1.36-0.05l-0.98,10.91l-2.76-1.26
			l-19.02,0.67l2.62-2.81l-0.76-21.73l-2.81-2.62L237.61,6.96z M198.21,8.34l7.46,18.78l0.05,1.36l6.08-20.61l9.51-0.33l-2.62,2.81
			l0.76,21.73l2.81,2.62l-12.23,0.43l2.62-2.81l-0.62-17.66l-6.08,20.61l-4.03,1.5l-8.96-22.81l2.02,18.97l2.81,2.62l-9.51,0.33
			l2.62-2.81l-0.76-21.73l-2.81-2.62L198.21,8.34z M111.26,11.39l12.94,19.95l-1.98-17.61l-2.81-2.62l9.51-0.33l-2.62,2.81
			l0.86,24.45l-6.79,0.24l-12.94-19.95l1.98,17.61l2.81,2.62l-9.51,0.33l2.62-2.81l-0.76-21.73l-2.81-2.62L111.26,11.39z
			 M74.08,37.17l8.75-22.07l-0.05-1.36l5.34-2.91l10.41,25.48l2.81,2.62l-12.23,0.43l2.62-2.81l-1.5-4.03l-10.87,0.38l-1.22,4.12
			l2.81,2.62l-9.51,0.33L74.08,37.17z M51.48,13.48l-2.62,2.81l0.29,8.15l1.41,1.31l8.15-0.29l1.31-1.41l-0.29-8.15l-2.81-2.62
			l12.23-0.43l-2.62,2.81l0.76,21.73l2.81,2.62l-12.23,0.43l2.62-2.81L60.2,29.5l-1.41-1.31l-8.15,0.29l-1.31,1.41l0.29,8.15
			l2.81,2.62l-12.23,0.43l2.62-2.81l-0.76-21.73l-2.81-2.62L51.48,13.48z M13.68,21.61l3.93-4.22l5.34-2.91l6.79-0.24l5.53,2.53
			l2.86,3.98l-2.57,4.17l-4.08,0.14l-0.24-6.79l-2.76-1.26l-2.72,0.1l-2.67,1.45l-2.57,4.17L20.9,33.6l2.86,3.98l2.76,1.26l2.72-0.1
			l4.03-1.5l2.57-4.17l2.77,1.26l-2.58,4.17l-5.34,2.91l-6.79,0.24l-5.53-2.53l-4.22-3.93l-1.6-6.74L13.68,21.61z M30.86,85.06
			l-4.03,1.5l-2.72,0.1l-5.48-1.17l-2.67,1.45l-1.74-10.82l1.36-0.05l5.72,7.96l5.43-0.19l1.31-1.41l-0.09-2.72L15.4,70.64
			l-1.5-4.03l1.17-5.48l3.98-2.86l8.2,1.07l2.67-1.45l1.69,9.46l-1.36,0.05l-5.67-6.6l-2.72,0.1l-1.31,1.41l0.09,2.72l11.15,7.77
			l1.6,6.75L30.86,85.06z M59.35,82.7l-5.34,2.91l-6.79,0.24l-5.53-2.53l-4.22-3.93l-1.6-6.75l1.12-6.84l3.93-4.22l5.34-2.91
			l6.79-0.24l5.53,2.53l2.86,3.98l-2.57,4.17l-4.08,0.14l-0.24-6.79l-2.76-1.26l-2.72,0.1l-2.67,1.45l-2.57,4.17l0.38,10.87
			l2.86,3.98l2.76,1.26l2.72-0.1l4.03-1.5l2.58-4.17l2.76,1.26L59.35,82.7z M90.45,77.53l-3.93,4.22l-5.34,2.91l-6.79,0.24
			l-5.53-2.53l-4.22-3.93l-1.6-6.75l1.12-6.84l3.93-4.22l5.34-2.91l6.79-0.24l5.53,2.53l4.22,3.93l1.6,6.74L90.45,77.53z
			 M115.19,84.82l-2.76-1.26l-17.66,0.62l2.62-2.81l-0.76-21.73l-2.81-2.62l12.23-0.43l-2.62,2.81l0.71,20.38l1.41,1.31l5.43-0.19
			l3.84-6.93l1.36-0.05L115.19,84.82z M134.17,82.8l2.62-2.81l-1.5-4.03l-10.87,0.38l-1.21,4.12l2.81,2.62l-9.51,0.33l2.62-2.81
			l8.75-22.07l-0.05-1.36l5.34-2.91l10.41,25.48l2.81,2.62L134.17,82.8z M147.76,82.32l2.62-2.81l-0.76-21.73l-2.81-2.62l12.23-0.43
			l-2.62,2.81l0.76,21.73l2.81,2.62L147.76,82.32z M158.07,27.43l0.09,2.72l-2.57,4.17l-5.34,2.91l-6.79,0.24l-5.53-2.53L133.71,31
			l-1.6-6.75l1.12-6.84l3.93-4.22l5.34-2.91l6.79-0.24l5.53,2.53l2.86,3.98l-2.57,4.17l-4.08,0.14l-0.24-6.79l-2.76-1.26l-2.72,0.1
			l-2.67,1.45l-2.57,4.17l0.38,10.87l2.86,3.98l2.76,1.26l2.72-0.1l2.67-1.45l-0.19-5.43l-2.81-2.62l12.23-0.43L158.07,27.43z
			 M176.47,9.1l5.39-1.55l1.69,9.46l-1.36,0.05l-4.27-5.29l-5.43,0.19l-1.31,1.41l0.24,6.79l1.41,1.31l4.08-0.14l3.93-4.22
			l0.38,10.87L177,24.05l-4.08,0.14l-1.31,1.41l0.24,6.79l1.41,1.31l6.79-0.24l3.84-6.93l1.36-0.05l-0.98,10.92l-2.76-1.26
			l-19.02,0.67l2.62-2.81l-0.76-21.74l-2.81-2.62L176.47,9.1z M187.2,82.3l-6.89-2.48l-4.36-8.01l-1.41-1.31l-2.77-1.26l0.33,9.51
			l2.81,2.62L162.7,81.8l2.62-2.81l-0.76-21.73l-2.81-2.62l16.3-0.57l4.12,1.22l4.26,5.29l-2.48,6.89L178.57,69l0.05,1.36l4.12,1.22
			l5.77,9.32L187.2,82.3z M211.66,81.44l-2.76-1.26l-19.02,0.67l2.62-2.81l-0.76-21.73l-2.81-2.62l14.94-0.52l5.39-1.55l1.69,9.46
			l-1.36,0.05l-4.26-5.29l-5.43,0.19l-1.31,1.41l0.24,6.79l1.41,1.31l4.08-0.14l3.93-4.22l0.38,10.87l-4.22-3.93l-4.08,0.14
			L199,69.65l0.24,6.79l1.41,1.31l6.79-0.24l3.84-6.93l1.36-0.05L211.66,81.44z"/>
	</g>
	<g class="st16">
		<path class="st15" d="M12.58,132.11l2.72,2.72H3.06l2.72-2.72v-21.76l-2.72-2.72h16.32l4.08,1.36l4.08,5.44l-2.72,6.8l-6.8,2.72
			l-5.44-1.36V132.11z M12.58,111.71v9.52h4.08l2.72-1.36l1.36-4.08l-1.36-4.08l-2.72-1.36h-2.72L12.58,111.71z"/>
		<path class="st15" d="M23.46,134.83l2.72-2.72l9.52-21.76v-1.36l5.44-2.72l9.52,25.84l2.72,2.72H41.14l2.72-2.72l-1.36-4.08H31.62
			l-1.36,4.08l2.72,2.72H23.46z M37.06,114.43l-4.08,10.88h8.16l-4.08-12.24V114.43z"/>
		<path class="st15" d="M71.06,115.79l-5.44-6.8H62.9l-1.36,1.36v2.72l10.88,8.16l1.36,6.8l-2.72,5.44l-4.08,1.36h-2.72l-5.44-1.36
			l-2.72,1.36l-1.36-10.88h1.36l5.44,8.16h5.44l1.36-1.36v-2.72l-12.24-9.52l-1.36-4.08l1.36-5.44l4.08-2.72l8.16,1.36l2.72-1.36
			l1.36,9.52H71.06z"/>
		<path class="st15" d="M106.42,134.83h-6.8l-5.44-2.72l-4.08-4.08l-1.36-6.8l1.36-6.8l4.08-4.08l5.44-2.72h6.8l5.44,2.72l2.72,4.08
			l-2.72,4.08h-4.08v-6.8l-2.72-1.36h-2.72l-2.72,1.36l-2.72,4.08v10.88l2.72,4.08l2.72,1.36h2.72l4.08-1.36l2.72-4.08l2.72,1.36
			l-2.72,4.08L106.42,134.83z"/>
		<path class="st15" d="M115.94,134.83l2.72-2.72v-21.76l-2.72-2.72h12.24l-2.72,2.72v20.4l1.36,1.36h5.44l4.08-6.8h1.36
			l-1.36,10.88l-2.72-1.36H115.94z"/>
		<path class="st15" d="M151.3,134.83h-12.24l2.72-2.72v-21.76l-2.72-2.72h12.24l-2.72,2.72v21.76L151.3,134.83z"/>
		<path class="st15" d="M171.7,134.83l-4.08,1.36l-8.16-23.12l1.36,19.04l2.72,2.72h-9.52l2.72-2.72v-21.76l-2.72-2.72h10.88
			l6.8,19.04v1.36l6.8-20.4h9.52l-2.72,2.72v21.76l2.72,2.72h-12.24l2.72-2.72v-17.68L171.7,134.83z"/>
		<path class="st15" d="M188.02,134.83l2.72-2.72l9.52-21.76v-1.36l5.44-2.72l9.52,25.84l2.72,2.72H205.7l2.72-2.72l-1.36-4.08
			h-10.88l-1.36,4.08l2.72,2.72H188.02z M201.62,114.43l-4.08,10.88h8.16l-4.08-12.24V114.43z"/>
		<path class="st15" d="M239.7,115.79l-2.72-4.08l-5.44-1.36v21.76l2.72,2.72h-12.24l2.72-2.72v-21.76l-5.44,1.36l-2.72,4.08h-1.36
			l1.36-9.52l5.44,1.36h12.24l5.44-1.36l1.36,9.52H239.7z"/>
		<path class="st15" d="M254.66,134.83h-12.24l2.72-2.72v-21.76l-2.72-2.72h12.24l-2.72,2.72v21.76L254.66,134.83z"/>
		<path class="st15" d="M275.06,134.83l2.72,1.36l5.44,1.36h4.08v1.36l-5.44,2.72h-4.08l-4.08-2.72l-1.36-2.72v-1.36h-4.08
			l-5.44-2.72l-4.08-4.08l-1.36-6.8l1.36-6.8l4.08-4.08l5.44-2.72h6.8l5.44,2.72l4.08,4.08l1.36,6.8l-1.36,6.8l-4.08,4.08
			L275.06,134.83z M272.34,132.11l2.72-1.36l2.72-4.08v-10.88l-2.72-4.08l-2.72-1.36h-1.36l-2.72,1.36l-2.72,4.08v10.88l2.72,4.08
			l2.72,1.36H272.34z"/>
		<path class="st15" d="M313.14,130.75l-2.72,2.72l-4.08,1.36h-5.44l-5.44-1.36l-2.72-2.72l-1.36-4.08v-16.32l-2.72-2.72h12.24
			l-2.72,2.72v14.96l1.36,4.08l1.36,1.36l2.72,1.36h2.72l2.72-1.36l1.36-2.72v-17.68l-2.72-2.72h9.52l-2.72,2.72v16.32
			L313.14,130.75z"/>
		<path class="st15" d="M341.02,136.19l-2.72-1.36h-19.04l2.72-2.72v-21.76l-2.72-2.72h14.96l5.44-1.36l1.36,9.52h-1.36l-4.08-5.44
			h-5.44l-1.36,1.36v6.8l1.36,1.36h4.08l4.08-4.08v10.88l-4.08-4.08h-4.08l-1.36,1.36v6.8l1.36,1.36h6.8l4.08-6.8h1.36
			L341.02,136.19z"/>
	</g>
</g>
</svg>
