<?xml version="1.0" encoding="utf-8"?>
<!-- Generator: Adobe Illustrator 23.1.1, SVG Export Plug-In . SVG Version: 6.00 Build 0)  -->
<svg version="1.1" id="Calque_1" xmlns="http://www.w3.org/2000/svg" xmlns:xlink="http://www.w3.org/1999/xlink" x="0px" y="0px"
	 viewBox="0 0 343.62 348.63" style="enable-background:new 0 0 343.62 348.63;" xml:space="preserve">
<style type="text/css">
	.st0{fill:#FFFFFF;}
	.st1{fill:#5AA86F;}
	.st2{fill:#485175;}
	.st3{fill:#F7E8D3;}
	.st4{fill:#F1573F;}
	.st5{fill:#2D302F;}
	.st6{fill:#FFFFFF;stroke:#000000;stroke-miterlimit:10;}
	.st7{fill:#E7F4EC;}
	.st8{fill:#547146;}
	.st9{fill:#BCCBBC;}
	.st10{fill:#EAE9DC;}
	.st11{fill:#275E39;}
	.st12{fill:#050008;}
	.st13{clip-path:url(#SVGID_2_);}
	.st14{stroke:#000000;stroke-width:1.7036;stroke-miterlimit:10;}
	.st15{fill:#F9F8F4;}
	.st16{fill:#148B20;stroke:#1C881F;stroke-miterlimit:10;}
	.st17{fill:#148B20;stroke:#148B20;stroke-miterlimit:10;}
	.st18{stroke:#000000;stroke-miterlimit:10;}
	.st19{fill:#148B20;}
	.st20{enable-background:new    ;}
	.st21{fill:#F8F7F3;}
	.st22{fill:#1C8B20;stroke:#1C8B20;}
	.st23{fill:#048D14;}
	.st24{fill:none;stroke:#000000;stroke-width:5;stroke-linecap:round;stroke-linejoin:round;}
</style>
<g>
	<path id="Tracé_128_1_" class="st18" d="M328.62,114.18c0.17-0.42,0.15-0.88-0.03-1.29c-0.72-1.65-1.52-3.27-2.34-4.86
		c-15.08-37.56-41.35-72.15-79.48-87.79c-18.74-7.69-39.33-12.9-59.17-16.97C172.11,0.08,153.72-2,139.58,6.58
		c-0.11-0.07-0.23-0.12-0.35-0.13c-0.4-0.25-0.88-0.33-1.33-0.23C87.82,16.94,43.7,53.27,19.3,97.48
		C-6.37,144.01-5,198.85,18.8,245.66c22.84,44.94,65.12,80.33,113,95.6c48.1,15.34,98.94,3.99,140.02-24.01
		c17.7-12.07,32.96-27.36,45.01-45.08c0.08,0.08,0.16,0.16,0.24,0.25c0.5-0.88,0.95-1.79,1.34-2.73c0.26-0.65,0.66-1.24,1.17-1.72
		c7.3-11.41,13.11-23.71,17.3-36.59C348.93,194.07,342.06,150.47,328.62,114.18z M332.7,233.41c-0.85,2.79-1.83,5.52-2.88,8.23
		c-0.49,2.85-1.62,5.55-3.31,7.9c-2.77,6.07-5.96,11.94-9.56,17.56l-0.05-0.06c-0.58,1.1-1.24,2.15-1.98,3.15l0.01,0.01
		c-3.39,5.01-7.07,9.82-11.01,14.41c-1.05,2.23-2.55,4.22-4.4,5.85c-3.62,3.22-6.95,6.71-10.78,9.71c-0.29,0.23-0.58,0.43-0.87,0.66
		c-1.06,0.94-2.11,1.87-3.19,2.78l-0.03-0.09l-0.13-0.23c-0.6,0.43-1.21,0.85-1.82,1.27l0.5,0.29c-5.96,4.92-12.23,9.46-18.77,13.59
		c-0.12-0.31-0.22-0.62-0.33-0.93c-0.38,0.31-0.76,0.62-1.13,0.94c0.1,0.23,0.21,0.45,0.32,0.68l0.02,0.02
		c-15.23,9.47-31.77,16.64-49.09,21.29c-23.32,6.08-47.78,6.22-71.17,0.42c0.04-0.35,0.1-0.67,0.15-1.01
		c-0.59-0.05-1.19-0.1-1.78-0.14c-0.03,0.25-0.07,0.49-0.09,0.74c-14.87-3.79-29.17-9.53-42.54-17.07l0.05-0.21
		c-0.57-0.33-1.14-0.67-1.7-1.02l-0.01,0.28c-13.43-7.73-25.92-17-37.21-27.62C15.27,252.89-7.4,190.61,9.2,130.63
		C25,73.56,76.82,24.17,134.84,10.89l-0.1,0.14c1.82-0.59,3.59-1.42,5.43-2.02c0.04-0.09,0.07-0.17,0.1-0.27
		c2.9-1.64,6-2.91,9.22-3.78c5.68-3.75,12.87-1.86,19.89-1.53l-0.03-0.02c0.15,0.01,0.3,0.03,0.46,0.04
		c0.67,0.03,1.33,0.04,1.99,0.02c0.56-0.02,1.11,0.1,1.62,0.34c12.44,1.47,25.2,5.35,36.44,8.77c-0.02,0.04-0.03,0.09-0.05,0.13
		c2.34,0.42,4.63,1.07,6.84,1.93c1.05,0.36,2.12,0.66,3.19,0.95l-0.11-0.08c0.9,0.26,1.79,0.53,2.7,0.79
		c0.72,0.2,1.43,0.41,2.15,0.64c5.4,1.61,10.76,3.32,16.02,5.25c3.77,1.1,7.42,2.57,10.89,4.4c3.31,1.48,6.58,3.08,9.8,4.85
		c15.11,8.31,27.2,21.39,37.6,34.92c4.77,6.24,9.14,12.79,13.07,19.59c1.57,1.81,2.93,3.79,4.08,5.89c1.29,2.63,2.41,5.36,3.69,8
		c2.6,5.37,4.7,10.69,6.79,16.24c0.15,0.4,0.23,0.83,0.23,1.26C340.54,154.66,343.92,196.7,332.7,233.41z"/>
	<g id="Composant_12_3_1_" transform="translate(6.81 13.153)">
		<path id="trait_1_" class="st24" d="M154,4.08l8.52-3.74c0.93-0.41,2.01,0.01,2.42,0.94c0.29,0.65,0.17,1.41-0.3,1.95l0,0
			c-0.66,0.77-0.58,1.93,0.19,2.59c0.52,0.45,1.25,0.57,1.89,0.31c5.05-2.06,10.44-3.15,15.89-3.21c1.01,0,1.84,0.82,1.84,1.84
			c0,0.69-0.39,1.32-1,1.63c-3.53,1.83-6.93,3.89-10.19,6.16c-0.83,0.58-1.04,1.72-0.46,2.56c0.5,0.72,1.44,0.99,2.24,0.64
			c10.51-4.7,21.77-7.47,33.26-8.2c1.02-0.06,1.89,0.71,1.96,1.72c0.04,0.64-0.25,1.25-0.77,1.62L166.5,41.47
			c-0.83,0.59-1.02,1.74-0.44,2.56c0.5,0.7,1.42,0.97,2.22,0.63l57.78-24.35c0.94-0.4,2.01,0.04,2.41,0.98
			c0.34,0.81,0.07,1.74-0.65,2.24l-55.76,38.33c-0.84,0.57-1.05,1.72-0.48,2.56c0.52,0.76,1.52,1.02,2.34,0.61l78.03-38.91
			c0.9-0.46,2-0.1,2.46,0.8c0.07,0.15,0.13,0.3,0.16,0.46c1.29,6.92-5.72,13.68-11.97,18.02l-48.55,33.68
			c-0.83,0.58-1.03,1.73-0.45,2.56c0.54,0.77,1.57,1.01,2.39,0.56c21.9-12.13,44.42-22.97,68.17-30.34c0.97-0.3,2,0.25,2.3,1.22
			c0.25,0.81-0.09,1.68-0.81,2.12l-107.28,64.25c-0.87,0.52-1.16,1.65-0.63,2.53c0.43,0.72,1.3,1.06,2.1,0.82
			c42.61-12.9,78.47-49.47,122.32-53.06c1.01-0.08,1.9,0.68,1.98,1.69c0.05,0.67-0.27,1.32-0.83,1.69l-124.51,80.54
			c42.26-27.99,85.51-56.42,133.9-70.88c0.98-0.29,2,0.27,2.29,1.25c0.23,0.79-0.09,1.63-0.78,2.07
			c-20.24,12.67-43.2,20.8-64.62,31.59c-22.61,11.39-44.78,27.27-55.51,49.85c-0.44,0.91-0.06,2.01,0.85,2.46
			c0.63,0.3,1.38,0.23,1.93-0.2c37.88-29.58,78.7-56.14,123.62-72.8c0.95-0.35,2.01,0.14,2.36,1.09c0.29,0.78,0.01,1.66-0.67,2.14
			l-88.83,62.5c-0.83,0.58-1.03,1.73-0.45,2.56c0.52,0.74,1.49,0.99,2.3,0.6l96.76-46.57c0.92-0.44,2.02-0.05,2.46,0.87
			c0.22,0.47,0.24,1,0.04,1.48c-7.42,18.44-27.11,29.83-46.07,37.03c-19.1,7.25-39.85,12.64-55.17,25.88
			c-0.77,0.67-0.85,1.84-0.18,2.6c0.32,0.37,0.77,0.6,1.26,0.63c19.07,1.45,37.7-7.9,54.31-17.86
			c15.82-9.48,31.96-20.04,49.89-23.27c1-0.18,1.96,0.48,2.14,1.49c0.12,0.68-0.14,1.37-0.69,1.79
			c-22.44,17.17-46.04,32.76-70.65,46.64c-0.88,0.5-1.19,1.62-0.69,2.51c0.41,0.73,1.27,1.09,2.08,0.87
			c25.27-6.84,49.12-18.13,70.44-33.33l-45.66,34.9c-0.81,0.62-0.96,1.77-0.34,2.58c0.51,0.67,1.41,0.9,2.19,0.57
			c7.09-3.02,14.08-6.26,20.97-9.72c0.91-0.45,2.01-0.09,2.47,0.82c0.4,0.81,0.16,1.78-0.57,2.31l-14.83,10.8
			c-0.82,0.6-1,1.75-0.41,2.57c0.47,0.65,1.3,0.91,2.06,0.67c4.2-1.37,8.33-2.95,12.37-4.74c0.93-0.41,2.01,0.01,2.42,0.93
			c0.34,0.77,0.12,1.67-0.54,2.19l-0.44,0.35c-0.8,0.63-0.94,1.78-0.32,2.58c0.48,0.62,1.3,0.86,2.05,0.61l13.46-4.62
			c0.96-0.33,2.01,0.18,2.34,1.15c0.19,0.56,0.1,1.18-0.24,1.66c-1.35,1.91-3.15,3.44-5.26,4.46c-0.92,0.44-1.31,1.54-0.87,2.45
			c0.07,0.15,0.17,0.3,0.28,0.42c1.92,2.24,2.85,5.16,2.58,8.09"/>
		<g id="HE" transform="translate(-601.478 -3735.105)">
			<path id="Tracé_125_3_" class="st19" d="M601.48,3774.86l2.49,74.18h168.68v-22.01l-30.26-3.18v-19.75l-33.46-1.33v-25.09
				L601.48,3774.86z"/>
			<g class="st20">
				<path class="st21" d="M608.31,3781.69h2.5v10.49h6.44v1.98h-8.95V3781.69z"/>
				<path class="st21" d="M628.26,3791.23c-0.14,0.58-0.36,1.06-0.65,1.46c-0.29,0.4-0.64,0.72-1.05,0.96s-0.88,0.42-1.4,0.53
					c-0.52,0.11-1.08,0.16-1.66,0.16c-0.89,0-1.65-0.12-2.29-0.35c-0.64-0.23-1.17-0.55-1.58-0.96s-0.72-0.89-0.92-1.45
					c-0.2-0.56-0.3-1.17-0.3-1.83c0-0.78,0.12-1.46,0.37-2.03c0.25-0.58,0.59-1.05,1.03-1.43c0.44-0.38,0.97-0.66,1.59-0.85
					c0.62-0.19,1.31-0.28,2.07-0.28c0.72,0,1.38,0.1,1.97,0.29c0.59,0.19,1.1,0.48,1.52,0.85c0.42,0.38,0.74,0.85,0.97,1.42
					c0.23,0.57,0.34,1.23,0.34,1.99v0.63h-7.42c0.04,0.31,0.11,0.61,0.22,0.88c0.11,0.28,0.27,0.52,0.48,0.73
					c0.21,0.21,0.47,0.38,0.79,0.5c0.32,0.12,0.7,0.18,1.16,0.18c1.24,0,2-0.47,2.29-1.4H628.26z M625.75,3788.71
					c-0.02-0.25-0.1-0.49-0.22-0.72s-0.28-0.43-0.48-0.6c-0.2-0.17-0.43-0.31-0.7-0.41c-0.27-0.1-0.57-0.15-0.91-0.15
					c-0.4,0-0.75,0.05-1.05,0.16c-0.31,0.11-0.57,0.25-0.78,0.42c-0.21,0.17-0.38,0.38-0.5,0.6c-0.12,0.23-0.2,0.46-0.23,0.7H625.75
					z"/>
				<path class="st21" d="M631.95,3791.68c0.05,0.31,0.26,0.55,0.62,0.71c0.37,0.16,0.79,0.24,1.27,0.24c0.2,0,0.41-0.01,0.61-0.04
					c0.21-0.03,0.39-0.09,0.56-0.17s0.31-0.19,0.41-0.33c0.11-0.14,0.16-0.31,0.16-0.51c0-0.17-0.05-0.31-0.16-0.42
					s-0.26-0.21-0.45-0.28s-0.41-0.13-0.66-0.18s-0.51-0.09-0.8-0.13c-0.46-0.07-0.91-0.15-1.36-0.23c-0.45-0.08-0.86-0.22-1.22-0.4
					c-0.37-0.18-0.66-0.43-0.89-0.76c-0.23-0.32-0.34-0.76-0.34-1.3c0-0.48,0.11-0.89,0.32-1.23c0.22-0.34,0.5-0.62,0.86-0.85
					c0.36-0.22,0.78-0.38,1.26-0.49c0.48-0.1,0.99-0.15,1.53-0.15c0.55,0,1.06,0.06,1.53,0.17c0.47,0.11,0.87,0.28,1.22,0.5
					c0.34,0.22,0.61,0.48,0.81,0.8c0.2,0.32,0.3,0.69,0.3,1.11h-2.23c-0.02-0.13-0.09-0.25-0.19-0.37c-0.1-0.11-0.23-0.21-0.38-0.29
					s-0.32-0.14-0.5-0.19c-0.19-0.05-0.38-0.07-0.57-0.07c-0.42,0-0.79,0.08-1.12,0.23c-0.33,0.16-0.5,0.37-0.5,0.65
					c0,0.19,0.06,0.35,0.18,0.48s0.28,0.23,0.5,0.32c0.21,0.08,0.45,0.15,0.72,0.2s0.55,0.09,0.84,0.13
					c0.44,0.06,0.88,0.13,1.32,0.22s0.83,0.23,1.18,0.42c0.35,0.19,0.63,0.46,0.85,0.79c0.22,0.34,0.32,0.78,0.32,1.33
					c0,0.52-0.12,0.95-0.37,1.31c-0.25,0.35-0.57,0.64-0.96,0.85c-0.4,0.22-0.84,0.37-1.32,0.46s-0.97,0.13-1.45,0.13
					c-0.59,0-1.14-0.05-1.67-0.15c-0.52-0.1-0.98-0.26-1.38-0.48s-0.71-0.49-0.95-0.83c-0.23-0.34-0.36-0.74-0.37-1.21H631.95z"/>
				<path class="st21" d="M647.93,3781.69v4.5c0.35-0.38,0.77-0.65,1.26-0.81c0.49-0.16,0.98-0.23,1.46-0.23
					c1.37,0,2.45,0.26,3.26,0.77c0.8,0.52,1.21,1.34,1.21,2.48v5.76h-2.38v-5.65c0-0.26-0.06-0.5-0.18-0.71s-0.29-0.39-0.5-0.53
					c-0.21-0.14-0.47-0.25-0.76-0.33c-0.29-0.08-0.6-0.12-0.94-0.12c-0.68,0-1.25,0.17-1.7,0.5c-0.45,0.34-0.67,0.8-0.67,1.4v5.44
					h-2.41v-12.47H647.93z"/>
				<path class="st21" d="M657.34,3787.87c0.04-0.37,0.16-0.72,0.36-1.05c0.21-0.33,0.49-0.62,0.86-0.86
					c0.37-0.25,0.81-0.44,1.32-0.58c0.52-0.14,1.1-0.22,1.76-0.22c0.8,0,1.48,0.09,2.02,0.26c0.54,0.17,0.97,0.42,1.3,0.75
					s0.56,0.71,0.7,1.17c0.14,0.46,0.21,0.96,0.21,1.51v4.01c0,0.28,0.01,0.5,0.02,0.68c0.01,0.17,0.03,0.31,0.05,0.4
					c0.02,0.12,0.05,0.2,0.07,0.23h-2.12c-0.02-0.05-0.05-0.13-0.07-0.23c-0.03-0.1-0.04-0.22-0.05-0.38
					c-0.01-0.16-0.02-0.37-0.02-0.65c-0.12,0.22-0.29,0.41-0.5,0.58s-0.44,0.32-0.69,0.45s-0.52,0.22-0.81,0.3
					c-0.29,0.07-0.58,0.11-0.86,0.11c-0.5,0-1-0.05-1.49-0.15c-0.49-0.1-0.92-0.26-1.31-0.48s-0.71-0.5-0.95-0.85
					c-0.24-0.35-0.36-0.78-0.36-1.29c0-0.47,0.12-0.87,0.37-1.21c0.25-0.34,0.56-0.63,0.95-0.86c0.38-0.23,0.82-0.4,1.3-0.51
					s0.96-0.18,1.43-0.19l2.7-0.09v-0.4c0-0.5-0.16-0.88-0.49-1.12s-0.79-0.37-1.4-0.37c-0.52,0-0.95,0.1-1.3,0.29
					c-0.35,0.19-0.55,0.45-0.58,0.77L657.34,3787.87z M663.55,3790.33l-2.59,0.09c-0.6,0.02-1.05,0.14-1.34,0.35
					c-0.29,0.21-0.44,0.49-0.44,0.84c0,0.28,0.17,0.51,0.5,0.69c0.34,0.19,0.77,0.28,1.3,0.28c0.37,0,0.72-0.05,1.04-0.16
					c0.32-0.11,0.59-0.26,0.82-0.45c0.23-0.19,0.4-0.41,0.53-0.65c0.12-0.24,0.19-0.5,0.19-0.77V3790.33z"/>
				<path class="st21" d="M675.15,3794.17l-0.04-0.86c-0.34,0.37-0.77,0.64-1.29,0.8c-0.52,0.16-1.02,0.24-1.5,0.24
					c-1.37,0-2.45-0.26-3.24-0.77s-1.19-1.34-1.19-2.48v-5.76h2.38v5.62c0,0.26,0.06,0.5,0.19,0.71c0.12,0.21,0.3,0.39,0.51,0.53
					c0.22,0.14,0.47,0.26,0.76,0.33c0.29,0.08,0.59,0.12,0.92,0.12c0.7,0,1.27-0.17,1.71-0.5c0.44-0.34,0.67-0.8,0.67-1.4v-5.4h2.38
					v8.84H675.15z"/>
				<path class="st21" d="M684.76,3794.17c-0.36,0.06-0.71,0.1-1.05,0.11c-0.34,0.01-0.59,0.02-0.75,0.02
					c-0.95,0-1.66-0.23-2.13-0.68s-0.71-1.06-0.71-1.82v-4.72h-1.53v-1.75h1.53v-2.59h2.38v2.59h2.41v1.75h-2.41v4.59
					c0,0.29,0.07,0.5,0.21,0.64c0.14,0.14,0.37,0.21,0.69,0.21c0.1,0,0.21-0.01,0.34-0.02s0.26-0.02,0.4-0.04
					c0.13-0.01,0.26-0.02,0.37-0.04c0.11-0.01,0.2-0.02,0.26-0.04V3794.17z"/>
				<path class="st21" d="M695.83,3791.23c-0.14,0.58-0.36,1.06-0.65,1.46c-0.29,0.4-0.64,0.72-1.05,0.96s-0.88,0.42-1.4,0.53
					c-0.52,0.11-1.08,0.16-1.67,0.16c-0.89,0-1.65-0.12-2.29-0.35c-0.64-0.23-1.17-0.55-1.58-0.96s-0.72-0.89-0.92-1.45
					c-0.2-0.56-0.3-1.17-0.3-1.83c0-0.78,0.12-1.46,0.37-2.03c0.25-0.58,0.59-1.05,1.03-1.43s0.97-0.66,1.59-0.85
					c0.62-0.19,1.31-0.28,2.07-0.28c0.72,0,1.38,0.1,1.97,0.29s1.1,0.48,1.52,0.85c0.42,0.38,0.74,0.85,0.97,1.42
					c0.23,0.57,0.34,1.23,0.34,1.99v0.63h-7.42c0.04,0.31,0.11,0.61,0.22,0.88c0.11,0.28,0.27,0.52,0.48,0.73s0.47,0.38,0.79,0.5
					c0.32,0.12,0.71,0.18,1.16,0.18c1.24,0,2-0.47,2.29-1.4H695.83z M693.33,3788.71c-0.02-0.25-0.1-0.49-0.22-0.72
					c-0.12-0.23-0.28-0.43-0.48-0.6c-0.2-0.17-0.43-0.31-0.7-0.41c-0.27-0.1-0.57-0.15-0.91-0.15c-0.4,0-0.75,0.05-1.05,0.16
					c-0.31,0.11-0.57,0.25-0.78,0.42c-0.22,0.17-0.38,0.38-0.5,0.6c-0.12,0.23-0.2,0.46-0.23,0.7H693.33z"/>
				<path class="st21" d="M699.52,3791.68c0.05,0.31,0.25,0.55,0.62,0.71c0.37,0.16,0.79,0.24,1.27,0.24c0.2,0,0.41-0.01,0.61-0.04
					c0.2-0.03,0.39-0.09,0.56-0.17c0.17-0.08,0.31-0.19,0.41-0.33c0.11-0.14,0.16-0.31,0.16-0.51c0-0.17-0.05-0.31-0.16-0.42
					s-0.26-0.21-0.45-0.28s-0.41-0.13-0.66-0.18c-0.25-0.05-0.51-0.09-0.8-0.13c-0.46-0.07-0.91-0.15-1.36-0.23
					c-0.45-0.08-0.86-0.22-1.22-0.4c-0.37-0.18-0.66-0.43-0.89-0.76c-0.23-0.32-0.34-0.76-0.34-1.3c0-0.48,0.11-0.89,0.32-1.23
					c0.21-0.34,0.5-0.62,0.86-0.85c0.36-0.22,0.78-0.38,1.26-0.49c0.48-0.1,0.99-0.15,1.53-0.15c0.55,0,1.06,0.06,1.53,0.17
					c0.47,0.11,0.87,0.28,1.21,0.5s0.61,0.48,0.81,0.8c0.2,0.32,0.3,0.69,0.3,1.11h-2.23c-0.02-0.13-0.09-0.25-0.19-0.37
					s-0.23-0.21-0.38-0.29c-0.15-0.08-0.32-0.14-0.5-0.19c-0.19-0.05-0.38-0.07-0.57-0.07c-0.42,0-0.79,0.08-1.12,0.23
					c-0.33,0.16-0.49,0.37-0.49,0.65c0,0.19,0.06,0.35,0.18,0.48c0.12,0.13,0.29,0.23,0.5,0.32s0.45,0.15,0.72,0.2
					s0.55,0.09,0.84,0.13c0.44,0.06,0.89,0.13,1.32,0.22s0.83,0.23,1.18,0.42c0.35,0.19,0.63,0.46,0.85,0.79
					c0.22,0.34,0.32,0.78,0.32,1.33c0,0.52-0.12,0.95-0.37,1.31c-0.25,0.35-0.57,0.64-0.96,0.85c-0.4,0.22-0.84,0.37-1.32,0.46
					c-0.49,0.09-0.97,0.13-1.45,0.13c-0.59,0-1.14-0.05-1.67-0.15c-0.52-0.1-0.98-0.26-1.38-0.48s-0.71-0.49-0.95-0.83
					s-0.36-0.74-0.37-1.21H699.52z"/>
			</g>
			<g class="st20">
				<path class="st21" d="M617.55,3815.23c-0.14,0.58-0.36,1.06-0.65,1.46c-0.29,0.4-0.64,0.72-1.05,0.96s-0.88,0.42-1.4,0.53
					c-0.52,0.11-1.08,0.16-1.67,0.16c-0.89,0-1.65-0.12-2.29-0.35c-0.64-0.23-1.17-0.55-1.58-0.96s-0.72-0.89-0.92-1.45
					c-0.2-0.56-0.3-1.17-0.3-1.83c0-0.78,0.12-1.46,0.37-2.03c0.25-0.58,0.59-1.05,1.03-1.43s0.97-0.66,1.59-0.85
					c0.62-0.19,1.31-0.28,2.07-0.28c0.72,0,1.38,0.1,1.97,0.29s1.1,0.48,1.52,0.85c0.42,0.38,0.74,0.85,0.97,1.42
					c0.23,0.57,0.34,1.23,0.34,1.99v0.63h-7.42c0.04,0.31,0.11,0.61,0.22,0.88c0.11,0.28,0.27,0.52,0.48,0.73s0.47,0.38,0.79,0.5
					c0.32,0.12,0.71,0.18,1.16,0.18c1.24,0,2-0.47,2.29-1.4H617.55z M615.04,3812.71c-0.02-0.25-0.1-0.49-0.22-0.72
					c-0.12-0.23-0.28-0.43-0.48-0.6c-0.2-0.17-0.43-0.31-0.7-0.41c-0.27-0.1-0.57-0.15-0.91-0.15c-0.4,0-0.75,0.05-1.05,0.16
					c-0.31,0.11-0.57,0.25-0.78,0.42c-0.22,0.17-0.38,0.38-0.5,0.6c-0.12,0.23-0.2,0.46-0.23,0.7H615.04z M612.25,3808.52
					l-1.58-1.06l2.52-2.99l1.95,1.31L612.25,3808.52z"/>
				<path class="st21" d="M628.67,3814.94c-0.17,1.09-0.66,1.93-1.48,2.52c-0.82,0.59-1.92,0.88-3.29,0.88
					c-1.67,0-2.93-0.4-3.77-1.2s-1.27-1.94-1.27-3.41c0-0.68,0.1-1.31,0.3-1.86c0.2-0.56,0.5-1.04,0.92-1.44
					c0.41-0.4,0.94-0.71,1.57-0.94c0.63-0.22,1.38-0.33,2.26-0.33c0.58,0,1.13,0.07,1.66,0.2c0.53,0.13,1,0.33,1.41,0.58
					s0.76,0.58,1.04,0.95c0.28,0.38,0.48,0.81,0.58,1.3h-2.52c-0.17-0.42-0.45-0.76-0.84-1.01s-0.84-0.38-1.34-0.38
					c-0.47,0-0.87,0.08-1.2,0.24c-0.33,0.16-0.6,0.38-0.82,0.66c-0.22,0.28-0.37,0.59-0.47,0.95c-0.1,0.35-0.14,0.72-0.14,1.09
					s0.05,0.73,0.14,1.08c0.1,0.35,0.25,0.65,0.47,0.92c0.22,0.26,0.49,0.48,0.82,0.64c0.33,0.16,0.73,0.24,1.2,0.24
					c0.66,0,1.18-0.15,1.56-0.46c0.38-0.31,0.63-0.72,0.75-1.23H628.67z"/>
				<path class="st21" d="M635.24,3809.17c0.86,0,1.61,0.11,2.25,0.33c0.63,0.22,1.16,0.53,1.57,0.94c0.41,0.4,0.71,0.88,0.91,1.44
					c0.2,0.56,0.3,1.18,0.3,1.86c0,1.48-0.42,2.61-1.25,3.41c-0.83,0.8-2.09,1.2-3.77,1.2c-1.67,0-2.93-0.4-3.77-1.2
					s-1.27-1.94-1.27-3.41c0-0.68,0.1-1.31,0.3-1.86c0.2-0.56,0.5-1.04,0.92-1.44c0.41-0.4,0.94-0.71,1.58-0.94
					C633.63,3809.28,634.38,3809.17,635.24,3809.17z M635.24,3810.82c-0.47,0-0.87,0.08-1.2,0.24c-0.33,0.16-0.6,0.38-0.81,0.66
					c-0.21,0.28-0.36,0.59-0.46,0.95c-0.1,0.35-0.14,0.72-0.14,1.09s0.05,0.73,0.14,1.08c0.1,0.35,0.25,0.65,0.46,0.92
					c0.21,0.26,0.48,0.48,0.81,0.64c0.33,0.16,0.73,0.24,1.2,0.24c0.47,0,0.87-0.08,1.2-0.24c0.33-0.16,0.6-0.37,0.81-0.64
					c0.21-0.26,0.36-0.57,0.46-0.92c0.1-0.35,0.14-0.71,0.14-1.08s-0.05-0.73-0.14-1.09c-0.1-0.35-0.25-0.67-0.46-0.95
					c-0.21-0.28-0.48-0.5-0.81-0.66C636.11,3810.9,635.71,3810.82,635.24,3810.82z"/>
				<path class="st21" d="M644.4,3805.69v12.47h-2.38v-12.47H644.4z"/>
				<path class="st21" d="M656.03,3815.23c-0.14,0.58-0.36,1.06-0.65,1.46c-0.29,0.4-0.64,0.72-1.05,0.96s-0.88,0.42-1.4,0.53
					c-0.52,0.11-1.08,0.16-1.66,0.16c-0.89,0-1.65-0.12-2.29-0.35c-0.64-0.23-1.17-0.55-1.58-0.96s-0.72-0.89-0.92-1.45
					c-0.2-0.56-0.3-1.17-0.3-1.83c0-0.78,0.12-1.46,0.37-2.03c0.25-0.58,0.59-1.05,1.03-1.43c0.44-0.38,0.97-0.66,1.59-0.85
					c0.62-0.19,1.31-0.28,2.07-0.28c0.72,0,1.38,0.1,1.97,0.29c0.59,0.19,1.1,0.48,1.52,0.85c0.42,0.38,0.74,0.85,0.97,1.42
					c0.23,0.57,0.34,1.23,0.34,1.99v0.63h-7.42c0.04,0.31,0.11,0.61,0.22,0.88c0.11,0.28,0.27,0.52,0.48,0.73
					c0.21,0.21,0.47,0.38,0.79,0.5c0.32,0.12,0.7,0.18,1.16,0.18c1.24,0,2-0.47,2.29-1.4H656.03z M653.53,3812.71
					c-0.02-0.25-0.1-0.49-0.22-0.72s-0.28-0.43-0.48-0.6c-0.2-0.17-0.43-0.31-0.7-0.41c-0.27-0.1-0.57-0.15-0.91-0.15
					c-0.4,0-0.75,0.05-1.05,0.16c-0.31,0.11-0.57,0.25-0.78,0.42c-0.21,0.17-0.38,0.38-0.5,0.6c-0.12,0.23-0.2,0.46-0.23,0.7H653.53
					z"/>
				<path class="st21" d="M659.72,3815.68c0.05,0.31,0.26,0.55,0.62,0.71c0.37,0.16,0.79,0.24,1.27,0.24c0.2,0,0.41-0.01,0.61-0.04
					c0.21-0.03,0.39-0.09,0.56-0.17s0.31-0.19,0.41-0.33c0.11-0.14,0.16-0.31,0.16-0.51c0-0.17-0.05-0.31-0.16-0.42
					s-0.26-0.21-0.45-0.28s-0.41-0.13-0.66-0.18s-0.51-0.09-0.8-0.13c-0.46-0.07-0.91-0.15-1.36-0.23c-0.45-0.08-0.86-0.22-1.22-0.4
					c-0.37-0.18-0.66-0.43-0.89-0.76c-0.23-0.32-0.34-0.76-0.34-1.3c0-0.48,0.11-0.89,0.32-1.23c0.22-0.34,0.5-0.62,0.86-0.85
					c0.36-0.22,0.78-0.38,1.26-0.49c0.48-0.1,0.99-0.15,1.53-0.15c0.55,0,1.06,0.06,1.53,0.17c0.47,0.11,0.87,0.28,1.22,0.5
					c0.34,0.22,0.61,0.48,0.81,0.8c0.2,0.32,0.3,0.69,0.3,1.11h-2.23c-0.02-0.13-0.09-0.25-0.19-0.37c-0.1-0.11-0.23-0.21-0.38-0.29
					s-0.32-0.14-0.5-0.19c-0.19-0.05-0.38-0.07-0.57-0.07c-0.42,0-0.79,0.08-1.12,0.23c-0.33,0.16-0.5,0.37-0.5,0.65
					c0,0.19,0.06,0.35,0.18,0.48s0.28,0.23,0.5,0.32c0.21,0.08,0.45,0.15,0.72,0.2s0.55,0.09,0.84,0.13
					c0.44,0.06,0.88,0.13,1.32,0.22s0.83,0.23,1.18,0.42c0.35,0.19,0.63,0.46,0.85,0.79c0.22,0.34,0.32,0.78,0.32,1.33
					c0,0.52-0.12,0.95-0.37,1.31c-0.25,0.35-0.57,0.64-0.96,0.85c-0.4,0.22-0.84,0.37-1.32,0.46s-0.97,0.13-1.45,0.13
					c-0.59,0-1.14-0.05-1.67-0.15c-0.52-0.1-0.98-0.26-1.38-0.48s-0.71-0.49-0.95-0.83c-0.23-0.34-0.36-0.74-0.37-1.21H659.72z"/>
				<path class="st21" d="M678.06,3809.17c0.86,0,1.61,0.11,2.25,0.33c0.64,0.22,1.16,0.53,1.57,0.94c0.41,0.4,0.71,0.88,0.91,1.44
					c0.2,0.56,0.3,1.18,0.3,1.86c0,1.48-0.42,2.61-1.25,3.41s-2.09,1.2-3.77,1.2c-1.67,0-2.92-0.4-3.77-1.2
					c-0.85-0.8-1.27-1.94-1.27-3.41c0-0.68,0.1-1.31,0.3-1.86c0.2-0.56,0.5-1.04,0.92-1.44c0.41-0.4,0.94-0.71,1.58-0.94
					C676.45,3809.28,677.2,3809.17,678.06,3809.17z M678.06,3810.82c-0.47,0-0.87,0.08-1.2,0.24c-0.33,0.16-0.6,0.38-0.81,0.66
					c-0.21,0.28-0.36,0.59-0.46,0.95c-0.1,0.35-0.14,0.72-0.14,1.09s0.05,0.73,0.14,1.08c0.1,0.35,0.25,0.65,0.46,0.92
					c0.21,0.26,0.48,0.48,0.81,0.64c0.33,0.16,0.73,0.24,1.2,0.24s0.87-0.08,1.2-0.24c0.33-0.16,0.6-0.37,0.81-0.64
					c0.21-0.26,0.36-0.57,0.46-0.92c0.1-0.35,0.14-0.71,0.14-1.08s-0.05-0.73-0.14-1.09c-0.1-0.35-0.25-0.67-0.46-0.95
					c-0.21-0.28-0.48-0.5-0.81-0.66C678.93,3810.9,678.53,3810.82,678.06,3810.82z"/>
				<path class="st21" d="M683.95,3809.33h1.73v-1.31c0-0.76,0.24-1.36,0.72-1.81c0.48-0.45,1.19-0.67,2.12-0.67
					c0.25,0,0.58,0.01,0.98,0.04c0.4,0.02,0.78,0.07,1.14,0.13v1.69c-0.17-0.01-0.34-0.02-0.51-0.04c-0.17-0.01-0.34-0.02-0.5-0.03
					s-0.29-0.01-0.41-0.01c-0.12,0-0.2,0-0.25,0c-0.6,0-0.9,0.33-0.9,0.99v1.03h2.57v1.75h-2.57v7.09h-2.39v-7.09h-1.73V3809.33z"/>
				<path class="st21" d="M691.27,3809.33H693v-1.31c0-0.76,0.24-1.36,0.72-1.81c0.48-0.45,1.19-0.67,2.12-0.67
					c0.25,0,0.58,0.01,0.98,0.04c0.4,0.02,0.78,0.07,1.14,0.13v1.69c-0.17-0.01-0.34-0.02-0.51-0.04c-0.17-0.01-0.34-0.02-0.5-0.03
					s-0.29-0.01-0.41-0.01c-0.12,0-0.2,0-0.25,0c-0.6,0-0.9,0.33-0.9,0.99v1.03h2.57v1.75h-2.57v7.09H693v-7.09h-1.73V3809.33z"/>
				<path class="st21" d="M703.98,3810.88c-0.8,0-1.41,0.2-1.83,0.6c-0.41,0.4-0.62,1.04-0.62,1.92v4.77h-2.38v-8.84h2.3v0.68
					c0.3-0.31,0.67-0.53,1.12-0.67c0.44-0.13,0.91-0.2,1.4-0.2c0.17,0,0.39,0,0.67,0.01c0.28,0.01,0.53,0.03,0.77,0.08v1.8
					c-0.12-0.02-0.25-0.05-0.39-0.07c-0.14-0.02-0.27-0.04-0.4-0.05c-0.13-0.01-0.25-0.02-0.37-0.03
					C704.15,3810.88,704.05,3810.88,703.98,3810.88z"/>
				<path class="st21" d="M716.17,3815.23c-0.14,0.58-0.36,1.06-0.65,1.46c-0.29,0.4-0.64,0.72-1.05,0.96s-0.88,0.42-1.4,0.53
					c-0.52,0.11-1.08,0.16-1.67,0.16c-0.89,0-1.65-0.12-2.29-0.35c-0.64-0.23-1.17-0.55-1.58-0.96s-0.72-0.89-0.92-1.45
					c-0.2-0.56-0.3-1.17-0.3-1.83c0-0.78,0.12-1.46,0.37-2.03c0.25-0.58,0.59-1.05,1.03-1.43s0.97-0.66,1.59-0.85
					c0.62-0.19,1.31-0.28,2.07-0.28c0.72,0,1.38,0.1,1.97,0.29s1.1,0.48,1.52,0.85c0.42,0.38,0.74,0.85,0.97,1.42
					c0.23,0.57,0.34,1.23,0.34,1.99v0.63h-7.42c0.04,0.31,0.11,0.61,0.22,0.88c0.11,0.28,0.27,0.52,0.48,0.73s0.47,0.38,0.79,0.5
					c0.32,0.12,0.71,0.18,1.16,0.18c1.24,0,2-0.47,2.29-1.4H716.17z M713.67,3812.71c-0.02-0.25-0.1-0.49-0.22-0.72
					c-0.12-0.23-0.28-0.43-0.48-0.6c-0.2-0.17-0.43-0.31-0.7-0.41c-0.27-0.1-0.57-0.15-0.91-0.15c-0.4,0-0.75,0.05-1.05,0.16
					c-0.31,0.11-0.57,0.25-0.78,0.42c-0.22,0.17-0.38,0.38-0.5,0.6c-0.12,0.23-0.2,0.46-0.23,0.7H713.67z"/>
				<path class="st21" d="M720.33,3809.33v0.86c0.34-0.37,0.76-0.64,1.27-0.8c0.51-0.16,1-0.24,1.48-0.24
					c1.37,0,2.46,0.26,3.26,0.77c0.8,0.52,1.21,1.34,1.21,2.48v5.76h-2.38v-5.65c0-0.26-0.06-0.5-0.19-0.71s-0.3-0.39-0.51-0.53
					c-0.22-0.14-0.47-0.25-0.76-0.33c-0.29-0.08-0.59-0.12-0.92-0.12c-0.7,0-1.27,0.17-1.71,0.5c-0.44,0.34-0.67,0.8-0.67,1.4v5.44
					h-2.38v-8.84H720.33z"/>
				<path class="st21" d="M734.91,3818.17c-0.36,0.06-0.71,0.1-1.05,0.11c-0.34,0.01-0.59,0.02-0.75,0.02
					c-0.95,0-1.66-0.23-2.13-0.68s-0.71-1.06-0.71-1.82v-4.72h-1.53v-1.75h1.53v-2.59h2.38v2.59h2.41v1.75h-2.41v4.59
					c0,0.29,0.07,0.5,0.21,0.64c0.14,0.14,0.37,0.21,0.69,0.21c0.1,0,0.21-0.01,0.34-0.02c0.13-0.01,0.26-0.02,0.4-0.04
					c0.13-0.01,0.25-0.02,0.37-0.04s0.2-0.02,0.26-0.04V3818.17z"/>
			</g>
			<g class="st20">
				<path class="st21" d="M610.29,3838.87c0.14,0.5,0.45,0.87,0.92,1.09c0.47,0.22,1.03,0.33,1.67,0.33c0.83,0,1.48-0.14,1.95-0.42
					s0.71-0.71,0.71-1.27c0-1.24-0.95-1.85-2.86-1.85h-0.79v-1.8h0.79c0.91,0,1.54-0.13,1.9-0.39c0.35-0.26,0.53-0.68,0.53-1.27
					c0-0.48-0.17-0.85-0.5-1.12c-0.34-0.27-0.88-0.41-1.62-0.41c-0.59,0-1.07,0.14-1.44,0.41c-0.37,0.28-0.62,0.61-0.76,1.01h-2.52
					c0-1.07,0.41-1.91,1.22-2.53s1.94-0.93,3.39-0.93c1.51,0,2.68,0.31,3.5,0.94s1.23,1.5,1.23,2.63c0,0.28-0.04,0.53-0.13,0.77
					s-0.2,0.47-0.34,0.68c-0.14,0.22-0.3,0.41-0.48,0.58s-0.35,0.32-0.53,0.44c0.53,0.29,0.97,0.67,1.32,1.14
					c0.35,0.47,0.53,1.04,0.53,1.68c0,0.56-0.12,1.07-0.36,1.53c-0.24,0.46-0.58,0.85-1.02,1.17c-0.44,0.32-0.97,0.58-1.6,0.76
					c-0.63,0.18-1.34,0.27-2.13,0.27c-0.73,0-1.4-0.08-2.01-0.23c-0.61-0.15-1.13-0.37-1.57-0.66c-0.45-0.29-0.8-0.65-1.05-1.08
					c-0.26-0.43-0.4-0.94-0.42-1.51L610.29,3838.87z"/>
				<path class="st21" d="M624.48,3829.87v12.29h-2.52v-9.02h-2.7v-1.6c0.41,0,0.79-0.03,1.16-0.08s0.68-0.14,0.95-0.25
					s0.48-0.26,0.64-0.45c0.16-0.19,0.23-0.4,0.23-0.66v-0.23H624.48z"/>
				<path class="st21" d="M626.85,3832.79c0-0.38,0.04-0.77,0.13-1.15c0.09-0.38,0.25-0.73,0.48-1.04c0.23-0.31,0.53-0.55,0.92-0.74
					c0.38-0.19,0.86-0.28,1.44-0.28s1.05,0.1,1.43,0.29c0.38,0.19,0.68,0.44,0.9,0.76c0.22,0.31,0.38,0.66,0.46,1.04
					c0.08,0.38,0.13,0.77,0.13,1.17c0,2.36-0.97,3.55-2.92,3.55c-0.97,0-1.71-0.29-2.21-0.87
					C627.1,3834.93,626.85,3834.02,626.85,3832.79z M628.74,3832.86c0,0.18,0.01,0.38,0.04,0.6c0.02,0.22,0.08,0.43,0.15,0.62
					c0.08,0.19,0.19,0.35,0.32,0.48c0.14,0.13,0.33,0.19,0.57,0.19c0.23,0,0.41-0.06,0.54-0.19c0.13-0.13,0.23-0.28,0.31-0.48
					c0.07-0.19,0.12-0.4,0.13-0.62c0.02-0.22,0.03-0.42,0.03-0.6c0-0.17-0.01-0.35-0.04-0.55c-0.02-0.2-0.07-0.38-0.14-0.54
					c-0.07-0.16-0.17-0.3-0.31-0.41c-0.13-0.11-0.31-0.16-0.52-0.16c-0.24,0-0.43,0.05-0.57,0.16c-0.14,0.11-0.25,0.24-0.32,0.41
					c-0.08,0.16-0.13,0.34-0.15,0.54C628.75,3832.51,628.74,3832.69,628.74,3832.86z M640.14,3829.6l-9.04,13.48l-1.87-0.85
					l9.04-13.43L640.14,3829.6z M636.77,3838.69c0-0.38,0.04-0.77,0.13-1.15c0.09-0.38,0.25-0.73,0.48-1.04s0.53-0.55,0.92-0.74
					c0.38-0.19,0.86-0.28,1.44-0.28s1.05,0.1,1.43,0.29c0.38,0.19,0.68,0.44,0.9,0.76c0.22,0.31,0.38,0.66,0.46,1.04
					s0.13,0.77,0.13,1.17c0,1.2-0.25,2.09-0.74,2.67s-1.22,0.87-2.18,0.87c-0.97,0-1.71-0.29-2.21-0.87
					S636.77,3839.93,636.77,3838.69z M638.66,3838.76c0,0.18,0.01,0.38,0.04,0.6c0.02,0.22,0.08,0.43,0.15,0.62
					c0.08,0.19,0.19,0.35,0.32,0.48s0.33,0.19,0.57,0.19c0.23,0,0.41-0.06,0.54-0.19c0.13-0.13,0.23-0.29,0.31-0.48
					c0.07-0.19,0.12-0.4,0.13-0.62c0.02-0.22,0.03-0.42,0.03-0.6c0-0.17-0.02-0.35-0.04-0.55c-0.03-0.2-0.08-0.38-0.15-0.54
					c-0.07-0.16-0.17-0.3-0.31-0.41c-0.13-0.11-0.3-0.16-0.5-0.16c-0.24,0-0.43,0.05-0.57,0.16c-0.14,0.11-0.25,0.24-0.32,0.41
					c-0.08,0.16-0.13,0.34-0.15,0.54C638.67,3838.41,638.66,3838.6,638.66,3838.76z"/>
				<path class="st21" d="M657.24,3841.16c-0.18,0.23-0.41,0.43-0.68,0.59c-0.24,0.16-0.54,0.29-0.9,0.41
					c-0.36,0.12-0.79,0.18-1.3,0.18c-1.49,0-2.65-0.4-3.49-1.2s-1.26-1.94-1.26-3.41c0-0.68,0.1-1.31,0.3-1.86
					c0.2-0.56,0.5-1.04,0.92-1.45c0.41-0.41,0.94-0.72,1.57-0.94c0.63-0.22,1.38-0.33,2.26-0.33c0.19,0,0.4,0.02,0.63,0.07
					c0.23,0.05,0.46,0.11,0.68,0.2c0.23,0.08,0.44,0.19,0.65,0.32s0.38,0.27,0.52,0.42v-4.46h2.34v12.47h-2.23V3841.16z
					 M654.64,3834.82c-0.47,0-0.87,0.08-1.2,0.24c-0.33,0.16-0.6,0.38-0.82,0.66c-0.22,0.28-0.37,0.59-0.47,0.95
					c-0.1,0.35-0.14,0.72-0.14,1.09s0.05,0.73,0.14,1.08c0.1,0.35,0.25,0.65,0.47,0.92c0.22,0.26,0.49,0.48,0.82,0.64
					c0.33,0.16,0.73,0.24,1.2,0.24c0.43,0,0.81-0.08,1.12-0.24c0.32-0.16,0.58-0.37,0.78-0.62c0.2-0.25,0.36-0.53,0.46-0.85
					c0.1-0.31,0.15-0.62,0.15-0.94v-0.38c-0.01-0.36-0.07-0.71-0.18-1.04c-0.11-0.34-0.26-0.63-0.47-0.89
					c-0.2-0.26-0.46-0.46-0.77-0.62C655.43,3834.9,655.06,3834.82,654.64,3834.82z"/>
				<path class="st21" d="M671.02,3839.23c-0.14,0.58-0.36,1.06-0.65,1.46c-0.29,0.4-0.64,0.72-1.05,0.96s-0.88,0.42-1.4,0.53
					c-0.52,0.11-1.08,0.16-1.66,0.16c-0.89,0-1.65-0.12-2.29-0.35c-0.64-0.23-1.17-0.55-1.58-0.96s-0.72-0.89-0.92-1.45
					c-0.2-0.56-0.3-1.17-0.3-1.83c0-0.78,0.12-1.46,0.37-2.03c0.25-0.58,0.59-1.05,1.03-1.43c0.44-0.38,0.97-0.66,1.59-0.85
					c0.62-0.19,1.31-0.28,2.07-0.28c0.72,0,1.38,0.1,1.97,0.29c0.59,0.19,1.1,0.48,1.52,0.85c0.42,0.38,0.74,0.85,0.97,1.42
					c0.23,0.57,0.34,1.23,0.34,1.99v0.63h-7.42c0.04,0.31,0.11,0.61,0.22,0.88c0.11,0.28,0.27,0.52,0.48,0.73
					c0.21,0.21,0.47,0.38,0.79,0.5c0.32,0.12,0.7,0.18,1.16,0.18c1.24,0,2-0.47,2.29-1.4H671.02z M668.52,3836.71
					c-0.02-0.25-0.1-0.49-0.22-0.72s-0.28-0.43-0.48-0.6c-0.2-0.17-0.43-0.31-0.7-0.41c-0.27-0.1-0.57-0.15-0.91-0.15
					c-0.4,0-0.75,0.05-1.05,0.16c-0.31,0.11-0.57,0.25-0.78,0.42c-0.21,0.17-0.38,0.38-0.5,0.6c-0.12,0.23-0.2,0.46-0.23,0.7H668.52
					z"/>
				<path class="st21" d="M688.2,3838.94c-0.17,1.09-0.66,1.93-1.48,2.52c-0.82,0.59-1.92,0.88-3.29,0.88c-1.67,0-2.93-0.4-3.77-1.2
					s-1.27-1.94-1.27-3.41c0-0.68,0.1-1.31,0.3-1.86c0.2-0.56,0.5-1.04,0.92-1.44c0.41-0.4,0.94-0.71,1.57-0.94
					c0.63-0.22,1.38-0.33,2.26-0.33c0.58,0,1.13,0.07,1.66,0.2c0.53,0.13,1,0.33,1.41,0.58s0.76,0.58,1.04,0.95
					c0.28,0.38,0.48,0.81,0.58,1.3h-2.52c-0.17-0.42-0.45-0.76-0.84-1.01s-0.84-0.38-1.34-0.38c-0.47,0-0.87,0.08-1.2,0.24
					c-0.33,0.16-0.6,0.38-0.82,0.66c-0.22,0.28-0.37,0.59-0.47,0.95c-0.1,0.35-0.14,0.72-0.14,1.09s0.05,0.73,0.14,1.08
					c0.1,0.35,0.25,0.65,0.47,0.92c0.22,0.26,0.49,0.48,0.82,0.64c0.33,0.16,0.73,0.24,1.2,0.24c0.66,0,1.18-0.15,1.56-0.46
					c0.38-0.31,0.63-0.72,0.75-1.23H688.2z"/>
				<path class="st21" d="M699.59,3839.23c-0.14,0.58-0.36,1.06-0.65,1.46c-0.29,0.4-0.64,0.72-1.05,0.96s-0.88,0.42-1.4,0.53
					c-0.52,0.11-1.08,0.16-1.67,0.16c-0.89,0-1.65-0.12-2.29-0.35c-0.64-0.23-1.17-0.55-1.58-0.96s-0.72-0.89-0.92-1.45
					c-0.2-0.56-0.3-1.17-0.3-1.83c0-0.78,0.12-1.46,0.37-2.03c0.25-0.58,0.59-1.05,1.03-1.43s0.97-0.66,1.59-0.85
					c0.62-0.19,1.31-0.28,2.07-0.28c0.72,0,1.38,0.1,1.97,0.29s1.1,0.48,1.52,0.85c0.42,0.38,0.74,0.85,0.97,1.42
					c0.23,0.57,0.34,1.23,0.34,1.99v0.63h-7.42c0.04,0.31,0.11,0.61,0.22,0.88c0.11,0.28,0.27,0.52,0.48,0.73s0.47,0.38,0.79,0.5
					c0.32,0.12,0.71,0.18,1.16,0.18c1.24,0,2-0.47,2.29-1.4H699.59z M697.09,3836.71c-0.02-0.25-0.1-0.49-0.22-0.72
					c-0.12-0.23-0.28-0.43-0.48-0.6c-0.2-0.17-0.43-0.31-0.7-0.41c-0.27-0.1-0.57-0.15-0.91-0.15c-0.4,0-0.75,0.05-1.05,0.16
					c-0.31,0.11-0.57,0.25-0.78,0.42c-0.22,0.17-0.38,0.38-0.5,0.6c-0.12,0.23-0.2,0.46-0.23,0.7H697.09z"/>
				<path class="st21" d="M703.28,3839.68c0.05,0.31,0.25,0.55,0.62,0.71c0.37,0.16,0.79,0.24,1.27,0.24c0.2,0,0.41-0.01,0.61-0.04
					c0.2-0.03,0.39-0.09,0.56-0.17c0.17-0.08,0.31-0.19,0.41-0.33c0.11-0.14,0.16-0.31,0.16-0.51c0-0.17-0.05-0.31-0.16-0.42
					c-0.11-0.11-0.26-0.21-0.45-0.28c-0.19-0.07-0.41-0.13-0.66-0.18s-0.51-0.09-0.8-0.13c-0.46-0.07-0.91-0.15-1.36-0.23
					s-0.86-0.22-1.22-0.4c-0.37-0.18-0.66-0.43-0.89-0.76c-0.23-0.32-0.34-0.76-0.34-1.3c0-0.48,0.11-0.89,0.32-1.23
					c0.22-0.34,0.5-0.62,0.86-0.85c0.36-0.22,0.78-0.38,1.26-0.49c0.48-0.1,0.99-0.15,1.53-0.15c0.55,0,1.06,0.06,1.53,0.17
					c0.47,0.11,0.87,0.28,1.21,0.5s0.61,0.48,0.81,0.8c0.2,0.32,0.3,0.69,0.3,1.11h-2.23c-0.02-0.13-0.09-0.25-0.19-0.37
					c-0.1-0.11-0.23-0.21-0.38-0.29s-0.32-0.14-0.5-0.19c-0.19-0.05-0.38-0.07-0.57-0.07c-0.42,0-0.79,0.08-1.12,0.23
					c-0.33,0.16-0.5,0.37-0.5,0.65c0,0.19,0.06,0.35,0.18,0.48c0.12,0.13,0.29,0.23,0.5,0.32c0.21,0.08,0.45,0.15,0.72,0.2
					c0.27,0.05,0.55,0.09,0.84,0.13c0.44,0.06,0.88,0.13,1.32,0.22c0.44,0.09,0.83,0.23,1.18,0.42c0.35,0.19,0.63,0.46,0.85,0.79
					c0.22,0.34,0.32,0.78,0.32,1.33c0,0.52-0.12,0.95-0.37,1.31c-0.25,0.35-0.57,0.64-0.96,0.85s-0.84,0.37-1.32,0.46
					c-0.49,0.09-0.97,0.13-1.45,0.13c-0.59,0-1.14-0.05-1.67-0.15c-0.52-0.1-0.98-0.26-1.38-0.48c-0.4-0.22-0.71-0.49-0.95-0.83
					c-0.23-0.34-0.36-0.74-0.37-1.21H703.28z"/>
				<path class="st21" d="M726.34,3838.94c-0.17,1.09-0.66,1.93-1.49,2.52s-1.92,0.88-3.29,0.88c-1.67,0-2.92-0.4-3.77-1.2
					c-0.85-0.8-1.27-1.94-1.27-3.41c0-0.68,0.1-1.31,0.3-1.86c0.2-0.56,0.5-1.04,0.92-1.44c0.41-0.4,0.94-0.71,1.57-0.94
					c0.63-0.22,1.38-0.33,2.26-0.33c0.58,0,1.13,0.07,1.66,0.2c0.53,0.13,1,0.33,1.41,0.58c0.41,0.26,0.76,0.58,1.04,0.95
					c0.28,0.38,0.48,0.81,0.59,1.3h-2.52c-0.17-0.42-0.45-0.76-0.84-1.01c-0.39-0.25-0.84-0.38-1.34-0.38
					c-0.47,0-0.87,0.08-1.2,0.24c-0.33,0.16-0.6,0.38-0.82,0.66c-0.22,0.28-0.37,0.59-0.47,0.95c-0.1,0.35-0.14,0.72-0.14,1.09
					s0.05,0.73,0.14,1.08c0.1,0.35,0.25,0.65,0.47,0.92c0.22,0.26,0.49,0.48,0.82,0.64c0.33,0.16,0.73,0.24,1.2,0.24
					c0.66,0,1.18-0.15,1.56-0.46c0.38-0.31,0.63-0.72,0.75-1.23H726.34z"/>
				<path class="st21" d="M732.91,3833.17c0.86,0,1.61,0.11,2.25,0.33c0.64,0.22,1.16,0.53,1.57,0.94c0.41,0.4,0.71,0.88,0.91,1.44
					s0.3,1.18,0.3,1.86c0,1.48-0.42,2.61-1.25,3.41s-2.09,1.2-3.77,1.2c-1.67,0-2.92-0.4-3.77-1.2c-0.85-0.8-1.27-1.94-1.27-3.41
					c0-0.68,0.1-1.31,0.3-1.86c0.2-0.56,0.5-1.04,0.92-1.44c0.41-0.4,0.94-0.71,1.57-0.94
					C731.29,3833.28,732.04,3833.17,732.91,3833.17z M732.91,3834.82c-0.47,0-0.87,0.08-1.2,0.24c-0.33,0.16-0.6,0.38-0.81,0.66
					c-0.21,0.28-0.36,0.59-0.46,0.95c-0.1,0.35-0.14,0.72-0.14,1.09s0.05,0.73,0.14,1.08c0.1,0.35,0.25,0.65,0.46,0.92
					c0.21,0.26,0.48,0.48,0.81,0.64c0.33,0.16,0.73,0.24,1.2,0.24c0.47,0,0.87-0.08,1.2-0.24c0.33-0.16,0.6-0.37,0.81-0.64
					c0.21-0.26,0.36-0.57,0.46-0.92c0.1-0.35,0.14-0.71,0.14-1.08s-0.05-0.73-0.14-1.09c-0.1-0.35-0.25-0.67-0.46-0.95
					c-0.21-0.28-0.48-0.5-0.81-0.66C733.77,3834.9,733.38,3834.82,732.91,3834.82z"/>
				<path class="st21" d="M746.88,3842.17l-0.04-0.86c-0.34,0.37-0.76,0.64-1.29,0.8c-0.52,0.16-1.02,0.24-1.5,0.24
					c-1.37,0-2.45-0.26-3.24-0.77s-1.19-1.34-1.19-2.48v-5.76H742v5.62c0,0.26,0.06,0.5,0.19,0.71c0.13,0.21,0.3,0.39,0.51,0.53
					c0.21,0.14,0.47,0.26,0.76,0.33c0.29,0.08,0.59,0.12,0.92,0.12c0.7,0,1.27-0.17,1.71-0.5c0.44-0.34,0.67-0.8,0.67-1.4v-5.4h2.38
					v8.84H746.88z"/>
				<path class="st21" d="M755.97,3834.88c-0.8,0-1.41,0.2-1.83,0.6c-0.41,0.4-0.62,1.04-0.62,1.92v4.77h-2.38v-8.84h2.3v0.68
					c0.3-0.31,0.67-0.53,1.12-0.67c0.44-0.13,0.91-0.2,1.4-0.2c0.17,0,0.39,0,0.67,0.01c0.28,0.01,0.53,0.03,0.77,0.08v1.8
					c-0.12-0.02-0.25-0.05-0.39-0.07c-0.14-0.02-0.27-0.04-0.4-0.05c-0.13-0.01-0.26-0.02-0.37-0.03
					C756.13,3834.88,756.04,3834.88,755.97,3834.88z"/>
				<path class="st21" d="M760.72,3839.68c0.05,0.31,0.25,0.55,0.62,0.71c0.37,0.16,0.79,0.24,1.27,0.24c0.2,0,0.41-0.01,0.61-0.04
					c0.2-0.03,0.39-0.09,0.56-0.17c0.17-0.08,0.31-0.19,0.41-0.33c0.11-0.14,0.16-0.31,0.16-0.51c0-0.17-0.05-0.31-0.16-0.42
					s-0.26-0.21-0.45-0.28s-0.41-0.13-0.66-0.18c-0.25-0.05-0.51-0.09-0.8-0.13c-0.46-0.07-0.91-0.15-1.36-0.23
					c-0.45-0.08-0.86-0.22-1.22-0.4c-0.37-0.18-0.66-0.43-0.89-0.76c-0.23-0.32-0.34-0.76-0.34-1.3c0-0.48,0.11-0.89,0.32-1.23
					c0.21-0.34,0.5-0.62,0.86-0.85c0.36-0.22,0.78-0.38,1.26-0.49c0.48-0.1,0.99-0.15,1.53-0.15c0.55,0,1.06,0.06,1.53,0.17
					c0.47,0.11,0.87,0.28,1.21,0.5s0.61,0.48,0.81,0.8c0.2,0.32,0.3,0.69,0.3,1.11h-2.23c-0.02-0.13-0.09-0.25-0.19-0.37
					s-0.23-0.21-0.38-0.29c-0.15-0.08-0.32-0.14-0.5-0.19c-0.19-0.05-0.38-0.07-0.57-0.07c-0.42,0-0.79,0.08-1.12,0.23
					c-0.33,0.16-0.49,0.37-0.49,0.65c0,0.19,0.06,0.35,0.18,0.48c0.12,0.13,0.29,0.23,0.5,0.32s0.45,0.15,0.72,0.2
					s0.55,0.09,0.84,0.13c0.44,0.06,0.89,0.13,1.32,0.22s0.83,0.23,1.18,0.42c0.35,0.19,0.63,0.46,0.85,0.79
					c0.22,0.34,0.32,0.78,0.32,1.33c0,0.52-0.12,0.95-0.37,1.31c-0.25,0.35-0.57,0.64-0.96,0.85c-0.4,0.22-0.84,0.37-1.32,0.46
					c-0.49,0.09-0.97,0.13-1.45,0.13c-0.59,0-1.14-0.05-1.67-0.15c-0.52-0.1-0.98-0.26-1.38-0.48s-0.71-0.49-0.95-0.83
					s-0.36-0.74-0.37-1.21H760.72z"/>
				<path class="st21" d="M771.9,3842.17h-2.84v-2.38h2.84V3842.17z"/>
			</g>
		</g>
	</g>
</g>
</svg>
