<?xml version="1.0" encoding="utf-8"?>
<!-- Generator: Adobe Illustrator 23.1.1, SVG Export Plug-In . SVG Version: 6.00 Build 0)  -->
<svg version="1.1" id="Calque_1" xmlns="http://www.w3.org/2000/svg" xmlns:xlink="http://www.w3.org/1999/xlink" x="0px" y="0px"
	 viewBox="0 0 1271.93 1432.57" style="enable-background:new 0 0 1271.93 1432.57;" xml:space="preserve">
<style type="text/css">
	.st0{stroke:#000000;stroke-width:1.704;stroke-miterlimit:10;}
	.st1{fill:#F9F8F4;}
	.st2{font-family:'Lunchtype-ExpandedMedium';}
	.st3{font-size:16px;}
	.st4{font-family:'Lunchtype-ExpandedRegular';}
	.st5{font-family:'Lunchtype-LightItalic';}
</style>
<g id="Groupe_169" transform="translate(96.298 -2086.789)">
	<path id="Tracé_12" d="M-89.81,2463.2c-17.2,22.64,3.79,46.31,16.75,65.61c30.44,45.4,256.14,425.16,287.94,469.63
		c24.33,48.95,255.02,426.68,280.81,474.87c10.96,20.49,22.02,50.13,50.06,45.59c3.6-0.51,7.08-1.67,10.27-3.4
		c0.77-0.44,610.13-366.61,610.81-367.11c18.81-13.8,2.92-50.24-5.89-66.44c-27.2-50.06-260.96-428.7-289.26-478.14
		c-30.35-48.19-255.43-431.11-286.86-478.62c-10.67-16.11-37.28-49.51-58.87-34.68c-0.95,0.65-610.52,367.1-611.44,367.94
		C-87.08,2459.89-88.52,2461.48-89.81,2463.2z M558.45,2106.39c5.93,6.08,11.26,12.71,15.93,19.81
		c14.39,21.78,28.75,43.56,42.9,65.48c17.54,27.21,229.17,389.51,246.41,416.91c16.1,28.08,237.99,385.2,253.75,413.44
		c12.73,22.78,25.2,45.72,37.69,68.61c4.08,7.45,7.42,15.28,9.99,23.37c2.95,9.27,0.79,18.13-4.1,23.81
		c-0.7,0.81-610.08,367.27-610.89,367.94c-6.86,5.76-17.3,6.22-27-3.66c-12.71-12.98-20.85-35.29-29.45-51.54
		c-22.34-42.26-250.12-413.74-271.78-456.37c-27.47-39.13-249.01-413.4-275.85-452.96c-10.31-15.22-26.21-32.86-31.68-50.2
		c-3.43-10.87-0.43-18.89,5.39-23.25c0.87-0.65,610.45-366.93,611.43-367.42C539.09,2096.47,550.26,2098.01,558.45,2106.39
		L558.45,2106.39z"/>
	<text transform="matrix(0.8572 -0.515 0.515 0.8572 -39.4276 2512.7429)" class="st2 st3">L’ensemble des instruments disponibles dans le cadre du programme Horizon Europe </text>
	<text transform="matrix(0.8572 -0.515 0.515 0.8572 -27.8905 2531.9436)" class="st2 st3">soutiendra les efforts de recherche et d’innovation nécessaires.</text>
	<text transform="matrix(0.8572 -0.515 0.515 0.8572 345.9786 2307.3)" class="st4 st3"> Quatre «missions du </text>
	<text transform="matrix(0.8572 -0.515 0.515 0.8572 -16.3534 2551.1443)" class="st4 st3">pacte vert» contribueront à apporter des changements à grande échelle dans des </text>
	<text transform="matrix(0.8572 -0.515 0.515 0.8572 -4.8173 2570.3445)" class="st4 st3">domaines tels que l’adaptation au changement climatique, les océans, les villes et les </text>
	<text transform="matrix(0.8572 -0.515 0.515 0.8572 6.7198 2589.5452)" class="st4 st3">sols. Ces missions réuniront un large éventail de parties prenantes, dont les régions et </text>
	<text transform="matrix(0.8572 -0.515 0.515 0.8572 18.2569 2608.7458)" class="st4 st3">les citoyens. Les partenariats avec l’industrie et les États membres soutiendront la </text>
	<text transform="matrix(0.8572 -0.515 0.515 0.8572 29.7936 2627.9465)" class="st4 st3">recherche et l’innovation dans le domaine des transports, y compris les batteries, </text>
	<text transform="matrix(0.8572 -0.515 0.515 0.8572 41.3302 2647.1467)" class="st4 st3">l’hydrogène propre, la sidérurgie à faibles émissions de carbone, et dans les secteurs </text>
	<text transform="matrix(0.8572 -0.515 0.515 0.8572 52.8673 2666.3474)" class="st4 st3">de la bioéconomie circulaire et de l’environnement bâti. Les communautés de la </text>
	<text transform="matrix(0.8572 -0.515 0.515 0.8572 64.4044 2685.5481)" class="st4 st3">connaissance et de l’innovation gérées par l’Institut européen d’innovation et de </text>
	<text transform="matrix(0.8572 -0.515 0.515 0.8572 75.941 2704.7483)" class="st4 st3">technologie continueront de promouvoir la collaboration entre les établissements </text>
	<text transform="matrix(0.8572 -0.515 0.515 0.8572 87.4776 2723.949)" class="st4 st3">d’enseignement supérieur, les organismes de recherche et les entreprises dans les </text>
	<text transform="matrix(0.8572 -0.515 0.515 0.8572 99.0147 2743.1497)" class="st4 st3">domaines du changement climatique, de l’énergie durable, des aliments du futur et des </text>
	<text transform="matrix(0.8572 -0.515 0.515 0.8572 110.5519 2762.3503)" class="st4 st3">transports urbains intelligents, respectueux de l’environnement et intégrés. Le Conseil </text>
	<text transform="matrix(0.8572 -0.515 0.515 0.8572 122.0885 2781.5505)" class="st4 st3">européen de l’innovation consacrera des fonds, des investissements en fonds propres </text>
	<text transform="matrix(0.8572 -0.515 0.515 0.8572 133.6251 2800.7512)" class="st4 st3">et des services d’accélération d’entreprise aux jeunes pousses et aux PME à fort </text>
	<text transform="matrix(0.8572 -0.515 0.515 0.8572 145.1622 2819.9519)" class="st4 st3">potentiel pour leur permettre de mettre en place une innovation radicale, en lien avec le </text>
	<text transform="matrix(0.8572 -0.515 0.515 0.8572 156.6993 2839.1521)" class="st4 st3">pacte vert, qui puisse être développée rapidement à plus grande échelle sur les </text>
	<text transform="matrix(0.8572 -0.515 0.515 0.8572 168.2359 2858.3528)" class="st4 st3">marchés mondiaux.</text>
	<text transform="matrix(0.8572 -0.515 0.515 0.8572 191.3097 2896.7542)" class="st2 st3">Les approches traditionnelles ne suffiront pas.</text>
	<text transform="matrix(0.8572 -0.515 0.515 0.8572 460.7315 2734.8689)" class="st4 st3"> Mettant l’accent sur l’expérimentation et </text>
	<text transform="matrix(0.8572 -0.515 0.515 0.8572 202.8468 2915.9543)" class="st4 st3">reliant entre eux les secteurs et les disciplines, le programme de recherche et </text>
	<text transform="matrix(0.8572 -0.515 0.515 0.8572 214.3829 2935.155)" class="st4 st3">d’innovation de l’UE adoptera l’approche systémique nécessaire pour atteindre les </text>
	<text transform="matrix(0.8572 -0.515 0.515 0.8572 225.92 2954.3557)" class="st4 st3">objectifs du pacte vert. Le programme «Horizon Europe» associera également les </text>
	<text transform="matrix(0.8572 -0.515 0.515 0.8572 237.4571 2973.5559)" class="st4 st3">communautés locales aux actions destinées à garantir un avenir plus durable, dans le </text>
	<text transform="matrix(0.8572 -0.515 0.515 0.8572 248.9938 2992.7566)" class="st4 st3">cadre d’initiatives visant à combiner l’influence exercée par les acteurs de la société et </text>
	<text transform="matrix(0.8572 -0.515 0.515 0.8572 260.5304 3011.9573)" class="st4 st3">la poussée technologique.</text>
	<text transform="matrix(0.8572 -0.515 0.515 0.8572 283.6046 3050.3582)" class="st2 st3">L’accessibilité et l’interopérabilité des données sont au cœur de l’innovation fondée sur </text>
	<text transform="matrix(0.8572 -0.515 0.515 0.8572 295.1412 3069.5588)" class="st2 st3">les données. </text>
	<text transform="matrix(0.8572 -0.515 0.515 0.8572 372.4688 3023.0959)" class="st4 st3">Ces données, combinées avec les infrastructures numériques </text>
	<text transform="matrix(0.8572 -0.515 0.515 0.8572 306.6778 3088.7595)" class="st4 st3">(supercalculateurs, réseaux en nuage et réseaux ultrarapides, par exemple) et avec les </text>
	<text transform="matrix(0.8572 -0.515 0.515 0.8572 318.2149 3107.9602)" class="st4 st3">solutions d’intelligence artificielle, facilitent les décisions fondées sur des données </text>
	<text transform="matrix(0.8572 -0.515 0.515 0.8572 329.752 3127.1604)" class="st4 st3">probantes et renforcent la capacité de comprendre et de relever les défis </text>
	<text transform="matrix(0.8572 -0.515 0.515 0.8572 341.2887 3146.3611)" class="st4 st3">environnementaux. La Commission soutiendra les travaux visant à tirer pleinement parti </text>
	<text transform="matrix(0.8572 -0.515 0.515 0.8572 352.8253 3165.5618)" class="st4 st3">de la transformation numérique pour soutenir la transition écologique. Une priorité </text>
	<text transform="matrix(0.8572 -0.515 0.515 0.8572 364.3624 3184.762)" class="st4 st3">immédiate sera de renforcer la capacité de l’UE de prévoir et de gérer les catastrophes </text>
	<text transform="matrix(0.8572 -0.515 0.515 0.8572 375.8995 3203.9626)" class="st4 st3">environnementales. À cet effet, la Commission associera l’excellence scientifique et </text>
	<text transform="matrix(0.8572 -0.515 0.515 0.8572 387.4361 3223.1633)" class="st4 st3">l’excellence industrielle européennes pour mettre au point un modèle numérique de la </text>
	<text transform="matrix(0.8572 -0.515 0.515 0.8572 398.9727 3242.364)" class="st4 st3">Terre de grande précision.</text>
	<text transform="matrix(0.8572 -0.515 0.515 0.8572 422.047 3280.7649)" class="st5 st3">2.2.4. Activer l’éducation et la formation </text>
	<text transform="matrix(0.8572 -0.515 0.515 0.8572 445.1202 3319.1663)" class="st2 st3">Les écoles, les établissements de formation et les universités sont bien placés pour </text>
	<text transform="matrix(0.8572 -0.515 0.515 0.8572 456.6573 3338.3665)" class="st2 st3">dialoguer avec les élèves, les parents et la communauté au sens large sur les </text>
	<text transform="matrix(0.8572 -0.515 0.515 0.8572 468.1939 3357.5671)" class="st2 st3">changements nécessaires pour une transition réussie.</text>
	<text transform="matrix(0.8572 -0.515 0.515 0.8572 782.9882 3168.4197)" class="st4 st3"> La Commission élaborera un </text>
	<text transform="matrix(0.8572 -0.515 0.515 0.8572 479.7306 3376.7678)" class="st4 st3">cadre de compétences européen pour contribuer au développement et à l’évaluation </text>
	<text transform="matrix(0.8572 -0.515 0.515 0.8572 491.2682 3395.969)" class="st4 st3">des connaissances, des compétences et des attitudes en matière de changement </text>
	<text transform="matrix(0.8572 -0.515 0.515 0.8572 502.8048 3415.1697)" class="st4 st3">climatique et de développement durable. Elle fournira également du matériel </text>
	<text transform="matrix(0.8572 -0.515 0.515 0.8572 514.3419 3434.3704)" class="st4 st3">d’accompagnement et facilitera l’échange de bonnes pratiques au sein des réseaux de </text>
	<text transform="matrix(0.8572 -0.515 0.515 0.8572 525.879 3453.5706)" class="st4 st3">programmes de formation des enseignants de l’UE</text>
</g>
</svg>
