<?xml version="1.0" encoding="utf-8"?>
<!-- Generator: Adobe Illustrator 23.1.1, SVG Export Plug-In . SVG Version: 6.00 Build 0)  -->
<svg version="1.1" id="Calque_1" xmlns="http://www.w3.org/2000/svg" xmlns:xlink="http://www.w3.org/1999/xlink" x="0px" y="0px"
	 viewBox="0 0 348.81 348.63" style="enable-background:new 0 0 348.81 348.63;" xml:space="preserve">
<style type="text/css">
	.st0{fill:#FFFFFF;}
	.st1{fill:#5AA86F;}
	.st2{fill:#485175;}
	.st3{fill:#F7E8D3;}
	.st4{fill:#F1573F;}
	.st5{fill:#2D302F;}
	.st6{fill:#FFFFFF;stroke:#000000;stroke-miterlimit:10;}
	.st7{fill:#E7F4EC;}
	.st8{fill:#547146;}
	.st9{fill:#BCCBBC;}
	.st10{fill:#EAE9DC;}
	.st11{fill:#275E39;}
	.st12{fill:#050008;}
	.st13{clip-path:url(#SVGID_2_);}
	.st14{stroke:#000000;stroke-width:1.7036;stroke-miterlimit:10;}
	.st15{fill:#F9F8F4;}
	.st16{fill:#148B20;stroke:#1C881F;stroke-miterlimit:10;}
	.st17{fill:#148B20;stroke:#148B20;stroke-miterlimit:10;}
	.st18{stroke:#000000;stroke-miterlimit:10;}
	.st19{fill:#148B20;}
	.st20{enable-background:new    ;}
	.st21{fill:#F8F7F3;}
	.st22{fill:#1C8B20;stroke:#1C8B20;}
	.st23{fill:#048D14;}
	.st24{fill:none;stroke:#000000;stroke-width:5;stroke-linecap:round;stroke-linejoin:round;}
</style>
<g>
	<path id="Tracé_128" class="st18" d="M328.62,114.18c0.17-0.42,0.15-0.88-0.03-1.29c-0.72-1.65-1.52-3.27-2.34-4.86
		c-15.08-37.56-41.35-72.15-79.48-87.79c-18.74-7.69-39.33-12.9-59.17-16.97C172.11,0.08,153.72-2,139.58,6.58
		c-0.11-0.07-0.23-0.12-0.35-0.13c-0.4-0.25-0.88-0.33-1.33-0.23C87.82,16.94,43.7,53.27,19.3,97.48
		C-6.37,144.01-5,198.85,18.8,245.66c22.84,44.94,65.12,80.33,113,95.6c48.1,15.34,98.94,3.99,140.02-24.01
		c17.7-12.07,32.96-27.36,45.01-45.08c0.08,0.08,0.16,0.16,0.24,0.25c0.5-0.88,0.95-1.79,1.34-2.73c0.26-0.65,0.66-1.24,1.17-1.72
		c7.3-11.41,13.11-23.71,17.3-36.59C348.93,194.07,342.06,150.47,328.62,114.18z M332.7,233.41c-0.85,2.79-1.83,5.52-2.88,8.23
		c-0.49,2.85-1.62,5.55-3.31,7.9c-2.77,6.07-5.96,11.94-9.56,17.56l-0.05-0.06c-0.58,1.1-1.24,2.15-1.98,3.15l0.01,0.01
		c-3.39,5.01-7.07,9.82-11.01,14.41c-1.05,2.23-2.55,4.22-4.4,5.85c-3.62,3.22-6.95,6.71-10.78,9.71c-0.29,0.23-0.58,0.43-0.87,0.66
		c-1.06,0.94-2.11,1.87-3.19,2.78l-0.03-0.09l-0.13-0.23c-0.6,0.43-1.21,0.85-1.82,1.27l0.5,0.29c-5.96,4.92-12.23,9.46-18.77,13.59
		c-0.12-0.31-0.22-0.62-0.33-0.93c-0.38,0.31-0.76,0.62-1.13,0.94c0.1,0.23,0.21,0.45,0.32,0.68l0.02,0.02
		c-15.23,9.47-31.77,16.64-49.09,21.29c-23.32,6.08-47.78,6.22-71.17,0.42c0.04-0.35,0.1-0.67,0.15-1.01
		c-0.59-0.05-1.19-0.1-1.78-0.14c-0.03,0.25-0.07,0.49-0.09,0.74c-14.87-3.79-29.17-9.53-42.54-17.07l0.05-0.21
		c-0.57-0.33-1.14-0.67-1.7-1.02l-0.01,0.28c-13.43-7.73-25.92-17-37.21-27.62C15.27,252.89-7.4,190.61,9.2,130.63
		C25,73.56,76.82,24.17,134.84,10.89l-0.1,0.14c1.82-0.59,3.59-1.42,5.43-2.02c0.04-0.09,0.07-0.17,0.1-0.27
		c2.9-1.64,6-2.91,9.22-3.78c5.68-3.75,12.87-1.86,19.89-1.53l-0.03-0.02c0.15,0.01,0.3,0.03,0.46,0.04
		c0.67,0.03,1.33,0.04,1.99,0.02c0.56-0.02,1.11,0.1,1.62,0.34c12.44,1.47,25.2,5.35,36.44,8.77c-0.02,0.04-0.03,0.09-0.05,0.13
		c2.34,0.42,4.63,1.07,6.84,1.93c1.05,0.36,2.12,0.66,3.19,0.95l-0.11-0.08c0.9,0.26,1.79,0.53,2.7,0.79
		c0.72,0.2,1.43,0.41,2.15,0.64c5.4,1.61,10.76,3.32,16.02,5.25c3.77,1.1,7.42,2.57,10.89,4.4c3.31,1.48,6.58,3.08,9.8,4.85
		c15.11,8.31,27.2,21.39,37.6,34.92c4.77,6.24,9.14,12.79,13.07,19.59c1.57,1.81,2.93,3.79,4.08,5.89c1.29,2.63,2.41,5.36,3.69,8
		c2.6,5.37,4.7,10.69,6.79,16.24c0.15,0.4,0.23,0.83,0.23,1.26C340.54,154.66,343.92,196.7,332.7,233.41z"/>
	<path id="trait" class="st24" d="M306.53,242.3l-3.93,16.67c-0.12,0.53-0.65,0.86-1.19,0.74c-0.44-0.1-0.75-0.48-0.77-0.93
		l-0.75-18.03c-0.03-0.71-0.63-1.26-1.34-1.23c-0.56,0.02-1.04,0.4-1.19,0.94l-9.83,35.22c-0.09,0.43-0.52,0.71-0.95,0.61
		c-0.39-0.08-0.66-0.44-0.63-0.84l0.5-42.13c0.01-0.54-0.42-0.99-0.97-1c-0.46-0.01-0.86,0.31-0.97,0.75l-15.35,63.23
		c-2.68,1.86-6.64-0.21-7.92-3.2s-0.7-6.43-0.09-9.63c3.77-19.95,7.54-39.89,11.31-59.84c-2.78-3.34-7.42,1.85-8.53,6.05L243.83,306
		c-0.1,0.38-0.5,0.61-0.88,0.51c-0.33-0.09-0.55-0.4-0.53-0.74l5.6-79.75c0.18-2.56,0.31-5.32-1.06-7.49s-4.89-3.11-6.49-1.1
		c-4.25,34-11.64,67.54-22.07,100.19c-0.16,0.49-0.69,0.76-1.18,0.6c-0.38-0.12-0.64-0.47-0.65-0.86
		c-0.92-36.66,4.8-73.2,10.51-109.45c-14.15,22.89-22.93,48.68-25.68,75.44c-1.46,14.33-2.17,30.75-10.54,41.53
		c-0.89,1.17-2.55,1.39-3.72,0.51c-0.8-0.61-1.18-1.61-1-2.59l20.45-110.7c0.05-0.29-0.14-0.56-0.42-0.61
		c-0.26-0.05-0.51,0.1-0.6,0.35l-36.4,108.7c-0.41,1.21-1.72,1.86-2.94,1.46c-0.88-0.3-1.49-1.08-1.57-2.01
		c-1.43-17.12,3.31-34.62,9.14-51c6.91-19.44,15.44-38.69,17.28-59.24c0.15-1.78,0.02-3.57-0.37-5.32c-0.5-2.27-2.75-3.7-5.01-3.2
		c-1.51,0.33-2.72,1.47-3.14,2.96c-8.69,30.89-17.37,61.78-26.06,92.66c-1.89,6.7-4.03,13.78-7.91,19.4
		c-0.83,1.19-2.46,1.48-3.64,0.65c-0.84-0.59-1.27-1.62-1.08-2.63c7.31-38.88,14.62-77.75,21.93-116.63
		c0.12-0.64-0.3-1.27-0.95-1.39c-0.51-0.1-1.03,0.15-1.27,0.62c-18.36,35.46-27.98,74.82-36.81,113.93
		c-0.22,0.96-1.17,1.56-2.13,1.34c-0.72-0.16-1.26-0.76-1.37-1.49c-2.97-22.03,1.51-44.72,6.17-66.65
		c14.68-69.01,31.3-138.87,26.97-209.21c0.01-0.22-0.16-0.41-0.38-0.42c-0.22-0.01-0.41,0.16-0.42,0.38l-34.44,245.49
		c-1.3,9.26-3.08,19.32-7.91,27c-1.1,1.75-3.41,2.28-5.16,1.18c-1.19-0.75-1.86-2.1-1.74-3.5c8.29-94.41,19.62-188.48,34-282.22
		c-9.58,0.09-13.95,11.8-15.66,21.22c-15.68,86.2-24.33,173.54-25.87,261.15c-3.52,2.08-8.32-0.22-10.36-3.76s-2.07-7.85-2.02-11.94
		c0.92-79.24,9.89-158.18,26.77-235.61c0.87-4,1.75-8.3-0.77-11.95c-1.1-1.66-3-2.61-4.99-2.5c-3.1,0.25-4.39,2.95-5.4,5.42
		c-29.94,73.1-20.39,155.45-27.01,234.16c-0.23,2.77-0.62,5.82-3.29,7.3c-2.47,1.27-5.47,0.76-7.38-1.25
		c-3.77-3.78-3.41-9.1-2.95-13.99L82.15,46.56C67.3,100.68,60.66,156.73,62.46,212.83c0.49,15.02,1.1,31.5-5.84,44.29
		c-0.96,1.77-3.17,2.43-4.94,1.47c-0.9-0.48-1.55-1.32-1.8-2.31c-14.21-57.67,13.4-120.05,4.1-179.1c-0.08-0.5-0.56-0.85-1.06-0.77
		c-0.4,0.06-0.72,0.39-0.77,0.79l-20.88,159c-9.91-40.03-5.76-81.92-0.52-122.96c0.07-0.58-0.35-1.12-0.93-1.19
		c-0.5-0.06-0.97,0.23-1.14,0.71c-7.57,22.48-12.15,45.86-13.61,69.53"/>
	<path id="Tracé_125-2" class="st19" d="M200.78,268.85l2.49,74.18l130.03-2.65l-1.16-17.21l-13.76-3.49l3.22-26.55l22.65-2.76
		l4.56-16.84L200.78,268.85z"/>
	<g class="st20">
		<path class="st21" d="M207.62,275.69h2.5v10.49h6.44v1.98h-8.95V275.69z"/>
		<path class="st21" d="M227.56,285.23c-0.14,0.58-0.36,1.06-0.65,1.46c-0.29,0.4-0.64,0.72-1.05,0.96s-0.88,0.42-1.4,0.53
			c-0.52,0.11-1.08,0.16-1.67,0.16c-0.89,0-1.65-0.12-2.29-0.35c-0.64-0.23-1.17-0.55-1.58-0.96s-0.72-0.89-0.92-1.45
			s-0.3-1.17-0.3-1.83c0-0.78,0.12-1.46,0.37-2.03c0.25-0.58,0.59-1.05,1.03-1.43s0.97-0.66,1.59-0.85
			c0.62-0.19,1.31-0.28,2.07-0.28c0.72,0,1.38,0.1,1.97,0.29c0.59,0.19,1.1,0.48,1.52,0.85c0.42,0.38,0.74,0.85,0.97,1.42
			c0.23,0.57,0.34,1.23,0.34,1.99v0.63h-7.42c0.04,0.31,0.11,0.61,0.22,0.88c0.11,0.28,0.27,0.52,0.48,0.73s0.47,0.38,0.79,0.5
			c0.32,0.12,0.71,0.18,1.16,0.18c1.24,0,2-0.47,2.29-1.4H227.56z M225.06,282.71c-0.02-0.25-0.1-0.49-0.22-0.72
			s-0.28-0.43-0.48-0.6c-0.2-0.17-0.43-0.31-0.7-0.41c-0.27-0.1-0.57-0.15-0.91-0.15c-0.4,0-0.75,0.05-1.05,0.16
			c-0.31,0.11-0.57,0.25-0.78,0.42s-0.38,0.38-0.5,0.6c-0.12,0.23-0.2,0.46-0.23,0.7H225.06z"/>
		<path class="st21" d="M231.25,285.68c0.05,0.31,0.25,0.55,0.62,0.71c0.37,0.16,0.79,0.24,1.27,0.24c0.2,0,0.41-0.01,0.61-0.04
			c0.2-0.03,0.39-0.09,0.56-0.17s0.31-0.19,0.41-0.33c0.11-0.14,0.16-0.31,0.16-0.51c0-0.17-0.05-0.31-0.16-0.42
			c-0.11-0.11-0.26-0.21-0.45-0.28c-0.19-0.07-0.41-0.13-0.66-0.18c-0.25-0.05-0.51-0.09-0.8-0.13c-0.46-0.07-0.91-0.15-1.36-0.23
			s-0.86-0.22-1.22-0.4c-0.37-0.18-0.66-0.43-0.89-0.76c-0.23-0.32-0.34-0.76-0.34-1.3c0-0.48,0.11-0.89,0.32-1.23
			c0.22-0.34,0.5-0.62,0.86-0.85c0.36-0.22,0.78-0.38,1.26-0.49c0.48-0.1,0.99-0.15,1.53-0.15c0.55,0,1.06,0.06,1.53,0.17
			s0.87,0.28,1.21,0.5s0.61,0.48,0.81,0.8c0.2,0.32,0.3,0.69,0.3,1.11h-2.23c-0.02-0.13-0.09-0.25-0.19-0.37
			c-0.1-0.11-0.23-0.21-0.38-0.29c-0.15-0.08-0.32-0.14-0.5-0.19c-0.19-0.05-0.38-0.07-0.57-0.07c-0.42,0-0.79,0.08-1.12,0.23
			c-0.33,0.16-0.5,0.37-0.5,0.65c0,0.19,0.06,0.35,0.18,0.48s0.29,0.23,0.5,0.32s0.45,0.15,0.72,0.2c0.27,0.05,0.55,0.09,0.84,0.13
			c0.44,0.06,0.89,0.13,1.32,0.22c0.44,0.09,0.83,0.23,1.18,0.42c0.35,0.19,0.63,0.46,0.85,0.79s0.32,0.78,0.32,1.33
			c0,0.52-0.12,0.95-0.37,1.31c-0.25,0.35-0.57,0.64-0.96,0.85c-0.4,0.22-0.84,0.37-1.32,0.46s-0.97,0.13-1.45,0.13
			c-0.59,0-1.14-0.05-1.67-0.15c-0.52-0.1-0.98-0.26-1.38-0.48c-0.4-0.22-0.71-0.49-0.95-0.83c-0.23-0.34-0.36-0.74-0.37-1.21
			H231.25z"/>
		<path class="st21" d="M252.13,288.16l-0.04-0.86c-0.34,0.37-0.77,0.64-1.29,0.8c-0.52,0.16-1.02,0.24-1.5,0.24
			c-1.37,0-2.45-0.26-3.24-0.77s-1.19-1.34-1.19-2.48v-5.76h2.38v5.62c0,0.26,0.06,0.5,0.19,0.71s0.3,0.39,0.51,0.53
			c0.22,0.14,0.47,0.26,0.76,0.33c0.29,0.08,0.59,0.12,0.92,0.12c0.7,0,1.27-0.17,1.71-0.5c0.44-0.34,0.67-0.8,0.67-1.4v-5.4h2.38
			v8.84H252.13z"/>
		<path class="st21" d="M258.68,279.32v0.86c0.34-0.37,0.76-0.64,1.27-0.8c0.51-0.16,1-0.24,1.49-0.24c1.37,0,2.45,0.26,3.26,0.77
			c0.8,0.52,1.21,1.34,1.21,2.48v5.76h-2.38v-5.65c0-0.26-0.06-0.5-0.19-0.71c-0.13-0.21-0.3-0.39-0.51-0.53
			c-0.22-0.14-0.47-0.25-0.76-0.33s-0.59-0.12-0.92-0.12c-0.7,0-1.27,0.17-1.71,0.5c-0.44,0.34-0.67,0.8-0.67,1.4v5.44h-2.38v-8.84
			H258.68z"/>
		<path class="st21" d="M267.99,277.63v-2.14h2.5v2.14H267.99z M268.04,288.16v-8.84h2.38v8.84H268.04z"/>
		<path class="st21" d="M276.88,285.69l2.81-6.37h2.56l-4.28,8.84h-2.2l-4.19-8.84h2.52L276.88,285.69z"/>
		<path class="st21" d="M292.61,285.23c-0.14,0.58-0.36,1.06-0.65,1.46c-0.29,0.4-0.64,0.72-1.05,0.96s-0.88,0.42-1.4,0.53
			c-0.52,0.11-1.08,0.16-1.67,0.16c-0.89,0-1.65-0.12-2.29-0.35c-0.64-0.23-1.17-0.55-1.58-0.96s-0.72-0.89-0.92-1.45
			c-0.2-0.56-0.3-1.17-0.3-1.83c0-0.78,0.12-1.46,0.37-2.03c0.25-0.58,0.59-1.05,1.03-1.43c0.44-0.38,0.97-0.66,1.59-0.85
			c0.62-0.19,1.31-0.28,2.07-0.28c0.72,0,1.38,0.1,1.97,0.29s1.1,0.48,1.52,0.85c0.42,0.38,0.74,0.85,0.97,1.42
			c0.23,0.57,0.34,1.23,0.34,1.99v0.63h-7.42c0.04,0.31,0.11,0.61,0.22,0.88c0.11,0.28,0.27,0.52,0.48,0.73
			c0.21,0.21,0.47,0.38,0.79,0.5c0.32,0.12,0.7,0.18,1.16,0.18c1.24,0,2-0.47,2.29-1.4H292.61z M290.11,282.71
			c-0.02-0.25-0.1-0.49-0.22-0.72c-0.12-0.23-0.28-0.43-0.48-0.6c-0.2-0.17-0.43-0.31-0.7-0.41c-0.27-0.1-0.57-0.15-0.91-0.15
			c-0.4,0-0.75,0.05-1.05,0.16c-0.31,0.11-0.57,0.25-0.78,0.42c-0.22,0.17-0.38,0.38-0.5,0.6c-0.12,0.23-0.2,0.46-0.23,0.7H290.11z"
			/>
		<path class="st21" d="M299.31,280.87c-0.8,0-1.41,0.2-1.83,0.6c-0.41,0.4-0.62,1.04-0.62,1.92v4.77h-2.38v-8.84h2.3v0.68
			c0.3-0.31,0.67-0.53,1.12-0.67c0.44-0.13,0.91-0.2,1.4-0.2c0.17,0,0.39,0,0.67,0.01s0.53,0.03,0.77,0.08v1.8
			c-0.12-0.02-0.25-0.05-0.39-0.07c-0.14-0.02-0.27-0.04-0.4-0.05c-0.13-0.01-0.25-0.02-0.37-0.03
			C299.47,280.87,299.38,280.87,299.31,280.87z"/>
		<path class="st21" d="M304.06,285.68c0.05,0.31,0.25,0.55,0.62,0.71c0.37,0.16,0.79,0.24,1.27,0.24c0.2,0,0.41-0.01,0.61-0.04
			c0.2-0.03,0.39-0.09,0.56-0.17c0.17-0.08,0.31-0.19,0.41-0.33c0.11-0.14,0.16-0.31,0.16-0.51c0-0.17-0.05-0.31-0.16-0.42
			c-0.11-0.11-0.26-0.21-0.45-0.28c-0.19-0.07-0.41-0.13-0.66-0.18s-0.51-0.09-0.8-0.13c-0.46-0.07-0.91-0.15-1.36-0.23
			s-0.86-0.22-1.22-0.4c-0.37-0.18-0.66-0.43-0.89-0.76c-0.23-0.32-0.34-0.76-0.34-1.3c0-0.48,0.11-0.89,0.32-1.23
			c0.22-0.34,0.5-0.62,0.86-0.85c0.36-0.22,0.78-0.38,1.26-0.49c0.48-0.1,0.99-0.15,1.53-0.15c0.55,0,1.06,0.06,1.53,0.17
			c0.47,0.11,0.87,0.28,1.22,0.5c0.34,0.22,0.61,0.48,0.81,0.8c0.2,0.32,0.3,0.69,0.3,1.11h-2.23c-0.02-0.13-0.09-0.25-0.19-0.37
			s-0.23-0.21-0.38-0.29s-0.32-0.14-0.5-0.19c-0.19-0.05-0.38-0.07-0.57-0.07c-0.42,0-0.79,0.08-1.12,0.23
			c-0.33,0.16-0.5,0.37-0.5,0.65c0,0.19,0.06,0.35,0.18,0.48c0.12,0.13,0.28,0.23,0.5,0.32c0.21,0.08,0.45,0.15,0.72,0.2
			c0.27,0.05,0.55,0.09,0.84,0.13c0.44,0.06,0.88,0.13,1.32,0.22c0.44,0.09,0.83,0.23,1.18,0.42c0.35,0.19,0.63,0.46,0.85,0.79
			c0.22,0.34,0.32,0.78,0.32,1.33c0,0.52-0.12,0.95-0.37,1.31c-0.25,0.35-0.57,0.64-0.96,0.85c-0.4,0.22-0.84,0.37-1.32,0.46
			c-0.49,0.09-0.97,0.13-1.45,0.13c-0.59,0-1.14-0.05-1.67-0.15c-0.52-0.1-0.98-0.26-1.38-0.48c-0.4-0.22-0.71-0.49-0.95-0.83
			s-0.36-0.74-0.37-1.21H304.06z"/>
		<path class="st21" d="M311.71,277.63v-2.14h2.5v2.14H311.71z M311.76,288.16v-8.84h2.38v8.84H311.76z"/>
		<path class="st21" d="M321.65,288.16c-0.36,0.06-0.71,0.1-1.05,0.11c-0.34,0.01-0.59,0.02-0.75,0.02c-0.95,0-1.66-0.23-2.13-0.68
			c-0.47-0.46-0.71-1.06-0.71-1.82v-4.72h-1.53v-1.75H317v-2.59h2.38v2.59h2.41v1.75h-2.41v4.59c0,0.29,0.07,0.5,0.21,0.64
			c0.14,0.14,0.37,0.21,0.69,0.21c0.1,0,0.21-0.01,0.34-0.02s0.26-0.02,0.4-0.04c0.13-0.01,0.25-0.02,0.37-0.04
			c0.11-0.01,0.2-0.02,0.26-0.04V288.16z"/>
		<path class="st21" d="M332.71,285.23c-0.14,0.58-0.36,1.06-0.65,1.46c-0.29,0.4-0.64,0.72-1.05,0.96s-0.88,0.42-1.4,0.53
			c-0.52,0.11-1.08,0.16-1.67,0.16c-0.89,0-1.65-0.12-2.29-0.35c-0.64-0.23-1.17-0.55-1.58-0.96s-0.72-0.89-0.92-1.45
			s-0.3-1.17-0.3-1.83c0-0.78,0.12-1.46,0.37-2.03c0.25-0.58,0.59-1.05,1.03-1.43s0.97-0.66,1.59-0.85
			c0.62-0.19,1.31-0.28,2.07-0.28c0.72,0,1.38,0.1,1.97,0.29c0.59,0.19,1.1,0.48,1.52,0.85c0.42,0.38,0.74,0.85,0.97,1.42
			c0.23,0.57,0.34,1.23,0.34,1.99v0.63h-7.42c0.04,0.31,0.11,0.61,0.22,0.88c0.11,0.28,0.27,0.52,0.48,0.73s0.47,0.38,0.79,0.5
			c0.32,0.12,0.71,0.18,1.16,0.18c1.24,0,2-0.47,2.29-1.4H332.71z M330.21,282.71c-0.02-0.25-0.1-0.49-0.22-0.72
			s-0.28-0.43-0.48-0.6c-0.2-0.17-0.43-0.31-0.7-0.41c-0.27-0.1-0.57-0.15-0.91-0.15c-0.4,0-0.75,0.05-1.05,0.16
			c-0.31,0.11-0.57,0.25-0.78,0.42s-0.38,0.38-0.5,0.6c-0.12,0.23-0.2,0.46-0.23,0.7H330.21z M327.42,278.51l-1.58-1.06l2.52-2.99
			l1.94,1.31L327.42,278.51z"/>
		<path class="st21" d="M336.41,285.68c0.05,0.31,0.25,0.55,0.62,0.71c0.37,0.16,0.79,0.24,1.27,0.24c0.2,0,0.41-0.01,0.61-0.04
			c0.2-0.03,0.39-0.09,0.56-0.17s0.31-0.19,0.41-0.33c0.11-0.14,0.16-0.31,0.16-0.51c0-0.17-0.05-0.31-0.16-0.42
			c-0.11-0.11-0.26-0.21-0.45-0.28c-0.19-0.07-0.41-0.13-0.66-0.18c-0.25-0.05-0.51-0.09-0.8-0.13c-0.46-0.07-0.91-0.15-1.36-0.23
			s-0.86-0.22-1.22-0.4c-0.37-0.18-0.66-0.43-0.89-0.76c-0.23-0.32-0.34-0.76-0.34-1.3c0-0.48,0.11-0.89,0.32-1.23
			c0.22-0.34,0.5-0.62,0.86-0.85c0.36-0.22,0.78-0.38,1.26-0.49c0.48-0.1,0.99-0.15,1.53-0.15c0.55,0,1.06,0.06,1.53,0.17
			s0.87,0.28,1.21,0.5s0.61,0.48,0.81,0.8c0.2,0.32,0.3,0.69,0.3,1.11h-2.23c-0.02-0.13-0.09-0.25-0.19-0.37
			c-0.1-0.11-0.23-0.21-0.38-0.29c-0.15-0.08-0.32-0.14-0.5-0.19c-0.19-0.05-0.38-0.07-0.57-0.07c-0.42,0-0.79,0.08-1.12,0.23
			c-0.33,0.16-0.5,0.37-0.5,0.65c0,0.19,0.06,0.35,0.18,0.48s0.29,0.23,0.5,0.32s0.45,0.15,0.72,0.2c0.27,0.05,0.55,0.09,0.84,0.13
			c0.44,0.06,0.89,0.13,1.32,0.22c0.44,0.09,0.83,0.23,1.18,0.42c0.35,0.19,0.63,0.46,0.85,0.79s0.32,0.78,0.32,1.33
			c0,0.52-0.12,0.95-0.37,1.31c-0.25,0.35-0.57,0.64-0.96,0.85c-0.4,0.22-0.84,0.37-1.32,0.46s-0.97,0.13-1.45,0.13
			c-0.59,0-1.14-0.05-1.67-0.15c-0.52-0.1-0.98-0.26-1.38-0.48c-0.4-0.22-0.71-0.49-0.95-0.83c-0.23-0.34-0.36-0.74-0.37-1.21
			H336.41z"/>
	</g>
	<g class="st20">
		<path class="st21" d="M212.03,303.16c0.86,0,1.61,0.11,2.25,0.33c0.64,0.22,1.16,0.53,1.57,0.94c0.41,0.4,0.71,0.88,0.91,1.44
			s0.3,1.18,0.3,1.86c0,1.48-0.42,2.61-1.25,3.41s-2.09,1.2-3.77,1.2c-1.67,0-2.93-0.4-3.77-1.2s-1.27-1.94-1.27-3.41
			c0-0.68,0.1-1.31,0.3-1.86s0.5-1.04,0.92-1.44c0.41-0.4,0.94-0.71,1.58-0.94C210.41,303.27,211.16,303.16,212.03,303.16z
			 M212.03,304.82c-0.47,0-0.87,0.08-1.2,0.24c-0.33,0.16-0.6,0.38-0.81,0.66c-0.21,0.28-0.36,0.59-0.46,0.95
			c-0.1,0.35-0.14,0.72-0.14,1.09s0.05,0.73,0.14,1.08c0.1,0.35,0.25,0.65,0.46,0.92c0.21,0.26,0.48,0.48,0.81,0.64
			c0.33,0.16,0.73,0.24,1.2,0.24c0.47,0,0.87-0.08,1.2-0.24c0.33-0.16,0.6-0.37,0.81-0.64c0.21-0.26,0.36-0.57,0.46-0.92
			c0.1-0.35,0.14-0.71,0.14-1.08s-0.05-0.73-0.14-1.09c-0.1-0.35-0.25-0.67-0.46-0.95c-0.21-0.28-0.48-0.5-0.81-0.66
			C212.89,304.9,212.5,304.82,212.03,304.82z"/>
		<path class="st21" d="M217.91,303.32h1.73v-1.31c0-0.76,0.24-1.36,0.72-1.81c0.48-0.45,1.19-0.67,2.12-0.67
			c0.25,0,0.58,0.01,0.98,0.04c0.4,0.02,0.78,0.07,1.14,0.13v1.69c-0.17-0.01-0.34-0.02-0.51-0.04c-0.17-0.01-0.34-0.02-0.5-0.03
			s-0.29-0.01-0.41-0.01s-0.2,0-0.25,0c-0.6,0-0.9,0.33-0.9,0.99v1.03h2.57v1.75h-2.57v7.09h-2.39v-7.09h-1.73V303.32z"/>
		<path class="st21" d="M225.24,303.32h1.73v-1.31c0-0.76,0.24-1.36,0.72-1.81c0.48-0.45,1.19-0.67,2.12-0.67
			c0.25,0,0.58,0.01,0.98,0.04c0.4,0.02,0.78,0.07,1.14,0.13v1.69c-0.17-0.01-0.34-0.02-0.51-0.04c-0.17-0.01-0.34-0.02-0.5-0.03
			s-0.29-0.01-0.41-0.01s-0.2,0-0.25,0c-0.6,0-0.9,0.33-0.9,0.99v1.03h2.57v1.75h-2.57v7.09h-2.39v-7.09h-1.73V303.32z"/>
		<path class="st21" d="M237.95,304.87c-0.8,0-1.41,0.2-1.83,0.6c-0.41,0.4-0.62,1.04-0.62,1.92v4.77h-2.38v-8.84h2.3v0.68
			c0.3-0.31,0.67-0.53,1.12-0.67c0.44-0.13,0.91-0.2,1.4-0.2c0.17,0,0.39,0,0.67,0.01c0.28,0.01,0.53,0.03,0.77,0.08v1.8
			c-0.12-0.02-0.25-0.05-0.39-0.07c-0.14-0.02-0.27-0.04-0.41-0.05s-0.25-0.02-0.37-0.03C238.11,304.87,238.02,304.87,237.95,304.87
			z"/>
		<path class="st21" d="M250.13,309.23c-0.14,0.58-0.36,1.06-0.65,1.46c-0.29,0.4-0.64,0.72-1.05,0.96s-0.88,0.42-1.4,0.53
			c-0.52,0.11-1.08,0.16-1.67,0.16c-0.89,0-1.65-0.12-2.29-0.35c-0.64-0.23-1.17-0.55-1.58-0.96s-0.72-0.89-0.92-1.45
			c-0.2-0.56-0.3-1.17-0.3-1.83c0-0.78,0.12-1.46,0.37-2.03c0.25-0.58,0.59-1.05,1.03-1.43c0.44-0.38,0.97-0.66,1.59-0.85
			c0.62-0.19,1.31-0.28,2.07-0.28c0.72,0,1.38,0.1,1.97,0.29s1.1,0.48,1.52,0.85c0.42,0.38,0.74,0.85,0.97,1.42
			c0.23,0.57,0.34,1.23,0.34,1.99v0.63h-7.42c0.04,0.31,0.11,0.61,0.22,0.88c0.11,0.28,0.27,0.52,0.48,0.73
			c0.21,0.21,0.47,0.38,0.79,0.5c0.32,0.12,0.7,0.18,1.16,0.18c1.24,0,2-0.47,2.29-1.4H250.13z M247.63,306.71
			c-0.02-0.25-0.1-0.49-0.22-0.72c-0.12-0.23-0.28-0.43-0.48-0.6c-0.2-0.17-0.43-0.31-0.7-0.41c-0.27-0.1-0.57-0.15-0.91-0.15
			c-0.4,0-0.75,0.05-1.05,0.16c-0.31,0.11-0.57,0.25-0.78,0.42c-0.22,0.17-0.38,0.38-0.5,0.6c-0.12,0.23-0.2,0.46-0.23,0.7H247.63z"
			/>
		<path class="st21" d="M254.29,303.32v0.86c0.34-0.37,0.76-0.64,1.27-0.8c0.51-0.16,1-0.24,1.48-0.24c1.37,0,2.45,0.26,3.26,0.77
			c0.8,0.52,1.21,1.34,1.21,2.48v5.76h-2.38v-5.65c0-0.26-0.06-0.5-0.19-0.71s-0.3-0.39-0.51-0.53c-0.22-0.14-0.47-0.25-0.76-0.33
			c-0.29-0.08-0.59-0.12-0.92-0.12c-0.7,0-1.27,0.17-1.71,0.5c-0.44,0.34-0.67,0.8-0.67,1.4v5.44H252v-8.84H254.29z"/>
		<path class="st21" d="M268.87,312.16c-0.36,0.06-0.71,0.1-1.05,0.11c-0.34,0.01-0.59,0.02-0.75,0.02c-0.95,0-1.66-0.23-2.13-0.68
			c-0.47-0.46-0.71-1.06-0.71-1.82v-4.72h-1.53v-1.75h1.53v-2.59h2.38v2.59h2.41v1.75h-2.41v4.59c0,0.29,0.07,0.5,0.21,0.64
			c0.14,0.14,0.37,0.21,0.69,0.21c0.1,0,0.21-0.01,0.34-0.02c0.13-0.01,0.26-0.02,0.4-0.04s0.25-0.02,0.37-0.04s0.2-0.02,0.26-0.04
			V312.16z"/>
		<path class="st21" d="M283.7,302.44c-0.06-0.37-0.26-0.64-0.61-0.79c-0.35-0.16-0.8-0.23-1.35-0.23c-0.71,0-1.33,0.27-1.87,0.8
			c-0.54,0.53-0.88,1.36-1.03,2.48c0.4-0.29,0.88-0.54,1.45-0.77c0.57-0.22,1.14-0.33,1.72-0.33c0.72,0,1.37,0.1,1.94,0.31
			s1.07,0.5,1.48,0.87c0.41,0.38,0.72,0.84,0.94,1.38s0.33,1.15,0.33,1.82c0,0.7-0.13,1.31-0.41,1.85c-0.27,0.54-0.64,1-1.1,1.37
			s-1,0.65-1.63,0.85s-1.3,0.29-2.02,0.29c-0.82,0-1.55-0.13-2.21-0.38c-0.65-0.25-1.21-0.62-1.67-1.09
			c-0.46-0.47-0.82-1.06-1.07-1.76s-0.38-1.5-0.38-2.4c0-1.32,0.15-2.44,0.45-3.36c0.3-0.92,0.7-1.66,1.21-2.23
			c0.5-0.57,1.08-0.98,1.75-1.24s1.34-0.39,2.05-0.39c0.64,0,1.22,0.07,1.76,0.22c0.54,0.14,1,0.34,1.39,0.6
			c0.39,0.26,0.7,0.57,0.92,0.94c0.22,0.37,0.33,0.77,0.33,1.21H283.7z M279.06,307.97c0,0.32,0.07,0.63,0.21,0.91
			c0.14,0.28,0.32,0.53,0.55,0.74c0.23,0.21,0.5,0.38,0.8,0.5s0.62,0.19,0.95,0.19c0.42,0,0.79-0.06,1.11-0.19s0.58-0.29,0.8-0.5
			c0.22-0.21,0.38-0.46,0.5-0.74c0.11-0.28,0.17-0.58,0.17-0.91c0-0.28-0.04-0.55-0.11-0.84c-0.07-0.28-0.2-0.53-0.39-0.76
			c-0.19-0.22-0.44-0.41-0.77-0.55c-0.32-0.14-0.74-0.22-1.24-0.22c-0.38,0-0.73,0.06-1.05,0.19s-0.59,0.3-0.81,0.51
			c-0.22,0.22-0.4,0.47-0.52,0.76S279.06,307.65,279.06,307.97z"/>
		<path class="st21" d="M291.48,309.17c0.13,0.35,0.36,0.65,0.67,0.91c0.32,0.26,0.78,0.39,1.38,0.39c0.85,0,1.5-0.29,1.94-0.87
			c0.44-0.58,0.73-1.38,0.86-2.38c-0.36,0.28-0.8,0.5-1.32,0.67c-0.52,0.17-1.11,0.25-1.77,0.25c-0.83,0-1.54-0.12-2.14-0.35
			c-0.6-0.23-1.09-0.55-1.48-0.95c-0.38-0.4-0.67-0.85-0.85-1.38c-0.18-0.52-0.27-1.08-0.27-1.67c0-0.6,0.12-1.16,0.36-1.68
			c0.24-0.52,0.58-0.98,1.01-1.37c0.43-0.39,0.95-0.7,1.55-0.93c0.6-0.23,1.26-0.34,1.98-0.34c1,0,1.83,0.15,2.5,0.44
			s1.21,0.7,1.62,1.21c0.41,0.52,0.7,1.13,0.87,1.84c0.17,0.71,0.26,1.49,0.26,2.31c0,1.06-0.09,2.02-0.26,2.88
			c-0.17,0.86-0.46,1.61-0.85,2.22c-0.39,0.62-0.9,1.1-1.54,1.43c-0.64,0.34-1.41,0.5-2.32,0.5c-0.91,0-1.67-0.11-2.27-0.32
			c-0.6-0.21-1.08-0.47-1.44-0.79c-0.36-0.32-0.62-0.66-0.77-1.03c-0.15-0.37-0.22-0.71-0.22-1.04L291.48,309.17z M296.09,303.66
			c0-0.31-0.07-0.6-0.2-0.87c-0.13-0.27-0.31-0.5-0.55-0.69c-0.23-0.19-0.51-0.34-0.83-0.45c-0.32-0.11-0.67-0.16-1.05-0.16
			c-0.37,0-0.71,0.06-1.02,0.18c-0.31,0.12-0.57,0.28-0.78,0.49s-0.38,0.43-0.5,0.69c-0.12,0.26-0.18,0.53-0.18,0.82
			s0.04,0.58,0.13,0.87c0.08,0.29,0.22,0.56,0.42,0.8c0.2,0.24,0.46,0.44,0.77,0.59c0.32,0.16,0.71,0.23,1.16,0.23
			c0.83,0,1.47-0.22,1.94-0.66C295.85,305.07,296.09,304.46,296.09,303.66z"/>
		<path class="st21" d="M300.39,302.78c0-0.38,0.04-0.77,0.13-1.15c0.09-0.38,0.25-0.73,0.48-1.04c0.23-0.31,0.53-0.55,0.92-0.74
			c0.38-0.19,0.86-0.28,1.44-0.28c0.58,0,1.05,0.1,1.43,0.29c0.38,0.19,0.68,0.44,0.9,0.76c0.22,0.31,0.38,0.66,0.46,1.04
			c0.08,0.38,0.13,0.77,0.13,1.17c0,2.36-0.97,3.55-2.92,3.55c-0.97,0-1.71-0.29-2.21-0.87
			C300.64,304.93,300.39,304.02,300.39,302.78z M302.28,302.85c0,0.18,0.01,0.38,0.04,0.6c0.02,0.22,0.08,0.43,0.15,0.62
			c0.08,0.19,0.19,0.35,0.32,0.48c0.14,0.13,0.33,0.19,0.57,0.19c0.23,0,0.41-0.06,0.54-0.19c0.13-0.13,0.23-0.28,0.31-0.48
			c0.07-0.19,0.12-0.4,0.13-0.62c0.02-0.22,0.03-0.42,0.03-0.6c0-0.17-0.01-0.35-0.04-0.55c-0.02-0.2-0.07-0.38-0.14-0.54
			c-0.07-0.16-0.17-0.3-0.31-0.41c-0.13-0.11-0.31-0.16-0.52-0.16c-0.24,0-0.43,0.05-0.57,0.16c-0.14,0.11-0.25,0.24-0.32,0.41
			c-0.08,0.16-0.13,0.34-0.15,0.54C302.29,302.5,302.28,302.69,302.28,302.85z M313.67,299.6l-9.04,13.48l-1.87-0.85l9.04-13.43
			L313.67,299.6z M310.31,308.69c0-0.38,0.04-0.77,0.13-1.15c0.09-0.38,0.25-0.73,0.48-1.04c0.23-0.31,0.53-0.55,0.92-0.74
			c0.38-0.19,0.86-0.28,1.44-0.28c0.58,0,1.05,0.1,1.43,0.29c0.38,0.19,0.68,0.44,0.9,0.76c0.22,0.31,0.38,0.66,0.46,1.04
			s0.13,0.77,0.13,1.17c0,1.2-0.25,2.09-0.74,2.67s-1.22,0.87-2.18,0.87c-0.97,0-1.71-0.29-2.21-0.87S310.31,309.92,310.31,308.69z
			 M312.2,308.76c0,0.18,0.01,0.38,0.04,0.6c0.02,0.22,0.08,0.43,0.15,0.62c0.08,0.19,0.19,0.35,0.32,0.48s0.33,0.19,0.57,0.19
			c0.23,0,0.41-0.06,0.54-0.19c0.13-0.13,0.23-0.29,0.31-0.48c0.07-0.19,0.12-0.4,0.13-0.62c0.02-0.22,0.03-0.42,0.03-0.6
			c0-0.17-0.02-0.35-0.04-0.55c-0.03-0.2-0.08-0.38-0.15-0.54s-0.17-0.3-0.31-0.41c-0.13-0.11-0.3-0.16-0.5-0.16
			c-0.24,0-0.43,0.05-0.57,0.16c-0.14,0.11-0.25,0.24-0.32,0.41s-0.13,0.34-0.15,0.54C312.21,308.41,312.2,308.59,312.2,308.76z"/>
	</g>
	<g class="st20">
		<path class="st21" d="M214.53,335.15c-0.18,0.23-0.41,0.43-0.68,0.59c-0.24,0.16-0.54,0.29-0.9,0.41
			c-0.36,0.12-0.79,0.18-1.3,0.18c-1.49,0-2.65-0.4-3.49-1.2c-0.84-0.8-1.26-1.94-1.26-3.41c0-0.68,0.1-1.31,0.3-1.86
			c0.2-0.56,0.5-1.04,0.92-1.45c0.41-0.41,0.94-0.72,1.57-0.94c0.63-0.22,1.38-0.33,2.26-0.33c0.19,0,0.4,0.02,0.63,0.07
			c0.23,0.05,0.46,0.11,0.68,0.2c0.23,0.08,0.44,0.19,0.65,0.32c0.2,0.13,0.38,0.27,0.52,0.42v-4.46h2.34v12.47h-2.23V335.15z
			 M211.94,328.82c-0.47,0-0.87,0.08-1.2,0.24c-0.33,0.16-0.6,0.38-0.82,0.66c-0.22,0.28-0.37,0.59-0.47,0.95
			c-0.1,0.35-0.14,0.72-0.14,1.09s0.05,0.73,0.14,1.08c0.1,0.35,0.25,0.65,0.47,0.92c0.22,0.26,0.49,0.48,0.82,0.64
			c0.33,0.16,0.73,0.24,1.2,0.24c0.43,0,0.81-0.08,1.12-0.24c0.32-0.16,0.58-0.37,0.78-0.62c0.2-0.25,0.36-0.53,0.46-0.85
			c0.1-0.31,0.15-0.62,0.15-0.94v-0.38c-0.01-0.36-0.07-0.71-0.18-1.04c-0.11-0.34-0.26-0.63-0.47-0.89
			c-0.2-0.26-0.46-0.46-0.77-0.62C212.72,328.89,212.36,328.82,211.94,328.82z"/>
		<path class="st21" d="M228.32,333.23c-0.14,0.58-0.36,1.06-0.65,1.46c-0.29,0.4-0.64,0.72-1.05,0.96s-0.88,0.42-1.4,0.53
			c-0.52,0.11-1.08,0.16-1.67,0.16c-0.89,0-1.65-0.12-2.29-0.35c-0.64-0.23-1.17-0.55-1.58-0.96s-0.72-0.89-0.92-1.45
			s-0.3-1.17-0.3-1.83c0-0.78,0.12-1.46,0.37-2.03c0.25-0.58,0.59-1.05,1.03-1.43s0.97-0.66,1.59-0.85
			c0.62-0.19,1.31-0.28,2.07-0.28c0.72,0,1.38,0.1,1.97,0.29c0.59,0.19,1.1,0.48,1.52,0.85c0.42,0.38,0.74,0.85,0.97,1.42
			c0.23,0.57,0.34,1.23,0.34,1.99v0.63h-7.42c0.04,0.31,0.11,0.61,0.22,0.88c0.11,0.28,0.27,0.52,0.48,0.73s0.47,0.38,0.79,0.5
			c0.32,0.12,0.71,0.18,1.16,0.18c1.24,0,2-0.47,2.29-1.4H228.32z M225.81,330.71c-0.02-0.25-0.1-0.49-0.22-0.72
			s-0.28-0.43-0.48-0.6c-0.2-0.17-0.43-0.31-0.7-0.41c-0.27-0.1-0.57-0.15-0.91-0.15c-0.4,0-0.75,0.05-1.05,0.16
			c-0.31,0.11-0.57,0.25-0.78,0.42s-0.38,0.38-0.5,0.6c-0.12,0.23-0.2,0.46-0.23,0.7H225.81z"/>
		<path class="st21" d="M245.49,332.94c-0.17,1.09-0.66,1.93-1.48,2.52c-0.82,0.59-1.92,0.88-3.29,0.88c-1.67,0-2.92-0.4-3.77-1.2
			c-0.85-0.8-1.27-1.94-1.27-3.41c0-0.68,0.1-1.31,0.3-1.86s0.5-1.04,0.92-1.44c0.41-0.4,0.94-0.71,1.57-0.94
			c0.63-0.22,1.38-0.33,2.26-0.33c0.58,0,1.13,0.07,1.66,0.2c0.53,0.13,1,0.33,1.41,0.58c0.41,0.26,0.76,0.58,1.04,0.95
			c0.28,0.38,0.48,0.81,0.58,1.3h-2.52c-0.17-0.42-0.45-0.76-0.84-1.01s-0.84-0.38-1.34-0.38c-0.47,0-0.87,0.08-1.2,0.24
			c-0.33,0.16-0.6,0.38-0.82,0.66c-0.22,0.28-0.37,0.59-0.47,0.95c-0.1,0.35-0.14,0.72-0.14,1.09s0.05,0.73,0.14,1.08
			c0.1,0.35,0.25,0.65,0.47,0.92c0.22,0.26,0.49,0.48,0.82,0.64c0.33,0.16,0.73,0.24,1.2,0.24c0.66,0,1.18-0.15,1.56-0.46
			c0.38-0.31,0.63-0.72,0.75-1.23H245.49z"/>
		<path class="st21" d="M256.88,333.23c-0.14,0.58-0.36,1.06-0.65,1.46c-0.29,0.4-0.64,0.72-1.05,0.96s-0.88,0.42-1.4,0.53
			c-0.52,0.11-1.08,0.16-1.67,0.16c-0.89,0-1.65-0.12-2.29-0.35c-0.64-0.23-1.17-0.55-1.58-0.96s-0.72-0.89-0.92-1.45
			s-0.3-1.17-0.3-1.83c0-0.78,0.12-1.46,0.37-2.03c0.25-0.58,0.59-1.05,1.03-1.43s0.97-0.66,1.59-0.85
			c0.62-0.19,1.31-0.28,2.07-0.28c0.72,0,1.38,0.1,1.97,0.29c0.59,0.19,1.1,0.48,1.52,0.85c0.42,0.38,0.74,0.85,0.97,1.42
			c0.23,0.57,0.34,1.23,0.34,1.99v0.63h-7.42c0.04,0.31,0.11,0.61,0.22,0.88c0.11,0.28,0.27,0.52,0.48,0.73s0.47,0.38,0.79,0.5
			c0.32,0.12,0.71,0.18,1.16,0.18c1.24,0,2-0.47,2.29-1.4H256.88z M254.38,330.71c-0.02-0.25-0.1-0.49-0.22-0.72
			s-0.28-0.43-0.48-0.6c-0.2-0.17-0.43-0.31-0.7-0.41c-0.27-0.1-0.57-0.15-0.91-0.15c-0.4,0-0.75,0.05-1.05,0.16
			c-0.31,0.11-0.57,0.25-0.78,0.42s-0.38,0.38-0.5,0.6c-0.12,0.23-0.2,0.46-0.23,0.7H254.38z"/>
		<path class="st21" d="M260.57,333.68c0.05,0.31,0.25,0.55,0.62,0.71c0.37,0.16,0.79,0.24,1.27,0.24c0.2,0,0.41-0.01,0.61-0.04
			c0.2-0.03,0.39-0.09,0.56-0.17c0.17-0.08,0.31-0.19,0.41-0.33c0.11-0.14,0.16-0.31,0.16-0.51c0-0.17-0.05-0.31-0.16-0.42
			c-0.11-0.11-0.26-0.21-0.45-0.28c-0.19-0.07-0.41-0.13-0.66-0.18s-0.51-0.09-0.8-0.13c-0.46-0.07-0.91-0.15-1.36-0.23
			s-0.86-0.22-1.22-0.4c-0.37-0.18-0.66-0.43-0.89-0.76c-0.23-0.32-0.34-0.76-0.34-1.3c0-0.48,0.11-0.89,0.32-1.23
			c0.22-0.34,0.5-0.62,0.86-0.85c0.36-0.22,0.78-0.38,1.26-0.49c0.48-0.1,0.99-0.15,1.53-0.15c0.55,0,1.06,0.06,1.53,0.17
			c0.47,0.11,0.87,0.28,1.22,0.5c0.34,0.22,0.61,0.48,0.81,0.8c0.2,0.32,0.3,0.69,0.3,1.11h-2.23c-0.02-0.13-0.09-0.25-0.19-0.37
			s-0.23-0.21-0.38-0.29s-0.32-0.14-0.5-0.19c-0.19-0.05-0.38-0.07-0.57-0.07c-0.42,0-0.79,0.08-1.12,0.23
			c-0.33,0.16-0.5,0.37-0.5,0.65c0,0.19,0.06,0.35,0.18,0.48c0.12,0.13,0.28,0.23,0.5,0.32c0.21,0.08,0.45,0.15,0.72,0.2
			c0.27,0.05,0.55,0.09,0.84,0.13c0.44,0.06,0.88,0.13,1.32,0.22c0.44,0.09,0.83,0.23,1.18,0.42c0.35,0.19,0.63,0.46,0.85,0.79
			c0.22,0.34,0.32,0.78,0.32,1.33c0,0.52-0.12,0.95-0.37,1.31c-0.25,0.35-0.57,0.64-0.96,0.85c-0.4,0.22-0.84,0.37-1.32,0.46
			c-0.49,0.09-0.97,0.13-1.45,0.13c-0.59,0-1.14-0.05-1.67-0.15c-0.52-0.1-0.98-0.26-1.38-0.48c-0.4-0.22-0.71-0.49-0.95-0.83
			s-0.36-0.74-0.37-1.21H260.57z"/>
		<path class="st21" d="M283.63,332.94c-0.17,1.09-0.66,1.93-1.48,2.52c-0.82,0.59-1.92,0.88-3.29,0.88c-1.67,0-2.92-0.4-3.77-1.2
			c-0.85-0.8-1.27-1.94-1.27-3.41c0-0.68,0.1-1.31,0.3-1.86s0.5-1.04,0.92-1.44c0.41-0.4,0.94-0.71,1.57-0.94
			c0.63-0.22,1.38-0.33,2.26-0.33c0.58,0,1.13,0.07,1.66,0.2c0.53,0.13,1,0.33,1.41,0.58c0.41,0.26,0.76,0.58,1.04,0.95
			c0.28,0.38,0.48,0.81,0.58,1.3h-2.52c-0.17-0.42-0.45-0.76-0.84-1.01s-0.84-0.38-1.34-0.38c-0.47,0-0.87,0.08-1.2,0.24
			c-0.33,0.16-0.6,0.38-0.82,0.66c-0.22,0.28-0.37,0.59-0.47,0.95c-0.1,0.35-0.14,0.72-0.14,1.09s0.05,0.73,0.14,1.08
			c0.1,0.35,0.25,0.65,0.47,0.92c0.22,0.26,0.49,0.48,0.82,0.64c0.33,0.16,0.73,0.24,1.2,0.24c0.66,0,1.18-0.15,1.56-0.46
			c0.38-0.31,0.63-0.72,0.75-1.23H283.63z"/>
		<path class="st21" d="M290.2,327.16c0.86,0,1.61,0.11,2.25,0.33c0.64,0.22,1.16,0.53,1.57,0.94c0.41,0.4,0.71,0.88,0.91,1.44
			s0.3,1.18,0.3,1.86c0,1.48-0.42,2.61-1.25,3.41s-2.09,1.2-3.77,1.2c-1.67,0-2.93-0.4-3.77-1.2s-1.27-1.94-1.27-3.41
			c0-0.68,0.1-1.31,0.3-1.86s0.5-1.04,0.92-1.44c0.41-0.4,0.94-0.71,1.58-0.94C288.59,327.27,289.34,327.16,290.2,327.16z
			 M290.2,328.82c-0.47,0-0.87,0.08-1.2,0.24c-0.33,0.16-0.6,0.38-0.81,0.66c-0.21,0.28-0.36,0.59-0.46,0.95
			c-0.1,0.35-0.14,0.72-0.14,1.09s0.05,0.73,0.14,1.08c0.1,0.35,0.25,0.65,0.46,0.92c0.21,0.26,0.48,0.48,0.81,0.64
			c0.33,0.16,0.73,0.24,1.2,0.24c0.47,0,0.87-0.08,1.2-0.24c0.33-0.16,0.6-0.37,0.81-0.64c0.21-0.26,0.36-0.57,0.46-0.92
			c0.1-0.35,0.14-0.71,0.14-1.08s-0.05-0.73-0.14-1.09c-0.1-0.35-0.25-0.67-0.46-0.95c-0.21-0.28-0.48-0.5-0.81-0.66
			C291.07,328.9,290.67,328.82,290.2,328.82z"/>
		<path class="st21" d="M304.17,336.16l-0.04-0.86c-0.34,0.37-0.76,0.64-1.29,0.8c-0.52,0.16-1.02,0.24-1.5,0.24
			c-1.37,0-2.45-0.26-3.24-0.77s-1.19-1.34-1.19-2.48v-5.76h2.38v5.62c0,0.26,0.06,0.5,0.19,0.71c0.13,0.21,0.3,0.39,0.51,0.53
			c0.22,0.14,0.47,0.26,0.76,0.33c0.29,0.08,0.59,0.12,0.92,0.12c0.7,0,1.27-0.17,1.71-0.5c0.44-0.34,0.67-0.8,0.67-1.4v-5.4h2.38
			v8.84H304.17z"/>
		<path class="st21" d="M313.26,328.87c-0.8,0-1.41,0.2-1.83,0.6c-0.41,0.4-0.62,1.04-0.62,1.92v4.77h-2.38v-8.84h2.3v0.68
			c0.3-0.31,0.67-0.53,1.12-0.67c0.44-0.13,0.91-0.2,1.4-0.2c0.17,0,0.39,0,0.67,0.01s0.53,0.03,0.77,0.08v1.8
			c-0.12-0.02-0.25-0.05-0.39-0.07c-0.14-0.02-0.27-0.04-0.4-0.05c-0.13-0.01-0.25-0.02-0.37-0.03
			C313.42,328.87,313.33,328.87,313.26,328.87z"/>
		<path class="st21" d="M318.01,333.68c0.05,0.31,0.25,0.55,0.62,0.71c0.37,0.16,0.79,0.24,1.27,0.24c0.2,0,0.41-0.01,0.61-0.04
			c0.2-0.03,0.39-0.09,0.56-0.17s0.31-0.19,0.41-0.33c0.11-0.14,0.16-0.31,0.16-0.51c0-0.17-0.05-0.31-0.16-0.42
			c-0.11-0.11-0.26-0.21-0.45-0.28c-0.19-0.07-0.41-0.13-0.66-0.18c-0.25-0.05-0.51-0.09-0.8-0.13c-0.46-0.07-0.91-0.15-1.36-0.23
			s-0.86-0.22-1.22-0.4c-0.37-0.18-0.66-0.43-0.89-0.76c-0.23-0.32-0.34-0.76-0.34-1.3c0-0.48,0.11-0.89,0.32-1.23
			c0.22-0.34,0.5-0.62,0.86-0.85c0.36-0.22,0.78-0.38,1.26-0.49c0.48-0.1,0.99-0.15,1.53-0.15c0.55,0,1.06,0.06,1.53,0.17
			s0.87,0.28,1.21,0.5s0.61,0.48,0.81,0.8c0.2,0.32,0.3,0.69,0.3,1.11h-2.23c-0.02-0.13-0.09-0.25-0.19-0.37
			c-0.1-0.11-0.23-0.21-0.38-0.29c-0.15-0.08-0.32-0.14-0.5-0.19c-0.19-0.05-0.38-0.07-0.57-0.07c-0.42,0-0.79,0.08-1.12,0.23
			c-0.33,0.16-0.5,0.37-0.5,0.65c0,0.19,0.06,0.35,0.18,0.48s0.29,0.23,0.5,0.32s0.45,0.15,0.72,0.2c0.27,0.05,0.55,0.09,0.84,0.13
			c0.44,0.06,0.89,0.13,1.32,0.22c0.44,0.09,0.83,0.23,1.18,0.42c0.35,0.19,0.63,0.46,0.85,0.79s0.32,0.78,0.32,1.33
			c0,0.52-0.12,0.95-0.37,1.31c-0.25,0.35-0.57,0.64-0.96,0.85c-0.4,0.22-0.84,0.37-1.32,0.46s-0.97,0.13-1.45,0.13
			c-0.59,0-1.14-0.05-1.67-0.15c-0.52-0.1-0.98-0.26-1.38-0.48c-0.4-0.22-0.71-0.49-0.95-0.83c-0.23-0.34-0.36-0.74-0.37-1.21
			H318.01z"/>
		<path class="st21" d="M329.19,336.16h-2.84v-2.38h2.84V336.16z"/>
	</g>
</g>
</svg>
