<?xml version="1.0" encoding="utf-8"?>
<!-- Generator: Adobe Illustrator 23.1.1, SVG Export Plug-In . SVG Version: 6.00 Build 0)  -->
<svg version="1.1" id="Calque_1" xmlns="http://www.w3.org/2000/svg" xmlns:xlink="http://www.w3.org/1999/xlink" x="0px" y="0px"
	 viewBox="0 0 171.17 74.18" style="enable-background:new 0 0 171.17 74.18;" xml:space="preserve">
<style type="text/css">
	.st0{fill:#FFFFFF;}
	.st1{fill:#5AA86F;}
	.st2{fill:#485175;}
	.st3{fill:#F7E8D3;}
	.st4{fill:#F1573F;}
	.st5{fill:#2D302F;}
	.st6{fill:#FFFFFF;stroke:#000000;stroke-miterlimit:10;}
	.st7{fill:#E7F4EC;}
	.st8{fill:#547146;}
	.st9{fill:#BCCBBC;}
	.st10{fill:#EAE9DC;}
	.st11{fill:#275E39;}
	.st12{fill:#050008;}
	.st13{clip-path:url(#SVGID_2_);}
	.st14{stroke:#000000;stroke-width:1.7036;stroke-miterlimit:10;}
	.st15{fill:#F9F8F4;}
	.st16{fill:#148B20;stroke:#1C881F;stroke-miterlimit:10;}
	.st17{fill:#148B20;stroke:#148B20;stroke-miterlimit:10;}
	.st18{stroke:#000000;stroke-miterlimit:10;}
	.st19{fill:#148B20;}
	.st20{enable-background:new    ;}
	.st21{fill:#F8F7F3;}
	.st22{fill:#1C8B20;stroke:#1C8B20;}
</style>
<g>
	<path id="Tracé_125_2_" class="st19" d="M0,0l2.49,74.18h168.68V52.17h-20.82l2.33-22.46h-34.02l3.61-26.2L0,0z"/>
	<g class="st20">
		<path class="st21" d="M16.56,19.31l-1.4-3.1H9.39l-1.4,3.1H5.36l5.83-12.47h2.2l5.87,12.47H16.56z M14.32,4.75l-1.26,1.28
			L9.61,3.77l1.66-1.55L14.32,4.75z M12.29,9.5l-2.03,4.82h4.03L12.29,9.5z"/>
		<path class="st21" d="M37.35,15.69c0,1.27-0.44,2.19-1.31,2.76c-0.87,0.57-2.19,0.86-3.97,0.86h-5.62V6.83h4.99
			c1.8,0,3.16,0.29,4.08,0.85c0.92,0.57,1.38,1.49,1.38,2.75c0,0.56-0.14,1.07-0.43,1.51c-0.29,0.44-0.67,0.78-1.13,1.01
			c0.54,0.22,1,0.56,1.4,1.03C37.11,14.46,37.32,15.03,37.35,15.69z M28.96,8.81v3.24h2.97c0.83,0,1.44-0.12,1.84-0.36
			c0.4-0.24,0.59-0.66,0.59-1.26c0-0.54-0.22-0.95-0.65-1.21c-0.43-0.27-1.03-0.41-1.78-0.41H28.96z M28.96,14.02v3.33h3.38
			c0.79,0,1.4-0.12,1.82-0.37c0.42-0.25,0.63-0.67,0.63-1.29c0-0.54-0.23-0.95-0.67-1.24c-0.45-0.29-1.04-0.43-1.77-0.43H28.96z"/>
		<path class="st21" d="M44.08,12.02c-0.8,0-1.41,0.2-1.83,0.6c-0.41,0.4-0.62,1.04-0.62,1.92v4.77h-2.38v-8.84h2.3v0.68
			c0.3-0.31,0.67-0.53,1.12-0.67c0.44-0.13,0.91-0.2,1.4-0.2c0.17,0,0.39,0,0.67,0.01c0.28,0.01,0.53,0.03,0.77,0.08v1.8
			c-0.12-0.02-0.25-0.05-0.39-0.07c-0.14-0.02-0.27-0.04-0.4-0.05c-0.13-0.01-0.25-0.02-0.37-0.03
			C44.24,12.02,44.15,12.02,44.08,12.02z"/>
		<path class="st21" d="M54.26,19.31l-0.04-0.86c-0.34,0.37-0.77,0.64-1.29,0.8c-0.52,0.16-1.02,0.24-1.5,0.24
			c-1.37,0-2.45-0.26-3.24-0.77s-1.19-1.34-1.19-2.48v-5.76h2.38v5.62c0,0.26,0.06,0.5,0.19,0.71c0.13,0.21,0.3,0.39,0.51,0.53
			c0.22,0.14,0.47,0.26,0.76,0.33c0.29,0.08,0.59,0.12,0.92,0.12c0.7,0,1.27-0.17,1.71-0.5c0.44-0.34,0.67-0.8,0.67-1.4v-5.4h2.38
			v8.84H54.26z"/>
		<path class="st21" d="M65.68,19.31l-2.56-3.08l-2.5,3.08h-2.99l4.12-4.57l-3.91-4.27h2.99l2.36,2.83l2.27-2.83h2.97l-3.89,4.27
			l4.09,4.57H65.68z"/>
		<path class="st21" d="M79,16.37c-0.14,0.58-0.36,1.06-0.65,1.46c-0.29,0.4-0.64,0.72-1.05,0.96s-0.88,0.42-1.4,0.53
			c-0.52,0.11-1.08,0.16-1.67,0.16c-0.89,0-1.65-0.12-2.29-0.35s-1.17-0.55-1.58-0.96s-0.72-0.89-0.92-1.45
			c-0.2-0.56-0.3-1.17-0.3-1.83c0-0.78,0.12-1.46,0.37-2.03c0.25-0.58,0.59-1.05,1.03-1.43c0.44-0.38,0.97-0.66,1.59-0.85
			c0.62-0.19,1.31-0.28,2.07-0.28c0.72,0,1.38,0.1,1.97,0.29c0.59,0.19,1.1,0.48,1.52,0.85c0.42,0.38,0.74,0.85,0.97,1.42
			C78.88,13.44,79,14.1,79,14.86v0.63h-7.42c0.04,0.31,0.11,0.61,0.22,0.88c0.11,0.28,0.27,0.52,0.48,0.73
			c0.21,0.21,0.47,0.38,0.79,0.5c0.32,0.12,0.7,0.18,1.16,0.18c1.24,0,2-0.47,2.29-1.4H79z M76.49,13.85
			c-0.02-0.25-0.1-0.49-0.22-0.72c-0.12-0.23-0.28-0.43-0.48-0.6c-0.2-0.17-0.43-0.31-0.7-0.41c-0.27-0.1-0.57-0.15-0.91-0.15
			c-0.4,0-0.75,0.05-1.05,0.16c-0.31,0.11-0.57,0.25-0.78,0.42c-0.22,0.17-0.38,0.38-0.5,0.6c-0.12,0.23-0.2,0.46-0.23,0.7H76.49z"
			/>
		<path class="st21" d="M83.14,6.83v12.47h-2.38V6.83H83.14z"/>
		<path class="st21" d="M87.67,6.83v12.47H85.3V6.83H87.67z"/>
		<path class="st21" d="M99.3,16.37c-0.14,0.58-0.36,1.06-0.65,1.46c-0.29,0.4-0.64,0.72-1.05,0.96s-0.88,0.42-1.4,0.53
			c-0.52,0.11-1.08,0.16-1.67,0.16c-0.89,0-1.65-0.12-2.29-0.35s-1.17-0.55-1.58-0.96s-0.72-0.89-0.92-1.45
			c-0.2-0.56-0.3-1.17-0.3-1.83c0-0.78,0.12-1.46,0.37-2.03c0.25-0.58,0.59-1.05,1.03-1.43c0.44-0.38,0.97-0.66,1.59-0.85
			c0.62-0.19,1.31-0.28,2.07-0.28c0.72,0,1.38,0.1,1.97,0.29c0.59,0.19,1.1,0.48,1.52,0.85c0.42,0.38,0.74,0.85,0.97,1.42
			c0.23,0.57,0.34,1.23,0.34,1.99v0.63h-7.42c0.04,0.31,0.11,0.61,0.22,0.88c0.11,0.28,0.27,0.52,0.48,0.73
			c0.21,0.21,0.47,0.38,0.79,0.5c0.32,0.12,0.7,0.18,1.16,0.18c1.24,0,2-0.47,2.29-1.4H99.3z M96.8,13.85
			c-0.02-0.25-0.1-0.49-0.22-0.72c-0.12-0.23-0.28-0.43-0.48-0.6c-0.2-0.17-0.43-0.31-0.7-0.41c-0.27-0.1-0.57-0.15-0.91-0.15
			c-0.4,0-0.75,0.05-1.05,0.16c-0.31,0.11-0.57,0.25-0.78,0.42c-0.22,0.17-0.38,0.38-0.5,0.6c-0.12,0.23-0.2,0.46-0.23,0.7H96.8z"/>
		<path class="st21" d="M102.99,16.82c0.05,0.31,0.25,0.55,0.62,0.71c0.37,0.16,0.79,0.24,1.27,0.24c0.2,0,0.41-0.01,0.61-0.04
			c0.2-0.03,0.39-0.09,0.56-0.17c0.17-0.08,0.31-0.19,0.41-0.33c0.11-0.14,0.16-0.31,0.16-0.51c0-0.17-0.05-0.31-0.16-0.42
			s-0.26-0.21-0.45-0.28c-0.19-0.07-0.41-0.13-0.66-0.18c-0.25-0.05-0.51-0.09-0.8-0.13c-0.46-0.07-0.91-0.15-1.36-0.23
			s-0.86-0.22-1.22-0.4c-0.37-0.18-0.66-0.43-0.89-0.76c-0.23-0.32-0.34-0.76-0.34-1.3c0-0.48,0.11-0.89,0.32-1.23
			c0.22-0.34,0.5-0.62,0.86-0.85c0.36-0.22,0.78-0.38,1.26-0.49c0.48-0.1,0.99-0.15,1.53-0.15c0.55,0,1.06,0.06,1.53,0.17
			c0.47,0.11,0.87,0.28,1.22,0.5c0.34,0.22,0.61,0.48,0.81,0.8c0.2,0.32,0.3,0.69,0.3,1.11h-2.23c-0.02-0.13-0.09-0.25-0.19-0.37
			c-0.1-0.11-0.23-0.21-0.38-0.29c-0.15-0.08-0.32-0.14-0.5-0.19c-0.19-0.05-0.38-0.07-0.57-0.07c-0.42,0-0.79,0.08-1.12,0.23
			c-0.33,0.16-0.5,0.37-0.5,0.65c0,0.19,0.06,0.35,0.18,0.48c0.12,0.13,0.28,0.23,0.5,0.32c0.21,0.08,0.45,0.15,0.72,0.2
			s0.55,0.09,0.84,0.13c0.44,0.06,0.89,0.13,1.32,0.22s0.83,0.23,1.18,0.42c0.35,0.19,0.63,0.46,0.85,0.79
			c0.22,0.34,0.32,0.78,0.32,1.33c0,0.52-0.12,0.95-0.37,1.31c-0.25,0.35-0.57,0.64-0.96,0.85s-0.84,0.37-1.32,0.46
			c-0.49,0.09-0.97,0.13-1.45,0.13c-0.59,0-1.14-0.05-1.67-0.15c-0.52-0.1-0.98-0.26-1.38-0.48s-0.71-0.49-0.95-0.83
			c-0.23-0.34-0.36-0.74-0.37-1.21H102.99z"/>
		<path class="st21" d="M113.39,21.22h-1.85l0.45-1.91h-0.67v-2.38h2.86v2.09L113.39,21.22z"/>
	</g>
	<g class="st20">
		<path class="st21" d="M8.82,40.01c0.14,0.5,0.45,0.87,0.92,1.09c0.47,0.22,1.03,0.33,1.67,0.33c0.83,0,1.48-0.14,1.95-0.42
			s0.71-0.71,0.71-1.27c0-1.24-0.95-1.85-2.86-1.85h-0.79v-1.8h0.79c0.91,0,1.54-0.13,1.9-0.39c0.35-0.26,0.53-0.68,0.53-1.27
			c0-0.48-0.17-0.85-0.5-1.12c-0.34-0.27-0.88-0.41-1.62-0.41c-0.59,0-1.07,0.14-1.44,0.41c-0.37,0.28-0.62,0.61-0.76,1.01H6.8
			c0-1.07,0.41-1.91,1.22-2.53s1.94-0.93,3.39-0.93c1.51,0,2.68,0.31,3.5,0.94c0.82,0.62,1.23,1.5,1.23,2.63
			c0,0.28-0.04,0.53-0.13,0.77c-0.08,0.24-0.2,0.47-0.34,0.68s-0.3,0.41-0.48,0.58s-0.35,0.32-0.53,0.44
			c0.53,0.29,0.97,0.67,1.32,1.14c0.35,0.47,0.53,1.04,0.53,1.68c0,0.56-0.12,1.07-0.36,1.53c-0.24,0.46-0.58,0.85-1.02,1.17
			c-0.44,0.32-0.97,0.58-1.6,0.76c-0.63,0.18-1.34,0.27-2.13,0.27c-0.73,0-1.4-0.08-2.01-0.23c-0.61-0.15-1.13-0.37-1.57-0.66
			c-0.44-0.29-0.8-0.65-1.05-1.08c-0.26-0.43-0.4-0.94-0.42-1.51L8.82,40.01z"/>
		<path class="st21" d="M21.18,45.22h-1.85l0.45-1.91h-0.67v-2.38h2.86v2.09L21.18,45.22z"/>
		<path class="st21" d="M24.89,37.51l0.4-6.44h8.3v2.03h-5.99l-0.11,2.07c0.3-0.13,0.64-0.23,1.02-0.31
			c0.38-0.07,0.76-0.11,1.14-0.11c1.5,0,2.65,0.38,3.44,1.12s1.19,1.83,1.19,3.23c0,0.66-0.11,1.26-0.34,1.79
			c-0.23,0.53-0.55,0.99-0.97,1.37s-0.93,0.67-1.54,0.88s-1.29,0.32-2.04,0.32c-0.66,0-1.27-0.08-1.84-0.23
			c-0.56-0.15-1.06-0.37-1.48-0.67c-0.43-0.29-0.77-0.66-1.04-1.09c-0.26-0.43-0.43-0.92-0.49-1.48h2.52
			c0.1,0.47,0.36,0.82,0.79,1.05c0.43,0.23,0.94,0.35,1.53,0.35c0.78,0,1.37-0.2,1.77-0.58c0.4-0.39,0.6-0.97,0.6-1.74
			c0-0.79-0.2-1.38-0.59-1.76c-0.4-0.38-0.95-0.58-1.67-0.58c-0.49,0-0.89,0.05-1.21,0.16c-0.31,0.11-0.59,0.31-0.83,0.59H24.89z"/>
		<path class="st21" d="M36.14,33.93c0-0.38,0.04-0.77,0.13-1.15c0.09-0.38,0.25-0.73,0.48-1.04c0.23-0.31,0.53-0.55,0.92-0.74
			c0.38-0.19,0.86-0.28,1.44-0.28c0.58,0,1.05,0.1,1.43,0.29c0.38,0.19,0.68,0.44,0.9,0.76c0.22,0.31,0.38,0.66,0.46,1.04
			c0.08,0.38,0.13,0.77,0.13,1.17c0,2.36-0.97,3.55-2.92,3.55c-0.97,0-1.71-0.29-2.21-0.87C36.39,36.07,36.14,35.17,36.14,33.93z
			 M38.03,34c0,0.18,0.01,0.38,0.04,0.6c0.02,0.22,0.08,0.43,0.15,0.62c0.08,0.19,0.19,0.35,0.32,0.48
			c0.14,0.13,0.33,0.19,0.57,0.19c0.23,0,0.41-0.06,0.54-0.19c0.13-0.13,0.23-0.28,0.31-0.48c0.07-0.19,0.12-0.4,0.14-0.62
			c0.02-0.22,0.03-0.42,0.03-0.6c0-0.17-0.01-0.35-0.04-0.55c-0.02-0.2-0.07-0.38-0.14-0.54c-0.07-0.16-0.17-0.3-0.31-0.41
			c-0.13-0.11-0.31-0.16-0.52-0.16c-0.24,0-0.43,0.05-0.57,0.16c-0.14,0.11-0.25,0.24-0.32,0.41c-0.08,0.16-0.13,0.34-0.15,0.54
			C38.04,33.65,38.03,33.83,38.03,34z M49.42,30.74l-9.04,13.48l-1.87-0.85l9.04-13.43L49.42,30.74z M46.06,39.83
			c0-0.38,0.04-0.77,0.13-1.15c0.09-0.38,0.25-0.73,0.48-1.04s0.53-0.55,0.92-0.74c0.38-0.19,0.86-0.28,1.44-0.28
			c0.58,0,1.05,0.1,1.43,0.29c0.38,0.19,0.68,0.44,0.9,0.76c0.22,0.31,0.38,0.66,0.46,1.04s0.13,0.77,0.13,1.17
			c0,1.2-0.25,2.09-0.74,2.67s-1.22,0.87-2.18,0.87c-0.97,0-1.71-0.29-2.21-0.87S46.06,41.07,46.06,39.83z M47.95,39.9
			c0,0.18,0.01,0.38,0.04,0.6s0.08,0.43,0.15,0.62c0.08,0.19,0.19,0.35,0.32,0.48c0.14,0.13,0.33,0.19,0.57,0.19
			c0.23,0,0.41-0.06,0.54-0.19c0.13-0.13,0.23-0.29,0.31-0.48c0.07-0.19,0.12-0.4,0.14-0.62s0.03-0.42,0.03-0.6
			c0-0.17-0.02-0.35-0.04-0.55c-0.03-0.2-0.08-0.38-0.15-0.54c-0.07-0.16-0.17-0.3-0.31-0.41c-0.13-0.11-0.3-0.16-0.5-0.16
			c-0.24,0-0.43,0.05-0.57,0.16c-0.14,0.11-0.25,0.24-0.32,0.41c-0.08,0.16-0.13,0.34-0.15,0.54S47.95,39.74,47.95,39.9z"/>
		<path class="st21" d="M66.52,42.3c-0.18,0.23-0.41,0.43-0.68,0.59c-0.24,0.16-0.54,0.29-0.9,0.41s-0.79,0.18-1.3,0.18
			c-1.49,0-2.65-0.4-3.49-1.2c-0.84-0.8-1.26-1.94-1.26-3.41c0-0.68,0.1-1.31,0.3-1.86c0.2-0.56,0.5-1.04,0.92-1.45
			c0.41-0.41,0.94-0.72,1.57-0.94c0.63-0.22,1.38-0.33,2.26-0.33c0.19,0,0.4,0.02,0.63,0.07c0.23,0.05,0.46,0.11,0.68,0.2
			c0.23,0.08,0.44,0.19,0.65,0.32c0.2,0.13,0.38,0.27,0.52,0.42v-4.46h2.34v12.47h-2.23V42.3z M63.93,35.96
			c-0.47,0-0.87,0.08-1.2,0.24c-0.33,0.16-0.6,0.38-0.82,0.66c-0.22,0.28-0.37,0.59-0.47,0.95c-0.1,0.35-0.14,0.72-0.14,1.09
			s0.05,0.73,0.14,1.08c0.1,0.35,0.25,0.65,0.47,0.92c0.22,0.26,0.49,0.48,0.82,0.64c0.33,0.16,0.73,0.24,1.2,0.24
			c0.43,0,0.81-0.08,1.12-0.24c0.32-0.16,0.58-0.37,0.78-0.62c0.2-0.25,0.36-0.53,0.46-0.85c0.1-0.31,0.15-0.62,0.15-0.94v-0.38
			c-0.01-0.36-0.07-0.71-0.18-1.04s-0.26-0.63-0.47-0.89c-0.2-0.26-0.46-0.46-0.77-0.62C64.72,36.04,64.35,35.96,63.93,35.96z"/>
		<path class="st21" d="M80.31,40.37c-0.14,0.58-0.36,1.06-0.65,1.46c-0.29,0.4-0.64,0.72-1.05,0.96s-0.88,0.42-1.4,0.53
			c-0.52,0.11-1.08,0.16-1.67,0.16c-0.89,0-1.65-0.12-2.29-0.35s-1.17-0.55-1.58-0.96s-0.72-0.89-0.92-1.45
			c-0.2-0.56-0.3-1.17-0.3-1.83c0-0.78,0.12-1.46,0.37-2.03c0.25-0.58,0.59-1.05,1.03-1.43c0.44-0.38,0.97-0.66,1.59-0.85
			c0.62-0.19,1.31-0.28,2.07-0.28c0.72,0,1.38,0.1,1.97,0.29c0.59,0.19,1.1,0.48,1.52,0.85c0.42,0.38,0.74,0.85,0.97,1.42
			c0.23,0.57,0.34,1.23,0.34,1.99v0.63h-7.42c0.04,0.31,0.11,0.61,0.22,0.88c0.11,0.28,0.27,0.52,0.48,0.73
			c0.21,0.21,0.47,0.38,0.79,0.5c0.32,0.12,0.7,0.18,1.16,0.18c1.24,0,2-0.47,2.29-1.4H80.31z M77.81,37.85
			c-0.02-0.25-0.1-0.49-0.22-0.72c-0.12-0.23-0.28-0.43-0.48-0.6c-0.2-0.17-0.43-0.31-0.7-0.41c-0.27-0.1-0.57-0.15-0.91-0.15
			c-0.4,0-0.75,0.05-1.05,0.16c-0.31,0.11-0.57,0.25-0.78,0.42c-0.22,0.17-0.38,0.38-0.5,0.6c-0.12,0.23-0.2,0.46-0.23,0.7H77.81z"
			/>
		<path class="st21" d="M84,40.82c0.05,0.31,0.25,0.55,0.62,0.71c0.37,0.16,0.79,0.24,1.27,0.24c0.2,0,0.41-0.01,0.61-0.04
			c0.2-0.03,0.39-0.09,0.56-0.17c0.17-0.08,0.31-0.19,0.41-0.33c0.11-0.14,0.16-0.31,0.16-0.51c0-0.17-0.05-0.31-0.16-0.42
			s-0.26-0.21-0.45-0.28s-0.41-0.13-0.66-0.18c-0.25-0.05-0.51-0.09-0.8-0.13c-0.46-0.07-0.91-0.15-1.36-0.23s-0.86-0.22-1.22-0.4
			c-0.37-0.18-0.66-0.43-0.89-0.76c-0.23-0.32-0.34-0.76-0.34-1.3c0-0.48,0.11-0.89,0.32-1.23c0.22-0.34,0.5-0.62,0.86-0.85
			c0.36-0.22,0.78-0.38,1.26-0.49c0.48-0.1,0.99-0.15,1.53-0.15c0.55,0,1.06,0.06,1.53,0.17c0.47,0.11,0.87,0.28,1.22,0.5
			c0.34,0.22,0.61,0.48,0.81,0.8c0.2,0.32,0.3,0.69,0.3,1.11h-2.23c-0.02-0.13-0.09-0.25-0.19-0.37c-0.1-0.11-0.23-0.21-0.38-0.29
			c-0.15-0.08-0.32-0.14-0.5-0.19c-0.19-0.05-0.38-0.07-0.57-0.07c-0.42,0-0.79,0.08-1.12,0.23c-0.33,0.16-0.5,0.37-0.5,0.65
			c0,0.19,0.06,0.35,0.18,0.48c0.12,0.13,0.28,0.23,0.5,0.32c0.21,0.08,0.45,0.15,0.72,0.2s0.55,0.09,0.84,0.13
			c0.44,0.06,0.89,0.13,1.32,0.22s0.83,0.23,1.18,0.42c0.35,0.19,0.63,0.46,0.85,0.79c0.22,0.34,0.32,0.78,0.32,1.33
			c0,0.52-0.12,0.95-0.37,1.31c-0.25,0.35-0.57,0.64-0.96,0.85s-0.84,0.37-1.32,0.46c-0.49,0.09-0.97,0.13-1.45,0.13
			c-0.59,0-1.14-0.05-1.67-0.15c-0.52-0.1-0.98-0.26-1.38-0.48s-0.71-0.49-0.95-0.83c-0.23-0.34-0.36-0.74-0.37-1.21H84z"/>
		<path class="st21" d="M107.06,40.09c-0.17,1.09-0.66,1.93-1.48,2.52c-0.82,0.59-1.92,0.88-3.29,0.88c-1.67,0-2.92-0.4-3.77-1.2
			c-0.85-0.8-1.27-1.94-1.27-3.41c0-0.68,0.1-1.31,0.3-1.86c0.2-0.56,0.5-1.04,0.92-1.44c0.41-0.4,0.94-0.71,1.57-0.94
			c0.63-0.22,1.38-0.33,2.26-0.33c0.58,0,1.13,0.07,1.66,0.2c0.53,0.13,1,0.33,1.41,0.58c0.41,0.26,0.76,0.58,1.04,0.95
			c0.28,0.38,0.48,0.81,0.58,1.3h-2.52c-0.17-0.42-0.45-0.76-0.84-1.01c-0.39-0.25-0.84-0.38-1.34-0.38c-0.47,0-0.87,0.08-1.2,0.24
			c-0.33,0.16-0.6,0.38-0.82,0.66c-0.22,0.28-0.37,0.59-0.47,0.95c-0.1,0.35-0.14,0.72-0.14,1.09s0.05,0.73,0.14,1.08
			c0.1,0.35,0.25,0.65,0.47,0.92c0.22,0.26,0.49,0.48,0.82,0.64c0.33,0.16,0.73,0.24,1.2,0.24c0.66,0,1.18-0.15,1.56-0.46
			c0.38-0.31,0.63-0.72,0.75-1.23H107.06z"/>
		<path class="st21" d="M113.63,34.31c0.86,0,1.61,0.11,2.25,0.33c0.64,0.22,1.16,0.53,1.57,0.94c0.41,0.4,0.71,0.88,0.91,1.44
			c0.2,0.56,0.3,1.18,0.3,1.86c0,1.48-0.42,2.61-1.25,3.41c-0.83,0.8-2.09,1.2-3.77,1.2c-1.67,0-2.93-0.4-3.77-1.2
			c-0.85-0.8-1.27-1.94-1.27-3.41c0-0.68,0.1-1.31,0.3-1.86c0.2-0.56,0.5-1.04,0.92-1.44c0.41-0.4,0.94-0.71,1.58-0.94
			C112.01,34.42,112.76,34.31,113.63,34.31z M113.63,35.96c-0.47,0-0.87,0.08-1.2,0.24c-0.33,0.16-0.6,0.38-0.81,0.66
			c-0.21,0.28-0.36,0.59-0.46,0.95c-0.1,0.35-0.14,0.72-0.14,1.09s0.05,0.73,0.14,1.08c0.1,0.35,0.25,0.65,0.46,0.92
			c0.21,0.26,0.48,0.48,0.81,0.64c0.33,0.16,0.73,0.24,1.2,0.24c0.47,0,0.87-0.08,1.2-0.24c0.33-0.16,0.6-0.37,0.81-0.64
			c0.21-0.26,0.36-0.57,0.46-0.92c0.1-0.35,0.14-0.71,0.14-1.08s-0.05-0.73-0.14-1.09c-0.1-0.35-0.25-0.67-0.46-0.95
			c-0.21-0.28-0.48-0.5-0.81-0.66C114.49,36.04,114.1,35.96,113.63,35.96z"/>
		<path class="st21" d="M127.6,43.31l-0.04-0.86c-0.34,0.37-0.77,0.64-1.29,0.8c-0.52,0.16-1.02,0.24-1.5,0.24
			c-1.37,0-2.45-0.26-3.24-0.77s-1.19-1.34-1.19-2.48v-5.76h2.38v5.62c0,0.26,0.06,0.5,0.19,0.71c0.13,0.21,0.3,0.39,0.51,0.53
			c0.22,0.14,0.47,0.26,0.76,0.33c0.29,0.08,0.59,0.12,0.92,0.12c0.7,0,1.27-0.17,1.71-0.5c0.44-0.34,0.67-0.8,0.67-1.4v-5.4h2.38
			v8.84H127.6z"/>
		<path class="st21" d="M136.69,36.02c-0.8,0-1.41,0.2-1.83,0.6c-0.41,0.4-0.62,1.04-0.62,1.92v4.77h-2.38v-8.84h2.3v0.68
			c0.3-0.31,0.67-0.53,1.12-0.67c0.44-0.13,0.91-0.2,1.4-0.2c0.17,0,0.39,0,0.67,0.01c0.28,0.01,0.53,0.03,0.77,0.08v1.8
			c-0.12-0.02-0.25-0.05-0.39-0.07c-0.14-0.02-0.27-0.04-0.4-0.05c-0.13-0.01-0.25-0.02-0.37-0.03
			C136.85,36.02,136.76,36.02,136.69,36.02z"/>
		<path class="st21" d="M141.44,40.82c0.05,0.31,0.25,0.55,0.62,0.71c0.37,0.16,0.79,0.24,1.27,0.24c0.2,0,0.41-0.01,0.61-0.04
			c0.2-0.03,0.39-0.09,0.56-0.17c0.17-0.08,0.31-0.19,0.41-0.33c0.11-0.14,0.16-0.31,0.16-0.51c0-0.17-0.05-0.31-0.16-0.42
			s-0.26-0.21-0.45-0.28s-0.41-0.13-0.66-0.18c-0.25-0.05-0.51-0.09-0.8-0.13c-0.46-0.07-0.91-0.15-1.36-0.23s-0.86-0.22-1.22-0.4
			c-0.37-0.18-0.66-0.43-0.89-0.76c-0.23-0.32-0.34-0.76-0.34-1.3c0-0.48,0.11-0.89,0.32-1.23c0.22-0.34,0.5-0.62,0.86-0.85
			c0.36-0.22,0.78-0.38,1.26-0.49c0.48-0.1,0.99-0.15,1.53-0.15c0.55,0,1.06,0.06,1.53,0.17c0.47,0.11,0.87,0.28,1.22,0.5
			c0.34,0.22,0.61,0.48,0.81,0.8c0.2,0.32,0.3,0.69,0.3,1.11h-2.23c-0.02-0.13-0.09-0.25-0.19-0.37c-0.1-0.11-0.23-0.21-0.38-0.29
			c-0.15-0.08-0.32-0.14-0.5-0.19c-0.19-0.05-0.38-0.07-0.57-0.07c-0.42,0-0.79,0.08-1.12,0.23c-0.33,0.16-0.5,0.37-0.5,0.65
			c0,0.19,0.06,0.35,0.18,0.48c0.12,0.13,0.28,0.23,0.5,0.32c0.21,0.08,0.45,0.15,0.72,0.2s0.55,0.09,0.84,0.13
			c0.44,0.06,0.89,0.13,1.32,0.22s0.83,0.23,1.18,0.42c0.35,0.19,0.63,0.46,0.85,0.79c0.22,0.34,0.32,0.78,0.32,1.33
			c0,0.52-0.12,0.95-0.37,1.31c-0.25,0.35-0.57,0.64-0.96,0.85s-0.84,0.37-1.32,0.46c-0.49,0.09-0.97,0.13-1.45,0.13
			c-0.59,0-1.14-0.05-1.67-0.15c-0.52-0.1-0.98-0.26-1.38-0.48s-0.71-0.49-0.95-0.83c-0.23-0.34-0.36-0.74-0.37-1.21H141.44z"/>
	</g>
	<g class="st20">
		<path class="st21" d="M11.88,67.31c-0.36,0.06-0.71,0.1-1.05,0.11c-0.34,0.01-0.59,0.02-0.75,0.02c-0.95,0-1.66-0.23-2.13-0.68
			c-0.47-0.46-0.71-1.06-0.71-1.82v-4.72H5.7v-1.75h1.53v-2.59h2.38v2.59h2.41v1.75H9.61v4.59c0,0.29,0.07,0.5,0.21,0.64
			c0.14,0.14,0.37,0.21,0.69,0.21c0.1,0,0.21-0.01,0.34-0.02c0.13-0.01,0.26-0.02,0.4-0.04c0.13-0.01,0.25-0.02,0.37-0.04
			c0.11-0.01,0.2-0.02,0.26-0.04V67.31z"/>
		<path class="st21" d="M18.23,60.02c-0.8,0-1.41,0.2-1.83,0.6c-0.41,0.4-0.62,1.04-0.62,1.92v4.77H13.4v-8.84h2.3v0.68
			c0.3-0.31,0.67-0.53,1.12-0.67c0.44-0.13,0.91-0.2,1.4-0.2c0.17,0,0.39,0,0.67,0.01c0.28,0.01,0.53,0.03,0.77,0.08v1.8
			c-0.12-0.02-0.25-0.05-0.39-0.07c-0.14-0.02-0.27-0.04-0.4-0.05c-0.13-0.01-0.25-0.02-0.37-0.03
			C18.39,60.02,18.3,60.02,18.23,60.02z"/>
		<path class="st21" d="M20.84,61.01c0.04-0.37,0.16-0.72,0.36-1.05s0.49-0.62,0.85-0.86c0.37-0.25,0.81-0.44,1.32-0.58
			c0.52-0.14,1.1-0.22,1.76-0.22c0.8,0,1.48,0.09,2.02,0.26s0.97,0.42,1.31,0.75c0.33,0.32,0.56,0.71,0.7,1.17
			c0.14,0.46,0.21,0.96,0.21,1.51v4.01c0,0.28,0.01,0.5,0.02,0.68c0.01,0.17,0.03,0.31,0.05,0.4c0.02,0.12,0.05,0.2,0.07,0.23h-2.12
			c-0.02-0.05-0.05-0.13-0.07-0.23c-0.02-0.1-0.04-0.22-0.05-0.38c-0.01-0.16-0.02-0.37-0.02-0.65c-0.12,0.22-0.29,0.41-0.49,0.58
			c-0.21,0.17-0.44,0.32-0.69,0.45s-0.52,0.22-0.81,0.3c-0.29,0.07-0.58,0.11-0.86,0.11c-0.5,0-1-0.05-1.48-0.15
			c-0.49-0.1-0.92-0.26-1.31-0.48c-0.39-0.22-0.71-0.5-0.95-0.85c-0.24-0.35-0.36-0.78-0.36-1.29c0-0.47,0.12-0.87,0.37-1.21
			c0.25-0.34,0.56-0.63,0.94-0.86c0.38-0.23,0.82-0.4,1.31-0.51c0.49-0.11,0.96-0.18,1.43-0.19l2.7-0.09v-0.4
			c0-0.5-0.17-0.88-0.5-1.12s-0.79-0.37-1.4-0.37c-0.52,0-0.95,0.1-1.3,0.29c-0.35,0.19-0.55,0.45-0.58,0.77L20.84,61.01z
			 M27.05,63.47l-2.59,0.09c-0.6,0.02-1.05,0.14-1.34,0.35s-0.44,0.49-0.44,0.84c0,0.28,0.17,0.51,0.5,0.69
			c0.34,0.19,0.77,0.28,1.3,0.28c0.37,0,0.72-0.05,1.04-0.16c0.32-0.11,0.59-0.26,0.82-0.45c0.23-0.19,0.41-0.41,0.53-0.65
			s0.19-0.5,0.19-0.77V63.47z"/>
		<path class="st21" d="M31.46,56.78v-2.14h2.5v2.14H31.46z M31.51,67.31v-8.84h2.38v8.84H31.51z"/>
		<path class="st21" d="M41.39,67.31c-0.36,0.06-0.71,0.1-1.05,0.11c-0.34,0.01-0.59,0.02-0.75,0.02c-0.95,0-1.66-0.23-2.13-0.68
			s-0.71-1.06-0.71-1.82v-4.72h-1.53v-1.75h1.53v-2.59h2.38v2.59h2.41v1.75h-2.41v4.59c0,0.29,0.07,0.5,0.21,0.64
			c0.14,0.14,0.37,0.21,0.69,0.21c0.1,0,0.21-0.01,0.34-0.02c0.13-0.01,0.26-0.02,0.4-0.04c0.13-0.01,0.25-0.02,0.37-0.04
			c0.11-0.01,0.2-0.02,0.26-0.04V67.31z"/>
		<path class="st21" d="M52.46,64.37c-0.14,0.58-0.36,1.06-0.65,1.46c-0.29,0.4-0.64,0.72-1.05,0.96s-0.88,0.42-1.4,0.53
			c-0.52,0.11-1.08,0.16-1.67,0.16c-0.89,0-1.65-0.12-2.29-0.35s-1.17-0.55-1.58-0.96s-0.72-0.89-0.92-1.45
			c-0.2-0.56-0.3-1.17-0.3-1.83c0-0.78,0.12-1.46,0.37-2.03c0.25-0.58,0.59-1.05,1.03-1.43c0.44-0.38,0.97-0.66,1.59-0.85
			c0.62-0.19,1.31-0.28,2.07-0.28c0.72,0,1.38,0.1,1.97,0.29c0.59,0.19,1.1,0.48,1.52,0.85c0.42,0.38,0.74,0.85,0.97,1.42
			c0.23,0.57,0.34,1.23,0.34,1.99v0.63h-7.42c0.04,0.31,0.11,0.61,0.22,0.88c0.11,0.28,0.27,0.52,0.48,0.73
			c0.21,0.21,0.47,0.38,0.79,0.5c0.32,0.12,0.7,0.18,1.16,0.18c1.24,0,2-0.47,2.29-1.4H52.46z M49.96,61.85
			c-0.02-0.25-0.1-0.49-0.22-0.72c-0.12-0.23-0.28-0.43-0.48-0.6c-0.2-0.17-0.43-0.31-0.7-0.41c-0.27-0.1-0.57-0.15-0.91-0.15
			c-0.4,0-0.75,0.05-1.05,0.16c-0.31,0.11-0.57,0.25-0.78,0.42c-0.22,0.17-0.38,0.38-0.5,0.6c-0.12,0.23-0.2,0.46-0.23,0.7H49.96z"
			/>
		<path class="st21" d="M56.62,58.47v0.86c0.34-0.37,0.76-0.64,1.27-0.8c0.51-0.16,1-0.24,1.48-0.24c1.37,0,2.45,0.26,3.26,0.77
			c0.8,0.52,1.21,1.34,1.21,2.48v5.76h-2.38v-5.65c0-0.26-0.06-0.5-0.19-0.71c-0.13-0.21-0.3-0.39-0.51-0.53
			c-0.22-0.14-0.47-0.25-0.76-0.33c-0.29-0.08-0.59-0.12-0.92-0.12c-0.7,0-1.27,0.17-1.71,0.5s-0.67,0.8-0.67,1.4v5.44h-2.38v-8.84
			H56.62z"/>
		<path class="st21" d="M71.2,67.31c-0.36,0.06-0.71,0.1-1.05,0.11c-0.34,0.01-0.59,0.02-0.75,0.02c-0.95,0-1.66-0.23-2.13-0.68
			s-0.71-1.06-0.71-1.82v-4.72h-1.53v-1.75h1.53v-2.59h2.38v2.59h2.41v1.75h-2.41v4.59c0,0.29,0.07,0.5,0.21,0.64
			c0.14,0.14,0.37,0.21,0.69,0.21c0.1,0,0.21-0.01,0.34-0.02c0.13-0.01,0.26-0.02,0.4-0.04c0.13-0.01,0.25-0.02,0.37-0.04
			c0.11-0.01,0.2-0.02,0.26-0.04V67.31z"/>
		<path class="st21" d="M86,66.3c-0.18,0.23-0.41,0.43-0.68,0.59c-0.24,0.16-0.54,0.29-0.9,0.41s-0.79,0.18-1.3,0.18
			c-1.49,0-2.65-0.4-3.49-1.2c-0.84-0.8-1.26-1.94-1.26-3.41c0-0.68,0.1-1.31,0.3-1.86c0.2-0.56,0.5-1.04,0.92-1.45
			c0.41-0.41,0.94-0.72,1.57-0.94c0.63-0.22,1.38-0.33,2.26-0.33c0.19,0,0.4,0.02,0.63,0.07c0.23,0.05,0.46,0.11,0.68,0.2
			c0.23,0.08,0.44,0.19,0.65,0.32c0.2,0.13,0.38,0.27,0.52,0.42v-4.46h2.34v12.47H86V66.3z M83.41,59.96c-0.47,0-0.87,0.08-1.2,0.24
			c-0.33,0.16-0.6,0.38-0.82,0.66c-0.22,0.28-0.37,0.59-0.47,0.95c-0.1,0.35-0.14,0.72-0.14,1.09s0.05,0.73,0.14,1.08
			c0.1,0.35,0.25,0.65,0.47,0.92c0.22,0.26,0.49,0.48,0.82,0.64c0.33,0.16,0.73,0.24,1.2,0.24c0.43,0,0.81-0.08,1.12-0.24
			c0.32-0.16,0.58-0.37,0.78-0.62c0.2-0.25,0.36-0.53,0.46-0.85c0.1-0.31,0.15-0.62,0.15-0.94v-0.38c-0.01-0.36-0.07-0.71-0.18-1.04
			s-0.26-0.63-0.47-0.89c-0.2-0.26-0.46-0.46-0.77-0.62C84.19,60.04,83.83,59.96,83.41,59.96z"/>
		<path class="st21" d="M97.5,67.31l-0.04-0.86c-0.34,0.37-0.77,0.64-1.29,0.8c-0.52,0.16-1.02,0.24-1.5,0.24
			c-1.37,0-2.45-0.26-3.24-0.77s-1.19-1.34-1.19-2.48v-5.76h2.38v5.62c0,0.26,0.06,0.5,0.19,0.71c0.13,0.21,0.3,0.39,0.51,0.53
			c0.22,0.14,0.47,0.26,0.76,0.33c0.29,0.08,0.59,0.12,0.92,0.12c0.7,0,1.27-0.17,1.71-0.5c0.44-0.34,0.67-0.8,0.67-1.4v-5.4h2.38
			v8.84H97.5z"/>
		<path class="st21" d="M117.25,64.09c-0.17,1.09-0.66,1.93-1.48,2.52c-0.82,0.59-1.92,0.88-3.29,0.88c-1.67,0-2.92-0.4-3.77-1.2
			c-0.85-0.8-1.27-1.94-1.27-3.41c0-0.68,0.1-1.31,0.3-1.86c0.2-0.56,0.5-1.04,0.92-1.44c0.41-0.4,0.94-0.71,1.57-0.94
			c0.63-0.22,1.38-0.33,2.26-0.33c0.58,0,1.13,0.07,1.66,0.2c0.53,0.13,1,0.33,1.41,0.58c0.41,0.26,0.76,0.58,1.04,0.95
			c0.28,0.38,0.48,0.81,0.58,1.3h-2.52c-0.17-0.42-0.45-0.76-0.84-1.01c-0.39-0.25-0.84-0.38-1.34-0.38c-0.47,0-0.87,0.08-1.2,0.24
			c-0.33,0.16-0.6,0.38-0.82,0.66c-0.22,0.28-0.37,0.59-0.47,0.95c-0.1,0.35-0.14,0.72-0.14,1.09s0.05,0.73,0.14,1.08
			c0.1,0.35,0.25,0.65,0.47,0.92c0.22,0.26,0.49,0.48,0.82,0.64c0.33,0.16,0.73,0.24,1.2,0.24c0.66,0,1.18-0.15,1.56-0.46
			c0.38-0.31,0.63-0.72,0.75-1.23H117.25z"/>
		<path class="st21" d="M121.33,54.83v12.47h-2.38V54.83H121.33z"/>
		<path class="st21" d="M123.49,56.78v-2.14h2.5v2.14H123.49z M123.55,67.31v-8.84h2.38v8.84H123.55z"/>
		<path class="st21" d="M132.87,58.29c0.44,0,0.83,0.02,1.15,0.07c0.32,0.05,0.61,0.11,0.85,0.2c0.24,0.08,0.45,0.19,0.62,0.32
			c0.17,0.13,0.33,0.27,0.48,0.42c0.37-0.32,0.81-0.57,1.31-0.75s1.09-0.26,1.75-0.26c1.43,0,2.46,0.26,3.09,0.77
			c0.63,0.52,0.94,1.34,0.94,2.48v5.76h-2.38v-5.65c0-0.59-0.16-1.02-0.48-1.29c-0.32-0.27-0.8-0.4-1.45-0.4s-1.14,0.16-1.49,0.48
			c-0.34,0.32-0.51,0.79-0.51,1.43v5.44h-2.38v-5.65c0-0.59-0.16-1.02-0.49-1.29c-0.32-0.27-0.81-0.4-1.46-0.4
			c-1.32,0-1.98,0.64-1.98,1.91v5.44h-2.38v-8.84h2.3v0.83c0.13-0.14,0.29-0.28,0.48-0.41s0.39-0.23,0.61-0.32s0.45-0.16,0.69-0.21
			C132.41,58.31,132.64,58.29,132.87,58.29z"/>
		<path class="st21" d="M145.29,61.01c0.04-0.37,0.16-0.72,0.36-1.05s0.49-0.62,0.85-0.86c0.37-0.25,0.81-0.44,1.32-0.58
			c0.52-0.14,1.1-0.22,1.76-0.22c0.8,0,1.48,0.09,2.02,0.26s0.97,0.42,1.31,0.75c0.33,0.32,0.56,0.71,0.7,1.17
			c0.14,0.46,0.21,0.96,0.21,1.51v4.01c0,0.28,0.01,0.5,0.02,0.68c0.01,0.17,0.03,0.31,0.05,0.4c0.02,0.12,0.05,0.2,0.07,0.23h-2.12
			c-0.02-0.05-0.05-0.13-0.07-0.23c-0.02-0.1-0.04-0.22-0.05-0.38c-0.01-0.16-0.02-0.37-0.02-0.65c-0.12,0.22-0.29,0.41-0.49,0.58
			c-0.21,0.17-0.44,0.32-0.69,0.45s-0.52,0.22-0.81,0.3c-0.29,0.07-0.58,0.11-0.86,0.11c-0.5,0-1-0.05-1.48-0.15
			c-0.49-0.1-0.92-0.26-1.31-0.48c-0.39-0.22-0.71-0.5-0.95-0.85c-0.24-0.35-0.36-0.78-0.36-1.29c0-0.47,0.12-0.87,0.37-1.21
			c0.25-0.34,0.56-0.63,0.94-0.86c0.38-0.23,0.82-0.4,1.31-0.51c0.49-0.11,0.96-0.18,1.43-0.19l2.7-0.09v-0.4
			c0-0.5-0.17-0.88-0.5-1.12s-0.79-0.37-1.4-0.37c-0.52,0-0.95,0.1-1.3,0.29c-0.35,0.19-0.55,0.45-0.58,0.77L145.29,61.01z
			 M151.5,63.47l-2.59,0.09c-0.6,0.02-1.05,0.14-1.34,0.35s-0.44,0.49-0.44,0.84c0,0.28,0.17,0.51,0.5,0.69
			c0.34,0.19,0.77,0.28,1.3,0.28c0.37,0,0.72-0.05,1.04-0.16c0.32-0.11,0.59-0.26,0.82-0.45c0.23-0.19,0.41-0.41,0.53-0.65
			s0.19-0.5,0.19-0.77V63.47z"/>
		<path class="st21" d="M161.18,67.31c-0.36,0.06-0.71,0.1-1.05,0.11c-0.34,0.01-0.59,0.02-0.75,0.02c-0.95,0-1.66-0.23-2.13-0.68
			s-0.71-1.06-0.71-1.82v-4.72h-1.53v-1.75h1.53v-2.59h2.38v2.59h2.41v1.75h-2.41v4.59c0,0.29,0.07,0.5,0.21,0.64
			c0.14,0.14,0.37,0.21,0.69,0.21c0.1,0,0.21-0.01,0.34-0.02c0.13-0.01,0.26-0.02,0.4-0.04c0.13-0.01,0.25-0.02,0.37-0.04
			c0.11-0.01,0.2-0.02,0.26-0.04V67.31z"/>
		<path class="st21" d="M166.31,67.31h-2.84v-2.38h2.84V67.31z"/>
	</g>
</g>
</svg>
