<?xml version="1.0" encoding="utf-8"?>
<!-- Generator: Adobe Illustrator 23.1.1, SVG Export Plug-In . SVG Version: 6.00 Build 0)  -->
<svg version="1.1" id="Calque_1" xmlns="http://www.w3.org/2000/svg" xmlns:xlink="http://www.w3.org/1999/xlink" x="0px" y="0px"
	 viewBox="0 0 796.78 406.51" style="enable-background:new 0 0 796.78 406.51;" xml:space="preserve">
<style type="text/css">
	.st0{stroke:#000000;stroke-width:1.704;stroke-miterlimit:10;}
	.st1{fill:#F9F8F4;}
</style>
<g id="Composant_24_4" transform="translate(0 0.85)">
	<path id="Tracé_183" class="st0" d="M791.26,359.5c-5.97-32.19-14.73-63.8-26.17-94.48c0.39-0.97,0.36-2.05-0.08-3
		c-1.67-3.85-3.53-7.61-5.45-11.33c-35.17-87.57-96.41-168.2-185.31-204.68c-43.7-17.93-91.7-30.08-137.94-39.58
		c-36.11-7.4-78.98-12.25-111.94,7.73c-0.24-0.17-0.53-0.27-0.82-0.3c-0.92-0.58-2.04-0.78-3.11-0.55
		C203.71,38.33,100.85,123.03,43.98,226.09c-21.05,38.09-34.82,79.77-40.63,122.9c-0.16,15.33-0.49,26.77-1.11,31.2
		c-0.92,6.43-4.54,14.52,5.53,19.73c3.24,1.7,7.9,3.08,14.51,4.02c3.61,0.53,7.25,0.81,10.89,0.86c0.92,0.01,734.11,0,734.97-0.03
		c9.61-0.32,16.2-2.82,20.73-6.14c2.97-2.16,5.38-5.01,7.03-8.29C794.71,380.01,793.16,369.73,791.26,359.5z M784.9,393.67
		c-2.33,3.46-8.94,5.84-16.28,6.71c-1.04,0.12-734.42,0.2-735.49,0.27c-9.13,0.51-18.6-1.31-21.92-6.24
		c-4.34-6.47,0.31-15.01,1.34-21.73c0.73-4.71,0.97-19.65,0.99-39.36c1.85-9.99,4.15-19.97,6.9-29.93
		C57.27,170.34,178.06,55.18,313.34,24.23l-0.23,0.32c4.24-1.37,8.36-3.31,12.65-4.71c0.1-0.2,0.18-0.41,0.23-0.63
		c6.77-3.83,14-6.79,21.51-8.8c13.23-8.76,30-4.34,46.36-3.57l-0.07-0.06c0.36,0.03,0.7,0.07,1.05,0.08
		c1.56,0.07,3.11,0.1,4.65,0.06c1.31-0.04,2.6,0.23,3.78,0.81c29.01,3.42,58.75,12.47,84.96,20.44c-0.04,0.1-0.07,0.19-0.11,0.3
		c5.45,0.97,10.79,2.48,15.94,4.5c2.46,0.83,4.95,1.53,7.45,2.22l-0.25-0.19c2.09,0.62,4.17,1.23,6.29,1.85
		c1.67,0.47,3.34,0.96,5.01,1.48c12.59,3.76,25.08,7.75,37.35,12.25c8.79,2.55,17.3,5.98,25.4,10.25
		c7.73,3.45,15.35,7.2,22.85,11.32c35.23,19.36,63.42,49.85,87.65,81.41c11.13,14.55,21.31,29.8,30.48,45.67
		c3.66,4.22,6.84,8.83,9.5,13.74c3.02,6.13,5.61,12.48,8.61,18.65c6.06,12.51,10.95,24.91,15.82,37.87
		c0.36,0.93,0.53,1.93,0.52,2.93c13.75,37.11,22.85,75.78,27.1,115.13C787.19,389.72,786.2,391.79,784.9,393.67z"/>
</g>
</svg>
