<?xml version="1.0" encoding="utf-8"?>
<!-- Generator: Adobe Illustrator 23.1.1, SVG Export Plug-In . SVG Version: 6.00 Build 0)  -->
<svg version="1.1" id="Calque_1" xmlns="http://www.w3.org/2000/svg" xmlns:xlink="http://www.w3.org/1999/xlink" x="0px" y="0px"
	 viewBox="0 0 318.28 163.61" style="enable-background:new 0 0 318.28 163.61;" xml:space="preserve">
<style type="text/css">
	.st0{fill:#FFFFFF;}
	.st1{fill:#5AA86F;}
	.st2{fill:#485175;}
	.st3{fill:#F7E8D3;}
	.st4{fill:#F1573F;}
	.st5{fill:#2D302F;}
	.st6{fill:#FFFFFF;stroke:#000000;stroke-miterlimit:10;}
	.st7{fill:#E7F4EC;}
	.st8{fill:#547146;}
	.st9{fill:#BCCBBC;}
	.st10{fill:#EAE9DC;}
	.st11{fill:#275E39;}
	.st12{fill:#050008;}
	.st13{clip-path:url(#SVGID_2_);}
	.st14{stroke:#000000;stroke-width:1.7036;stroke-miterlimit:10;}
	.st15{fill:#F9F8F4;}
	.st16{fill:#148B20;stroke:#1C881F;stroke-miterlimit:10;}
	.st17{fill:#148B20;stroke:#148B20;stroke-miterlimit:10;}
	.st18{stroke:#000000;stroke-miterlimit:10;}
	.st19{fill:#148B20;}
	.st20{enable-background:new    ;}
	.st21{fill:#F8F7F3;}
	.st22{fill:#1C8B20;stroke:#1C8B20;}
	.st23{fill:#048D14;}
	.st24{fill:none;stroke:#000000;stroke-width:5;stroke-linecap:round;stroke-linejoin:round;}
	.st25{stroke:#000000;stroke-width:4.669952e-03;stroke-miterlimit:10;}
	.st26{stroke:#000000;stroke-width:0.096;stroke-miterlimit:10;}
	.st27{stroke:#000000;stroke-width:0.0566;stroke-miterlimit:10;}
	.st28{stroke:#000000;stroke-width:0.0902;stroke-miterlimit:10;}
	.st29{stroke:#000000;stroke-width:0.0884;stroke-miterlimit:10;}
	.st30{stroke:#000000;stroke-width:0.167;stroke-miterlimit:10;}
	.st31{stroke:#000000;stroke-width:0.0762;stroke-miterlimit:10;}
	.st32{stroke:#000000;stroke-width:0.0219;stroke-miterlimit:10;}
	.st33{stroke:#000000;stroke-width:0.0543;stroke-miterlimit:10;}
	.st34{stroke:#000000;stroke-width:0.0601;stroke-miterlimit:10;}
	.st35{stroke:#000000;stroke-width:0.0782;stroke-miterlimit:10;}
	.st36{stroke:#000000;stroke-width:0.3088;stroke-miterlimit:10;}
	.st37{stroke:#000000;stroke-width:0.1976;stroke-miterlimit:10;}
	.st38{stroke:#000000;stroke-width:0.2875;stroke-miterlimit:10;}
	.st39{stroke:#000000;stroke-width:0.059;stroke-miterlimit:10;}
	.st40{stroke:#000000;stroke-width:0.2493;stroke-miterlimit:10;}
	.st41{stroke:#000000;stroke-width:0.5508;stroke-miterlimit:10;}
	.st42{stroke:#000000;stroke-width:0.676;stroke-miterlimit:10;}
	.st43{stroke:#000000;stroke-width:0.4515;stroke-miterlimit:10;}
	.st44{stroke:#000000;stroke-width:1.704;stroke-miterlimit:10;}
</style>
<g>
	<path id="Tracé_177_1_" class="st44" d="M298.72,136.32c-2.25-12.13-5.55-24.04-9.86-35.6c0.14-0.36,0.13-0.77-0.03-1.13
		c-0.63-1.45-1.33-2.87-2.05-4.27c-13.25-33-36.33-63.39-69.83-77.13c-16.47-6.76-34.56-11.33-51.98-14.91
		c-13.61-2.79-29.76-4.62-42.19,2.91c-0.09-0.06-0.2-0.1-0.31-0.11c-0.35-0.22-0.77-0.29-1.17-0.21
		C77.3,15.3,38.54,47.21,17.1,86.05c-7.93,14.36-13.12,30.06-15.31,46.32c-0.06,5.78-0.19,10.09-0.42,11.76
		c-0.34,2.42-1.71,5.47,2.08,7.44c1.73,0.8,3.57,1.32,5.47,1.52c1.36,0.2,2.73,0.31,4.1,0.32c0.34,0.01,276.65,0,276.97-0.01
		c2.78,0.04,5.51-0.76,7.81-2.32c1.12-0.82,2.03-1.89,2.65-3.12C300.02,144.06,299.43,140.18,298.72,136.32z M296.32,149.2
		c-0.88,1.3-3.37,2.2-6.14,2.53c-0.39,0.05-276.77,0.08-277.17,0.1c-3.44,0.19-7.01-0.5-8.26-2.35c-1.64-2.44,0.12-5.66,0.5-8.19
		c0.27-1.77,0.37-7.41,0.37-14.83c0.7-3.76,1.56-7.52,2.6-11.28c13.88-50.14,59.4-93.54,110.38-105.2l-0.09,0.12
		c1.6-0.52,3.15-1.25,4.76-1.77c0.04-0.08,0.07-0.16,0.09-0.24c2.55-1.44,5.28-2.56,8.11-3.32c4.99-3.3,11.3-1.64,17.47-1.35
		l-0.03-0.02c0.13,0.01,0.26,0.03,0.4,0.03c0.59,0.03,1.17,0.04,1.75,0.02c0.49-0.02,0.98,0.09,1.42,0.3
		c10.93,1.29,22.14,4.7,32.01,7.7c-0.01,0.04-0.03,0.07-0.04,0.11c2.05,0.37,4.07,0.94,6.01,1.7c0.93,0.32,1.87,0.58,2.8,0.83
		l-0.09-0.07c0.79,0.23,1.57,0.46,2.37,0.7c0.63,0.18,1.26,0.36,1.89,0.56c4.75,1.42,9.45,2.92,14.07,4.62
		c3.31,0.96,6.52,2.25,9.57,3.86c2.91,1.3,5.79,2.71,8.61,4.26c13.27,7.3,23.9,18.79,33.03,30.68c4.2,5.48,8.03,11.23,11.49,17.21
		c1.38,1.59,2.58,3.33,3.58,5.18c1.14,2.31,2.11,4.7,3.24,7.03c2.28,4.71,4.13,9.39,5.96,14.27c0.14,0.35,0.2,0.72,0.2,1.1
		c5.18,13.99,8.61,28.56,10.21,43.39C297.18,147.71,296.81,148.49,296.32,149.2L296.32,149.2z"/>
	<g id="Groupe_146_1_" transform="translate(148.748 69.046)">
		<path id="Tracé_178_1_" d="M166.54,13.17c-4.32-2.01-8.64-3.99-12.9-6.1c-4.23-2.09-8.33-4.41-12.58-6.48
			c-2.41-1.17-5.63,0.05-5.65,2.02c-0.04,2.63,0.06,5.26,0.29,7.88c0.58,6.1-0.86,8.58-6.17,10.16c-2.16,0.48-4.28,1.08-6.38,1.78
			C116.3,25.27,13.22,66.06,6.4,69c-1,0.43-2.24,0.67-2.93,1.4c-3.12,3.31-4.65,7.27-2.03,11.88c0.7,1.22,1.41,2.43,2.14,3.62
			c0.14,0.75,0.41,1.46,0.81,2.11c0.77,1.42,1.53,2.83,2.3,4.25c0.38,0.97,1.11,1.75,2.05,2.2c1.2,0.38,2.43-0.39,3.44-1.13
			c3.07-2.23,7.35-3.42,10.81-4.87c7.39-3.08,14.82-6.07,22.24-9.05c11.37-4.57,50.65-21.9,61.85-26.9
			c11.28-5.04,21.91-11.25,33.04-16.58c1.2-0.58,2.16-0.35,2.5,1.16c0.6,2.67,1.21,5.33,1.88,7.98c0.69,2.66,2,3.01,3.86,0.92
			c5.1-5.73,10.35-11.36,15.1-17.37c2.23-3.12,4.06-6.51,5.43-10.09C170.2,15.52,169.52,14.57,166.54,13.17z M147.74,40.99
			c-0.99-3.06-1.86-5.62-2.63-8.21c-0.65-2.19-1.31-2.33-3.45-1.33c-6.48,3.05-13,6.01-19.57,8.88c-0.5,0.21-0.96,0.5-1.37,0.87
			c0,0.01-0.01,0.01-0.01,0.01c-0.34,0.24-0.67,0.5-0.99,0.74C117.08,44,18.15,83.88,15.52,85.93c-0.95,0.74-2.06,1.53-3.25,1.29
			c-1.03-0.36-1.91-1.07-2.45-2.02c0.11-0.02,0.21-0.04,0.31-0.06c-0.94-1.36-1.87-2.73-2.83-4.06c-4.02-5.55-4.66-6.07,2.42-9.37
			c5.83-2.73,108.44-42.23,114.6-44.22c3.54-1.21,7.16-2.18,10.83-2.9c1.78-0.32,3.74,0.4,6.45,0.76
			c-0.19-6.15-0.21-12.76-2.85-19.84c9.19,4.05,17.64,7.79,26.57,11.73C159.48,25.12,153.71,32.92,147.74,40.99z"/>
		<path id="Tracé_179_1_" class="st21" d="M165.3,17.24c-5.83,7.88-11.59,15.68-17.56,23.75c-0.99-3.06-1.86-5.62-2.63-8.21
			c-0.65-2.19-1.31-2.33-3.45-1.33c-6.48,3.05-13,6.01-19.57,8.88c-0.5,0.21-0.96,0.5-1.37,0.87c0,0.01-0.01,0.01-0.01,0.01
			c-0.34,0.24-0.67,0.5-0.99,0.74C117.07,44,18.15,83.87,15.52,85.93c-0.95,0.74-2.06,1.53-3.25,1.29c-1.03-0.36-1.9-1.07-2.45-2.02
			c0.11-0.01,0.21-0.04,0.32-0.06c-0.95-1.36-1.87-2.74-2.84-4.06c-4.02-5.55-4.66-6.07,2.42-9.37
			c5.83-2.73,108.44-42.23,114.6-44.22c3.54-1.21,7.16-2.18,10.83-2.9c1.78-0.32,3.74,0.4,6.45,0.76
			c-0.19-6.15-0.21-12.76-2.85-19.84C147.92,9.56,156.38,13.3,165.3,17.24z"/>
	</g>
</g>
</svg>
