<?xml version="1.0" encoding="utf-8"?>
<!-- Generator: Adobe Illustrator 23.1.1, SVG Export Plug-In . SVG Version: 6.00 Build 0)  -->
<svg version="1.1" id="Calque_1" xmlns="http://www.w3.org/2000/svg" xmlns:xlink="http://www.w3.org/1999/xlink" x="0px" y="0px"
	 viewBox="0 0 480.08 124.27" style="enable-background:new 0 0 480.08 124.27;" xml:space="preserve">
<style type="text/css">
	.st0{stroke:#000000;stroke-width:1.704;stroke-miterlimit:10;}
	.st1{fill:#F9F8F4;}
</style>
<g id="Groupe_157" transform="matrix(-0.921, -0.391, 0.391, -0.921, 1889.175, 607.979)">
	<path id="Tracé_184" d="M1946.6-234.48c-11.45-5.32-22.94-10.58-34.23-16.19c-11.22-5.56-22.13-11.7-33.38-17.19
		c-6.39-3.11-14.93,0.14-14.99,5.36c-0.11,6.98,0.15,13.96,0.77,20.91c1.53,16.19-2.27,22.77-16.37,26.97
		c-5.61,1.66-11.55,2.52-16.93,4.73c-18.19,7.49-291.72,115.75-309.8,123.53c-2.66,1.14-5.94,1.77-7.79,3.71
		c-8.29,8.79-12.36,19.31-5.39,31.54c1.85,3.24,3.74,6.45,5.68,9.62c0.37,1.98,1.1,3.88,2.15,5.6c2.04,3.76,4.07,7.52,6.1,11.28
		c1.3,2.41,2.85,5.01,5.45,5.84c3.18,1,6.45-1.04,9.14-3c8.14-5.91,19.51-9.09,28.7-12.92c19.61-8.18,39.32-16.09,59.02-24.02
		c30.18-12.14,134.41-58.11,164.12-71.38c29.93-13.37,58.15-29.85,87.68-43.98c3.18-1.53,5.73-0.92,6.64,3.08
		c1.6,7.08,3.2,14.15,5,21.17c1.82,7.06,5.3,7.99,10.25,2.44c13.53-15.2,27.45-30.13,40.05-46.1c6.19-7.86,10.4-17.48,14.4-26.77
		C1956.32-228.26,1954.53-230.78,1946.6-234.48z M1896.74-160.67c-2.63-8.13-4.94-14.92-6.99-21.79c-1.74-5.8-3.48-6.19-9.16-3.53
		c-17.2,8.09-34.51,15.94-51.92,23.57c-1.33,0.56-2.56,1.34-3.64,2.3c-0.01,0.01-0.03,0.03-0.04,0.03c-0.9,0.63-1.78,1.31-2.63,1.96
		c-7.01,5.46-269.51,111.27-276.52,116.73c-2.52,1.96-5.47,4.05-8.62,3.43c-2.85-0.55-4.64-3.01-6.5-5.36
		c0.29-0.04,0.56-0.11,0.83-0.16c-2.5-3.6-4.95-7.25-7.51-10.77c-10.67-14.74-12.36-16.09,6.42-24.86
		c15.46-7.24,287.76-112.05,304.09-117.35c9.4-3.21,19-5.78,28.74-7.7c4.72-0.85,9.92,1.05,17.11,2.01
		c-0.49-16.31-0.55-33.87-7.57-52.65c24.39,10.76,46.82,20.68,70.5,31.13C1927.87-202.77,1912.57-182.08,1896.74-160.67
		L1896.74-160.67z"/>
	<path id="Tracé_185" class="st1" d="M1943.33-223.68c-15.46,20.91-30.76,41.6-46.6,63.02c-2.63-8.13-4.94-14.92-6.99-21.79
		c-1.74-5.8-3.48-6.19-9.16-3.53c-17.2,8.09-34.51,15.94-51.92,23.57c-1.33,0.56-2.56,1.34-3.64,2.3c-0.01,0.01-0.03,0.03-0.04,0.03
		c-0.9,0.63-1.78,1.31-2.63,1.96c-7.01,5.46-269.51,111.27-276.52,116.73c-2.52,1.96-5.47,4.05-8.62,3.43
		c-2.85-0.55-4.64-3.01-6.5-5.36c0.29-0.04,0.56-0.11,0.83-0.16c-2.5-3.6-4.95-7.25-7.51-10.77c-10.67-14.74-12.36-16.09,6.42-24.86
		c15.46-7.24,287.76-112.05,304.09-117.35c9.4-3.21,19-5.78,28.74-7.7c4.72-0.85,9.92,1.05,17.11,2.01
		c-0.49-16.31-0.55-33.87-7.57-52.65C1897.21-244.06,1919.64-234.14,1943.33-223.68z"/>
</g>
</svg>
