<?xml version="1.0" encoding="utf-8"?>
<!-- Generator: Adobe Illustrator 23.1.1, SVG Export Plug-In . SVG Version: 6.00 Build 0)  -->
<svg version="1.1" id="Calque_1" xmlns="http://www.w3.org/2000/svg" xmlns:xlink="http://www.w3.org/1999/xlink" x="0px" y="0px"
	 viewBox="0 0 230.13 48.3" style="enable-background:new 0 0 230.13 48.3;" xml:space="preserve">
<style type="text/css">
	.st0{fill:#FFFFFF;}
	.st1{fill:#5AA86F;}
	.st2{fill:#485175;}
	.st3{fill:#F7E8D3;}
	.st4{fill:#F1573F;}
	.st5{fill:#2D302F;}
	.st6{fill:#FFFFFF;stroke:#000000;stroke-miterlimit:10;}
	.st7{fill:#E7F4EC;}
	.st8{fill:#547146;}
	.st9{fill:#BCCBBC;}
	.st10{fill:#EAE9DC;}
	.st11{fill:#275E39;}
	.st12{fill:#050008;}
	.st13{clip-path:url(#SVGID_2_);}
	.st14{stroke:#000000;stroke-width:1.7036;stroke-miterlimit:10;}
	.st15{fill:#F9F8F4;}
	.st16{fill:#148B20;stroke:#1C881F;stroke-miterlimit:10;}
	.st17{fill:#148B20;stroke:#148B20;stroke-miterlimit:10;}
	.st18{stroke:#000000;stroke-miterlimit:10;}
	.st19{fill:#148B20;}
	.st20{enable-background:new    ;}
	.st21{fill:#F8F7F3;}
	.st22{fill:#1C8B20;stroke:#1C8B20;}
	.st23{fill:#048D14;}
	.st24{fill:none;stroke:#000000;stroke-width:5;stroke-linecap:round;stroke-linejoin:round;}
	.st25{stroke:#000000;stroke-width:4.669952e-03;stroke-miterlimit:10;}
	.st26{stroke:#000000;stroke-width:0.096;stroke-miterlimit:10;}
	.st27{stroke:#000000;stroke-width:0.0566;stroke-miterlimit:10;}
	.st28{stroke:#000000;stroke-width:0.0902;stroke-miterlimit:10;}
	.st29{stroke:#000000;stroke-width:0.0884;stroke-miterlimit:10;}
	.st30{stroke:#000000;stroke-width:0.167;stroke-miterlimit:10;}
	.st31{stroke:#000000;stroke-width:0.0762;stroke-miterlimit:10;}
	.st32{stroke:#000000;stroke-width:0.0219;stroke-miterlimit:10;}
	.st33{stroke:#000000;stroke-width:0.0543;stroke-miterlimit:10;}
	.st34{stroke:#000000;stroke-width:0.0601;stroke-miterlimit:10;}
	.st35{stroke:#000000;stroke-width:0.0782;stroke-miterlimit:10;}
	.st36{stroke:#000000;stroke-width:0.3088;stroke-miterlimit:10;}
	.st37{stroke:#000000;stroke-width:0.1976;stroke-miterlimit:10;}
	.st38{stroke:#000000;stroke-width:0.2875;stroke-miterlimit:10;}
	.st39{stroke:#000000;stroke-width:0.059;stroke-miterlimit:10;}
	.st40{stroke:#000000;stroke-width:0.2493;stroke-miterlimit:10;}
	.st41{stroke:#000000;stroke-width:0.5508;stroke-miterlimit:10;}
	.st42{stroke:#000000;stroke-width:0.676;stroke-miterlimit:10;}
	.st43{stroke:#000000;stroke-width:0.4515;stroke-miterlimit:10;}
	.st44{stroke:#000000;stroke-width:1.704;stroke-miterlimit:10;}
	.st45{stroke:#000000;stroke-width:0.7242;stroke-miterlimit:10;}
	.st46{stroke:#000000;stroke-width:0.5092;stroke-miterlimit:10;}
	.st47{stroke:#000000;stroke-width:0.2393;stroke-miterlimit:10;}
	.st48{stroke:#000000;stroke-width:0.2452;stroke-miterlimit:10;}
	.st49{stroke:#000000;stroke-width:0.203;stroke-miterlimit:10;}
	.st50{stroke:#000000;stroke-width:0.432;stroke-miterlimit:10;}
	.st51{stroke:#000000;stroke-width:0.4818;stroke-miterlimit:10;}
	.st52{stroke:#000000;stroke-width:0.3236;stroke-miterlimit:10;}
	.st53{stroke:#000000;stroke-width:0.1401;stroke-miterlimit:10;}
	.st54{stroke:#000000;stroke-width:0.106;stroke-miterlimit:10;}
	.st55{fill:#148B20;stroke:#148B20;stroke-width:2;}
</style>
<g id="Groupe_136" transform="translate(57 380.565)">
	<g id="Groupe_130" transform="translate(-57 -374.409)">
		<path id="Tracé_151" d="M99.6,0H0.3L0,42.15l102.4-3.1L99.6,0z M23.85,33.39h-6.18V22.15c0-1.01,0-4.32-3.31-4.32
			c-3.46,0-3.46,3.09-3.46,4.09v11.46H4.72V5.85h6.17v8.79h0.07c1.04-1.86,3.13-2.61,5.32-2.61c2.11-0.06,4.15,0.76,5.62,2.27
			c1.75,2.05,1.93,3.87,1.93,7.56L23.85,33.39z M49.95,33.39h-6.18v-2.23H43.7c-1.04,2.01-3.61,2.94-6.03,2.94
			c-6.55,0-10.39-5.14-10.39-11.05c0-6.77,4.88-11.02,10.39-11.02c3.39,0,5.28,1.64,6.03,2.9h0.07v-2.19h6.18L49.95,33.39z
			 M64.51,34.06c-6.04,0.07-10.99-4.78-11.05-10.82c0-0.08,0-0.16,0-0.24c-0.08-5.99,4.71-10.9,10.7-10.98c0.07,0,0.14,0,0.2,0
			c5.26-0.12,9.86,3.52,10.94,8.67h-6.25c-0.73-1.81-2.51-2.97-4.47-2.9c-2.94-0.15-4.91,2.27-4.91,5.25c0,3.01,1.97,5.25,4.91,5.25
			c1.91,0.06,3.67-1.02,4.47-2.76h6.29C74.17,30.56,69.67,34.11,64.51,34.06L64.51,34.06z M97.5,33.39h-7l-5.84-9.94h-0.07v9.94
			h-6.18V5.85h6.18v14.37h0.07l5.73-7.48h7.33l-7.78,9.08L97.5,33.39z"/>
		<path id="Tracé_152" d="M38.56,17.8c-2.82,0-5.1,2.28-5.1,5.1c0,0.08,0,0.15,0,0.23c-0.03,2.84,2.25,5.18,5.09,5.21
			c0.01,0,0.03,0,0.04,0c2.82,0.04,5.13-2.21,5.18-5.02c0-0.09,0-0.17,0-0.26c0.09-2.8-2.1-5.15-4.9-5.25
			C38.76,17.8,38.66,17.8,38.56,17.8z"/>
	</g>
	<path id="Tracé_153" d="M52.35-372.75c0,3.69-2.49,4.5-3.8,4.5h-2.68v-3.31h1.34c0.78,0.1,1.49-0.45,1.59-1.22
		c0.01-0.06,0.01-0.13,0.01-0.19v-1.27h-2.94v-6.32h6.48L52.35-372.75z"/>
	<path id="Tracé_154" d="M62.66-361.67h2.98v4.69h-2.98v15.96h-6.18v-15.96h-3.05v-4.69h3.05v-6.89h6.18L62.66-361.67z"/>
	<path id="Tracé_155" d="M87.45-341.02h-5.84v-2.19h-0.07c-1.27,2.64-3.8,2.86-5.36,2.86c-2.31,0.07-4.53-0.88-6.07-2.6
		c-1.64-2.05-1.86-3.54-1.86-6.36v-12.36h6.18v11.42c0,1.42,0,4.13,3.31,4.13c1.79,0,3.54-0.93,3.54-4.2v-11.35h6.18V-341.02z"/>
	<g id="Groupe_131" transform="translate(90.965 -372.745)">
		<path id="Tracé_156" d="M22.67,31.56h-6.18v-2.23h-0.07c-1.04,2.01-3.61,2.94-6.03,2.94C3.84,32.27,0,27.13,0,21.21
			C0,14.44,4.88,10.2,10.39,10.2c3.39,0,5.28,1.64,6.03,2.9h0.07V10.9h6.18L22.67,31.56z M11.32,26.5c2.82,0.04,5.13-2.21,5.18-5.02
			c0-0.09,0-0.17,0-0.26c0.09-2.8-2.1-5.15-4.91-5.25c-0.1,0-0.2,0-0.3,0c-2.82,0-5.1,2.28-5.1,5.1c0,0.08,0,0.15,0,0.23
			c-0.03,2.85,2.25,5.18,5.1,5.21C11.29,26.5,11.3,26.5,11.32,26.5z"/>
		<path id="Tracé_157" d="M27.18,4.02h6.18v27.54h-6.18V4.02z"/>
		<path id="Tracé_158" d="M44.01,8.71h-6.18V4.02h6.18V8.71z M44.01,31.56h-6.18V10.91h6.18V31.56z"/>
		<path id="Tracé_159" d="M55.89,10.91h2.98v4.69h-2.98v15.96h-6.18V15.6h-3.05v-4.69h3.05V4.02h6.18V10.91z"/>
		<path id="Tracé_160" d="M81.46,25.09c-0.87,2.12-2.33,3.96-4.2,5.29c-1.72,1.22-3.77,1.87-5.88,1.86
			c-6.04-0.01-10.94-4.9-10.95-10.94c-0.06-6.05,4.78-11,10.83-11.09c6.29,0,10.9,4.99,10.9,11.28c0,0.55-0.05,1.1-0.15,1.64H66.54
			c0.37,2.35,2.46,4.04,4.84,3.91c1.5,0.04,2.92-0.69,3.76-1.94L81.46,25.09z M75.99,18.95c-0.5-2.16-2.47-3.65-4.69-3.53
			c-2.22-0.12-4.2,1.37-4.69,3.53H75.99z M77.55,4.4L68.4,8.45L66.65,4.8L75.58,0L77.55,4.4z"/>
	</g>
</g>
</svg>
