<?xml version="1.0" encoding="utf-8"?>
<!-- Generator: Adobe Illustrator 23.1.1, SVG Export Plug-In . SVG Version: 6.00 Build 0)  -->
<svg version="1.1" id="Calque_1" xmlns="http://www.w3.org/2000/svg" xmlns:xlink="http://www.w3.org/1999/xlink" x="0px" y="0px"
	 viewBox="0 0 513.54 714.07" style="enable-background:new 0 0 513.54 714.07;" xml:space="preserve">
<style type="text/css">
	.st0{fill:#F5FAFA;}
	.st1{fill:#EFEEE4;}
	.st2{fill:#EBF7EF;}
	.st3{fill:#048D14;}
	.st4{fill:#5AA86F;}
	.st5{fill:#485175;}
	.st6{fill:#F7E8D3;}
	.st7{fill:#E7F4EC;}
	.st8{fill:#547146;}
	.st9{fill:#BCCBBC;}
	.st10{fill:#EAE9DC;}
	.st11{fill:#275E39;}
	.st12{fill:#050008;}
	.st13{fill:#2F5418;}
	.st14{fill:#F9F8F4;}
	.st15{fill:#148B20;}
</style>
<g>
	<path d="M447.61,624.94c0.68,0.6,0.64,0.54,0.15,0.09C447.72,625,447.66,624.99,447.61,624.94z"/>
	<path d="M491.81,363.4c0.25-0.62,0.23-1.32-0.05-1.93c-1.08-2.47-2.27-4.89-3.5-7.29c-21.99-54.76-59.84-105.29-114.48-129.6
		c3.29-3.36,5.37-8.92,6.25-11.66c5.81-18.14,11.45-36.62,16.75-54.93c0.75-2.58,1.53-5.16,2.31-7.75c2-6.64,4.07-13.51,5.67-20.36
		c0.77-3.31,1.37-6.69,1.95-9.96c0.93-5.26,1.89-10.7,3.6-15.87c0.1-0.28,0.13-0.58,0.1-0.87c2.44-4.53,3.97-9.52,5.45-14.35
		c0.56-1.81,1.13-3.67,1.74-5.49c2.49,0.65,5.16-0.08,6.97-1.92c7.85,4.6,16.68,5.89,25.22,7.14c5.38,0.78,10.93,1.6,16.16,3.23
		c0.51,0.16,1.18,0.39,1.98,0.67c6.29,2.19,18,6.26,21.11,0.24c0.71-1.38,0.79-2.73,0.22-3.99c-1.69-3.76-8.75-5.57-12.98-6.66
		c-0.68-0.18-1.27-0.33-1.71-0.46c-7.84-2.31-16.01-3.58-23.92-4.81c-9.31-1.45-18.94-2.95-27.97-6.15c-0.8-0.67-1.7-1.21-2.67-1.61
		c-3.18-5.56-5.84-11.55-8.41-17.34c-3.26-7.34-6.62-14.93-11.12-21.79l-0.94-1.44c-3.55-5.4-6.9-10.51-9.05-16.8
		c-1.43-4.19-3.37-8.46-7.88-11.34c-0.48-0.29-1.05-0.38-1.6-0.24c-0.55,0.14-1.01,0.47-1.3,0.96c-0.28,0.46-0.37,1-0.26,1.49
		c2.12,12.42,7.04,24,11.81,35.2c0.77,1.8,1.54,3.61,2.29,5.42c4.19,10.01,8.7,19.66,17.46,27.6c-1.71,0.13-3.4,0.57-4.96,1.3
		c-3.66,1.62-5.86,3.7-6.54,6.18c-0.55,2,0.08,3.69,1.77,4.74c1.32,0.83,3.27,1.17,5.15,1.04c-3.72,4.05-6.68,9.16-9.58,14.15
		c-1.87,3.22-3.63,6.26-5.53,8.91c-1.91,2.65-4.05,5.24-6.32,7.99c-6.36,7.7-12.93,15.65-14.59,25.38
		c-0.29,1.14,0.39,2.32,1.54,2.64c0.34,0.09,0.7,0.1,1.05,0.03c6.24-1.35,11.5-5.61,15.77-10.14c-3.26,7.78-6.14,15.58-9.04,23.55
		c-5.27,14.48-11.44,31.69-17.27,49.5c-0.23,0.7-0.48,1.42-0.74,2.16c-1.17,3.34-2.49,7.16-2.19,10.66
		c-25.44-9.5-52.7-16.27-79.08-21.69c-23.21-4.76-50.78-7.89-71.96,4.96c-0.16-0.1-0.34-0.17-0.53-0.2c-0.6-0.37-1.32-0.5-2.01-0.35
		c-18.53,3.97-36.51,10.29-53.64,18.54c-0.49-2.42-2.19-4.66-3.58-6.5c-0.3-0.4-0.6-0.79-0.88-1.17
		c-7.16-9.83-14.41-19.23-20.55-27.12c-3.03-3.89-6.02-7.69-9.13-11.38c3.2,1.56,6.76,2.68,10.37,2.32
		c0.47-0.05,0.89-0.28,1.19-0.65s0.43-0.83,0.38-1.31c-0.03-0.26-0.12-0.51-0.25-0.73c-3.01-5.75-8.69-9.37-14.18-12.87
		c-1.95-1.24-3.78-2.41-5.48-3.66c-1.69-1.24-3.38-2.76-5.16-4.37c-2.59-2.33-5.24-4.71-8.12-6.46c0.96-0.35,1.82-0.89,2.38-1.55
		c0.93-1.1,0.99-2.45,0.17-3.7c-0.97-1.49-2.84-2.39-5.51-2.66c-0.9-0.11-1.81-0.09-2.7,0.04c3.54-6.5,4.37-13.18,4.94-20
		c0.11-1.27,0.22-2.54,0.33-3.81c0.71-7.88,1.44-16.03,0.26-24.12c-0.1-0.94-0.95-1.64-1.88-1.54c-0.44,0.04-0.84,0.25-1.15,0.6
		c-2.27,2.76-2.62,5.99-2.67,8.78c-0.07,4.29-1.12,8.11-2.23,12.15l-0.28,1.02c-1.41,5.16-1.97,10.54-2.52,15.73
		c-0.42,4.04-0.86,8.22-1.7,12.23c-0.49,0.43-0.92,0.93-1.27,1.48c-4.89,3.74-10.5,6.57-15.92,9.3c-4.65,2.34-9.45,4.77-13.86,7.78
		c-0.25,0.17-0.58,0.38-0.97,0.63c-2.44,1.55-6.51,4.13-6.82,6.95c-0.11,0.99,0.25,1.93,1.04,2.71c3.33,3.31,9.91-1.66,13.44-4.33
		c0.43-0.33,0.79-0.6,1.08-0.8c2.88-2.04,6.13-3.64,9.28-5.19c4.98-2.45,10.12-4.99,14.07-9.32c1.45,0.66,3.14,0.59,4.52-0.17
		c0.67,0.91,1.32,1.85,1.96,2.76c1.87,2.68,3.81,5.44,6.21,7.77c0.05,0.19,0.14,0.38,0.26,0.54c2.08,2.84,3.76,6,5.38,9.06
		c1.01,1.9,2.05,3.86,3.19,5.76c2.36,3.92,5.01,7.75,7.58,11.46c1,1.44,1.99,2.87,2.97,4.31c6.94,10.22,14.11,20.51,21.32,30.57
		c0.83,1.15,2.39,3.15,4.29,4.69c-47.81,25.68-88.18,66.43-113.9,113.05C-10.3,408.1-8.24,490.3,27.43,560.47
		c34.24,67.36,97.61,120.41,169.39,143.3c72.1,22.99,148.29,5.97,209.87-35.99c26.52-18.1,49.41-41.02,67.47-67.57
		c0.25,0.26,0.49,0.52,0.74,0.77c1.88,1.9,5.5-0.71,3.79-2.93c-0.13-0.16-0.26-0.32-0.39-0.48l0.01-0.01
		c-0.02-0.02-0.04-0.04-0.06-0.07c-0.41-0.53-0.82-1.03-1.24-1.55c11.53-17.67,20.68-36.79,27.2-56.86
		C522.25,483.14,511.96,417.78,491.81,363.4z M459.88,382.74c8.88,11.8,20.96,20.68,30.01,32.19c-8.98-4.55-16.95-10.81-26.3-14.88
		c-0.36-0.15-0.75-0.21-1.15-0.2c2.1-5.99,1.74-11.35-4.13-17.9c-0.4-0.49-1.01-0.76-1.64-0.73c1.11-1.35,2.14-2.77,3.07-4.25
		c1.55-2.47-2.35-4.73-3.9-2.28c-4.48,7.13-10.98,14.44-15.57,3.43c-2.06-4.93-3.09-10.37-4.12-15.58
		c-0.09-0.47-0.22-1.24-0.37-2.24c0.69,1.21,1.34,2.44,1.98,3.68c-0.16,0.46-0.15,0.97,0.03,1.43c1.16,3.67,2.71,7.21,4.62,10.55
		c1.33,2.55,5.07,0.73,4.47-1.89c-0.31-1.34-0.73-2.62-1.15-3.9c1.84,0.99,3.61,2.11,5.29,3.35c2.04,1.52,4.54-1.37,3.35-3.35
		c-1.14-2.05-2.05-4.21-2.73-6.46c11.59,7.55,22.76,16.13,32.19,26.26c-6.76-3.62-13.26-7.73-20.26-10.96
		C461.42,378.04,458.06,380.33,459.88,382.74z M449.18,355.86L449.18,355.86c-1.29-0.72-2.92-0.26-3.64,1.03
		c-0.33,0.59-0.42,1.29-0.26,1.95c0.52,2.4,1,4.48,1.61,6.47c-1.24-0.62-2.52-1.23-3.84-1.82c-2.58-5.38-5.81-10.4-8.86-15.56
		c-0.14-1.27-0.28-2.51-0.4-3.72c9.14,5.19,17.47,11.55,25.76,18.02C456.15,360,452.7,357.85,449.18,355.86z M433.25,337.81
		c-0.11-1.96-0.1-3.27,0.11-3.37c1.61-0.75,1.1-3.26-0.48-3.67c-3.7-0.95-6.82-0.62-9.27,0.72c0.32-0.74,0.31-1.59-0.05-2.32
		c-7.93-16.14-19.82-29.51-31.51-43.04c7.45,6.62,14.77,13.41,22.04,20.23v-0.01c6.5,6.63,13.38,12.87,20.45,18.94
		c2.95,2.68,5.93,5.33,8.94,7.96c-2.1-0.02-3.89,3-1.99,4.7c4.99,4.56,9.72,9.41,14.16,14.51
		C448.61,346.95,441.12,342.05,433.25,337.81z M421.57,380.82c0.05,0.16,0.11,0.32,0.2,0.46l0,0c-0.26,2.24-0.52,4.49-0.78,6.73
		c0.12-1.13-0.97-1.78-1.91-1.91c-6.43-0.91-12.97-0.61-19.28,0.88c-0.07-0.15-0.17-0.3-0.28-0.43
		c-7.73-8.08-14.51-16.51-19.61-26.31c12,3.61,21.32,12.39,31.38,19.78c2.28,1.67,4.24-1.74,2.77-3.59
		c-5.47-6.96-11.38-13.55-17.06-20.33c6,2.87,11.55,6.45,17.51,9.7c1.2,0.68,2.73,0.25,3.41-0.95c0.21-0.36,0.32-0.77,0.32-1.19
		c-0.42-14.34-8.98-26.42-18.32-37.83c3.76,2.61,7.57,5.14,11.48,7.56c1.71,1.06,4.08-1.11,2.86-2.85c-0.6-0.85-1.22-1.67-1.82-2.51
		c2.47,1.64,4.97,3.24,7.54,4.73c0.46,0.27,0.98,0.39,1.51,0.35c-2,2.04-3.25,5.09-3.47,9.11c-0.22,4.19-0.67,10.86,1.47,14.77
		c2.78,5.09,17.93,18.56,3.49,21.33C421.89,378.62,421.27,379.74,421.57,380.82z M379.53,415.1L379.53,415.1
		c2.41,9.97,6.82,21.26-3.47,28.73c-10.27,7.46-10.5-3.37-13.77-7.55c-4.1-5.24-13.92-11.82-7.21-19.58
		c1.84-2.13,5.6-3.34,6.42-6.34c1.91-6.93-10.96-4.37-3.55-11.64c2.55-2.44,4.61-5.36,6.04-8.59c0.27-0.81,0.45-1.65,0.55-2.5
		c0.63,2.77,1.57,5.45,2.81,8c3.92,7.87,7.01,10.32-2.64,5.17c-0.9-0.5-2.02-0.18-2.52,0.72c-0.23,0.41-0.29,0.9-0.18,1.35
		c1.68,7.59,4.59,13.43,8.54,20.1c-1.22-2.06-9.75-0.28-11.19-0.09c-0.91,0.02-1.63,0.78-1.61,1.7c0.01,0.26,0.08,0.52,0.2,0.75
		c4.62,8.71,9.83,15.31,20.21,15.47c1.05,0.02,1.01-1.52,0-1.61c-10.24-0.93-25-20.25-4.2-10.96c0.85,0.47,1.93,0.16,2.4-0.69
		c0.29-0.53,0.29-1.18,0-1.71c-3.57-6.17-7.03-12.05-9.65-18.75c-1.45-3.7,6.83,2.22,7.21,2.42c1.31,0.7,3.29-0.47,2.7-2.08
		c-2.23-6.06-5.22-11.62-7.7-17.6c-0.11-0.27,12.85,3.88,14.27,4.43c1.91,0.73,2.99-1.88,1.84-3.17c-3.42-3.77-6.37-7.95-8.79-12.43
		c6.79,2.01,12.58,6.21,18.7,9.89c-0.62,0.24-1.24,0.47-1.85,0.75c-9.8,4.49,0.16,19.9-12.16,23.31
		C379.87,412.92,379.25,414.02,379.53,415.1z M365.99,369.01L365.99,369.01c0.91,0,1.7-0.61,1.94-1.48
		c2.32-10.88,19.47-34.31,0.85-41.36c-1.12-0.47-2.33-0.7-3.54-0.68c0.82-0.89,0.86-2.24,0.08-3.18c-0.95-1.17-1.94-2.29-2.9-3.45
		c15.86,12.73,29.91,27.75,47.8,37.87c0.64,0.39,1.44,0.4,2.1,0.04c0.19,0.8,0.38,1.61,0.51,2.42c-7.45-4.26-14.61-8.66-22.97-11.16
		c-2.57-0.77-3.78,2.31-2.39,4.09c3.25,4.14,6.67,8.14,10.11,12.11c-6.39-4.34-13.14-7.94-21.08-9.29
		c-1.18-0.29-2.36,0.43-2.65,1.61c-0.13,0.53-0.06,1.09,0.21,1.57c3.58,7.66,8.14,14.82,13.56,21.31c-4.62-2.62-9.38-4.8-15-5.55
		c-1.61-0.22-2.24,1.78-1.69,2.94c1.93,4.02,4.26,7.85,6.93,11.42c-3.8-1.41-7.6-2.8-11.39-4.25c-0.51-0.2-1.09-0.11-1.52,0.24
		C365.65,377.9,366.1,369.01,365.99,369.01z M351.85,343.53L351.85,343.53c-0.25-0.31-0.5-0.59-0.76-0.88
		c1.52,1.87,4.76,0.03,3.35-2.11c-0.98-1.36-1.89-2.76-2.75-4.18c2.99,0.67,5.92,1.56,8.77,2.66c0.38,0.15,0.79,0.19,1.19,0.14
		c0.38,2.48,0.82,4.73,0.97,6.15c0.24,2.3,0.14,4.62-0.3,6.89c-6.58,2.96-9.47,2.1-8.68-2.56
		C353.59,347.63,353.17,345.14,351.85,343.53z M345.29,333.81L345.29,333.81c1.63,3.02,3.5,5.91,5.61,8.62
		c-4.11-4.75-8.14-8.16-10.5-14.47c-1.89-5.05-5.97-32.02,5.23-28.32c6.19,2.05,13.93,0.92,12.23-6.08
		c17.79,16.56,34.72,33.94,47.28,54.82c-19.73-13.18-35.39-31.65-55.76-44.1c-2.14-1.31-4.29,1.64-2.62,3.39
		c4,4.2,7.78,8.55,11.49,12.98c-4.67-1.09-9.16-2.87-13.32-5.27c-2.05-1.04-4.46,1.67-2.56,3.32c4.85,4.28,9.28,9.01,13.24,14.13
		c-2.6-0.72-5.23-1.37-7.84-2.25c-1.18-0.31-2.38,0.4-2.69,1.58C344.94,332.73,345.01,333.31,345.29,333.81z M403.44,315.61
		c-12.89-17.5-26.24-34.66-39.02-52.24c1.95,1.34,3.87,2.76,5.81,4.12c0.04,0.07,0.04,0.13,0.09,0.19
		c13.53,19.12,31.37,35.21,43.68,55.12C410.45,320.45,406.95,318.01,403.44,315.61z M404.1,323.63c-5.13-3.51-10.14-7.2-15.06-11
		c-0.08-0.11-0.17-0.21-0.25-0.32c4.6,2.71,9.02,5.69,13.42,8.74C402.84,321.92,403.48,322.77,404.1,323.63z M361.06,332.95
		L361.06,332.95c-2.35-3.02-4.78-5.93-7.32-8.74c3.12,1.11,6.39,1.72,9.7,1.82C361.58,327.13,361.03,329.82,361.06,332.95z
		 M427.64,361.64c-2.55-3.33-7.71-17.69-4.58-24.21c0.02,0.14,0.05,0.27,0.09,0.41c1.72,4.06,3.76,7.97,6.1,11.7
		c0.79,6.75,2.18,13.87,3.23,18.7C430.99,365.94,429.38,363.74,427.64,361.64z M416.7,278.31L416.7,278.31
		c5.02,4.98,10.32,9.68,15.86,14.08c0.05,0.05,0.1,0.09,0.15,0.14l0.01-0.01c0.18,0.14,0.34,0.28,0.52,0.42
		c0.98,0.75,2.39,0.57,3.14-0.41c0.04-0.06,0.08-0.12,0.12-0.18c1.19,1.5,2.38,3.01,3.57,4.51c0.35,0.44,0.71,0.88,1.06,1.32
		c-5.59-3.96-11.48-7.49-17.61-10.54c-0.7-0.38-1.56-0.34-2.22,0.1c-7.42-4.55-15.71-7.48-24.34-8.6c-0.27-0.03-0.54,0-0.8,0.08
		c-0.05-0.56-0.27-1.09-0.61-1.53c-12.46-16.13-29.28-29.07-39.25-46.97c8.83,1.35,17.11,6.68,24.58,12.95
		C391.03,257.1,403.96,267.56,416.7,278.31z M400.81,255.16c9.3,6.89,17.48,15.32,25.09,24.22c-1.77-1.51-3.55-3.01-5.34-4.5
		C413.86,268.44,407.4,261.71,400.81,255.16z M420.2,304.93L420.2,304.93c4.23,3.31,8.45,6.62,12.67,9.94
		c10.94,8.62,21.42,17.78,31.53,27.35c1.6,1.52,3.13,3.13,4.63,4.77C452.69,333.13,435.43,320.01,420.2,304.93z M458.64,331.38
		L458.64,331.38c-10.35-9.49-21.38-18.22-32.47-26.81c-6.92-5.36-13.87-10.72-20.84-16.08c-0.78-0.98-1.57-1.94-2.33-2.94
		c23.02,5.4,39.7,26.94,58.98,39.51c0.31,0.21,0.66,0.35,1.03,0.43c7.94,9.97,15.11,20.53,21.45,31.59
		C474.94,350.44,466.5,338.59,458.64,331.38z M419.96,74.37c0.3,0.11,0.61,0.22,0.92,0.32c0.11,0.04,0.22,0.07,0.32,0.11
		c0.45,0.62,0.78,1.32,0.97,2.1c0.07,0.24,0.09,0.48,0.09,0.72c-0.17,0.11-0.31,0.27-0.42,0.45c-0.15,0.27-0.22,0.57-0.19,0.85
		c-0.78,0.64-2.22,0.87-3.56,0.54c-0.36-0.58-0.97-0.96-1.65-1.03c-1.03-1.24-1.37-2.91-0.91-4.45c0.67-0.14,1.17-0.74,1.17-1.45
		c0-0.06,0-0.12-0.01-0.18c0.09-0.05,0.18-0.1,0.28-0.14c0.12,0.05,0.25,0.09,0.38,0.12c0.42,0.09,0.83,0.21,1.22,0.38
		C418.7,73.46,419.22,74.1,419.96,74.37z M399.9,111.77c-0.51,0.72-1.02,1.43-1.52,2.13l-1.26,1.8
		c-5.45,7.79-12.79,18.27-21.49,22.02c2.56-7.58,8.06-14.27,13.4-20.76c1.72-2.08,3.34-4.05,4.87-6.06c2.85-3.73,5.31-7.88,7.7-11.9
		c3.39-5.72,6.89-11.63,11.56-16.35c-0.55,1.67-1.06,3.34-1.57,4.98c-1.37,4.45-2.78,9.05-4.82,13.32
		C404.96,104.71,402.38,108.3,399.9,111.77z M394.79,126.63c0.18-0.07,0.34-0.18,0.48-0.33c0.26-0.27,0.4-0.63,0.4-1.01
		c0-0.17-0.04-0.33-0.1-0.49c0.72-0.94,1.43-1.87,2.11-2.77l1.24-1.63c1.42-1.87,2.82-3.79,4.23-5.82
		c-0.48,2.38-0.91,4.76-1.33,7.09l-0.43,2.39c-1.1,5.99-2.87,11.95-4.59,17.72c-0.46,1.54-0.92,3.09-1.36,4.63
		c-5.08,17.59-9.44,32.24-13.71,46.11c-2.11,6.86-4.29,13.68-6.4,20.28c-0.68,2.14-1.56,4.21-2.63,6.18
		c-1.15,2.09-3.03,3.06-4.69,3.13c-1-0.4-1.99-0.8-3-1.2c-0.76-0.87-1.15-2.16-1.1-3.77c0.11-3.44,1.61-7.35,3.05-11.12
		c0.54-1.42,1.06-2.76,1.49-4.06c5.4-16.2,10.97-32.11,15.22-44.16c2.5-7.1,5.03-14.2,7.57-21.28c0.07-0.2,0.23-0.68,0.45-1.33
		C392.3,133.33,394.11,127.85,394.79,126.63z M386.64,14.21c0.48,1.37,0.98,2.79,1.58,4.17c1.82,4.23,4.5,8.06,7.1,11.77
		c1.34,1.92,2.73,3.91,3.97,5.9c3.11,5.03,5.69,10.41,8.19,15.6c2.77,5.75,5.62,11.69,9.23,17.26c-0.03,0.02-0.05,0.04-0.07,0.06
		c-0.35,0.01-0.7,0.07-1.04,0.15c-0.01-0.01-0.02-0.02-0.04-0.03l0,0c-9.3-7.53-13.95-17.42-18.27-27.75
		c-0.91-2.18-1.85-4.36-2.79-6.54c-3.23-7.5-6.54-15.2-8.79-23.17C386.03,12.47,386.33,13.34,386.64,14.21z M414.93,69.88
		L414.93,69.88L414.93,69.88L414.93,69.88z M403.8,79.4c-0.02-0.06-0.02-0.3,0.28-0.75c0.94-1.39,3-2.29,4.65-3.01l0.38-0.16
		c0.81-0.36,1.64-0.65,2.49-0.89c-0.12,1.53,0.16,3.05,0.82,4.41c-0.44,0.26-0.86,0.54-1.28,0.83c-0.02-0.02-0.03-0.04-0.05-0.05
		c-0.33-0.35-0.78-0.55-1.28-0.57c-0.06,0-0.11,0-0.17,0c-0.85,0-1.63,0.16-2.38,0.31c-0.96,0.2-1.88,0.38-2.79,0.19
		C403.97,79.6,403.82,79.45,403.8,79.4z M426.1,76.41c8.12,2.4,16.59,3.75,24.79,5.06c1.31,0.21,2.62,0.42,3.94,0.63
		c6.95,1.05,13.91,2.54,20.68,4.41c1.19,0.34,2.46,0.73,3.88,1.19c1.37,0.45,4.8,2.11,5.34,2.99c-0.08,0.05-0.21,0.12-0.44,0.2
		l-0.12,0.04c-3.96,1.31-9.64-0.57-14.64-2.23c-2.73-0.91-5.31-1.76-7.59-2.13c-1.41-0.23-2.83-0.45-4.23-0.68
		c-11.02-1.75-21.45-3.41-31.65-7.37c0.04-0.2,0.07-0.4,0.08-0.6C426.19,77.42,426.17,76.91,426.1,76.41z M390.89,239.38
		L390.89,239.38c22.65,12.44,40.77,32.05,56.36,52.33c7.9,10.31,15.06,21.17,21.43,32.5c-8.11-10.56-16.83-20.71-24.98-30.99
		c-16.48-20.78-33.97-41.89-58.74-52.78c-9.57-8.15-20.85-15.81-33.35-15.58c-1.53,0.03-2.75,1.3-2.72,2.84
		c0.01,0.45,0.13,0.9,0.35,1.29c3.19,6.58,7.17,12.75,11.86,18.36c-4.3-4.03-8.52-8.12-12.57-12.33
		c-6.47-6.72-12.47-14.16-19.93-19.53C350.1,221.7,371.18,228.55,390.89,239.38z M351.82,245.66L351.82,245.66
		c6.17,5.7,12.38,11.37,18.62,17c-4.43-3.11-8.88-6.17-13.38-9.15c-1.66-1.1-3.95,1.11-2.78,2.78
		c12.58,17.89,25.95,35.19,39.04,52.71c-3.74-2.31-7.64-4.38-11.66-6.17c-1.31-0.54-2.83-0.09-3.62,1.09
		c-8.92-7.26-17.66-14.76-26.46-22.17c-1.79-2.58-3.7-5.08-5.62-7.55c-2.42-3.12-4.87-6.21-7.23-9.38
		c-3.17-4.26,0.15-7.3,0.15-12.09c0-5.4-3.2-7.58-8.22-7.89c-10.83-0.68-12.71-12.04-21.82-15.7c-0.82-3.5-2.07-6.88-3.73-10.07
		c13.42,9.51,25.28,20.93,38.08,31.34c2.06,1.67,5.65-0.5,3.94-3.04c-6.75-9.99-14.89-18.87-22.37-28.27
		C335.14,225.92,342.97,237.49,351.82,245.66z M313.79,211.1c-0.41,0.75-0.35,1.66,0.14,2.36c4.25,6.02,8.99,11.65,13.74,17.27
		c-9.2-7.88-18.54-15.55-29.02-21.84c-2.05-1.23-4.79,1.28-3.38,3.38c3.46,5.09,6.49,10.07,8.2,15.62c-1.29-0.12-2.6-0.1-3.89,0.08
		c-8.82-8.16-16.65-17.35-26.43-24.52c-2-1.47-4.33,1.31-3.23,3.23c1.2,2.24,2.33,4.51,3.39,6.8c-6.93-5.15-13.14-11.22-20.25-16.14
		C273.6,198.86,295.09,205.43,313.79,211.1z M280.88,219.25L280.88,219.25c-0.72-1.73-1.42-3.41-2.12-5.07
		c5.19,4.74,10.04,9.83,15.06,14.74c-2.9,0.09-6.38-1.05-12.89-6.32c-0.36-0.29-0.7-0.56-1.05-0.82
		C280.83,221.33,281.26,220.23,280.88,219.25z M245.38,197.03c0.04,0.27,0.12,0.54,0.24,0.79c1.56,3.15,3.07,6.25,4.43,9.44
		c-5.85-3.4-11.56-6.91-17.88-9.39c4.38-0.6,8.79-0.88,13.2-0.83L245.38,197.03z M236.33,204.13L236.33,204.13
		c5.83,2.76,11.2,6.74,16.84,9.88c1.06,0.59,2.4,0.2,2.99-0.86c0.27-0.49,0.34-1.06,0.21-1.6c-0.89-2.81-1.92-5.57-3.09-8.28
		c5.93,4.45,11.35,9.54,17.27,14c-0.39-0.08-0.77-0.17-1.18-0.25c-2.24-0.4-4.47,0.27-6.6,0.81c-8.28,2.1-15.49-0.6-23.54-1.22
		c-1.48-0.11-2.82-0.14-4.11-0.13c0.02-0.15,0.03-0.31,0.01-0.46C234.09,211.32,227.73,200.04,236.33,204.13z M207.49,207.23l0-0.01
		c0.99-0.15,1.78-0.9,1.99-1.88c5.39-3.05,11.22-5.25,17.28-6.52c-0.01,0.2,0.01,0.39,0.05,0.59c1.05,4.49,2.28,8.91,3.51,13.35
		c-0.11-0.41-13.54-4.93-15.41-5.65c-1.84-0.71-2.66,1.73-1.71,2.94c2.34,3.04,4.34,6.33,5.94,9.82c0.14,0.28-14.97,0.93-15.76,0.94
		c-0.7,0.02-1.26,0.6-1.24,1.31c0.01,0.43,0.24,0.83,0.6,1.05c1.71,1.32,3.58,2.41,5.58,3.24c1.34,0.68,2.52-1.3,1.18-2.02
		c-4.28-1.94-4.21-2.26,0.23-0.95l6.12,0.09c-4.19,2.76-8.23,5.5-12.98,7.27c-6.67-4.87-7.53-10.09-2.57-15.65
		c1.58-2.71,3.44-5.25,5.55-7.57C206.41,207.48,206.95,207.34,207.49,207.23z M228.81,217.22c-2.15,0.52-4.23,1.29-6.2,2.31
		c-1.48-2.85-2.88-5.73-4.38-8.57C219.84,214.02,224.68,215.89,228.81,217.22z M101.79,154.65c2.28,2.01,4.64,4.09,7.16,5.84
		c1.35,0.93,2.75,1.83,4.23,2.77c4.31,2.76,8.75,5.6,11.81,9.39c-5.79-0.92-11.99-5.6-16.66-9.13l-1.17-0.88
		c-2.73-1.88-5.33-3.99-7.68-6.26c-2.09-2.21-3.88-4.76-5.6-7.22c-0.34-0.49-0.69-0.98-1.04-1.48
		C96.05,149.59,98.96,152.16,101.79,154.65z M105.27,165.59c0.83,0.62,1.66,1.21,2.47,1.77l1.16,0.81c0.53,0.37,1.08,0.75,1.64,1.14
		c0.01,0.12,0.04,0.24,0.09,0.35c0.17,0.41,0.52,0.69,0.93,0.76c0.48,0.48,1.65,2,3.51,4.53c0.27,0.37,0.48,0.65,0.56,0.76
		c2.99,3.86,5.96,7.74,8.92,11.62c5.04,6.6,11.66,15.32,18.21,24.22c0.53,0.71,1.12,1.46,1.74,2.22c1.63,2.02,3.31,4.11,4.05,6.16
		c0.26,0.73,0.32,1.38,0.19,1.93c-1,0.5-2.01,1-3.01,1.51c-0.57-0.14-1.14-0.43-1.67-0.92c-1.04-0.98-1.98-2.07-2.82-3.24l-0.58-0.8
		c-2.44-3.41-4.97-6.94-7.42-10.44c-5.95-8.49-11.89-17.14-17.67-25.72c-0.58-0.85-1.16-1.7-1.74-2.55
		c-2.21-3.23-4.5-6.56-6.38-10.03l-0.38-0.71l-0.39-0.72C106.22,167.35,105.75,166.47,105.27,165.59z M96.22,142.74
		c-0.47,0.27-1,0.33-1.63,0.4c-0.53,0.06-1.12,0.13-1.74,0.34c-0.31,0.12-0.56,0.32-0.73,0.57c-0.13-0.04-0.27-0.07-0.4-0.11
		c0.06-0.77-0.02-1.54-0.26-2.29c0.38,0,0.79,0.02,1.18,0.06l0.27,0.03c1.12,0.11,2.51,0.25,3.29,0.86c0.04,0.03,0.08,0.06,0.1,0.09
		C96.28,142.7,96.26,142.72,96.22,142.74z M85.56,145.26c-0.09-0.08-0.19-0.15-0.3-0.2c-0.02-0.08-0.03-0.16-0.03-0.24
		c-0.03-0.42,0.02-0.83,0.13-1.23l0.07-0.05c0.18-0.13,0.36-0.27,0.52-0.4c0.46-0.35,0.7-0.88,0.69-1.42
		c0.15-0.12,0.31-0.23,0.48-0.33c0,0,0.01,0,0.01-0.01c0.05,0.11,0.12,0.21,0.21,0.3c0.22,0.24,0.53,0.38,0.86,0.41
		c0.42,0.7,0.51,1.55,0.24,2.33c-0.4,0.22-0.7,0.58-0.84,1.01c-0.52,0.33-1.16,0.41-1.74,0.25C85.8,145.53,85.7,145.38,85.56,145.26
		z M93.22,113.31c-0.14,1.54-0.29,3.07-0.42,4.61c-0.6,7.14-1.47,14.09-5.6,20.5c-0.02,0-0.03,0-0.05,0.01
		c1.03-4.01,1.59-8.08,2.12-12.03c0.5-3.7,1.02-7.52,1.93-11.23c0.36-1.47,0.82-2.97,1.26-4.42c0.49-1.59,0.98-3.21,1.38-4.86
		C93.69,108.38,93.45,110.86,93.22,113.31z M51.94,163.25c0.71-0.51,1.42-1.02,2.14-1.5c3.8-2.5,7.79-4.8,11.87-6.84l2.29-1.17
		c4.67-2.38,9.48-4.83,13.92-7.82c0.05,0.17,0.11,0.35,0.18,0.52c0.01,0.04,0.03,0.07,0.05,0.11c-5.41,4.36-11.42,7.42-17.76,10.65
		c-0.83,0.42-1.66,0.85-2.49,1.27c-1.36,0.7-2.79,1.75-4.31,2.86c-2.65,1.95-5.65,4.15-8.21,4.23
		C50.14,164.82,51.39,163.65,51.94,163.25z M147.34,676.92c0.68-2.63,1.1-5.32,1.26-8.03c4.5,2.46,9.07,4.76,13.71,6.91
		c-4.13-0.63-7.61-0.42-9.19,1.52c-0.56,0.69,0.37,1.67,0.99,0.99c2.16-2.38,9.19-1.06,17.09,1.42c1.93,0.82,3.86,1.64,5.81,2.43
		c3.6,1.42,7.21,2.81,10.84,4.15c1.61,1.37,3.68,2.05,5.79,1.92c2.17,0.9,3.94,1.61,4.97,1.97c1.69,0.59,2.35-2.02,0.73-2.65
		c-12.51-4.82-25.04-9.53-37.24-15.08c-1.95-0.89-8.99-5.32-11.05-5.31c9.04-0.05,17.91,2.38,26.57,4.71
		c3.66,0.99,7.28,2.07,10.9,3.17c8.62,3.77,17.73,6.31,27.06,7.55c1.65,0.2,1.98-2.52,0.39-2.88c-8.63-1.9-17.15-4.55-25.68-7.13
		c-5.92-2.61-11.63-5.82-17.22-8.97c-9.32-5.25-18.2-11.31-27.1-17.23c-5.43-3.62-6.04-2.47,0.29-2.07
		c7.3,0.46,14.54,2.36,21.6,4.36c15.86,6.3,32.14,11.7,48.36,16.97c6.2,2.24,12.45,4.35,18.82,6.13c2.2,0.61,3.06-2.67,0.93-3.39
		c-7.77-2.6-15.6-5.15-23.42-7.74c-13.31-4.92-26.6-10.3-40.16-14.22c-18.5-7.23-36.48-15.6-53.27-26.3
		c1.78,0.11,3.55,0.27,5.31,0.46c11.96,10.22,30.74,11.88,45.3,16.3c17.61,5.35,35.18,10.92,52.98,15.55
		c11.14,3.29,22.51,5.75,34.02,7.35c0.12,0.02,0.24,0.04,0.35,0.06v-0.01c0.18,0.03,0.35,0.06,0.53,0.08
		c2.24,0.29,2.75-3.55,0.53-3.94c-9.96-1.74-19.79-3.96-29.56-6.45c-34.18-10.3-66.72-28.22-101.79-32.37
		c-0.43-0.55-0.84-1.14-1.23-1.76c23.03-0.18,46.38,10.83,67.86,17.93c22.55,7.44,46.96,11.15,70.29,15.45
		c2.09,0.39,3.7-2.59,1.54-3.65c-5.24-2.56-10.4-5.06-15.32-8.07c6.76-0.51,13.55-0.28,20.26,0.68c1.32,5.15,1.45,10.54,0.38,15.76
		c-3.11,14.53-17.15,17.19-29.33,20.45c-16.15,4.32-28.7,11.17-30.13,28.58C188.81,696.82,167.37,688.22,147.34,676.92z
		 M116.03,573.48L116.03,573.48c17.25,9.87,35.33,17.85,53.56,25.58c-20.26-5.72-40.22-12.58-60.86-16.94
		c-0.94-0.23-1.89,0.34-2.12,1.28c-0.18,0.73,0.13,1.5,0.77,1.9c16.06,10.27,33.73,16.81,51.6,22.94
		c-14.69-4.03-29.61-6.7-45.19-5.48c-0.45,0.05-0.82,0.39-0.9,0.84c-5.45-8.9-12.94-18.13-6.48-29.35
		c1.93-3.35,3.13-7.07,3.52-10.92c7.66,3.32,15.51,6.19,23.5,8.59c-5.41-0.99-10.84-1.87-16.33-2.44
		C114.92,569.25,114.28,572.48,116.03,573.48z M124.66,609.58L124.66,609.58c0.2,0.11,0.45,0.04,0.56-0.15s0.05-0.44-0.15-0.55
		c-5.74-3.54-10.85-4.65,0.1-4.43c11.5,0.23,22.98,3.48,33.94,6.67c17,4.95,33.37,11.74,50.46,16.41c1.9,0.52,3.2-2.32,1.37-3.24
		c-29.42-14.78-62.4-20.92-91.5-36.15c24.69,6.22,48.52,15.52,73.49,20.77c2.06,0.43,3.67-2.67,1.52-3.6
		c-22.19-9.63-44.62-18.62-66-29.92c10.45,1.81,20.76,4.28,31.23,6.1c2.3,0.4,4.16-2.93,1.71-4.06
		c-16.69-7.7-34.91-11.04-51.45-18.95c4.01-0.12,8.01,0.28,11.92,1.18c1.17,0.28,2.34,0.56,3.52,0.82c2.78,0.6,3.98-3.61,1.18-4.28
		c-9.87-2.22-19.51-5.37-28.8-9.39c0.3-0.82,0-1.73-0.74-2.21c0.17,0.11-7.72-7.51-11.14-6.28c0.52-0.24,0.99-0.57,1.4-0.97
		c0.63-0.63,0.63-1.65,0-2.28c-2.35-2.39-4.55-4.92-6.6-7.57c-0.32-0.81-0.66-1.63-1.01-2.46c0.42-0.52,0.48-1.25,0.14-1.83
		c-1-1.5-1.95-2.6-2.56-3.38c-0.21-0.41-0.43-0.81-0.64-1.22c0.14-0.62,2.16-0.34,7.95,0.48c1.9,0.27,3.11-2.05,1.34-3.19
		c-3.71-2.38-24.44-11.29-8.03-7.68c1.71,0.38,3.54-1.95,1.89-3.24c-3.17-2.47-6.35-4.93-9.47-7.45c0.51,0.22,1.03,0.4,1.54,0.63
		c2.36,1.05,4.4-2.17,2.07-3.54c-6.47-3.82-12.79-7.84-19.06-11.96c0.99-0.44,1.44-1.6,1-2.6c-0.02-0.05-0.05-0.1-0.08-0.16
		c-1.92-3.29-4.11-6.43-6.54-9.37c-0.13-0.44-0.26-0.88-0.38-1.32c1.49,0.16,2.83,0.31,3.55,0.45c1.39,0.27,3.28-0.97,2.61-2.6
		c-3.56-8.58-8.75-13.21,1.82-16.26c1.11-0.33,1.74-1.51,1.4-2.62c-0.04-0.14-0.1-0.28-0.17-0.41c-0.54-1.18-2.51-4.31-3.47-6.55
		c0.63-0.62,0.7-1.6,0.17-2.31c-0.3-0.46-0.61-0.92-0.91-1.37c-0.71-1.03-2.12-1.29-3.15-0.59c0.36-1.17,0.72-2.34,1.08-3.52
		c3.86,4.5,8.57,8.19,13.86,10.86c1.34,0.68,2.5-1.27,1.18-2.03c-4.34-2.16-8.19-5.19-11.3-8.91l6.18-4.27
		c3.27,1.03,6.48,2.24,9.61,3.62c1.16,0.47,2.44-0.93,2.04-2.05c-1.92-5.61-4.84-10.83-8.61-15.41c4.28,2,8.47,4.17,12.71,6.37
		c0.27,0.13,0.56,0.2,0.86,0.2c8.24,4.83,16.61,9.42,25.16,13.65c1.21,0.98,2.4,1.96,3.57,2.92c3.94,3.25,7.58,6.84,11.2,10.42
		c0.77,0.76-15.18,0.63-16.63,0.47c-1.5-0.17-2.29,2-1.22,2.95c3.84,3.37,7.9,6.47,12.18,9.27l-0.52-0.06
		c-0.98-0.23-1.96,0.37-2.2,1.35c-0.03,0.11-0.04,0.22-0.05,0.33c-0.65,0.37-0.88,1.2-0.51,1.85c0.18,0.31,0.47,0.54,0.81,0.63
		c1.03,0.25,2.09,0.41,3.15,0.48c0.4,0,0.79-0.16,1.06-0.46c0.3,0.06,0.59,0.12,0.84,0.16c-0.14,0.65-0.18,1.31-0.12,1.97
		c0.43,5.33-0.38,9.74-4.14,14c-1.02,1.15-7.39-14.61-7.87-16.55c-2.61-10.54-6.19-30.1-21.3-29.43
		c-18.19,0.82-8.12,25.89-23.78,29.81c-1.11,0.32-1.76,1.46-1.46,2.58c1.96,7.34,4.23,13.37,11.3,16.86
		c7.56,3.74,10.27-6.17,15.98,8.4c2.68,6.85,5.8,18.4,4.39,25.58c-5.04,25.73,25.47,26.17,42.94,31.92
		c-0.37,0.97,0.1,2.06,1.06,2.45c15.46,6.46,25.29,17.67,37.31,28.71c8.11,7.46,17.52,10.1,26.97,15.08
		c11.59,6.11,12.57,24.75,21.99,33.52c5.31,4.94,13.57,3.72,19.84,2.14c4.9-1.24,9.62-3.46,14.44-5.02
		c6.42-2.08,10.89-0.6,13.83,2.66c-1.21,0.05-2.15,1.08-2.1,2.29c0,0.1,0.02,0.2,0.03,0.3c-6.89-0.67-13.83-0.42-20.66,0.73
		c-1.88,0.34-1.75,2.77-0.48,3.68c2.56,1.79,5.22,3.44,7.97,4.94c-20.88-3.83-41.91-7.93-62-14.47
		c-22.63-7.37-44.71-16.07-68.84-16.1c-0.99,0.01-1.78,0.82-1.77,1.82c0,0.3,0.08,0.6,0.23,0.86c0.49,0.72,1.04,1.37,1.58,2.03
		c-2.15-0.15-4.3-0.24-6.47-0.27c0.6-3.85,1.42-8.48-0.42-11.57l-0.07-0.12C120.12,608.04,114.48,604.93,124.66,609.58z
		 M76.6,515.11c-0.68-0.05-1.36-0.17-2.04-0.26c-0.61-1.06-1.23-2.11-1.88-3.14c0.51,0.34,1.07,0.72,1.77,1.19
		C75.02,513.76,75.75,514.51,76.6,515.11z M71.54,503.53c-1.37-0.08-2.75-0.14-4.2-0.14c-0.02,0-0.03,0.01-0.05,0.01
		c-1.66-2.46-3.33-4.9-4.97-7.35C65.33,498.64,68.41,501.11,71.54,503.53z M47.04,457.23c2.98,4.68,4.78,7.38,0.79,7.61l0.01,0
		C47.39,462.33,47.13,459.79,47.04,457.23z M47.39,449.79L47.39,449.79c0.61-3.34,1.42-6.64,2.43-9.88
		C49.68,446.98,58.75,446.93,47.39,449.79z M151.43,256.62c0.1,0.17,0.22,0.34,0.36,0.48l0,0c2.44,2.57,4.53,5.46,6.21,8.58
		c-4.77-0.56-9.48-1.44-14.21-2.3c0.42-1.42,0.43-2.94,0.02-4.36c-0.24-1.01-0.57-1.99-0.99-2.94l-1.27-2.45
		c-2.67-2.92-1.58-5.38,3.28-7.37c2.07,2.7,3.55,5.76,7.09,6.74c0.13,0.04,0.29,0.04,0.43,0.07
		C151.11,253.78,150.7,255.38,151.43,256.62z M182.76,364.4L182.76,364.4c3.19,3.54,6.56,6.92,10.12,10.1
		c-5.36-2.2-10.86-4.03-16.47-5.48c-2.37-0.57-4.27,2.38-2.43,4.17c4.56,4.41,9.46,8.42,14.42,12.36c-6-2.73-12.27-4.83-18.71-6.26
		c-0.18-0.03-0.37-0.03-0.56-0.01c0.57-1.07,1.05-2.17,1.45-3.31c1.75-5.02,1.79-11.05,2.57-16.25c0.8-5.35,2.32-8.53,7.4-12.3
		c12.72-9.44,12.25,6.76,10.86,15.19c-1.87-1.2-3.95-2.05-6.13-2.52c-1.39-0.36-2.81,0.48-3.16,1.88
		C181.9,362.82,182.14,363.75,182.76,364.4z M182.69,395.45c-5.87-1.51-11.74-2.97-17.65-4.32c-1.43-0.33-2.46,1.75-1.04,2.46
		c2.35,1.15,4.88,1.9,7.48,2.22c5.68,1.67,11.36,3.37,17.02,5.11c1.97,0.6,3.05-1.83,1.87-3.22c-3.59-4.06-7.51-7.82-11.72-11.23
		c8.21,3,16.01,7.06,24.11,10.45c2.2,0.92,4.02-2.46,2.3-3.95c-6.21-5.39-12.75-10.39-19.04-15.69c5.6,2.05,11.1,4.38,16.68,6.55
		c2.58,1,4-2.53,2.48-4.27c-2.94-3.36-6.18-6.43-9.42-9.48c5.68-0.33,8.54,0.73,10.18,7.38c0.26,0.99,1.28,1.59,2.28,1.33
		c0.2-0.05,0.38-0.14,0.55-0.25c1.32,3.29,1.89,6.5-0.74,10.53c-0.62,1.09-0.26,2.48,0.82,3.13c3.69,2.56,10.15,9.31,4.7,13.4
		c-5.86-5.13-15.17-5.56-20.96-0.12c-6.39,6.01-0.68,15.54,6.49,16.59c6.07,0.89,12.76-1.67,18.78-2.12
		c9.95-0.74-6.61,4.74-9.79,4.67c-3.79-0.09-7.61-0.72-11.37-1.14c-5.33-0.58-10.71-0.23-15.92,1.04c0.66-0.74,0.59-1.88-0.15-2.54
		c-0.03-0.03-0.06-0.05-0.09-0.08c-0.14-0.11-0.29-0.22-0.43-0.33l-0.03-0.02c-31.17-24.95-78.1-36.09-99.73-71.48
		c18.3,4.74,32.91,19.39,47.46,30.74c15.5,12.1,33.48,20.32,48.53,33.11c2.17,1.85,5.31-1.17,3.17-3.17
		c-27.38-25.65-60.9-43.49-88.61-68.69c20.49,3.49,37.11,17.96,54.93,27.94c1.08,0.59,2.43,0.19,3.02-0.88
		c0.46-0.85,0.33-1.89-0.33-2.59c-13.15-14.51-29.16-25.88-43.11-39.53c13.68,4.99,25.29,14.7,39.88,17.71
		c0.36,0.06,0.72,0.04,1.06-0.08c-0.88,13.38,5.55,26.98,7.26,40.06c0.02,1.21,0.99,2.18,2.2,2.2c5.08-0.13,8.65-1.57,11.25-4.55
		c0.13,0.22,0.29,0.41,0.49,0.57C172.66,387.05,177.89,391.01,182.69,395.45z M178,425.25c-3.41,1.1-5.97,3.41-8.66,5.48
		c-0.09-0.1-0.19-0.19-0.29-0.28c-31.58-20.28-68.18-33.85-95.32-60.47c-1.69-1.85-3.42-3.67-5.17-5.46
		c6.62,1.6,12.76,4.91,18.74,8.09c9.34,4.97,17.97,11.36,26.76,17.2c20.17,13.41,42.8,23.56,63.92,35.43L178,425.25z M147,339.84
		L147,339.84c-0.06,0.24-0.08,0.48-0.12,0.72c-8.26-10.83-19.38-18.48-29.41-27.5c14.96,3.88,28.07,13.17,42.82,17.98
		c-3.26,3.48-4.85,7.33-11.11,7.13C148.17,338.17,147.27,338.86,147,339.84z M183.03,316.56L183.03,316.56
		c-11.32-12.12-26.59-19.25-38.76-30.11c7.48,4.1,15.18,7.79,23.06,11.05c1.38,0.55,2.82-0.65,3.13-2
		c4.53,6.32,12.05,9.41,18.31,15.32c0.35,0.35,0.83,0.54,1.32,0.53c-0.09,6.82-0.46,16.23-11.04,15.62
		c-1.08,0.01-2.03,0.73-2.33,1.77c-0.76,2.09-9.42-2.44-12.14-1.03c-0.15,0.08-0.28,0.17-0.42,0.25c-0.04-0.05-0.06-0.11-0.11-0.17
		c-9.65-9.93-21.47-17.45-30.72-27.68c16.53,4.76,30.91,15.06,47.27,20.61C183.08,321.56,184.64,318.29,183.03,316.56z
		 M167.09,287.91L167.09,287.91c0.28,1.25,0.68,2.47,1.18,3.65c-6.45-8.09-13.81-15.28-21.03-22.67c5.04,0.88,10.08,1.7,15.22,2.11
		c1.93,0.15,2.94-2.17,2.11-3.68c-1.68-3.25-3.54-6.4-5.56-9.45c1.89,0.01,3.78,0.01,5.67,0.01c3.36,0.01,3.36-5.22,0-5.21
		l-7.12,0.01c2.43-0.57,4.88-1.46,6.59-1.94c4.84-1.34,9.67-2.38,14.49-3.91c12.27-3.9,4.47,5.33,1.78,10.09
		C175.61,265.49,164.6,276.89,167.09,287.91z M140.84,269.31c6.16,6.48,12.65,12.61,18.59,19.27c-8.16-3.93-16.03-8.4-24.08-12.61
		C137.34,273.89,139.17,271.66,140.84,269.31z M168.7,310.49L168.7,310.49c-13.41-6.31-26.15-14-41.01-16.57
		c-1.79-0.31-4.07,1.62-2.68,3.49c7.7,10.31,18.02,17.72,27.64,25.99c-13.93-5.95-26.81-14.16-42.18-16.13
		c-2.03-0.26-2.79,2.54-1.57,3.79c9.72,9.98,21.65,17.52,31.02,27.77c-14.19-4.86-26.07-14.98-41.05-18.12
		c-1.15-0.28-2.31,0.42-2.59,1.56c-0.18,0.71,0.02,1.46,0.53,1.99c10.58,11.76,23.03,21.46,34.77,31.96
		c-14.45-9.06-29.01-17.88-46.54-18.89c-1.12,0.02-2.01,0.94-1.99,2.07c0.01,0.51,0.21,1,0.57,1.37c4.22,4.13,8.62,8.04,13.11,11.82
		c-6.19-3.62-12.95-6.15-19.99-7.48c-1.11-0.28-2.24,0.4-2.51,1.51c-0.13,0.51-0.06,1.04,0.19,1.5c4.55,8.85,10.7,16.79,18.14,23.41
		c-8.75-5.07-17.84-9.41-28.02-11.91c-1.47-0.36-3.24,1.38-2.16,2.81c5.08,6.65,10.83,12.76,17.18,18.22
		c-7.23-3.76-15.14-6.06-23.26-6.78c-1.82-0.13-2.48,2.2-1.4,3.38c3.46,3.74,7.01,7.38,10.65,10.91c-3.7-1.59-7.4-3.14-11.13-4.66
		c-1.3-0.52-2.25,1.72-0.96,2.27c6.15,2.62,12.26,5.4,18.33,8.26c21.75,19.86,46.47,35.79,74.65,45.82
		c1.94,0.69,3.75-2.24,2.07-3.56c-21.75-17.15-45.86-31.11-70.99-42.77c-5.48-4.77-10.77-9.77-15.9-15.01
		c18.05,3.17,32.91,15.61,47.91,25.55c17.35,11.51,36.91,20.65,55.86,29.28c-1.59,0.81-3.33,1.27-5.11,1.35
		c-0.45-0.01-0.82,0.34-0.83,0.79c0,0.09,0.01,0.18,0.04,0.27c-6.48-0.02-9.52,1.55-13.73,6.83c-6.1,7.65-10.87,14.44-20.89,17.47
		c-1.61,0.49-3.58,0.9-5.34,1.58c-3.86-2.61-10.04-7.8-12.72-8.16c5.46,0.72,10.93-0.03,16.32-0.77c1.33-0.18,1.55-2.02,0.75-2.84
		c-3.12-3.21-6.36-6.3-9.67-9.31c6.58,2.94,13.26,5.65,20.1,8.02c2.07,0.72,3.13-1.95,1.96-3.36
		c-11.82-14.14-28.5-22.22-43.61-32.28c-14.62-9.74-27.46-21.52-44.59-25.78c9.77-25.31,27.28-49.93,44.81-67.19
		c12.71-12.51,25.45-24.33,36.93-38.02c0.46-0.54,1.04-1.18,1.69-1.87C141.53,293.19,155.94,300.68,168.7,310.49z M87.47,401.76
		c15.93,8.16,31.2,17.53,45.69,28.04C116.86,422.31,101.52,412.9,87.47,401.76z M52.16,391.72L52.16,391.72
		c8.14,2.28,15.73,8.02,22.56,12.82c16.93,11.88,37.91,22.54,52.93,37.31c-8.47-3.25-16.75-6.88-24.92-10.84
		c-8.39-6.5-17.56-11.92-27.3-16.13c-6.48-5.83-13.29-11.27-19.92-16.96C53.3,396.02,41.72,388.81,52.16,391.72z M66.53,412.11
		L66.53,412.11L66.53,412.11c-2.84-1.34-5.71-2.63-8.65-3.75c-1.75-0.67-3.1,1.88-1.79,3.09c3.71,3.43,18.8,18.73,6.52,14.47
		c-2.7-0.93-5.54-1.38-8.4-1.33c1.43-6.26,1.95-12.27-0.08-17.28c-3.23-7.95-8.26-5.39-11.93-0.85c0.93-4.32,2.1-8.58,3.49-12.76
		C52.17,400.33,59.41,406.15,66.53,412.11z M151.82,641.9L151.82,641.9c-4.9-0.71-9.84-1.08-14.8-1.09
		c-0.89,0.02-1.6,0.76-1.58,1.66c0.01,0.55,0.3,1.05,0.77,1.34c12.39,8.12,24.89,16.99,38.09,24.27
		c-8.44-2.26-17.11-3.58-25.84-3.92c-1.21-9.95-8.32-16.11-20.17-22.16c-9.26-4.72-14.94-10.07-14.69-21.14
		C125.71,628.95,138.5,635.99,151.82,641.9z M131.9,621.65c10.78,2.03,21.35,5.02,31.6,8.92c-1.45-0.43-2.9-0.87-4.36-1.3
		c-5.28-1.53-10.55-3-15.92-4.19l-4.35-1.06C136.41,623.69,134.05,622.88,131.9,621.65z M320.35,702.49
		c-35.95,9.53-72.16,8.91-106.68,0.63c3.14-29.09,36.92-20.69,54.37-35.63c10.01-8.57,13.35-38.51-2.09-43.89
		c-10.13-3.53-19.36,1.57-28.97,4.7c-22.74,7.42-25.34-24.27-38.14-34.25c-2.7-2.1-6.51-3.12-9.65-4.27
		c-9.06-3.32-16.27-9.83-23.05-16.43c-9.08-8.84-17.5-17.38-29.21-21.97c-0.08-0.25-0.24-0.46-0.47-0.59
		c-15.43-9.55-48.91-5.59-43.85-33.48c1.71-9.41-3.91-23.83-8.42-31.89c-1.36-2.43-2.76-2.91-5.08-3.81c-1.56-0.6-5.45-0.05-7.01,0
		c3.62-0.12-18.78-10.47-10.23-12.66c7.9-2.02,9.31-13.31,10.79-19.66c0.96-6.27,5.92-8.85,14.89-7.73
		c5.65,2.4,7.78,9.63,9.37,14.84c1.87,6.11,2.62,12.43,4.94,18.42c0.9,2.32,5,14.16,9.97,11.24c8.87-5.19,7.46-20.35,16.87-23.23
		c5.07-1.55,9.26-1.93,12.79-6.12c6.02-7.13,6.15-17.27,18.78-16.88c1.11-0.01,2.01-0.91,2.01-2.03c0-0.46-0.16-0.9-0.45-1.26
		c4.98,0.13,7.28-1.81,11.6-5.03c6.11-4.57,16.17-4.35,23.31-3.65c10.65,1.05,24.47,4.49,29.68-7.71c0.45-1.05,0.42-2.6-0.83-3.16
		c-4.54-2.02-8.68-1.63-13.51-0.85c-4.67,0.76-9.18,2.25-13.98,1.59c-2.62-9.83-0.17-13.83,7.34-12.01c2.5,0.49,4.8,1.72,6.58,3.55
		c0.78,0.72,1.99,0.67,2.7-0.11c0.49-0.53,0.64-1.3,0.38-1.98c7.81-2.92,2.66-12.71-2.14-17.41c3.67-6.6,1.4-14.14-3.77-19.71
		c-0.17-0.18-0.39-0.33-0.62-0.42c-0.23-0.7-0.47-1.4-0.76-2.15c-0.28-0.98-1.17-1.66-2.19-1.67c-3.35,0.35-6.62-0.08-9.93-0.13
		c2.34-6.76,3.72-15.91-1.68-21.02c-5.89-5.57-14.34-4.22-19.85,1.92c-6.27,6.98-5.72,16.9-7.25,25.64
		c-0.19,1.06-8.48,15.45-9.31,9.21c-0.36-2.69-1.03-5.35-1.63-7.99c-1.06-4.7-10.77-32.52,0.36-29.69c1.22,0.32,2.48-0.4,2.83-1.61
		c4.98-1.87,9.95-3.73,14.93-5.6c0.91,0.91,2.39,0.91,3.3,0c3.73-4.24,8.49-3.55,12.22-7.28c5.12-5.12,3.16-14.62,2.68-20.92
		c-0.02-0.57-0.51-1.01-1.08-0.99c-0.14,0.01-0.28,0.04-0.41,0.11c-10.42-10.22-25.34-14.89-15.71-33.96
		c5.18-10.25,12.99-18.16,14.9-29.84c0.21-1.27-0.56-2.89-2.09-2.75c-9,0.83-32.62,12.55-39.18,3.04c-3.01-4.37-5.23-5.29-10.3-2.33
		c-3.4,1.99-4.99,5.75-3.31,9.45c6.95,15.26-7.57,26.79-17.01,37.73c-17.64,20.44-40.05,35.57-53.79,59.35
		c-6.68,11.55-14.66,24.61-19.94,38.2c-0.29-0.05-0.57-0.12-0.87-0.17c-1.01-0.25-2.04,0.37-2.29,1.39
		c-0.15,0.62,0.02,1.28,0.46,1.75c0.37,0.43,0.77,0.83,1.16,1.25c-2.51,6.98-3.92,14.31-4.19,21.72c-0.4,0.9-0.72,1.84-0.93,2.8
		c-0.51,2.57,3.22,3.65,3.95,1.09c7.96-6.7,10.67-6.1,8.11,1.78c-0.41,2.4-0.96,4.78-1.65,7.12h-0.04
		c-0.89,0.25-1.42,1.18-1.17,2.07c0.04,0.14,0.09,0.27,0.17,0.39c0.08,0.12,0.17,0.22,0.25,0.34c-0.04,0.14-0.08,0.29-0.12,0.43
		c-1.64,5.85-3.4,11.44-4.16,17.53c-0.81,6.21-0.74,12.49,0.22,18.68c-1.82-0.05-3.19,1.91-1.73,3.45c0.73,0.77,1.82,1.73,3,2.75
		c0.75,2.91,1.68,5.77,2.76,8.57c-0.87,0.8-0.93,2.15-0.13,3.02c0.11,0.12,0.22,0.22,0.35,0.31c0.53,0.38,1.07,0.73,1.6,1.1
		c0.53,1.21,1.06,2.41,1.65,3.63c8.44,17.51,22.26,30.54,28.55,49.29c4.21,12.55,14.13,12.81,22.6,18.55
		c-1.12,0.48-1.64,1.78-1.16,2.9c0.18,0.42,0.48,0.77,0.87,1.01c1.54,0.88,3.12,1.65,4.69,2.44c-2.17,7.76-9.94,16.49-8.69,24.96
		c0.86,5.86,3,8.78,6.78,13.27c9.57,11.35,1.81,18.67,4.92,29.95c2.47,8.99,12.3,14.02,19.85,17.74
		c7.65,3.78,14.22,8.21,15.64,17.03c-0.62,0.59-0.64,1.56-0.06,2.18c0.09,0.09,0.19,0.18,0.3,0.25c0.01,0.29,0.08,0.54,0.08,0.83
		c0.04,2.59-0.26,5.14-0.31,7.7c-20.13-11.59-38.84-25.49-55.77-41.4C22.14,571.31-11.84,477.95,13.05,388.05
		c23.68-85.54,101.35-159.58,188.32-179.49c-7.51,9.71-16.19,25.52-0.25,27.03c7.62,0.72,17-8.32,22.89-11.96
		c7.99-4.95,17.02-1.97,25.54-0.76c7.57,1.07,18.82-3.12,25.7,0.62c5.54,3.01,9.1,6.96,15,9.44c3.03,1.27,6.21,1.33,9.33,1.32
		c2.12,1.88,4.29,3.71,6.59,5.41c1.53,1.13,3.63-0.41,3.64-2.09c0.01-0.67-0.06-1.31-0.09-1.97c2.55,1.2,4.85,3.46,6.73,7.72
		c1.46,3.33,3.42,3.8,6.37,4.72c8.93,2.8,11.23,5.45,10.61,13.86c-0.28,3.8,6.88,12.29,12.64,19.88c-0.03,0.61,0.23,1.19,0.7,1.57
		c0.49,0.45,0.98,0.89,1.47,1.34c6.55,9.05,9.14,15.57-9.4,8.66c-0.95-0.27-1.94,0.29-2.21,1.24c0,0,0,0.01,0,0.01
		c-2.37,15.48-4.68,33.58,7.16,45.66c6.95,7.09,3.15,19.16,14.49,19.76c7.67,0.41,8.61-9.51,8.45-14.74
		c-0.16-2.69-0.47-5.37-0.9-8.03c-1.46-11.09,7.31,2.63,6.87,5.87c-0.07,0.53-7.14,21.84-8.89,21.86c-0.9,0-1.68,0.6-1.93,1.47
		c-0.94,4.11-0.67,7.35-0.15,11.6c1.33,10.93-5.49,17.25-12.47,24.17c-0.7,0.72-0.67,1.87,0.05,2.57c0.21,0.2,0.46,0.35,0.74,0.43
		c10.99,4.14-5.08,14.87-0.2,22.72c3.48,5.58,8.99,9.08,11.71,15.36c1.67,3.87,3.46,5.87,7.6,6.61c8.66,1.54,17.65-8.64,17.49-16.76
		c-0.1-4.99-4.23-15.17-0.18-17.94c3.09-2.12,5.26-4.16,5.41-8.25c0.55-14.13,9.9-17.02,22.02-17.4c5.27-0.17,1.6,4.66,4.85,7.91
		c4.95,4.94,9.76-1.55,10.64-6.15c0.48-2.54-3.37-8.9-0.64-10.11c2.55-1.12,5.08-2.46,5.69-5.21c4.13,12.95,12.21,15.22,20.07,7.62
		c-0.02,0.58,0.18,1.15,0.57,1.58c12.74,14.55-3,20.11-9.9,26.67c-3.15,3-0.56,11.14-1.29,14.94c-2.46,12.74-19.72-0.62-25.83,0.46
		c-11.2,1.99-11.01,9.33-20.05,15.53c-8.69,5.97-18.81,8.27-26.97,15.32c-7.91,6.83-11.75,17.82-14.7,27.46
		c-1.6,4.92-2.39,10.06-2.35,15.24c-0.01,13.91,0.22,9.91-5.72,18.73c-4.36,6.48-2.78,11.34,0.01,18.4
		c4.4,11.16,11.15,20.79,14.71,32.39c1.59,5.17,2.13,13.44,6.37,17.46c9.89,9.37,26.35,0.89,34.89-6.35
		c3.25-2.76,14.4-16.72,19.35-9.98c4.81,6.53,8.78,13.48,9.52,21.73c1.27,14.14-18.38,26.48-27.33,35.27
		c-11.95,11.74-20.04,26.02-11.89,42.08c0,0.01,0.01,0.01,0.02,0.02C371.12,684.77,346.32,695.52,320.35,702.49L320.35,702.49z
		 M395.6,669.53c-11.37-29.33,23.1-40.81,36.12-60.46c10.72-16.17,3.27-29.9-7.38-44.11c-0.52-0.87-1.55-1.29-2.53-1.03
		c-16.31,5.47-23.47,21.47-41.86,23.62c-7.55,0.89-12.97-13.86-17.01-25.78c5.87,9.2,13.75,16.95,23.05,22.66
		c0.98,0.55,2.22,0.19,2.77-0.79c0.34-0.61,0.34-1.36,0-1.98c-2.51-3.87-5.06-7.7-7.67-11.49c3.58,3.24,7.44,6.16,11.54,8.71
		c1.65,1.01,3.95-1.07,2.75-2.75c-3.24-4.58-6.7-8.98-10.23-13.32c4.73,3.98,9.88,7.43,15.37,10.28c0.83,0.46,1.88,0.16,2.34-0.67
		c0.29-0.52,0.29-1.15,0-1.67c-5.21-9.45-11.69-17.9-18.43-26.16c7.73,6.83,16.44,12.45,25.85,16.67c1.68,0.72,4.25-0.95,2.86-2.86
		c-6.86-9.38-14.27-18.33-22.2-26.83c24.73,19.25,49.09,39.87,64.49,66.81c-4.3-3.01-8.64-5.95-13.23-8.58
		c-1.88-1.08-3.5,0.99-2.73,2.73c1.69,3.72,3.61,7.34,5.72,10.83c-2.01-1.25-4.09-2.43-6.33-3.57c-0.95-0.52-2.15-0.17-2.67,0.78
		c-0.32,0.59-0.32,1.3,0,1.89c2.33,4.98,4.94,9.82,7.46,14.71c-2.93-1.97-6.03-3.69-9.25-5.14c-1.36-0.61-3.31,0.4-2.74,2.11
		c1.59,4.77,2.73,12.63,6.58,15.77c-3.41-2.78-7.79-4.65-11.69-6.63c-0.8-0.45-1.81-0.16-2.26,0.64c-0.21,0.37-0.26,0.81-0.16,1.22
		c2.02,7.09-1.2,4.77-6.82,3.49c-1.14-0.26-2.5,0.78-2.04,2.04c1.67,4.72,3.58,9.34,5.72,13.86c-1.35-2.83-11.04-4.99-13.7-5.71
		c-0.77-0.19-1.55,0.27-1.74,1.04c-0.06,0.23-0.06,0.47,0,0.7c1.97,11.33,3.48,12.15-5.77,6.33c-0.58-0.33-1.32-0.12-1.65,0.46
		c-0.15,0.27-0.2,0.6-0.12,0.9c1.85,5.22,2.28,10.77,2.52,16.27c0.02,0.47,0.41,0.85,0.89,0.83c0.45-0.01,0.81-0.38,0.83-0.83
		c0.22-8.37-5.23-19.04,5.97-9.04c0.52,0.5,1.35,0.47,1.85-0.05c0.31-0.32,0.43-0.78,0.32-1.21c-4.88-16.29,2.01-11.57,13.36-5.07
		C414.8,656.55,405.4,663.35,395.6,669.53z M368.97,563.16c0.66,0.13,1.33-0.17,1.68-0.75c2.78,3.81,5.51,7.66,8.17,11.55
		C375.22,570.67,371.92,567.05,368.97,563.16z M425.95,647.32L425.95,647.32c-0.02-0.05-0.02-0.09-0.04-0.13
		c-4.74-8.74-10.97-15.98,1.58-13.14c0.89,0.23,1.8-0.31,2.03-1.2c0.07-0.27,0.07-0.56,0-0.83c-2.68-9.35,6.52,0.36,9.4,2.72
		c0.18,0.14,0.38,0.25,0.6,0.31C435.15,639.29,430.63,643.38,425.95,647.32z M441.65,632.96L441.65,632.96
		c-1.58-4.95-3.1-9.91-4.73-14.83c-1.28-3.84,8.8,5.02,10.85,6.9c0.31,0.26,0.7,0.41,1.11,0.44
		C446.52,628.02,444.11,630.51,441.65,632.96z M450.77,623.45L450.77,623.45c-0.01-0.28-0.08-0.54-0.19-0.79
		c-2.59-5.6-5.53-11.02-8.29-16.54c3.15,1.84,6.04,4.1,8.58,6.72c0.8,0.75,2.06,0.72,2.81-0.08c0.59-0.63,0.71-1.56,0.3-2.32
		c-2.58-4.58-5.35-8.97-7.85-13.54c4.74,3.08,9.31,6.38,13.98,9.64c1.8,1.25,3.55-1.1,2.75-2.75c-20.26-41.8-60.83-69-96.41-96.78
		c-2.18-1.7-5.25,1.13-3.12,3.12c14.61,13.63,28.61,27.72,40.93,43.41c-14.93-8.48-26.78-21.02-39.12-33.05
		c-1.81-1.76-4.19,0.82-2.7,2.7c11.69,14.81,24.87,28.45,34.91,44.5c-2.38-3.81-13.29-10.43-18.26-15.2
		c-6.14-5.88-11.99-11.99-18.38-17.61c-0.74-0.74-1.95-0.74-2.69,0c-0.74,0.74-0.74,1.95,0,2.69c8.88,9.58,17.65,19.16,25.66,29.41
		c-6.9-6.22-12.97-13.3-19.49-20.09c-1.95-2.03-4.68,0.92-3.02,3.02c2.4,3.03,4.75,6.09,7.05,9.18c-1.22-0.7-2.53-1.22-3.9-1.54
		c-1-0.28-2.04,0.27-2.37,1.25c-1.02-3.34-2.26-6.61-3.72-9.79c-5.11-9.61-12.68-19.21-4.03-30.41c4.51-5.84,4.86-10.56,3.92-17.77
		c-1.79-13.74,7.36-30.03,15.78-39.86c6.27-7.32,17.92-10.23,26.18-14.65c3.88-2.08,6.35-5.01,8.69-8.62
		c10.03-15.5,15.95-0.02,25.6-0.74c5.49-0.41,13.25-0.42,13.82-7.44c0.29-3.61,3.08-6.89,1.59-10.62c-2.44-6.14,5.85-5.16,7.77-8.75
		c1.07-2,2.08-3.88,2.95-5.67c9.53,12.47,21.1,23.47,29.64,36.57c-10.48-8.81-20.06-18.65-32.12-25.43
		c-2.12-1.19-5.13,1.33-3.54,3.54c12.42,17.31,28.29,31.83,41.13,48.73c-14.99-11.45-28.16-25.47-45.99-32.49
		c-2.2-0.87-3.6,1.89-2.76,3.6c9.87,20.29,25,36.64,39.96,53.19c-21.25-14.87-37.95-35.65-59.77-50.01
		c-2.2-1.45-4.81,1.37-3.52,3.52c14.13,23.73,33.37,43.35,51.59,63.85c-23.17-21.44-42.99-46.9-71.4-61.65
		c-1.98-1.03-4.6,1.14-3.23,3.23c22.15,33.83,52.25,61.25,76.82,93.12c-30.19-28.5-54.88-62.88-91.26-84.23
		c-2.23-1.31-4.28,1.21-3.3,3.3c15.28,32.68,43.06,55.77,66.76,82.14c-24.48-24.93-47.34-51.48-75.35-72.67l-0.01-0.01
		c-0.14-0.11-0.28-0.22-0.42-0.33c-1.65-1.24-4.14,1.23-2.88,2.88c17.74,23.26,35.42,46.57,53.9,69.21
		c-6.84-5.99-13.67-12.05-20.35-18.41c-10.49-9.98-28.6-32.83-45.23-30.55c-0.94,0.13-0.72,1.75,0.22,1.65
		c16.95-1.77,35.93,24.56,46.87,35.28c12.3,12.04,25.1,22.99,37.38,34.5c8.95,10.31,18.18,20.38,27.7,30.21
		C465.09,606.45,458.23,615.21,450.77,623.45z M474.33,592.61c-7.6-9.07-15.78-17.63-24.49-25.64
		c-22.73-25.82-43.88-52.97-64.94-80.21c30.67,26.15,55.5,58.59,85.59,85.44c1.94,1.73,5.26-0.52,3.73-2.88
		c-23.87-36.74-61.73-62.39-83.27-100.6c38.4,24.94,63.45,65.49,99.32,93.66c0.04,0.03,0.09,0.04,0.13,0.07
		C485.87,572.92,480.5,583,474.33,592.61z M497.93,542.11c-1.53,5.02-3.34,9.93-5.26,14.79c-24.2-35.81-57.09-64.57-82.24-99.6
		c31.11,19.75,52.31,52.22,82.59,73.36c2.56,1.79,4.65-1.9,3.05-3.96c-19.25-24.81-42.62-46.23-60.59-71.95
		c21.1,16.86,38.45,38.27,63.04,50.51c1.25,0.68,2.82,0.22,3.51-1.03c0.54-0.98,0.38-2.2-0.39-3.01
		c-16.27-18.98-34.71-36.45-47.14-58.26c18.28,9.34,31.99,26.16,49.61,36.76c1.2,0.67,2.71,0.23,3.38-0.97
		c0.42-0.75,0.42-1.66,0-2.41c-10.51-17.07-24.86-31.02-37.78-46.17c9.28,7.61,17.79,16.25,27.66,23.19c2.47,1.74,4.6-1.5,3.67-3.67
		c-6.38-14.95-17.69-26.43-28.19-38.55c7.75,4.71,15.25,9.81,24.02,12.73c2.4,0.8,4.32-2.07,3.16-4.11
		c-6.49-11.43-16.45-19.68-25.59-28.78c6.17,3.6,12.31,7.24,19.09,9.75c2.29,0.85,4.75-2.24,3.27-4.25
		c-5.94-7.92-12.74-15.15-20.28-21.55c2.52,1.49,5.25-2.29,3.11-4.35c-9.27-8.95-17.14-19.14-26-28.44
		c0.02-0.09,0.01-0.18,0.03-0.28c4.33,3.56,8.71,7.06,13.23,10.41l0.04,0.03c0.19,0.14,0.36,0.29,0.55,0.43
		c2.05,1.51,4.5-1,4.01-3.06c4.76,5.3,9.51,10.59,15.81,13.95C509.39,420.68,515.2,485.61,497.93,542.11L497.93,542.11z"/>
	<path d="M273.23,289.82c-1.5-5.96-2.46-9.21-7.88-12.12c-1.83-0.98-4.38,1.11-3.03,3.03c-1.66-2.37,0.74-2.27-4.07-0.69
		c-2.69,0.88-5.44,1.61-8.17,2.36c-4.95,1.37-14.42,1.73-14.75,6.06c0.17-2.3-2.74-2.48-3.85-1.04c-5.39,6.99-3.23,25.1,1.11,32.52
		c1.81,3.08,2.85,6.55,3.05,10.12c-0.6-0.18-1.17-0.42-1.79-0.58c-1.19-0.31-2.4,0.41-2.71,1.6c-0.09,0.37-0.09,0.75,0,1.11
		c0.93,2.87,2.14,5.64,3.62,8.26c-0.61,3.15-1.38,6.31-1.96,9.49c-0.59-0.11-1.14-0.28-1.75-0.36c-1.07,0.01-1.93,0.89-1.92,1.96
		c0,0.33,0.09,0.66,0.25,0.94c0.89,1.25,1.77,2.51,2.68,3.76c-0.25,3.96,0.42,7.93,1.97,11.58c3.83,8.86,14.73,14.33,23.04,6.62
		c11.14-10.34,7.42-27.26,16.69-37.75c0.36-0.38,0.33-0.98-0.05-1.34c-0.36-0.34-0.93-0.34-1.29,0c-4.6,3.76-6.06,10.25-7.9,15.64
		c-2.21,6.48-4.2,13.01-8.53,18.46c-7.9,9.95-14.35,3-17.44-5.43c2.14,2.12,4.64,3.85,7.38,5.1c0.58,0.31,1.3,0.1,1.61-0.48
		c0.3-0.55,0.12-1.24-0.41-1.58c-4.06-2.9-7.59-6.49-10.4-10.61c-0.06-0.53-0.1-1.04-0.12-1.53c3.95,1.53,7.68,3.58,11.1,6.08
		c1.81,1.26,3.63-1.11,2.79-2.79c-3.17-6.34-7.55-11.94-11.02-18.04c0.36-1.2,0.69-2.4,0.99-3.6c3.61,1.71,7.12,3.61,10.51,5.71
		c1.04,0.58,2.35,0.2,2.93-0.84c0.36-0.65,0.36-1.44,0-2.09c-3.2-5.54-6.84-10.82-10.88-15.77c8.61,1.75,16.48,5.6,25.01,8.02
		c1.79,0.51,3.9-1.71,2.61-3.4c-3.59-4.53-7.76-8.57-12.4-12.01c4.98,2.17,10.07,4.08,15.25,5.7c2.69,0.83,3.98-2.44,2.5-4.29
		c-3.79-4.52-7.92-8.74-12.35-12.64c3.47,1.41,6.89,2.94,10.3,4.59c2.22,1.08,5.24-1.24,3.65-3.65c-2.02-2.99-4.62-5.55-7.63-7.53
		c-1.61-1.15-3.5,0.29-3.86,1.9c-4-1.63-8.06-3.11-12.24-4.41c-2.61-0.81-4.27,2.53-2.55,4.39c4.37,4.7,9.23,8.85,13.83,13.28
		c-8.91-3.48-17.49-7.74-26.2-11.76c-2.39-1.1-5.36,1.98-3.02,3.92c7.99,6.62,17.05,11.8,24.72,18.68
		c-7.46-2.62-14.74-5.44-22.83-6.1c-3.81-8.21-8.29-19.83-3.36-27.83c8.92-1.12,22.45-3.07,29.99-7.99
		c4.48,3.56,4.34,10.07,6.65,14.89c1.51,3.14,7.57,5.82,10.22,7.6c8.78,5.9-2.45,19.61-3.57,28.84c-0.24,1.98,2.82,2.67,3.69,1
		c2.64-5.1,12.76-25.27,7.71-30.31C283.78,299.13,275.44,298.64,273.23,289.82z M241.33,328.59L241.33,328.59
		c1.45,1.84,2.84,3.72,4.19,5.63c-1.39-0.74-2.81-1.42-4.25-2.05C241.39,330.98,241.42,329.78,241.33,328.59z M237.88,345.68
		c1.67,2.6,3.41,5.16,5.09,7.77c-1.97-1.03-4.03-1.89-6.16-2.57C237.06,349.12,237.41,347.39,237.88,345.68z"/>
</g>
</svg>
