<?xml version="1.0" encoding="utf-8"?>
<!-- Generator: Adobe Illustrator 23.1.1, SVG Export Plug-In . SVG Version: 6.00 Build 0)  -->
<svg version="1.1" id="Calque_1" xmlns="http://www.w3.org/2000/svg" xmlns:xlink="http://www.w3.org/1999/xlink" x="0px" y="0px"
	 viewBox="0 0 331.71 136.49" style="enable-background:new 0 0 331.71 136.49;" xml:space="preserve">
<style type="text/css">
	.st0{fill:#FFFFFF;}
	.st1{fill:#5AA86F;}
	.st2{fill:#485175;}
	.st3{fill:#F7E8D3;}
	.st4{fill:#F1573F;}
	.st5{fill:#2D302F;}
	.st6{fill:#FFFFFF;stroke:#000000;stroke-miterlimit:10;}
	.st7{fill:#E7F4EC;}
	.st8{fill:#547146;}
	.st9{fill:#BCCBBC;}
	.st10{fill:#EAE9DC;}
	.st11{fill:#275E39;}
	.st12{fill:#050008;}
	.st13{clip-path:url(#SVGID_2_);}
	.st14{stroke:#000000;stroke-width:1.7036;stroke-miterlimit:10;}
	.st15{fill:#F9F8F4;}
	.st16{fill:#148B20;stroke:#1C881F;stroke-miterlimit:10;}
	.st17{fill:#148B20;stroke:#148B20;stroke-miterlimit:10;}
	.st18{stroke:#000000;stroke-miterlimit:10;}
	.st19{fill:#148B20;}
	.st20{enable-background:new    ;}
	.st21{fill:#F8F7F3;}
	.st22{fill:#1C8B20;stroke:#1C8B20;}
	.st23{fill:#048D14;}
	.st24{fill:none;stroke:#000000;stroke-width:5;stroke-linecap:round;stroke-linejoin:round;}
	.st25{stroke:#000000;stroke-width:4.669952e-03;stroke-miterlimit:10;}
	.st26{stroke:#000000;stroke-width:0.096;stroke-miterlimit:10;}
	.st27{stroke:#000000;stroke-width:0.0566;stroke-miterlimit:10;}
	.st28{stroke:#000000;stroke-width:0.0902;stroke-miterlimit:10;}
	.st29{stroke:#000000;stroke-width:0.0884;stroke-miterlimit:10;}
	.st30{stroke:#000000;stroke-width:0.167;stroke-miterlimit:10;}
	.st31{stroke:#000000;stroke-width:0.0762;stroke-miterlimit:10;}
	.st32{stroke:#000000;stroke-width:0.0219;stroke-miterlimit:10;}
	.st33{stroke:#000000;stroke-width:0.0543;stroke-miterlimit:10;}
	.st34{stroke:#000000;stroke-width:0.0601;stroke-miterlimit:10;}
	.st35{stroke:#000000;stroke-width:0.0782;stroke-miterlimit:10;}
	.st36{stroke:#000000;stroke-width:0.3088;stroke-miterlimit:10;}
	.st37{stroke:#000000;stroke-width:0.1976;stroke-miterlimit:10;}
	.st38{stroke:#000000;stroke-width:0.2875;stroke-miterlimit:10;}
	.st39{stroke:#000000;stroke-width:0.059;stroke-miterlimit:10;}
	.st40{stroke:#000000;stroke-width:0.2493;stroke-miterlimit:10;}
	.st41{stroke:#000000;stroke-width:0.5508;stroke-miterlimit:10;}
	.st42{stroke:#000000;stroke-width:0.676;stroke-miterlimit:10;}
	.st43{stroke:#000000;stroke-width:0.4515;stroke-miterlimit:10;}
	.st44{stroke:#000000;stroke-width:1.704;stroke-miterlimit:10;}
</style>
<g>
	<g class="st20">
		<path class="st19" d="M17.28,106.49l-2.16-1.08H0l2.16-2.16V85.97L0,83.81h11.88l4.32-1.08l1.08,7.56H16.2l-3.24-4.32H8.64
			l-1.08,1.08v5.4l1.08,1.08h3.24l3.24-3.24v8.64l-3.24-3.24H8.64l-1.08,1.08v5.4l1.08,1.08h5.4l3.24-5.4h1.08L17.28,106.49z"/>
		<path class="st19" d="M38.88,90.29l-2.16-3.24l-4.32-1.08v17.28l2.16,2.16h-9.72l2.16-2.16V85.97l-4.32,1.08l-2.16,3.24h-1.08
			l1.08-7.56l4.32,1.08h9.72l4.32-1.08l1.08,7.56H38.88z"/>
		<path class="st19" d="M64.79,105.41h-5.4l-4.32-2.16l-3.24-3.24l-1.08-5.4l1.08-5.4l3.24-3.24l4.32-2.16h5.4l4.32,2.16l2.16,3.24
			l-2.16,3.24h-3.24v-5.4l-2.16-1.08h-2.16l-2.16,1.08l-2.16,3.24v8.64l2.16,3.24l2.16,1.08h2.16l3.24-1.08l2.16-3.24l2.16,1.08
			l-2.16,3.24L64.79,105.41z"/>
		<path class="st19" d="M89.63,106.49l-2.16-1.08H72.36l2.16-2.16V85.97l-2.16-2.16h11.88l4.32-1.08l1.08,7.56h-1.08l-3.24-4.32H81
			l-1.08,1.08v5.4L81,93.53h3.24l3.24-3.24v8.64l-3.24-3.24H81l-1.08,1.08v5.4l1.08,1.08h5.4l3.24-5.4h1.08L89.63,106.49z"/>
		<path class="st19" d="M106.92,105.41l-9.72-16.2l1.08,14.04l2.16,2.16h-7.56l2.16-2.16V85.97l-2.16-2.16h7.56l9.72,16.2
			l-1.08-14.04l-2.16-2.16h7.56l-2.16,2.16v19.43H106.92z"/>
		<path class="st19" d="M134.99,90.29l-2.16-3.24l-4.32-1.08v17.28l2.16,2.16h-9.72l2.16-2.16V85.97l-4.32,1.08l-2.16,3.24h-1.08
			l1.08-7.56l4.32,1.08h9.72l4.32-1.08l1.08,7.56H134.99z"/>
		<path class="st19" d="M150.11,83.81l3.24,1.08l3.24,4.32l-2.16,5.4l-4.32,1.08v1.08l3.24,1.08l4.32,7.56l-1.08,1.08l-5.4-2.16
			l-3.24-6.48l-1.08-1.08l-2.16-1.08v7.56l2.16,2.16h-9.72l2.16-2.16V85.97l-2.16-2.16H150.11z M151.19,90.29l-1.08-3.24l-2.16-1.08
			h-2.16l-1.08,1.08v7.56h3.24l2.16-1.08L151.19,90.29z"/>
		<path class="st19" d="M176.03,106.49l-2.16-1.08h-15.12l2.16-2.16V85.97l-2.16-2.16h11.88l4.32-1.08l1.08,7.56h-1.08l-3.24-4.32
			h-4.32l-1.08,1.08v5.4l1.08,1.08h3.24l3.24-3.24v8.64l-3.24-3.24h-3.24l-1.08,1.08v5.4l1.08,1.08h5.4l3.24-5.4h1.08L176.03,106.49
			z"/>
	</g>
	<g class="st20">
		<path class="st19" d="M11.88,113.81l5.4,1.08l4.32,4.32l1.08,5.4l-1.08,5.4l-4.32,4.32l-4.32,1.08H0l2.16-2.16v-17.28L0,113.81
			H11.88z M15.12,118.13l-1.08-1.08l-2.16-1.08H8.64l-1.08,1.08v15.12l1.08,1.08h3.24l2.16-1.08l1.08-1.08l1.08-2.16v-8.64
			L15.12,118.13z"/>
		<path class="st19" d="M42.12,136.49l-2.16-1.08H24.84l2.16-2.16v-17.28l-2.16-2.16h11.88l4.32-1.08l1.08,7.56h-1.08l-3.24-4.32
			h-4.32l-1.08,1.08v5.4l1.08,1.08h3.24l3.24-3.24v8.64l-3.24-3.24h-3.24l-1.08,1.08v5.4l1.08,1.08h5.4l3.24-5.4h1.08L42.12,136.49z
			"/>
		<path class="st19" d="M69.12,135.41h-5.4l-4.32-2.16l-3.24-3.24l-1.08-5.4l1.08-5.4l3.24-3.24l4.32-2.16h5.4l4.32,2.16l2.16,3.24
			l-2.16,3.24H70.2v-5.4l-2.16-1.08h-2.16l-2.16,1.08l-2.16,3.24v8.64l2.16,3.24l2.16,1.08h2.16l3.24-1.08l2.16-3.24l2.16,1.08
			l-2.16,3.24L69.12,135.41z"/>
		<path class="st19" d="M85.32,135.41L81,133.25l-3.24-3.24l-1.08-5.4l1.08-5.4l3.24-3.24l4.32-2.16h5.4l4.32,2.16l3.24,3.24
			l1.08,5.4l-1.08,5.4l-3.24,3.24l-4.32,2.16H85.32z M88.56,133.25l2.16-1.08l2.16-3.24v-8.64l-2.16-3.24l-2.16-1.08h-1.08
			l-2.16,1.08l-2.16,3.24v8.64l2.16,3.24l2.16,1.08H88.56z"/>
		<path class="st19" d="M115.55,135.41l-9.72-16.2l1.08,14.04l2.16,2.16h-7.56l2.16-2.16v-17.28l-2.16-2.16h7.56l9.72,16.2
			l-1.08-14.04l-2.16-2.16h7.56l-2.16,2.16v19.43H115.55z"/>
		<path class="st19" d="M139.31,135.41l-9.72-16.2l1.08,14.04l2.16,2.16h-7.56l2.16-2.16v-17.28l-2.16-2.16h7.56l9.72,16.2
			l-1.08-14.04l-2.16-2.16h7.56l-2.16,2.16v19.43H139.31z"/>
		<path class="st19" d="M147.96,135.41l2.16-2.16l7.56-17.28v-1.08l4.32-2.16l7.56,20.51l2.16,2.16H162l2.16-2.16l-1.08-3.24h-8.64
			l-1.08,3.24l2.16,2.16H147.96z M158.76,119.21l-3.24,8.64H162l-3.24-9.72V119.21z"/>
		<path class="st19" d="M182.52,135.41h-9.72l2.16-2.16v-17.28l-2.16-2.16h9.72l-2.16,2.16v17.28L182.52,135.41z"/>
		<path class="st19" d="M197.63,120.29l-4.32-5.4h-2.16l-1.08,1.08v2.16l8.64,6.48l1.08,5.4l-2.16,4.32l-3.24,1.08h-2.16l-4.32-1.08
			l-2.16,1.08l-1.08-8.64h1.08l4.32,6.48h4.32l1.08-1.08v-2.16l-9.72-7.56l-1.08-3.24l1.08-4.32l3.24-2.16l6.48,1.08l2.16-1.08
			l1.08,7.56H197.63z"/>
		<path class="st19" d="M214.91,120.29l-4.32-5.4h-2.16l-1.08,1.08v2.16l8.64,6.48l1.08,5.4l-2.16,4.32l-3.24,1.08h-2.16l-4.32-1.08
			l-2.16,1.08l-1.08-8.64h1.08l4.32,6.48h4.32l1.08-1.08v-2.16l-9.72-7.56l-1.08-3.24l1.08-4.32l3.24-2.16l6.48,1.08l2.16-1.08
			l1.08,7.56H214.91z"/>
		<path class="st19" d="M217.08,135.41l2.16-2.16l7.56-17.28v-1.08l4.32-2.16l7.56,20.51l2.16,2.16h-9.72l2.16-2.16l-1.08-3.24
			h-8.64l-1.08,3.24l2.16,2.16H217.08z M227.88,119.21l-3.24,8.64h6.48l-3.24-9.72V119.21z"/>
		<path class="st19" d="M255.95,135.41l-9.72-16.2l1.08,14.04l2.16,2.16h-7.56l2.16-2.16v-17.28l-2.16-2.16h7.56l9.72,16.2
			l-1.08-14.04l-2.16-2.16h7.56l-2.16,2.16v19.43H255.95z"/>
		<path class="st19" d="M279.71,135.41h-5.4l-4.32-2.16l-3.24-3.24l-1.08-5.4l1.08-5.4l3.24-3.24l4.32-2.16h5.4l4.32,2.16l2.16,3.24
			l-2.16,3.24h-3.24v-5.4l-2.16-1.08h-2.16l-2.16,1.08l-2.16,3.24v8.64l2.16,3.24l2.16,1.08h2.16l3.24-1.08l2.16-3.24l2.16,1.08
			l-2.16,3.24L279.71,135.41z"/>
		<path class="st19" d="M304.55,136.49l-2.16-1.08h-15.12l2.16-2.16v-17.28l-2.16-2.16h11.88l4.32-1.08l1.08,7.56h-1.08l-3.24-4.32
			h-4.32l-1.08,1.08v5.4l1.08,1.08h3.24l3.24-3.24v8.64l-3.24-3.24h-3.24l-1.08,1.08v5.4l1.08,1.08h5.4l3.24-5.4h1.08L304.55,136.49
			z"/>
	</g>
	<g id="Groupe_150" transform="translate(-416.099 -6557.592)">
		<path id="Tracé_182" class="st19" d="M416.23,6557.59c0,8.86,12.58,74.03,12.58,74.03l319-12.44l-10.2-39.69H557.86l-9.36-21.9
			L416.23,6557.59z"/>
		<g class="st20">
			<path class="st21" d="M456.31,6618.3l-2.08,2.23l-3.2,1.19l-4.32,0.15l-4.36-0.93l-2.23-2.08l-1.19-3.2l-0.45-12.95l-2.23-2.08
				l9.71-0.34l-2.08,2.23l0.42,11.87l1.19,3.2l1.12,1.04l2.2,1l2.16-0.08l2.12-1.15l1-2.2l-0.49-14.03l-2.23-2.08l7.55-0.26
				l-2.08,2.23l0.45,12.95L456.31,6618.3z"/>
			<path class="st21" d="M475.3,6620.88l-10.28-15.85l1.57,13.99l2.23,2.08l-7.55,0.26l2.08-2.23l-0.61-17.27l-2.23-2.08l7.55-0.26
				l10.28,15.84l-1.57-13.99l-2.23-2.08l7.55-0.26l-2.08,2.23l0.68,19.42L475.3,6620.88z"/>
			<path class="st21" d="M503.35,6619.89l-4.39-2.01l-3.35-3.12l-1.27-5.36l0.89-5.43l3.12-3.35l4.24-2.31l5.39-0.19l4.39,2.01
				l3.35,3.12l1.27,5.36l-0.89,5.43l-3.12,3.35l-4.24,2.31L503.35,6619.89z M506.51,6617.62l2.12-1.16l2.04-3.31l-0.3-8.63
				l-2.27-3.16l-2.2-1l-1.08,0.04l-2.12,1.15l-2.04,3.31l0.3,8.63l2.27,3.16l2.2,1L506.51,6617.62z"/>
			<path class="st21" d="M528.49,6597.4l6.51,0.85l2.31,4.24l-2.04,3.31l-3.2,1.19l4.35,0.93l2.31,4.24l-2.01,4.39l-5.32,2.35
				l-12.95,0.45l2.08-2.23l-0.61-17.26l-2.23-2.08L528.49,6597.4z M525.37,6600.75l0.23,6.47l1.08-0.04l3.2-1.19l2.04-3.31
				l-1.15-2.12l-2.2-1l-2.16,0.08L525.37,6600.75z M525.9,6615.86l1.12,1.04l2.16-0.08l3.2-1.19l0.97-3.27l-2.27-3.16l-3.27-0.96
				l-2.16,0.08L525.9,6615.86z"/>
			<path class="st21" d="M553.53,6603.01l-4.5-5.24l-2.16,0.08l-1.04,1.12l0.08,2.16l8.86,6.17l1.27,5.36l-2.01,4.39l-3.2,1.19
				l-2.16,0.08l-4.35-0.93l-2.12,1.15l-1.38-8.6l1.08-0.04l4.54,6.32l4.32-0.15l1.04-1.12l-0.08-2.16l-9.98-7.21l-1.19-3.2
				l0.93-4.35l3.16-2.27l6.51,0.85l2.12-1.15l1.34,7.51L553.53,6603.01z"/>
			<path class="st21" d="M575.68,6618.44l-2.2-1l-15.11,0.53l2.08-2.23l-0.61-17.26l-2.23-2.08l11.87-0.42l4.28-1.23l1.34,7.52
				l-1.08,0.04l-3.39-4.2l-4.32,0.15l-1.04,1.12l0.19,5.4l1.12,1.04l3.24-0.11l3.12-3.35l0.3,8.63l-3.35-3.12l-3.24,0.11l-1.04,1.12
				l0.19,5.4l1.12,1.04l5.4-0.19l3.05-5.51l1.08-0.04L575.68,6618.44z"/>
			<path class="st21" d="M591.07,6595.21l3.28,0.97l3.39,4.2l-1.97,5.47l-4.28,1.23l0.04,1.08l3.27,0.97l4.58,7.4l-1.04,1.12
				l-5.47-1.97l-3.46-6.36l-1.12-1.04l-2.2-1l0.26,7.55l2.23,2.08l-9.71,0.34l2.08-2.23l-0.61-17.26l-2.23-2.08L591.07,6595.21z
				 M592.37,6601.65l-1.19-3.2l-2.2-1l-2.16,0.08l-1.04,1.12l0.26,7.55l3.24-0.11l2.12-1.16L592.37,6601.65z"/>
			<path class="st21" d="M613.8,6596.58l-2.23-2.08l8.63-0.3l-2.08,2.23l-7.95,19.73l-3.2,1.19l-8.27-20.24l-2.23-2.08l10.79-0.38
				l-2.08,2.23l4.77,12.8l0.08,2.16L613.8,6596.58z"/>
			<path class="st21" d="M616.64,6615.92l2.08-2.23l6.95-17.53l-0.04-1.08l4.24-2.31l8.27,20.24l2.23,2.08l-9.71,0.34l2.08-2.23
				l-1.19-3.2l-8.63,0.3l-0.97,3.28l2.23,2.08L616.64,6615.92z M626.86,6599.36l-2.93,8.75l6.47-0.23l-3.58-9.6L626.86,6599.36z"/>
			<path class="st21" d="M657.11,6599.38l-2.27-3.16l-4.35-0.93l0.6,17.26l2.23,2.08l-9.71,0.34l2.08-2.23l-0.61-17.26l-4.28,1.23
				l-2.04,3.31l-1.08,0.04l0.81-7.59l4.35,0.93l9.71-0.34l4.28-1.23l1.34,7.52L657.11,6599.38z"/>
			<path class="st21" d="M668.43,6614.11l-4.39-2.01l-3.35-3.12l-1.27-5.36l0.89-5.43l3.12-3.35l4.24-2.31l5.4-0.19l4.39,2.01
				l3.35,3.12l1.27,5.36l-0.89,5.43l-3.12,3.35l-4.24,2.31L668.43,6614.11z M671.59,6611.84l2.12-1.16l2.04-3.31l-0.3-8.63
				l-2.27-3.16l-2.2-1l-1.08,0.04l-2.12,1.15l-2.04,3.31l0.3,8.63l2.27,3.16l2.2,1L671.59,6611.84z"/>
			<path class="st21" d="M694.32,6613.2l-9.71,0.34l2.08-2.23l-0.61-17.26l-2.23-2.08l9.71-0.34l-2.08,2.23l0.6,17.27L694.32,6613.2
				z"/>
			<path class="st21" d="M708.67,6591.09l3.28,0.97l3.39,4.2l-1.97,5.47l-4.28,1.23l0.04,1.08l3.28,0.97l4.58,7.4l-1.04,1.12
				l-5.47-1.97l-3.46-6.36l-1.12-1.04l-2.2-1l0.26,7.55l2.23,2.08l-9.71,0.34l2.08-2.23l-0.6-17.27l-2.23-2.08L708.67,6591.09z
				 M709.97,6597.53l-1.19-3.2l-2.2-1l-2.16,0.08l-1.04,1.12l0.26,7.55l3.24-0.11l2.12-1.16L709.97,6597.53z"/>
			<path class="st21" d="M735.36,6612.84l-2.2-1l-15.11,0.53l2.08-2.23l-0.6-17.26l-2.23-2.08l11.87-0.42l4.28-1.23l1.34,7.51
				l-1.08,0.04l-3.39-4.2l-4.32,0.15l-1.04,1.12l0.19,5.4l1.12,1.04l3.24-0.11l3.12-3.35l0.3,8.63l-3.35-3.12l-3.24,0.11l-1.04,1.12
				l0.19,5.39l1.12,1.04l5.4-0.19l3.05-5.51l1.08-0.04L735.36,6612.84z"/>
		</g>
		<g class="st20">
			<path class="st21" d="M444.91,6589.74l-5.4,0.19l-4.39-2.01l-3.35-3.12l-1.27-5.36l0.89-5.43l3.12-3.35l4.24-2.31l5.4-0.19
				l4.39,2.01l2.27,3.16l-2.04,3.31l-3.24,0.11l-0.19-5.39l-2.2-1l-2.16,0.08l-2.12,1.16l-2.04,3.31l0.3,8.63l2.27,3.16l2.2,1
				l2.16-0.08l3.2-1.19l2.04-3.31l2.2,1l-2.04,3.31L444.91,6589.74z"/>
			<path class="st21" d="M464.65,6567.44l3.27,0.97l3.39,4.2l-1.97,5.47l-4.28,1.23l0.04,1.08l3.28,0.97l4.58,7.4l-1.04,1.12
				l-5.47-1.97l-3.46-6.36l-1.12-1.04l-2.2-1l0.26,7.55l2.23,2.08l-9.71,0.34l2.08-2.23l-0.6-17.27l-2.23-2.08L464.65,6567.44z
				 M465.96,6573.88l-1.19-3.2l-2.2-1l-2.16,0.08l-1.04,1.12l0.26,7.55l3.24-0.11l2.12-1.15L465.96,6573.88z"/>
			<path class="st21" d="M491.34,6589.2l-2.2-1l-15.11,0.53l2.08-2.23l-0.6-17.27l-2.23-2.08l11.87-0.42l4.28-1.23l1.34,7.52
				l-1.08,0.04l-3.39-4.2l-4.32,0.15l-1.04,1.12l0.19,5.39l1.12,1.04l3.24-0.11l3.12-3.35l0.3,8.63l-3.35-3.12l-3.24,0.11
				l-1.04,1.12l0.19,5.39l1.12,1.04l5.4-0.19l3.05-5.51l1.08-0.04L491.34,6589.2z M482.73,6559.25l1.08-0.04l2.23,2.08l0.04,1.08
				l-6.4,2.38l-1.08,0.04L482.73,6559.25z"/>
			<path class="st21" d="M511.84,6588.48l-2.2-1l-15.11,0.53l2.08-2.23l-0.61-17.27l-2.23-2.08l11.87-0.42l4.28-1.23l1.34,7.51
				l-1.08,0.04l-3.39-4.2l-4.32,0.15l-1.04,1.12l0.19,5.39l1.12,1.04l3.24-0.11l3.12-3.35l0.3,8.63l-3.35-3.12l-3.24,0.11
				l-1.04,1.12l0.19,5.4l1.12,1.04l5.4-0.19l3.05-5.51l1.08-0.04L511.84,6588.48z"/>
			<path class="st21" d="M527.23,6565.25l3.28,0.97l3.39,4.2l-1.97,5.47l-4.28,1.23l0.04,1.08l3.28,0.96l4.58,7.4l-1.04,1.12
				l-5.47-1.97l-3.46-6.36l-1.12-1.04l-2.2-1l0.26,7.55l2.23,2.08l-9.71,0.34l2.08-2.23l-0.6-17.26l-2.23-2.08L527.23,6565.25z
				 M528.54,6571.69l-1.19-3.2l-2.2-1l-2.16,0.08l-1.04,1.12l0.26,7.55l3.24-0.11l2.12-1.16L528.54,6571.69z"/>
		</g>
	</g>
</g>
</svg>
