<?xml version="1.0" encoding="utf-8"?>
<!-- Generator: Adobe Illustrator 23.1.1, SVG Export Plug-In . SVG Version: 6.00 Build 0)  -->
<svg version="1.1" id="Calque_1" xmlns="http://www.w3.org/2000/svg" xmlns:xlink="http://www.w3.org/1999/xlink" x="0px" y="0px"
	 viewBox="0 0 336.36 100.83" style="enable-background:new 0 0 336.36 100.83;" xml:space="preserve">
<style type="text/css">
	.st0{fill:#FFFFFF;}
	.st1{fill:#5AA86F;}
	.st2{fill:#485175;}
	.st3{fill:#F7E8D3;}
	.st4{fill:#F1573F;}
	.st5{fill:#2D302F;}
	.st6{fill:#FFFFFF;stroke:#000000;stroke-miterlimit:10;}
	.st7{fill:#E7F4EC;}
	.st8{fill:#547146;}
	.st9{fill:#BCCBBC;}
	.st10{fill:#EAE9DC;}
	.st11{fill:#275E39;}
	.st12{fill:#050008;}
	.st13{clip-path:url(#SVGID_2_);}
	.st14{stroke:#000000;stroke-width:1.7036;stroke-miterlimit:10;}
	.st15{fill:#F9F8F4;}
	.st16{fill:#148B20;stroke:#1C881F;stroke-miterlimit:10;}
	.st17{fill:#148B20;stroke:#148B20;stroke-miterlimit:10;}
	.st18{stroke:#000000;stroke-miterlimit:10;}
	.st19{fill:#148B20;}
	.st20{enable-background:new    ;}
	.st21{fill:#F8F7F3;}
	.st22{fill:#1C8B20;stroke:#1C8B20;}
	.st23{fill:#048D14;}
	.st24{fill:none;stroke:#000000;stroke-width:5;stroke-linecap:round;stroke-linejoin:round;}
	.st25{stroke:#000000;stroke-width:4.669952e-03;stroke-miterlimit:10;}
	.st26{stroke:#000000;stroke-width:0.096;stroke-miterlimit:10;}
	.st27{stroke:#000000;stroke-width:0.0566;stroke-miterlimit:10;}
	.st28{stroke:#000000;stroke-width:0.0902;stroke-miterlimit:10;}
	.st29{stroke:#000000;stroke-width:0.0884;stroke-miterlimit:10;}
	.st30{stroke:#000000;stroke-width:0.167;stroke-miterlimit:10;}
	.st31{stroke:#000000;stroke-width:0.0762;stroke-miterlimit:10;}
	.st32{stroke:#000000;stroke-width:0.0219;stroke-miterlimit:10;}
	.st33{stroke:#000000;stroke-width:0.0543;stroke-miterlimit:10;}
	.st34{stroke:#000000;stroke-width:0.0601;stroke-miterlimit:10;}
	.st35{stroke:#000000;stroke-width:0.0782;stroke-miterlimit:10;}
	.st36{stroke:#000000;stroke-width:0.3088;stroke-miterlimit:10;}
	.st37{stroke:#000000;stroke-width:0.1976;stroke-miterlimit:10;}
	.st38{stroke:#000000;stroke-width:0.2875;stroke-miterlimit:10;}
	.st39{stroke:#000000;stroke-width:0.059;stroke-miterlimit:10;}
	.st40{stroke:#000000;stroke-width:0.2493;stroke-miterlimit:10;}
	.st41{stroke:#000000;stroke-width:0.5508;stroke-miterlimit:10;}
	.st42{stroke:#000000;stroke-width:0.676;stroke-miterlimit:10;}
	.st43{stroke:#000000;stroke-width:0.4515;stroke-miterlimit:10;}
	.st44{stroke:#000000;stroke-width:1.704;stroke-miterlimit:10;}
</style>
<g>
	<g class="st20">
		<path class="st19" d="M133.32,67.59l2.16,2.16h-9.72l2.16-2.16V50.31l-2.16-2.16h12.96l3.24,1.08l3.24,4.32l-2.16,5.4l-5.4,2.16
			l-4.32-1.08V67.59z M133.32,51.39v7.56h3.24l2.16-1.08l1.08-3.24l-1.08-3.24l-2.16-1.08h-2.16L133.32,51.39z"/>
		<path class="st19" d="M159.24,48.15l3.24,1.08l3.24,4.32l-2.16,5.4l-4.32,1.08v1.08l3.24,1.08l4.32,7.56l-1.08,1.08l-5.4-2.16
			l-3.24-6.48L156,61.11l-2.16-1.08v7.56l2.16,2.16h-9.72l2.16-2.16V50.31l-2.16-2.16H159.24z M160.32,54.63l-1.08-3.24l-2.16-1.08
			h-2.16l-1.08,1.08v7.56h3.24l2.16-1.08L160.32,54.63z"/>
		<path class="st19" d="M176.52,69.75l-4.32-2.16l-3.24-3.24l-1.08-5.4l1.08-5.4l3.24-3.24l4.32-2.16h5.4l4.32,2.16l3.24,3.24
			l1.08,5.4l-1.08,5.4l-3.24,3.24l-4.32,2.16H176.52z M179.76,67.59l2.16-1.08l2.16-3.24v-8.64l-2.16-3.24l-2.16-1.08h-1.08
			l-2.16,1.08l-2.16,3.24v8.64l2.16,3.24l2.16,1.08H179.76z"/>
		<path class="st19" d="M201.36,66.51l2.16,1.08h2.16l2.16-1.08v-4.32l-2.16-2.16h9.72l-2.16,2.16v2.16l-2.16,3.24l-4.32,2.16h-5.4
			l-4.32-2.16l-3.24-3.24l-1.08-5.4l1.08-5.4l3.24-3.24l4.32-2.16h5.4l4.32,2.16l2.16,3.24l-2.16,3.24h-3.24v-5.4l-2.16-1.08h-2.16
			l-2.16,1.08l-2.16,3.24v8.64L201.36,66.51z"/>
		<path class="st19" d="M229.44,48.15l3.24,1.08l3.24,4.32l-2.16,5.4l-4.32,1.08v1.08l3.24,1.08l4.32,7.56l-1.08,1.08l-5.4-2.16
			l-3.24-6.48l-1.08-1.08l-2.16-1.08v7.56l2.16,2.16h-9.72l2.16-2.16V50.31l-2.16-2.16H229.44z M230.52,54.63l-1.08-3.24l-2.16-1.08
			h-2.16l-1.08,1.08v7.56h3.24l2.16-1.08L230.52,54.63z"/>
		<path class="st19" d="M237,69.75l2.16-2.16l7.56-17.28v-1.08l4.32-2.16l7.56,20.51l2.16,2.16h-9.72l2.16-2.16l-1.08-3.24h-8.64
			l-1.08,3.24l2.16,2.16H237z M247.8,53.55l-3.24,8.64h6.48l-3.24-9.72V53.55z"/>
		<path class="st19" d="M275.88,69.75l-3.24,1.08l-6.48-18.36l1.08,15.12l2.16,2.16h-7.56l2.16-2.16V50.31l-2.16-2.16h8.64
			l5.4,15.12v1.08l5.4-16.2h7.56l-2.16,2.16v17.28l2.16,2.16h-9.72l2.16-2.16V53.55L275.88,69.75z"/>
		<path class="st19" d="M303.96,69.75l-3.24,1.08l-6.48-18.36l1.08,15.12l2.16,2.16h-7.56l2.16-2.16V50.31l-2.16-2.16h8.64
			l5.4,15.12v1.08l5.4-16.2h7.56l-2.16,2.16v17.28l2.16,2.16h-9.72l2.16-2.16V53.55L303.96,69.75z"/>
		<path class="st19" d="M335.28,70.83l-2.16-1.08H318l2.16-2.16V50.31L318,48.15h11.88l4.32-1.08l1.08,7.56h-1.08l-3.24-4.32h-4.32
			l-1.08,1.08v5.4l1.08,1.08h3.24l3.24-3.24v8.64l-3.24-3.24h-3.24l-1.08,1.08v5.4l1.08,1.08h5.4l3.24-5.4h1.08L335.28,70.83z"/>
	</g>
	<g class="st20">
		<path class="st19" d="M139.8,99.75l-3.24,1.08l-6.48-18.36l1.08,15.12l2.16,2.16h-7.56l2.16-2.16V80.31l-2.16-2.16h8.64l5.4,15.12
			v1.08l5.4-16.2h7.56l-2.16,2.16v17.28l2.16,2.16h-9.72l2.16-2.16V83.55L139.8,99.75z"/>
		<path class="st19" d="M152.76,99.75l2.16-2.16l7.56-17.28v-1.08l4.32-2.16l7.56,20.51l2.16,2.16h-9.72l2.16-2.16l-1.08-3.24h-8.64
			l-1.08,3.24l2.16,2.16H152.76z M163.56,83.55l-3.24,8.64h6.48l-3.24-9.72V83.55z"/>
		<path class="st19" d="M191.64,99.75l-9.72-16.2L183,97.59l2.16,2.16h-7.56l2.16-2.16V80.31l-2.16-2.16h7.56l9.72,16.2l-1.08-14.04
			l-2.16-2.16h7.56l-2.16,2.16v19.43H191.64z"/>
		<path class="st19" d="M200.28,99.75l2.16-2.16L210,80.31v-1.08l4.32-2.16l7.56,20.51l2.16,2.16h-9.72l2.16-2.16l-1.08-3.24h-8.64
			l-1.08,3.24l2.16,2.16H200.28z M211.08,83.55l-3.24,8.64h6.48l-3.24-9.72V83.55z"/>
		<path class="st19" d="M232.68,96.51l2.16,1.08H237l2.16-1.08v-4.32L237,90.03h9.72l-2.16,2.16v2.16l-2.16,3.24l-4.32,2.16h-5.4
			l-4.32-2.16l-3.24-3.24l-1.08-5.4l1.08-5.4l3.24-3.24l4.32-2.16h5.4l4.32,2.16l2.16,3.24l-2.16,3.24h-3.24v-5.4L237,80.31h-2.16
			l-2.16,1.08l-2.16,3.24v8.64L232.68,96.51z"/>
		<path class="st19" d="M265.08,100.83l-2.16-1.08H247.8l2.16-2.16V80.31l-2.16-2.16h11.88l4.32-1.08l1.08,7.56H264l-3.24-4.32
			h-4.32l-1.08,1.08v5.4l1.08,1.08h3.24l3.24-3.24v8.64l-3.24-3.24h-3.24l-1.08,1.08v5.4l1.08,1.08h5.4l3.24-5.4h1.08L265.08,100.83
			z"/>
		<path class="st19" d="M281.28,78.15l3.24,1.08l3.24,4.32l-2.16,5.4l-4.32,1.08v1.08l3.24,1.08l4.32,7.56l-1.08,1.08l-5.4-2.16
			l-3.24-6.48l-1.08-1.08l-2.16-1.08v7.56l2.16,2.16h-9.72l2.16-2.16V80.31l-2.16-2.16H281.28z M282.36,84.63l-1.08-3.24l-2.16-1.08
			h-2.16l-1.08,1.08v7.56h3.24l2.16-1.08L282.36,84.63z"/>
		<path class="st19" d="M302.88,84.63l-4.32-5.4h-2.16l-1.08,1.08v2.16l8.64,6.48l1.08,5.4l-2.16,4.32l-3.24,1.08h-2.16l-4.32-1.08
			L291,99.75l-1.08-8.64H291l4.32,6.48h4.32l1.08-1.08v-2.16L291,86.79l-1.08-3.24l1.08-4.32l3.24-2.16l6.48,1.08l2.16-1.08
			l1.08,7.56H302.88z"/>
	</g>
	<g id="Groupe_149" transform="matrix(0.998, -0.07, 0.07, 0.998, -866.707, -6693.459)">
		<path id="Tracé_181" class="st19" d="M394.51,6756.9l3.68,29.68l246.7,2.47l3.36-36.71L394.51,6756.9z"/>
		<g class="st20">
			<path class="st21" d="M414.1,6760.48l3.24,1.08l3.24,4.32l-2.16,5.4l-4.32,1.08l0,1.08l3.24,1.08l4.32,7.56l-1.08,1.08l-5.4-2.16
				l-3.24-6.48l-1.08-1.08l-2.16-1.08l0,7.56l2.16,2.16h-9.72l2.16-2.16l0-17.28l-2.16-2.16H414.1z M415.18,6766.95l-1.08-3.24
				l-2.16-1.08l-2.16,0l-1.08,1.08l0,7.56h3.24l2.16-1.08L415.18,6766.95z"/>
			<path class="st21" d="M440.02,6783.15l-2.16-1.08l-15.12,0l2.16-2.16l0-17.28l-2.16-2.16l11.88,0l4.32-1.08l1.08,7.56l-1.08,0
				l-3.24-4.32l-4.32,0l-1.08,1.08l0,5.4l1.08,1.08h3.24l3.24-3.24l0,8.64l-3.24-3.24l-3.24,0l-1.08,1.08l0,5.4l1.08,1.08l5.4,0
				l3.24-5.4l1.08,0L440.02,6783.15z"/>
			<path class="st21" d="M457.3,6782.07l-5.4,0l-4.32-2.16l-3.24-3.24l-1.08-5.4l1.08-5.4l3.24-3.24l4.32-2.16l5.4,0l4.32,2.16
				l2.16,3.24l-2.16,3.24h-3.24l0-5.4l-2.16-1.08l-2.16,0l-2.16,1.08l-2.16,3.24l0,8.64l2.16,3.24l2.16,1.08l2.16,0l3.24-1.08
				l2.16-3.24l2.16,1.08l-2.16,3.24L457.3,6782.07z"/>
			<path class="st21" d="M477.82,6760.48l3.24,1.08l3.24,4.32l-2.16,5.4l-4.32,1.08l0,1.08l3.24,1.08l4.32,7.56l-1.08,1.08
				l-5.4-2.16l-3.24-6.48l-1.08-1.08l-2.16-1.08l0,7.56l2.16,2.16h-9.72l2.16-2.16l0-17.28l-2.16-2.16L477.82,6760.48z
				 M478.9,6766.95l-1.08-3.24l-2.16-1.08l-2.16,0l-1.08,1.08l0,7.56h3.24l2.16-1.08L478.9,6766.95z"/>
			<path class="st21" d="M504.82,6778.83l-2.16,2.16l-3.24,1.08h-4.32l-4.32-1.08l-2.16-2.16l-1.08-3.24l0-12.96l-2.16-2.16l9.72,0
				l-2.16,2.16l0,11.88l1.08,3.24l1.08,1.08l2.16,1.08l2.16,0l2.16-1.08l1.08-2.16l0-14.04l-2.16-2.16h7.56l-2.16,2.16l0,12.96
				L504.82,6778.83z"/>
			<path class="st21" d="M528.04,6766.95l-2.16-3.24l-4.32-1.08l0,17.28l2.16,2.16l-9.72,0l2.16-2.16l0-17.28l-4.32,1.08l-2.16,3.24
				l-1.08,0l1.08-7.56l4.32,1.08l9.72,0l4.32-1.08l1.08,7.56L528.04,6766.95z"/>
			<path class="st21" d="M547.48,6783.15l-2.16-1.08H530.2l2.16-2.16l0-17.28l-2.16-2.16l11.88,0l4.32-1.08l1.08,7.56h-1.08
				l-3.24-4.32h-4.32l-1.08,1.08l0,5.4l1.08,1.08l3.24,0l3.24-3.24l0,8.64l-3.24-3.24h-3.24l-1.08,1.08l0,5.4l1.08,1.08l5.4,0
				l3.24-5.4l1.08,0L547.48,6783.15z"/>
			<path class="st21" d="M563.68,6760.48l3.24,1.08l3.24,4.32l-2.16,5.4l-4.32,1.08l0,1.08l3.24,1.08l4.32,7.56l-1.08,1.08
				l-5.4-2.16l-3.24-6.48l-1.08-1.08l-2.16-1.08l0,7.56l2.16,2.16l-9.72,0l2.16-2.16l0-17.28l-2.16-2.16L563.68,6760.48z
				 M564.76,6766.96l-1.08-3.24l-2.16-1.08l-2.16,0l-1.08,1.08l0,7.56h3.24l2.16-1.08L564.76,6766.96z"/>
			<path class="st21" d="M593.92,6760.48l5.4,1.08l4.32,4.32l1.08,5.4l-1.08,5.4l-4.32,4.32l-4.32,1.08l-12.96,0l2.16-2.16l0-17.28
				l-2.16-2.16H593.92z M597.16,6764.8l-1.08-1.08l-2.16-1.08h-3.24l-1.08,1.08l0,15.12l1.08,1.08h3.24l2.16-1.08l1.08-1.08
				l1.08-2.16l0-8.64L597.16,6764.8z"/>
			<path class="st21" d="M624.16,6783.15l-2.16-1.08h-15.12l2.16-2.16l0-17.28l-2.16-2.16l11.88,0l4.32-1.08l1.08,7.56l-1.08,0
				l-3.24-4.32l-4.32,0l-1.08,1.08l0,5.4l1.08,1.08l3.24,0l3.24-3.24l0,8.64l-3.24-3.24h-3.24l-1.08,1.08l0,5.4l1.08,1.08l5.4,0
				l3.24-5.4l1.08,0L624.16,6783.15z"/>
			<path class="st21" d="M640.36,6766.96l-4.32-5.4l-2.16,0l-1.08,1.08l0,2.16l8.64,6.48l1.08,5.4l-2.16,4.32l-3.24,1.08l-2.16,0
				l-4.32-1.08l-2.16,1.08l-1.08-8.64l1.08,0l4.32,6.48l4.32,0l1.08-1.08l0-2.16l-9.72-7.56l-1.08-3.24l1.08-4.32l3.24-2.16
				l6.48,1.08l2.16-1.08l1.08,7.56L640.36,6766.96z"/>
		</g>
	</g>
</g>
</svg>
