<?xml version="1.0" encoding="utf-8"?>
<!-- Generator: Adobe Illustrator 23.1.1, SVG Export Plug-In . SVG Version: 6.00 Build 0)  -->
<svg version="1.1" id="Calque_1" xmlns="http://www.w3.org/2000/svg" xmlns:xlink="http://www.w3.org/1999/xlink" x="0px" y="0px"
	 viewBox="0 0 1642.21 211.63" style="enable-background:new 0 0 1642.21 211.63;" xml:space="preserve">
<style type="text/css">
	.st0{fill:#048D14;}
	.st1{fill:#048D14;stroke:#048D14;stroke-width:2;}
	.st2{fill:#FFFFFF;}
	.st3{fill:#F9F8F4;}
	.st4{font-family:'Lunchtype-ExpandedRegular';}
	.st5{font-size:25px;}
	.st6{font-size:22px;}
</style>
<g>
	<path id="Tracé_141" class="st1" d="M1.21,1l39.06,206.03l1600.94,3.6V1H1.21z"/>
	<g id="Groupe_134" transform="translate(65.982 53.727)">
		<g id="Groupe_130" transform="translate(0 9.342)">
			<path id="Tracé_151" class="st2" d="M151.14,0H0.46L0,63.95l155.39-4.71L151.14,0z M36.19,50.67h-9.38V33.61
				c0-1.53,0-6.55-5.03-6.55c-5.25,0-5.25,4.69-5.25,6.21v17.39H7.16V8.88h9.37v13.33h0.11c1.58-2.83,4.75-3.96,8.08-3.96
				c2.99,0,6.56,1.07,8.53,3.44c2.65,3.11,2.93,5.88,2.93,11.47L36.19,50.67z M75.8,50.67h-9.38v-3.39h-0.11
				c-1.58,3.05-5.48,4.46-9.15,4.46c-9.94,0-15.76-7.79-15.76-16.77c0-10.28,7.4-16.72,15.76-16.72c5.14,0,8.02,2.49,9.15,4.4h0.11
				v-3.33h9.38L75.8,50.67z M97.9,51.68c-9.16,0.1-16.67-7.25-16.77-16.41c0-0.12,0-0.24,0-0.36c-0.12-9.08,7.15-16.54,16.23-16.66
				c0.1,0,0.21,0,0.31,0c7.98-0.18,14.96,5.35,16.61,13.16h-9.49c-1.1-2.75-3.82-4.51-6.78-4.4c-4.46-0.23-7.45,3.45-7.45,7.96
				c0,4.57,2.99,7.96,7.45,7.96c2.89,0.1,5.57-1.55,6.78-4.18h9.55C112.56,46.38,105.73,51.75,97.9,51.68z M147.95,50.66h-10.62
				l-8.87-15.08h-0.11v15.08h-9.38V8.87h9.38v21.8h0.11l8.7-11.35h11.13L136.49,33.1L147.95,50.66z"/>
			<path id="Tracé_152" class="st2" d="M58.52,27.01c-5.37,0-7.74,4.52-7.74,8.08c0,2.94,2.15,7.91,7.79,7.91
				c5.88,0,7.85-4.97,7.85-8.02c0.14-4.25-3.19-7.82-7.44-7.96C58.82,27,58.67,27,58.52,27.01z"/>
		</g>
		<path id="Tracé_153" class="st2" d="M165.94,11.86c0,5.59-3.78,6.83-5.76,6.83h-4.07v-5.02h2.03c1.18,0.15,2.26-0.67,2.41-1.85
			c0.01-0.1,0.02-0.2,0.02-0.3V9.6h-4.46V0h9.83V11.86z"/>
		<path id="Tracé_154" class="st2" d="M181.58,28.67h4.52v7.11h-4.52v24.23h-9.38V35.78h-4.63v-7.11h4.63V18.21h9.38V28.67z"/>
		<path id="Tracé_155" class="st2" d="M219.2,60.01h-8.87v-3.33h-0.11c-1.92,4.01-5.76,4.35-8.13,4.35c-1.92,0-6.44-0.45-9.21-3.95
			c-2.48-3.11-2.82-5.37-2.82-9.66V28.67h9.37v17.34c0,2.15,0,6.27,5.03,6.27c2.71,0,5.37-1.41,5.37-6.38V28.67h9.37V60.01z"/>
		<g id="Groupe_131" transform="translate(224.535 11.866)">
			<path id="Tracé_156" class="st2" d="M34.39,47.89h-9.38V44.5H24.9c-1.58,3.05-5.48,4.46-9.15,4.46C5.81,48.96,0,41.17,0,32.19
				c0-10.28,7.4-16.72,15.76-16.72c5.14,0,8.02,2.49,9.15,4.4h0.11v-3.33h9.38L34.39,47.89z M17.17,40.21
				c5.87,0,7.85-4.97,7.85-8.02c0.14-4.25-3.19-7.82-7.45-7.96c-0.15-0.01-0.3-0.01-0.46,0c-5.37,0-7.74,4.52-7.74,8.08
				C9.37,35.23,11.52,40.21,17.17,40.21L17.17,40.21z"/>
			<path id="Tracé_157" class="st2" d="M41.24,6.1h9.38v41.79h-9.38V6.1z"/>
			<path id="Tracé_158" class="st2" d="M66.78,13.21H57.4V6.1h9.38V13.21z M66.78,47.89H57.4V16.55h9.38V47.89z"/>
			<path id="Tracé_159" class="st2" d="M84.81,16.55h4.52v7.11h-4.52v24.23h-9.38V23.66H70.8v-7.11h4.63V6.1h9.38V16.55z"/>
			<path id="Tracé_160" class="st2" d="M123.62,38.06c-1.32,3.22-3.54,6.01-6.38,8.02c-2.6,1.85-5.73,2.84-8.92,2.83
				c-9.16-0.02-16.58-7.44-16.6-16.6c0-8.75,6.89-16.83,16.43-16.83s16.54,7.57,16.54,17.11c0.01,0.83-0.07,1.66-0.23,2.48h-23.5
				c0.57,3.73,3.67,5.93,7.35,5.93c2.28,0.06,4.43-1.05,5.7-2.94L123.62,38.06z M115.32,28.74c-0.75-3.28-3.76-5.54-7.11-5.36
				c-3.36-0.18-6.37,2.08-7.12,5.36H115.32z M117.69,6.66l-13.9,6.15l-2.65-5.53L114.69,0L117.69,6.66z"/>
		</g>
	</g>
	<text transform="matrix(1 0 0 1 1105.2065 82.8519)" class="st3 st4 st5">partager</text>
	<g id="Groupe_135" transform="translate(1276.451 53.727)">
		<path id="Tracé_142" class="st2" d="M19.19,103.81c-0.96,0.03-1.93-0.05-2.87-0.24c-2.39-0.76-4.46-0.13-6.59,0.92
			c-1.99,0.98-3.04,0.35-2.96-1.85c0.05-1.99-0.71-3.91-2.12-5.31c-6.76-7.67-6.03-19.37,1.64-26.13c2.24-1.97,4.92-3.38,7.82-4.09
			c12.95-3.45,25.08,5.85,24.59,18.86C38.29,96.19,29.87,103.9,19.19,103.81z M22.77,91.51c0.93-0.51,1.78-1.16,2.53-1.92
			c1.84-2.68,3.54-5.45,5.22-8.23c0.25-0.41,0.12-1.04,0.16-1.57c-0.54-0.01-1.07,0.09-1.57,0.29c-1.69,1.18-3.25,2.58-5,3.66
			c-0.78,0.38-1.7,0.38-2.49,0.02c-1.42-0.77-2.61-1.93-3.96-2.82c-1.13-0.96-2.83-0.83-3.79,0.3c-0.11,0.12-0.2,0.26-0.28,0.4
			c-1.9,2.82-3.68,5.71-5.45,8.62c-0.21,0.34-0.03,0.93-0.03,1.4c0.46-0.05,1.02,0.05,1.36-0.18c1.23-0.82,2.38-1.75,3.55-2.65
			c2.89-2.21,2.88-2.2,5.78-0.05C20.03,89.67,21.31,90.5,22.77,91.51L22.77,91.51z"/>
		<path id="Tracé_143" class="st2" d="M147.43,7.06l-1.53,2.36h2.02l0.58,0.4c-4.02,1.8-3.05,5.48-3.85,8.48
			c-2.54,10.5-13.12,16.95-23.62,14.41c-1.05-0.25-2.07-0.59-3.07-1.02c-0.72-0.29-1.4-0.69-2.05-1.02l8.56-2.61l-6.36-4.92
			l2.36-1.06c-2.33-1.52-4.15-3.25-4.18-6.36l2.2,0.24c-2.02-2.77-3.06-5.48-1.32-8.93c3.8,4.11,8.27,6.69,13.98,7.11
			c0.1-0.89,0.18-1.67,0.29-2.44c0.61-4.44,5.15-7.35,9.2-5.51c2.24,1.02,4.18,2.03,6.57,0.25L147.43,7.06z"/>
		<path id="Tracé_144" class="st2" d="M250.1,72.79c3.4,0,6.81-0.03,10.21,0.01c4.23,0.04,5.96,1.74,6,5.92
			c0.04,4.88,0.03,9.77-0.02,14.65c-0.03,3.01-1.68,5.09-4.66,5.15c-7.62,0.15-15.24,0.15-22.86-0.02c-2.89-0.07-4.5-2.11-4.53-5.03
			c-0.04-5.1-0.06-10.21,0-15.32c0.04-3.41,1.78-5.22,5.2-5.32c3.55-0.1,7.1-0.02,10.66-0.02L250.1,72.79z M263.1,82.51
			c-0.95,0.56-1.57,0.88-2.16,1.27c-2.59,1.71-5.17,3.44-7.76,5.16c-1.72,1.29-4.08,1.3-5.8,0.02c-1.54-1.03-3.08-2.05-4.62-3.07
			c-1.63-1.08-3.26-2.16-5.28-3.5c0,4.09-0.03,7.61,0.01,11.14c0.01,1.3,0.85,1.75,2.07,1.75c7.18-0.01,14.35-0.01,21.53,0
			c1.28,0,1.98-0.6,2-1.84C263.12,89.93,263.1,86.41,263.1,82.51L263.1,82.51z M250.31,76.12c-3.55,0-7.09-0.06-10.64,0.05
			c-0.71,0.02-1.4,0.74-2.1,1.15c0.38,0.63,0.6,1.48,1.15,1.86c3.27,2.29,6.65,4.42,9.91,6.7c1,0.82,2.45,0.78,3.39-0.1
			c3.16-2.19,6.4-4.25,9.55-6.45c0.57-0.57,1.05-1.22,1.41-1.94c-0.83-0.43-1.64-1.19-2.48-1.22
			C257.12,76.03,253.71,76.12,250.31,76.12L250.31,76.12z"/>
		<path id="Tracé_145" class="st2" d="M228,38.69c0.31-1.21,0.46-2,0.72-2.76c1.38-3.84,1.45-8.02,0.2-11.9
			c-3.81-12.4,6.93-25.22,19.8-23.9c7.71,0.79,13.48,4.94,16.24,12.36c2.74,7.37,1.39,14.25-4.06,19.94
			c-5.52,5.78-12.4,7.35-19.93,4.78c-2.11-0.82-4.43-0.9-6.59-0.22C232.42,37.61,230.41,38.05,228,38.69z M232.58,33.58l0.61,0.3
			c1.03-0.34,2.1-0.57,3.18-0.71c1.34-0.16,2.69-0.03,3.97,0.4c7.9,3.76,17.35,0.4,21.1-7.5c2.65-5.58,1.82-12.18-2.13-16.93
			c-4.78-5.75-12.95-7.34-19.54-3.81c-6.67,3.43-9.9,11.17-7.64,18.32C233.24,26.99,234.68,30.06,232.58,33.58L232.58,33.58z"/>
		<path id="Tracé_146" class="st2" d="M19.5,13.31h5.94c0.12,0.39,0.22,0.53,0.2,0.66c-0.26,1.75,0.03,4.03-0.97,5.09
			c-0.92,0.98-3.23,0.66-5.16,0.95v15.78h-6.58v-16.1c-1.48,0-2.7-0.06-3.92,0.02c-1.27,0.08-1.71-0.47-1.65-1.69
			c0.06-1.46,0.02-2.94,0.02-4.76c1.35,0,2.5-0.06,3.65,0.02c1.32,0.09,1.92-0.37,1.81-1.76c-0.07-1.11-0.06-2.22,0.02-3.33
			c0.28-5.11,3.47-8.14,8.59-8.17c0.22,0,0.44,0,0.67,0c3.79,0.04,4.82,1.4,3.77,5.17c-0.24,0.47-0.68,0.82-1.2,0.94
			c-0.73,0.1-1.47,0.12-2.21,0.06c-2,0.01-3,1-2.98,3.02C19.51,10.43,19.5,11.68,19.5,13.31z"/>
		<path id="Tracé_147" class="st2" d="M137.21,82.16c2.21-2.69,5.94-3.58,9.13-2.17c3.41,1.26,4.74,4.15,4.88,7.55
			c0.16,4,0.06,8,0.13,12c0.02,1.29-0.55,1.67-1.74,1.64c-6.68-0.13-5.25,0.91-5.4-5.07c-0.06-2.3,0.05-4.6-0.04-6.89
			c-0.11-2.79-1.4-4.21-3.59-4.16c-2.23,0.06-3.66,1.71-3.68,4.4c-0.03,3.77-0.01,7.53-0.01,11.5h-6.93V79.99h6.68L137.21,82.16z"/>
		<path id="Tracé_148" class="st2" d="M125.69,101.03h-6.8V80.04h6.8V101.03z"/>
		<path id="Tracé_149" class="st2" d="M122.39,69.62c2.04-0.13,3.79,1.43,3.92,3.47c0.13,2.04-1.43,3.79-3.47,3.92
			c-0.2,0.01-0.41,0.01-0.61-0.01c-2.04,0.13-3.79-1.43-3.92-3.47c-0.13-2.04,1.43-3.79,3.47-3.92
			C121.98,69.6,122.18,69.6,122.39,69.62z"/>
		<path id="Tracé_150" class="st2" d="M251.05,28.43c-1.76-0.61-3.47-1.33-5.13-2.17c-3.2-1.89-5.81-4.65-7.52-7.96
			c-1.35-2.13-1.2-4.89,0.39-6.85c1.42-1.6,3.13-1.37,3.96,0.6c0.72,1.7,2.05,3.4,0.16,5.26c-0.26,0.26-0.1,1.35,0.23,1.73
			c1.13,1.35,2.38,2.59,3.73,3.72c1.49,1.21,3.03,1.8,4.43-0.38c0.27-0.41,1.78-0.43,2.44-0.09c1.28,0.65,3.5,0.62,2.95,3.09
			C256.31,27.16,254.39,28.46,251.05,28.43z"/>
	</g>
	<text transform="matrix(1 0 0 1 553.2065 82.8519)" class="st3 st4 st6">081/23 93 02</text>
	<text transform="matrix(1 0 0 1 553.2065 113.4359)" class="st3 st4 st6">hacktualite@gmail.be</text>
	<text transform="matrix(1 0 0 1 553.2065 144.02)" class="st3 st4 st6">Rue Bermato 4, 1070 Bruxelles</text>
</g>
</svg>
